# Blender 4.4.0
# www.blender.org
barn.mtl
o barn
v 0.331753 0.160858 0.968276
v 0.331004 -0.473618 0.969899
v 0.333701 -0.478569 -0.965254
v 0.334449 0.155907 -0.966876
v 0.158756 0.435805 -0.999561
v 0.129205 0.449164 -0.999637
v 0.098445 0.459669 -0.999706
v 0.066730 0.467289 -0.999770
v 0.034409 0.471895 -0.999827
v -0.309003 0.283100 0.998795
v 0.001767 0.473456 -0.999876
v -0.030879 0.471972 -0.999918
v -0.302770 0.161686 0.999114
v -0.033664 0.477085 0.998682
v -0.001018 0.478569 0.998724
v -0.063211 0.467441 -0.999952
v -0.320046 0.253800 0.998854
v -0.094944 0.459897 -0.999976
v -0.328012 0.223609 0.998920
v -0.332839 0.192810 0.998992
v -0.334493 0.161723 0.999070
v -0.065996 0.472555 0.998649
v -0.125728 0.449464 -0.999993
v -0.299984 0.156572 -0.999486
v -0.300029 0.156653 -0.967762
v -0.097729 0.465010 0.998624
v -0.155311 0.436175 -1.000000
v -0.331708 0.156610 -0.999530
v -0.128513 0.454577 0.998608
v -0.183342 0.420219 -0.999998
v -0.158096 0.441288 0.998600
v -0.209631 0.401691 -0.999987
v -0.186127 0.425332 0.998602
v -0.233893 0.380814 -0.999968
v -0.212416 0.406805 0.998613
v -0.255873 0.357777 -0.999939
v -0.236678 0.385927 0.998632
v -0.275349 0.332801 -0.999903
v -0.258658 0.362890 0.998661
v -0.292194 0.306109 -0.999858
v -0.278134 0.337914 0.998697
v -0.294979 0.311223 0.998742
v 0.331708 0.160939 1.000000
v -0.300777 -0.477823 -0.966140
v -0.303474 -0.472872 0.969012
v -0.302725 0.161604 0.967390
v 0.334493 0.155826 -0.998600
v 0.330127 0.192031 0.999918
v 0.325373 0.222840 0.999833
v 0.317478 0.253050 0.999745
v 0.306504 0.282376 0.999654
v 0.292547 0.310532 0.999563
v 0.275765 0.337263 0.999471
v 0.256348 0.362284 0.999380
v 0.234422 0.385373 0.999290
v 0.210210 0.406308 0.999203
v -0.078805 -0.478084 -0.965830
v -0.081502 -0.473133 0.969322
v 0.140724 -0.473394 0.969633
v -0.306218 0.277987 -0.999806
v 0.143421 -0.478345 -0.965520
v 0.183964 0.424897 0.999119
v 0.155971 0.440919 0.999039
v -0.081015 -0.060628 0.968268
v 0.126420 0.454278 0.998964
v 0.141211 -0.060890 0.968578
v 0.095660 0.464783 0.998894
v 0.063945 0.472402 0.998830
v -0.330054 0.187697 -0.999608
v 0.031624 0.477008 0.998773
v -0.325227 0.218495 -0.999680
v -0.317261 0.248687 -0.999746
v 0.143907 -0.065840 -0.966574
v -0.078318 -0.065579 -0.966885
v 0.212995 0.401194 -0.999397
v 0.237207 0.380260 -0.999310
v 0.259133 0.357171 -0.999220
v 0.278550 0.332149 -0.999129
v 0.295332 0.305418 -0.999037
v 0.309289 0.277263 -0.998946
v 0.320263 0.247937 -0.998856
v 0.328158 0.217727 -0.998767
v 0.332912 0.186917 -0.998682
v 0.186749 0.419784 -0.999481
vn 0.9119 -0.2731 0.3065
vn 0.5759 -0.5766 0.5796
vn 0.5775 -0.5795 -0.5751
vn 0.9127 -0.2747 -0.3025
vn -0.0018 -0.7053 0.7089
vn -0.6592 0.2891 0.6942
vn -0.6852 0.2203 0.6942
vn -0.7040 0.1492 0.6944
vn -0.7153 0.0766 0.6946
vn -0.5950 -0.5613 0.5753
vn 0.0001 -0.7090 -0.7052
vn -0.3022 -0.9049 -0.2996
vn -0.5934 -0.5642 -0.5740
vn -0.7134 0.0730 -0.6970
vn -0.3030 -0.9034 0.3034
vn 0.5436 0.4697 0.6956
vn 0.5893 0.4097 -0.6963
vn 0.5456 0.4661 -0.6965
vn 0.5921 -0.5627 0.5769
vn 0.4946 0.5211 0.6956
vn 0.4436 0.5631 -0.6972
vn 0.4416 0.5667 0.6956
vn -0.5772 -0.5782 -0.5767
vn -0.5788 -0.5752 0.5780
vn 0.3871 0.6032 -0.6974
vn 0.5937 -0.5656 -0.5724
vn 0.6838 0.2187 0.6962
vn 0.7024 0.1475 0.6964
vn 0.6580 0.2875 0.6960
vn 0.7136 0.0749 0.6966
vn 0.6256 0.3526 0.6960
vn 0.5874 0.4132 0.6959
vn 0.4966 0.5175 -0.6969
vn -0.3031 -0.2988 0.9049
vn 0.2999 -0.2995 0.9057
vn 0.3851 0.6067 0.6954
vn 0.3254 0.6408 0.6954
vn 0.2631 0.6690 0.6952
vn 0.1989 0.6907 0.6953
vn 0.1336 0.7065 0.6950
vn 0.0668 0.7159 0.6950
vn -0.0001 0.7191 0.6949
vn -0.0671 0.7161 0.6948
vn -0.6833 0.2168 -0.6973
vn -0.7020 0.1456 -0.6971
vn -0.6573 0.2855 -0.6974
vn -0.3006 -0.3035 -0.9042
vn 0.3024 -0.3042 -0.9033
vn -0.3856 0.6076 0.6943
vn -0.3239 0.6380 -0.6986
vn -0.3837 0.6041 -0.6985
vn -0.1339 0.7068 0.6947
vn -0.1993 0.6911 0.6947
vn -0.2634 0.6696 0.6944
vn -0.3258 0.6416 0.6944
vn -0.4422 0.5677 0.6943
vn -0.4954 0.5222 0.6942
vn -0.5445 0.4709 0.6941
vn -0.5884 0.4146 0.6942
vn -0.6267 0.3541 0.6942
vn -0.4403 0.5642 -0.6984
vn 0.7155 0.0713 -0.6950
vn 0.6275 0.3490 -0.6960
vn 0.6599 0.2840 -0.6956
vn 0.6857 0.2152 -0.6954
vn 0.7043 0.1440 -0.6951
vn 0.3273 0.6372 -0.6977
vn 0.2650 0.6654 -0.6979
vn 0.2009 0.6871 -0.6982
vn -0.5425 0.4674 -0.6980
vn -0.5864 0.4111 -0.6980
vn 0.1355 0.7029 -0.6983
vn 0.0018 0.7155 -0.6986
vn -0.0652 0.7125 -0.6986
vn 0.0688 0.7124 -0.6984
vn -0.6247 0.3505 -0.6978
vn -0.2615 0.6660 -0.6986
vn -0.1319 0.7032 -0.6987
vn -0.4934 0.5187 -0.6982
vn -0.1973 0.6876 -0.6988
vt 0.327026 0.000349
vt 0.472217 0.000347
vt 0.472217 0.443177
vt 0.327029 0.004137
vt 0.472217 0.446965
vt 0.327028 0.446965
vt 0.175342 0.271462
vt 0.175342 0.220898
vt 0.180554 0.232833
vt 0.172457 0.231058
vt 0.172457 0.192080
vt 0.178028 0.203811
vt 0.024871 0.167928
vt 0.024871 0.140116
vt 0.031565 0.151219
vt 0.015516 0.001975
vt 0.027778 0.015151
vt 0.014830 0.015151
vt 0.005822 0.127033
vt 0.015151 0.117703
vt 0.015151 0.136362
vt 0.851001 0.408171
vt 0.851001 0.851001
vt 0.844093 0.851000
vt 0.791658 0.848476
vt 0.784760 0.848476
vt 0.791656 0.405645
vt 0.843423 0.828274
vt 0.836525 0.828274
vt 0.843425 0.385443
vt 0.692461 0.659402
vt 0.699487 0.223781
vt 0.699488 0.666659
vt 0.694437 0.030593
vt 0.694437 0.473480
vt 0.687420 0.473368
vt 0.154039 0.089971
vt 0.140862 0.353532
vt 0.140862 0.089313
vt 0.000290 0.689386
vt 0.000403 0.682334
vt 0.443177 0.689386
vt 0.860323 0.888879
vt 0.867336 0.446069
vt 0.867415 0.888879
vt 0.180554 0.416662
vt 0.167359 0.416662
vt 0.167361 0.152785
vt 0.443177 0.569438
vt 0.000348 0.569438
vt 0.000348 0.424249
vt 0.138887 0.467167
vt 0.000924 0.046377
vt 0.138887 0.001144
vt 0.714639 0.188438
vt 0.714639 0.631306
vt 0.707514 0.188555
vt 0.165402 0.409086
vt 0.152225 0.145534
vt 0.165402 0.144875
vt 0.041666 0.013889
vt 0.028472 0.013889
vt 0.041666 0.000695
vt 0.611104 0.002189
vt 0.598281 0.262623
vt 0.598281 0.000139
vt 0.474637 0.309128
vt 0.487368 0.051124
vt 0.487368 0.311865
vt 0.583060 0.107683
vt 0.595953 0.109045
vt 0.583060 0.371208
vt 0.772730 0.255417
vt 0.785345 0.000511
vt 0.785345 0.258836
vt 0.911606 0.559456
vt 0.899128 0.810597
vt 0.899128 0.555382
vt 0.999989 0.707798
vt 0.987686 0.954535
vt 0.987686 0.703092
vt 0.568684 0.372180
vt 0.580802 0.130466
vt 0.580802 0.377521
vt 0.902223 0.799598
vt 0.914132 0.563533
vt 0.914132 0.805547
vt 0.443177 0.699487
vt 0.000292 0.699487
vt 0.000405 0.692434
vt 0.761900 0.327364
vt 0.768931 0.763163
vt 0.761900 0.770194
vt 0.474174 0.000012
vt 0.487368 0.000012
vt 0.474174 0.263886
vt 0.443177 0.623731
vt 0.000346 0.623731
vt 0.000346 0.572937
vt 0.620916 0.671710
vt 0.671701 0.228881
vt 0.671710 0.671710
vt 0.719689 0.443177
vt 0.712599 0.000424
vt 0.719689 0.000310
vt 0.511358 0.618072
vt 0.511358 0.661609
vt 0.068590 0.661609
vt 0.548837 0.445702
vt 0.548837 0.000798
vt 0.592165 0.005059
vt 0.000395 0.873147
vt 0.044191 0.759712
vt 0.044191 0.954535
vt 0.972212 0.974737
vt 0.879893 0.882419
vt 0.972212 0.710856
vt 0.790082 0.920233
vt 0.801759 0.690399
vt 0.801759 0.926758
vt 0.506272 0.223987
vt 0.517671 0.000925
vt 0.517671 0.231058
vt 0.530297 0.007737
vt 0.519161 0.223482
vt 0.519161 0.000127
vt 0.602813 0.209060
vt 0.613630 0.001137
vt 0.613630 0.217169
vt 0.762211 0.908078
vt 0.772719 0.708453
vt 0.772719 0.916657
vt 0.780295 0.009874
vt 0.770143 0.200755
vt 0.770143 0.000856
vt 0.926758 0.587206
vt 0.916972 0.768931
vt 0.916972 0.577774
vt 0.140844 0.392964
vt 0.150251 0.220788
vt 0.150251 0.402773
vt 0.502215 0.001270
vt 0.515146 0.001943
vt 0.502215 0.265149
vt 0.454052 0.905739
vt 0.535348 0.754661
vt 0.535348 0.949485
vt 0.989888 0.438133
vt 0.989888 0.702013
vt 0.897570 0.530451
vt 0.246951 0.127524
vt 0.246951 0.088545
vt 0.252523 0.115793
vt 0.032447 0.182785
vt 0.039141 0.171681
vt 0.039141 0.199493
vt 0.267513 0.303027
vt 0.267513 0.252463
vt 0.272724 0.291093
vt 0.013889 0.015151
vt 0.000941 0.015151
vt 0.013203 0.001975
vt 0.243684 0.931808
vt 0.164547 0.931808
vt 0.243684 0.760246
vt 0.732315 0.728533
vt 0.732315 0.992414
vt 0.653178 0.900095
vt 0.089645 0.954535
vt 0.045850 0.841101
vt 0.089645 0.759712
vt 0.537384 0.798408
vt 0.618680 0.754662
vt 0.618680 0.949485
vt 0.897570 0.527772
vt 0.897570 0.263892
vt 0.989888 0.356210
vt 0.895045 0.001268
vt 0.987363 0.172831
vt 0.895045 0.265149
vt 0.744108 0.309687
vt 0.751254 0.752516
vt 0.744108 0.752517
vt 0.619775 0.928020
vt 0.619775 0.755585
vt 0.628781 0.765747
vt 0.883829 0.000355
vt 0.883829 0.162877
vt 0.875231 0.152384
vt 0.815648 0.734087
vt 0.815648 0.886354
vt 0.807470 0.875590
vt 0.852091 0.443177
vt 0.852091 0.301432
vt 0.859839 0.312473
vt 0.661880 0.878778
vt 0.661880 0.747850
vt 0.669185 0.759101
vt 0.859839 0.138934
vt 0.859839 0.258836
vt 0.852958 0.247365
vt 0.097221 0.760028
vt 0.097221 0.868677
vt 0.090756 0.857041
vt 0.079545 0.295445
vt 0.079545 0.392673
vt 0.073485 0.380898
vt 0.070069 0.390147
vt 0.070069 0.304479
vt 0.075757 0.316361
vt 0.189041 0.344693
vt 0.189041 0.270688
vt 0.194442 0.282652
vt 0.194442 0.366158
vt 0.189226 0.354174
vt 0.194442 0.303879
vt 0.091016 0.916337
vt 0.162877 0.760550
vt 0.162877 0.949485
vt 0.000407 0.383834
vt 0.000407 0.119954
vt 0.079545 0.291516
vt 0.000348 0.570351
vt 0.443177 0.570351
vt 0.443177 0.621205
vt 0.233568 0.472217
vt 0.233568 0.026477
vt 0.284088 0.466415
vt 0.678474 0.686861
vt 0.678474 0.243974
vt 0.685599 0.686747
vt 0.325754 0.453278
vt 0.233484 0.020415
vt 0.325754 0.000747
vt 0.232321 0.000746
vt 0.232321 0.453278
vt 0.140049 0.020416
vt 0.835244 0.400594
vt 0.842163 0.400594
vt 0.835246 0.843425
vt 0.624993 0.183427
vt 0.624993 0.626256
vt 0.530598 0.626256
vt 0.452314 0.545449
vt 0.546708 0.102619
vt 0.546711 0.545449
vt 0.010101 0.095380
vt 0.000860 0.104797
vt 0.000860 0.086311
vt 0.620265 0.715319
vt 0.627518 0.722215
vt 0.184651 0.722215
vt 0.646780 0.287876
vt 0.646780 0.036428
vt 0.659084 0.283170
vt 0.986100 0.732155
vt 0.986100 0.987363
vt 0.973622 0.736230
vt 0.823223 0.000516
vt 0.823223 0.258836
vt 0.810609 0.003935
vt 0.980295 0.005764
vt 0.992414 0.000424
vt 0.992414 0.247472
vt 0.181711 0.482318
vt 0.181711 0.221572
vt 0.194442 0.479580
vt 0.659084 0.000146
vt 0.659084 0.262623
vt 0.646260 0.002197
vt 0.151246 0.429288
vt 0.151246 0.165759
vt 0.164140 0.427926
vt 0.499995 0.025258
vt 0.499995 0.289138
vt 0.487065 0.025931
vt 0.746922 0.756347
vt 0.758830 0.750397
vt 0.758830 0.992414
vt 0.723477 0.737796
vt 0.723477 0.744941
vt 0.280646 0.744941
vt 0.741154 0.871203
vt 0.733968 0.871203
vt 0.741153 0.428391
vt 0.848867 0.000363
vt 0.856051 0.000363
vt 0.848867 0.443177
vt 0.729790 0.000346
vt 0.729790 0.443177
vt 0.722588 0.000346
vt 0.000348 0.732690
vt 0.443177 0.732690
vt 0.000348 0.739891
vt 0.870559 0.435956
vt 0.877516 0.878778
vt 0.870498 0.878778
vt 0.824486 0.825749
vt 0.817259 0.825749
vt 0.824486 0.382933
vt 0.818172 0.640145
vt 0.810945 0.640145
vt 0.818173 0.197328
vt 0.281563 0.252348
vt 0.281563 0.434339
vt 0.272156 0.262158
vt 0.196019 0.479793
vt 0.196019 0.288641
vt 0.205806 0.470361
vt 0.833274 0.351006
vt 0.833274 0.151098
vt 0.843425 0.341988
vt 0.838375 0.015275
vt 0.838375 0.223482
vt 0.827867 0.023854
vt 0.452015 0.753656
vt 0.452015 0.969686
vt 0.441199 0.761766
vt 0.660574 0.223482
vt 0.660574 0.000120
vt 0.671710 0.215872
vt 0.285315 0.499995
vt 0.285315 0.269856
vt 0.296714 0.492924
vt 0.488318 0.316916
vt 0.488318 0.080547
vt 0.499995 0.310390
vt 0.871785 0.443177
vt 0.871785 0.000357
vt 0.878778 0.443177
vt 0.888879 0.379151
vt 0.888879 0.821961
vt 0.881888 0.821961
vt 0.686861 0.737366
vt 0.244033 0.737366
vt 0.686861 0.730133
vt 0.725083 0.660346
vt 0.725083 0.217518
vt 0.732315 0.660346
vt 0.782820 0.771456
vt 0.775579 0.771456
vt 0.782820 0.328638
vt 0.784419 0.350103
vt 0.791658 0.350103
vt 0.784419 0.792921
vt 0.772719 0.443177
vt 0.765703 0.443177
vt 0.765703 0.000346
vt 0.732706 0.443177
vt 0.732706 0.000346
vt 0.739891 0.443177
vt 0.679621 0.000416
vt 0.686861 0.000297
vt 0.686861 0.443177
vt 0.760093 0.640145
vt 0.752852 0.640145
vt 0.760092 0.197324
vt 0.626599 0.506189
vt 0.633832 0.063419
vt 0.633832 0.506308
vt 0.443177 0.679286
vt 0.000290 0.679286
vt 0.000405 0.672140
vt 0.859839 0.861102
vt 0.852941 0.854072
vt 0.859839 0.418272
vt 0.292575 0.376259
vt 0.292575 0.302253
vt 0.297977 0.364294
vt 0.081433 0.381309
vt 0.081433 0.295640
vt 0.087120 0.369428
vt 0.261614 0.255048
vt 0.261614 0.157819
vt 0.267674 0.243273
vt 0.670296 0.857314
vt 0.670296 0.748663
vt 0.676760 0.845677
vt 0.649677 0.873728
vt 0.649677 0.753827
vt 0.656559 0.862258
vt 0.462387 0.885091
vt 0.462387 0.754158
vt 0.469692 0.873840
vt 0.453106 0.896455
vt 0.453106 0.754710
vt 0.460854 0.885415
vt 0.640806 0.907818
vt 0.640806 0.755546
vt 0.648983 0.897054
vt 0.742657 0.905293
vt 0.742657 0.742768
vt 0.751254 0.894800
vt 0.638882 0.754325
vt 0.638882 0.926758
vt 0.629876 0.764486
vt 0.175337 0.284299
vt 0.180554 0.272314
vt 0.180554 0.334592
vt 0.633832 0.000405
vt 0.626600 0.443177
vt 0.626600 0.000287
vt 0.883829 0.193547
vt 0.883829 0.636357
vt 0.876702 0.636357
vt 0.659084 0.752517
vt 0.216253 0.752517
vt 0.216253 0.745391
vt 0.676760 0.443177
vt 0.669534 0.000412
vt 0.676760 0.000294
vt 0.640145 0.684336
vt 0.197262 0.684336
vt 0.640026 0.677112
vt 0.861770 0.443177
vt 0.861770 0.000348
vt 0.868678 0.443177
vt 0.845950 0.000346
vt 0.845950 0.443177
vt 0.839043 0.000346
vt 0.443177 0.717164
vt 0.000306 0.717164
vt 0.000415 0.710227
vt 0.063990 0.009522
vt 0.073232 0.000453
vt 0.073232 0.018939
vt 0.636732 0.443060
vt 0.643932 0.000290
vt 0.643932 0.443177
vt 0.742416 0.000348
vt 0.742416 0.443177
vt 0.735215 0.000348
vt 0.443177 0.669185
vt 0.000288 0.669185
vt 0.000404 0.662040
vt 0.628673 0.697620
vt 0.628781 0.704538
vt 0.185898 0.704538
vt 0.000348 0.757567
vt 0.000348 0.750476
vt 0.443177 0.757567
vt 0.755040 0.443177
vt 0.747949 0.443177
vt 0.755042 0.000348
vt 0.826406 0.443177
vt 0.826406 0.000346
vt 0.833324 0.443177
vt 0.700143 0.682964
vt 0.707063 0.240190
vt 0.707063 0.683073
vt 0.031914 0.740281
vt 0.474742 0.740281
vt 0.031914 0.747467
vt 0.204838 0.712113
vt 0.647613 0.705208
vt 0.647720 0.712113
vt 0.774501 0.339991
vt 0.781557 0.339991
vt 0.774501 0.782820
vt 0.633719 0.687382
vt 0.633832 0.694437
vt 0.190947 0.694437
vt 0.896455 0.847213
vt 0.889518 0.847213
vt 0.896453 0.404403
vt 0.645086 0.722853
vt 0.645195 0.729790
vt 0.202331 0.729790
vt 0.702572 0.443177
vt 0.702572 0.000301
vt 0.709588 0.000413
vt 0.806159 0.000347
vt 0.813122 0.443177
vt 0.806159 0.443176
vt 0.803634 0.358929
vt 0.810597 0.801759
vt 0.803634 0.801758
vt 0.796059 0.339989
vt 0.803022 0.339989
vt 0.796059 0.782820
vt 0.886937 0.443177
vt 0.886937 0.000368
vt 0.893930 0.000368
vt 0.826331 0.888879
vt 0.826331 0.446059
vt 0.833324 0.888879
vt 0.716541 0.724631
vt 0.723477 0.281869
vt 0.723477 0.724740
vt 0.793532 0.000346
vt 0.800496 0.000346
vt 0.793534 0.443177
s 1
usemtl Material.001
f 1/1/1 2/2/2 3/3/3
f 1/4/1 3/5/3 4/6/4
f 13/7/5 10/8/6 17/9/7
f 13/10/5 17/11/7 19/12/8
f 13/13/5 19/14/8 20/15/9
f 13/16/5 20/17/9 21/18/10
f 24/19/11 25/20/12 28/21/13
f 69/22/14 20/23/9 19/24/8
f 69/25/14 28/26/13 20/27/9
f 21/28/10 20/29/9 28/30/13
f 25/31/12 46/32/15 28/33/13
f 54/34/16 78/35/17 77/36/18
f 43/37/19 13/38/5 1/39/1
f 55/40/20 54/41/16 77/42/18
f 55/43/20 75/44/21 56/45/22
f 13/46/5 46/47/15 1/48/1
f 44/49/23 45/50/24 46/51/15
f 46/52/15 25/53/12 44/54/23
f 84/55/25 56/56/22 75/57/21
f 24/58/11 47/59/26 4/60/4
f 13/61/5 21/62/10 46/63/15
f 50/64/27 13/65/5 49/66/28
f 51/67/29 13/68/5 50/69/27
f 48/70/30 49/71/28 13/72/5
f 52/73/31 13/74/5 51/75/29
f 53/76/32 13/77/5 52/78/31
f 54/79/16 13/80/5 53/81/32
f 55/82/20 13/83/5 54/84/16
f 56/85/22 13/86/5 55/87/20
f 55/88/20 77/89/18 76/90/33
f 28/91/13 46/92/15 21/93/10
f 25/94/12 24/95/11 4/96/4
f 57/97/3 58/98/2 45/99/24
f 57/100/3 45/101/24 44/102/23
f 55/103/20 76/104/33 75/105/21
f 2/106/2 59/107/24 61/108/23
f 2/109/2 61/110/23 3/111/3
f 66/112/34 1/113/1 64/114/35
f 46/115/15 64/116/35 1/117/1
f 62/118/36 13/119/5 56/120/22
f 63/121/37 13/122/5 62/123/36
f 65/124/38 13/125/5 63/126/37
f 67/127/39 13/128/5 65/129/38
f 68/130/40 13/131/5 67/132/39
f 70/133/41 13/134/5 68/135/40
f 15/136/42 13/137/5 70/138/41
f 14/139/43 13/140/5 15/141/42
f 43/142/19 48/143/30 13/144/5
f 58/145/2 64/146/35 45/147/24
f 46/148/15 45/149/24 64/150/35
f 72/151/44 24/152/11 71/153/45
f 69/154/14 71/155/45 24/156/11
f 60/157/46 24/158/11 72/159/44
f 28/160/13 69/161/14 24/162/11
f 59/163/24 2/164/2 66/165/34
f 2/166/2 1/167/1 66/168/34
f 4/169/4 73/170/47 74/171/48
f 57/172/3 44/173/23 74/174/48
f 44/175/23 25/176/12 74/177/48
f 4/178/4 74/179/48 25/180/12
f 33/181/49 27/182/50 30/183/51
f 13/184/5 14/185/43 22/186/52
f 13/187/5 22/188/52 26/189/53
f 13/190/5 26/191/53 29/192/54
f 13/193/5 29/194/54 31/195/55
f 13/196/5 31/197/55 33/198/49
f 13/199/5 33/200/49 35/201/56
f 13/202/5 35/203/56 37/204/57
f 13/205/5 37/206/57 39/207/58
f 13/208/5 39/209/58 41/210/59
f 13/211/5 41/212/59 42/213/60
f 42/214/60 10/215/6 13/216/5
f 61/217/23 73/218/47 3/219/3
f 4/220/4 3/221/3 73/222/47
f 73/223/47 66/224/34 64/225/35
f 73/226/47 64/227/35 74/228/48
f 32/229/61 33/230/49 30/231/51
f 74/232/48 64/233/35 58/234/2
f 74/235/48 58/236/2 57/237/3
f 19/238/8 17/239/7 71/240/45
f 66/241/34 73/242/47 61/243/23
f 66/244/34 61/245/23 59/246/24
f 43/247/19 1/248/1 48/249/30
f 4/250/4 83/251/62 1/252/1
f 78/253/17 24/254/11 77/255/18
f 79/256/63 24/257/11 78/258/17
f 80/259/64 24/260/11 79/261/63
f 76/262/33 77/263/18 24/264/11
f 81/265/65 24/266/11 80/267/64
f 82/268/66 24/269/11 81/270/65
f 83/271/62 24/272/11 82/273/66
f 47/274/26 24/275/11 83/276/62
f 75/277/21 76/278/33 24/279/11
f 84/280/25 5/281/67 63/282/37
f 65/283/38 63/284/37 6/285/68
f 5/286/67 6/287/68 63/288/37
f 65/289/38 6/290/68 67/291/39
f 7/292/69 67/293/39 6/294/68
f 41/295/59 36/296/70 38/297/71
f 68/298/40 67/299/39 8/300/72
f 7/301/69 8/302/72 67/303/39
f 11/304/73 24/305/11 12/306/74
f 9/307/75 24/308/11 11/309/73
f 8/310/72 24/311/11 9/312/75
f 7/313/69 24/314/11 8/315/72
f 6/316/68 24/317/11 7/318/69
f 5/319/67 24/320/11 6/321/68
f 84/322/25 24/323/11 5/324/67
f 75/325/21 24/326/11 84/327/25
f 40/328/76 42/329/60 38/330/71
f 78/331/17 53/332/32 52/333/31
f 68/334/40 8/335/72 70/336/41
f 9/337/75 70/338/41 8/339/72
f 15/340/42 70/341/41 11/342/73
f 9/343/75 11/344/73 70/345/41
f 54/346/16 53/347/32 78/348/17
f 29/349/54 23/350/77 31/351/55
f 14/352/43 15/353/42 12/354/74
f 11/355/73 12/356/74 15/357/42
f 16/358/78 22/359/52 12/360/74
f 27/361/50 33/362/49 31/363/55
f 48/364/30 1/365/1 83/366/62
f 38/367/71 24/368/11 40/369/76
f 36/370/70 24/371/11 38/372/71
f 34/373/79 24/374/11 36/375/70
f 32/376/61 24/377/11 34/378/79
f 30/379/51 24/380/11 32/381/61
f 27/382/50 24/383/11 30/384/51
f 23/385/77 24/386/11 27/387/50
f 18/388/80 24/389/11 23/390/77
f 16/391/78 24/392/11 18/393/80
f 12/394/74 24/395/11 16/396/78
f 60/397/46 40/398/76 24/399/11
f 14/400/43 12/401/74 22/402/52
f 84/403/25 62/404/36 56/405/22
f 32/406/61 35/407/56 33/408/49
f 18/409/80 26/410/53 22/411/52
f 18/412/80 22/413/52 16/414/78
f 48/415/30 83/416/62 49/417/28
f 82/418/66 49/419/28 83/420/62
f 17/421/7 60/422/46 72/423/44
f 47/424/26 83/425/62 4/426/4
f 23/427/77 29/428/54 18/429/80
f 26/430/53 18/431/80 29/432/54
f 84/433/25 63/434/37 62/435/36
f 72/436/44 71/437/45 17/438/7
f 37/439/57 35/440/56 34/441/79
f 32/442/61 34/443/79 35/444/56
f 49/445/28 82/446/66 50/447/27
f 81/448/65 50/449/27 82/450/66
f 27/451/50 31/452/55 23/453/77
f 19/454/8 71/455/45 69/456/14
f 39/457/58 37/458/57 36/459/70
f 34/460/79 36/461/70 37/462/57
f 81/463/65 80/464/64 50/465/27
f 51/466/29 50/467/27 80/468/64
f 36/469/70 41/470/59 39/471/58
f 80/472/64 52/473/31 51/474/29
f 52/475/31 80/476/64 79/477/63
f 40/478/76 60/479/46 42/480/60
f 52/481/31 79/482/63 78/483/17
f 41/484/59 38/485/71 42/486/60
f 10/487/6 60/488/46 17/489/7
f 10/490/6 42/491/60 60/492/46
