# Blender 4.4.0
# www.blender.org
mtllib Meshy_AI__0502001700_texture.mtl
o Meshy_AI__0502001700_texture
v 0.992834 -0.485102 0.999697
v 0.992834 -0.625432 1.000000
v 0.992834 -0.629754 -0.999697
v 0.992834 -0.489424 -1.000000
v 0.852504 -0.489424 -1.000000
v 0.852504 -0.488882 -0.749098
v 0.852504 -0.485773 0.689281
v 0.852504 -0.485102 0.999697
v 0.768306 0.486477 -0.719617
v 0.783757 0.486477 -0.719617
v 0.768306 0.072505 -0.718723
v 0.852504 0.075545 0.688068
v 0.852504 0.072436 -0.750311
v -0.992834 -0.489424 -1.000000
v -0.992834 -0.629754 -0.999697
v -0.992834 -0.625432 1.000000
v -0.992834 -0.485102 0.999697
v -0.466618 0.073407 -0.301242
v -0.466618 0.072770 -0.595969
v 0.768306 0.072436 -0.750311
v 0.768306 0.486409 -0.751206
v -0.578861 0.072740 -0.609981
v -0.590922 0.489462 0.661373
v -0.590922 0.075489 0.662268
v -0.543778 0.072740 -0.609981
v -0.590922 0.075393 0.617903
v -0.590922 0.489366 0.617008
v -0.445569 0.627163 -0.555069
v -0.543778 0.075149 0.504797
v 0.543800 0.627163 -0.555069
v -0.164909 -0.467780 0.534900
v 0.684129 -0.488245 -0.454427
v -0.164909 -0.486107 0.534939
v 0.543800 0.629362 0.462363
v 0.628461 0.072436 -0.750311
v -0.590922 0.489424 0.644127
v 0.684129 -0.486107 0.534939
v -0.445569 0.629362 0.462363
v -0.579682 0.075452 0.645127
v -0.579682 0.075393 0.617903
v -0.578861 0.489424 0.644127
v -0.726207 0.626736 -0.752456
v -0.726207 0.629754 0.643823
v 0.620981 -0.179408 -0.412995
v 0.459567 -0.319738 -0.412692
v 0.620981 -0.319738 -0.412692
v -0.726207 0.489424 0.644127
v -0.731252 0.489158 0.521044
v -0.578861 0.486407 -0.752153
v 0.459567 -0.488154 -0.412328
v 0.221539 -0.179408 -0.412995
v -0.164874 -0.345756 0.534636
v -0.543778 0.489366 0.617008
v 0.221539 -0.488154 -0.412328
v -0.543778 0.482349 0.617023
v -0.543778 0.482105 0.503917
v -0.543778 0.486712 -0.610876
v -0.726207 0.486407 -0.752153
v -0.578861 0.489366 0.617008
v -0.731252 0.075186 0.521938
v -0.731252 0.075489 0.662268
v -0.726207 0.075489 0.662268
v -0.731252 0.489462 0.661373
v 0.459567 -0.319829 -0.454791
v -0.726207 0.075545 0.688068
v 0.459567 -0.488245 -0.454427
v -0.164874 -0.467765 0.541916
v -0.719191 0.072436 -0.750311
v -0.726207 0.072436 -0.750311
v -0.726207 0.075186 0.521938
v -0.726207 0.489158 0.521044
v -0.719191 0.072740 -0.609981
v -0.719191 0.486409 -0.751206
v -0.719191 0.486712 -0.610876
v 0.627976 0.486711 -0.611480
v 0.620981 -0.319328 -0.223212
v -0.712174 0.489158 0.521044
v 0.459567 -0.319328 -0.223212
v -0.579682 0.482349 0.617023
v 0.620981 -0.178999 -0.223515
v -0.712174 0.075186 0.521938
v -0.712174 0.072740 -0.609981
v -0.578861 0.486711 -0.611480
v 0.459567 -0.487745 -0.222848
v 0.221539 -0.487745 -0.222848
v -0.579682 0.482408 0.644247
v -0.712174 0.486712 -0.610876
v 0.221539 -0.178999 -0.223515
v -0.164874 -0.346060 0.394271
v 0.627976 0.486407 -0.751809
v -0.073694 -0.346060 0.394271
v -0.649026 0.486407 -0.751809
v -0.073694 -0.345787 0.520603
v 0.459567 -0.317721 0.520542
v 0.459567 -0.345787 0.520603
v -0.164874 -0.329220 -0.300372
v -0.164874 -0.327400 0.541613
v 0.627976 0.072738 -0.610585
v 0.663059 0.075469 0.652985
v 0.663059 0.075452 0.645127
v -0.726207 -0.489424 -1.000000
v -0.726207 -0.485102 0.999697
v -0.726207 -0.485773 0.689281
v -0.726207 -0.488882 -0.749098
v 0.459567 -0.346060 0.394271
v 0.459567 -0.486410 0.394575
v -0.649026 0.072435 -0.750914
v 0.678916 0.075149 0.504797
v 0.678916 0.072740 -0.609981
v 0.627976 0.489424 0.644127
v -0.466618 0.075545 0.688068
v 0.663059 0.489424 0.644127
v 0.819246 0.072505 -0.718723
v 0.819246 0.075189 0.523194
v 0.803389 0.075189 0.523194
v 0.803389 0.075469 0.652985
v 0.663059 0.489138 0.511761
v -0.150841 0.072770 -0.595969
v 0.678916 0.489138 0.511761
v 0.678916 0.486712 -0.610876
v -0.150841 0.073407 -0.301242
v 0.663059 0.489442 0.652090
v 0.819246 0.503194 0.522269
v 0.819246 0.500510 -0.719648
v 0.122803 -0.284746 -0.454866
v -0.073694 -0.284746 -0.454866
v -0.073694 -0.488245 -0.454427
v 0.122803 -0.488245 -0.454427
v 0.803389 0.489161 0.522300
v -0.164909 -0.486410 0.394575
v -0.073694 -0.282638 0.520466
v 0.122803 -0.282638 0.520466
v 0.122803 -0.345787 0.520603
v -0.164909 -0.468083 0.394535
v 0.543800 0.486833 -0.554765
v -0.445569 0.486833 -0.554765
v -0.433563 -0.329220 -0.300372
v 0.663059 0.482408 0.644247
v 0.803389 0.489442 0.652090
v 0.663059 0.482122 0.511776
v -0.433563 -0.327400 0.541613
v 0.783757 0.500510 -0.719648
v 0.783757 0.503194 0.522269
v -0.445569 0.489032 0.462666
v 0.543800 0.489032 0.462666
v 0.783757 0.489161 0.522300
v -0.073694 -0.486410 0.394575
v -0.433563 -0.469585 -0.300069
v -0.433563 -0.467765 0.541916
v 0.783757 0.629754 0.643823
v 0.783757 0.626736 -0.752456
v 0.783757 0.489424 0.644127
v 0.783757 0.486407 -0.752153
v 0.678916 0.482105 0.503917
v 0.678916 0.482122 0.511776
v -0.164874 -0.469585 -0.300069
v 0.122803 -0.486410 0.394575
v -0.150841 -0.488549 -0.594756
v -0.150841 -0.487911 -0.300029
v -0.466618 -0.488549 -0.594756
v -0.466618 -0.487911 -0.300029
v 0.122803 -0.346060 0.394271
v 0.684129 -0.319829 -0.454791
v 0.684129 -0.317721 0.520542
v 0.684129 -0.345787 0.520603
v 0.684129 -0.345756 0.534636
vn 0.5774 0.5786 0.5761
vn 0.5773 -0.5761 0.5786
vn 0.5773 -0.5786 -0.5761
vn 0.5774 0.5761 -0.5786
vn -0.0000 0.7056 -0.7086
vn 0.3015 0.9039 -0.3034
vn 0.3015 0.9052 0.2995
vn -0.0000 0.7086 0.7056
vn 0.5774 -0.5786 -0.5761
vn 0.3015 -0.3035 -0.9039
vn 0.5773 0.5761 -0.5786
vn 0.5773 0.5786 0.5761
vn -0.5774 0.5761 -0.5786
vn -0.5774 -0.5786 -0.5761
vn -0.5774 -0.5761 0.5786
vn -0.5773 0.5786 0.5761
vn -0.3015 0.9052 0.2995
vn 0.3018 0.2992 -0.9052
vn 0.3029 -0.9047 -0.2996
vn 0.3015 0.9052 0.2996
vn -0.3015 0.9052 0.2996
vn 0.3014 0.9036 -0.3043
vn 0.3015 0.9039 -0.3035
vn 0.5771 0.5759 -0.5791
vn 0.7071 0.0015 0.7071
vn 0.5774 -0.5761 0.5786
vn -0.5774 0.5786 0.5761
vn -0.0027 0.7073 0.7069
vn 0.6448 0.7643 -0.0092
vn -0.5773 0.5761 -0.5786
vn -0.0000 -0.7056 0.7086
vn -0.5773 -0.5761 0.5786
vn 0.3015 -0.2996 0.9052
vn -0.3015 -0.9039 0.3035
vn -0.3015 0.9039 -0.3035
vn 0.3015 -0.9039 0.3035
vn 0.9045 0.3009 -0.3022
vn 0.3067 -0.9032 -0.3002
vn -0.9045 -0.3022 -0.3009
vn -0.5773 -0.5786 -0.5761
vn -0.0000 0.7071 -0.7071
vn -0.7071 0.0015 0.7071
vn -0.0009 -0.0031 -1.0000
vn 0.8426 -0.5386 0.0037
vn -0.7071 -0.0015 -0.7071
vn -0.3062 0.2991 -0.9037
vn -0.3043 -0.9042 -0.2997
vn -0.3015 -0.9052 -0.2996
vn -0.3015 0.3035 0.9039
vn -0.5788 0.5759 -0.5773
vn -0.9045 -0.3008 0.3022
vn 0.3015 -0.9052 -0.2995
vn -0.0048 -0.7083 -0.7059
vn 0.9045 -0.3009 0.3022
vn -0.9045 0.3022 0.3008
vn -0.0040 -0.0026 -1.0000
vn -0.5804 0.5792 0.5724
vn -0.3017 0.9038 -0.3035
vn 0.0007 -0.0045 -1.0000
vn 0.0001 -0.0029 -1.0000
vn 0.5768 -0.5785 -0.5768
vn -0.0053 -0.7042 0.7100
vn -0.3015 -0.9052 -0.2995
vn -0.3015 -0.3035 -0.9039
vn -0.3015 0.2996 -0.9052
vn -0.5805 -0.5767 0.5749
vn -0.9045 0.3008 -0.3022
vn 0.3015 0.3035 0.9039
vn -0.0000 0.7087 0.7055
vn 0.3015 -0.3034 -0.9039
vn 0.9045 0.3008 -0.3022
vn 0.9045 0.3022 0.3009
vn 0.3015 -0.9052 -0.2996
vn -0.5774 0.5786 0.5760
vn 0.3015 0.2995 -0.9052
vn -0.9045 -0.3022 -0.3008
vt 0.577344 0.810195
vt 0.564932 0.810195
vt 0.564932 0.633336
vt 0.803816 0.177031
vt 0.791402 0.000143
vt 0.803816 0.000143
vt 0.077402 0.859500
vt 0.114831 0.880434
vt 0.077402 0.947354
vt 0.740311 0.350407
vt 0.752780 0.377807
vt 0.740311 0.527903
vt 0.161082 0.802894
vt 0.122005 0.820559
vt 0.122005 0.716453
vt 0.550579 0.633335
vt 0.562990 0.782740
vt 0.550579 0.810195
vt 0.098336 0.822072
vt 0.139671 0.859636
vt 0.936190 0.791057
vt 0.931468 0.791057
vt 0.936190 0.664544
vt 0.390744 0.386757
vt 0.326438 0.361662
vt 0.390744 0.196877
vt 0.372403 0.382769
vt 0.182523 0.382769
vt 0.207619 0.318463
vt 0.778298 0.382769
vt 0.765917 0.381900
vt 0.778298 0.205474
vt 0.762727 0.403503
vt 0.762727 0.226208
vt 0.775108 0.227077
vt 0.486826 0.785178
vt 0.548636 0.713216
vt 0.548636 0.838269
vt 0.920241 0.929811
vt 0.910616 0.803665
vt 0.920241 0.802931
vt 0.473593 0.921836
vt 0.483246 0.795331
vt 0.483246 0.921836
vt 0.688735 0.553627
vt 0.692175 0.457191
vt 0.692175 0.577344
vt 0.776703 0.933000
vt 0.766769 0.893246
vt 0.776703 0.888755
vt 0.822954 0.650708
vt 0.810896 0.524747
vt 0.822954 0.476500
vt 0.140830 0.506928
vt 0.179423 0.529498
vt 0.000270 0.529498
vt 0.758436 0.932324
vt 0.768728 0.940043
vt 0.717261 0.987226
vt 0.942570 0.304110
vt 0.934282 0.430616
vt 0.929011 0.304110
vt 0.792554 0.918105
vt 0.784284 0.918646
vt 0.784284 0.791865
vt 0.876698 0.548417
vt 0.881964 0.422020
vt 0.881964 0.548636
vt 0.763420 0.224877
vt 0.763420 0.047991
vt 0.784677 0.192002
vt 0.413072 0.013153
vt 0.355678 0.180470
vt 0.357263 0.175578
vt 0.170651 0.648224
vt 0.170650 0.819764
vt 0.144920 0.648226
vt 0.014354 0.015949
vt 0.010919 0.015949
vt 0.014354 0.007629
vt 0.010919 0.002391
vt 0.659811 0.248800
vt 0.659811 0.071913
vt 0.695364 0.223794
vt 0.425831 0.229429
vt 0.391617 0.375592
vt 0.391617 0.193923
vt 0.220092 0.960113
vt 0.217550 0.900600
vt 0.220092 0.897931
vt 0.520694 0.870800
vt 0.841626 0.065390
vt 0.841626 0.000026
vt 0.873990 0.037253
vt 0.474518 0.198893
vt 0.503980 0.165692
vt 0.503980 0.346087
vt 0.842093 0.515316
vt 0.825169 0.629975
vt 0.825169 0.484403
vt 0.267939 0.929987
vt 0.267939 0.972872
vt 0.226595 0.972872
vt 0.894662 0.271829
vt 0.842345 0.161539
vt 0.912267 0.208880
vt 0.283987 0.937882
vt 0.333339 0.857465
vt 0.368416 0.939380
vt 0.889939 0.977657
vt 0.838471 0.977657
vt 0.889939 0.904916
vt 0.129185 0.035087
vt 0.127040 0.035087
vt 0.127040 0.000521
vt 0.521869 0.484841
vt 0.520756 0.468554
vt 0.520756 0.307957
vt 0.004337 0.552180
vt 0.179423 0.577344
vt 0.000720 0.577344
vt 0.806377 0.528047
vt 0.810195 0.528055
vt 0.806377 0.704933
vt 0.015453 0.001282
vt 0.019138 0.001282
vt 0.019138 0.009569
vt 0.058461 0.059010
vt 0.058461 0.048288
vt 0.060605 0.059010
vt 0.044833 0.950544
vt 0.044833 0.824034
vt 0.087718 0.824034
vt 0.852514 0.783082
vt 0.852514 0.649502
vt 0.893129 0.769315
vt 0.070174 0.043062
vt 0.062430 0.002450
vt 0.070174 0.000973
vt 0.266434 0.898202
vt 0.274318 0.856860
vt 0.274318 0.936190
vt 0.004313 0.079180
vt 0.005277 0.070948
vt 0.007974 0.079608
vt 0.615621 0.927843
vt 0.572736 0.972872
vt 0.572736 0.927843
vt 0.886643 0.622113
vt 0.899508 0.622113
vt 0.886643 0.671441
vt 0.873990 0.415286
vt 0.873990 0.542257
vt 0.863306 0.416192
vt 0.632189 0.633308
vt 0.633164 0.790684
vt 0.632189 0.810195
vt 0.005833 0.000232
vt 0.007974 0.000125
vt 0.007974 0.043062
vt 0.669846 0.891534
vt 0.656981 0.891534
vt 0.656981 0.840066
vt 0.886643 0.570644
vt 0.114299 0.870405
vt 0.116426 0.827573
vt 0.116426 0.870800
vt 0.812410 0.507169
vt 0.812410 0.330284
vt 0.813385 0.349911
vt 0.387554 0.863876
vt 0.355190 0.901103
vt 0.355190 0.835740
vt 0.057468 0.000176
vt 0.059010 0.005447
vt 0.057468 0.043062
vt 0.059010 0.043061
vt 0.795841 0.915740
vt 0.012514 0.770323
vt 0.012514 0.645954
vt 0.015949 0.770323
vt 0.812288 0.326949
vt 0.812288 0.150062
vt 0.813385 0.150062
vt 0.809597 0.813385
vt 0.809597 0.636495
vt 0.811790 0.813373
vt 0.413072 0.200156
vt 0.128635 0.059996
vt 0.130780 0.059996
vt 0.128635 0.097287
vt 0.807005 0.143539
vt 0.805227 0.143539
vt 0.806116 0.000142
vt 0.779003 0.143539
vt 0.779003 0.000139
vt 0.779893 0.000145
vt 0.017198 0.771918
vt 0.017198 0.647551
vt 0.025518 0.647551
vt 0.004194 0.770323
vt 0.371004 0.966493
vt 0.371004 0.918880
vt 0.396108 0.931710
vt 0.856761 0.800382
vt 0.909077 0.910672
vt 0.849189 0.884484
vt 0.196169 0.921466
vt 0.154155 0.980846
vt 0.154155 0.891738
vt 0.674631 0.993605
vt 0.601889 0.950722
vt 0.674631 0.899253
vt 0.004313 0.081338
vt 0.042505 0.016179
vt 0.044656 0.016353
vt 0.042505 0.027113
vt 0.076554 0.000335
vt 0.076554 0.023923
vt 0.076274 0.002480
vt 0.904027 0.530734
vt 0.926621 0.499429
vt 0.926621 0.547041
vt 0.784677 0.561395
vt 0.765261 0.561395
vt 0.780687 0.384508
vt 0.068474 0.887959
vt 0.068580 0.909408
vt 0.068474 0.933000
vt 0.806320 0.526308
vt 0.806320 0.349422
vt 0.810195 0.521198
vt 0.803816 0.620405
vt 0.797704 0.604312
vt 0.803816 0.443518
vt 0.065044 0.057415
vt 0.065044 0.046443
vt 0.073364 0.046443
vt 0.001109 0.044656
vt 0.001109 0.001772
vt 0.006379 0.043115
vt 0.001109 0.108451
vt 0.001109 0.067109
vt 0.006379 0.108451
vt 0.591821 0.926621
vt 0.591821 0.800110
vt 0.633164 0.926621
vt 0.931405 0.565664
vt 0.929861 0.692175
vt 0.888521 0.565664
vt 0.655493 0.892735
vt 0.634352 0.896318
vt 0.634352 0.768003
vt 0.896495 0.395528
vt 0.896495 0.269017
vt 0.939380 0.269018
vt 0.240826 0.825629
vt 0.197942 0.952139
vt 0.197941 0.825629
vt 0.313707 0.383543
vt 0.331733 0.438590
vt 0.145605 0.438590
vt 0.468892 0.168574
vt 0.413845 0.186600
vt 0.413845 0.000472
vt 0.591698 0.358049
vt 0.527057 0.358049
vt 0.527057 0.181302
vt 0.591698 0.355657
vt 0.527056 0.178910
vt 0.591698 0.178910
vt 0.255991 0.503980
vt 0.428853 0.466464
vt 0.436995 0.503980
vt 0.573457 0.177031
vt 0.573457 0.022191
vt 0.580534 0.022191
vt 0.000349 0.484841
vt 0.022157 0.425102
vt 0.185803 0.484841
vt 0.488031 0.301927
vt 0.488031 0.487234
vt 0.427310 0.465067
vt 0.751524 0.583723
vt 0.751524 0.406836
vt 0.775108 0.434294
vt 0.310549 0.524713
vt 0.459322 0.501232
vt 0.489626 0.524713
vt 0.827720 0.623679
vt 0.883559 0.564340
vt 0.883559 0.676226
vt 0.326400 0.127590
vt 0.326400 0.001054
vt 0.328544 0.001054
vt 0.001046 0.255180
vt 0.001046 0.128620
vt 0.003190 0.255142
vt 0.852329 0.534951
vt 0.923430 0.242421
vt 0.911016 0.187805
vt 0.923431 0.187805
vt 0.565028 0.812869
vt 0.575749 0.812869
vt 0.565028 0.939380
vt 0.135564 0.037947
vt 0.135564 0.076554
vt 0.126987 0.037947
vt 0.618515 0.229662
vt 0.618515 0.052774
vt 0.625190 0.082821
vt 0.854852 0.389035
vt 0.848179 0.535877
vt 0.814797 0.389035
vt 0.612914 0.577370
vt 0.631569 0.631570
vt 0.454845 0.631570
vt 0.054279 0.014530
vt 0.055821 0.014530
vt 0.055821 0.057415
vt 0.054279 0.057415
vt 0.752956 0.964898
vt 0.795841 0.917291
vt 0.795841 0.928013
vt 0.012675 0.103667
vt 0.012675 0.077936
vt 0.022328 0.093503
vt 0.800626 0.338113
vt 0.796120 0.333608
vt 0.800562 0.161166
vt 0.807005 0.346087
vt 0.802915 0.189475
vt 0.807005 0.169201
vt 0.331787 0.001081
vt 0.333328 0.127571
vt 0.331787 0.127590
vt 0.969682 0.664782
vt 0.937823 0.700149
vt 0.937823 0.636083
vt 0.934595 0.601267
vt 0.933053 0.474767
vt 0.934595 0.474748
vt 0.336571 0.127590
vt 0.338094 0.001095
vt 0.338113 0.127590
vt 0.352489 0.187397
vt 0.352489 0.000393
vt 0.409882 0.020082
vt 0.121376 0.835349
vt 0.126126 0.834391
vt 0.133969 0.873272
vt 0.121376 0.886749
vt 0.623436 0.398751
vt 0.625190 0.351907
vt 0.625190 0.468893
vt 0.119615 0.850067
vt 0.116360 0.726767
vt 0.119615 0.700606
vt 0.850067 0.655429
vt 0.820590 0.800626
vt 0.820590 0.654650
vt 0.401908 0.933252
vt 0.050486 0.043062
vt 0.050486 0.000167
vt 0.052631 0.005771
vt 0.022328 0.077936
vt 0.181180 0.803816
vt 0.181180 0.645509
vt 0.186705 0.627016
vt 0.128390 0.003960
vt 0.138754 0.001214
vt 0.138754 0.043062
vt 0.000710 0.644328
vt 0.002845 0.624954
vt 0.178626 0.644328
vt 0.898343 0.394648
vt 0.926621 0.362408
vt 0.926621 0.419451
vt 0.768495 0.610981
vt 0.786272 0.772275
vt 0.768495 0.787867
vt 0.034096 0.351435
vt 0.189790 0.423439
vt 0.000796 0.423439
vt 0.842345 0.296646
vt 0.909077 0.775565
vt 0.397921 0.588508
vt 0.221035 0.588508
vt 0.368835 0.525616
vt 0.795795 0.417914
vt 0.803816 0.418164
vt 0.795795 0.594887
vt 0.627477 0.633326
vt 0.629975 0.633290
vt 0.629975 0.810195
vt 0.283987 0.827178
vt 0.194514 0.509178
vt 0.182344 0.468057
vt 0.361239 0.468057
vt 0.196752 0.516739
vt 0.765539 0.772274
vt 0.765539 0.899508
vt 0.715887 0.884813
vt 0.885387 0.436151
vt 0.944164 0.436151
vt 0.885387 0.569369
vt 0.350872 0.883559
vt 0.320806 0.834569
vt 0.350872 0.834569
vt 0.004785 0.650633
vt 0.004785 0.693529
vt 0.000496 0.645033
vt 0.000496 0.816575
vt 0.559444 0.358991
vt 0.620405 0.358991
vt 0.620405 0.535877
vt 0.321511 0.615621
vt 0.498397 0.554660
vt 0.498398 0.615621
vt 0.223448 0.940975
vt 0.223448 0.882095
vt 0.231256 0.898806
vt 0.214552 0.822954
vt 0.214552 0.651414
vt 0.304621 0.651414
vt 0.304621 0.822954
vt 0.215308 0.625190
vt 0.038421 0.625190
vt 0.215308 0.566315
vt 0.939935 0.362047
vt 0.999985 0.362047
vt 0.939935 0.424236
vt 0.999985 0.424236
vt 0.030216 0.281612
vt 0.192980 0.350872
vt 0.000745 0.350872
vt 0.936129 0.130261
vt 0.940975 0.130261
vt 0.936129 0.256774
vt 0.857980 0.524713
vt 0.857980 0.393916
vt 0.862826 0.398205
vt 0.440950 0.839550
vt 0.459323 0.896720
vt 0.440950 0.902624
vt 0.960113 0.484814
vt 0.937912 0.543851
vt 0.940838 0.483874
vt 0.966738 0.668484
vt 0.125758 0.124079
vt 0.250395 0.000318
vt 0.250395 0.249598
vt 0.000561 0.124080
vt 0.125197 0.000317
vt 0.125197 0.249598
vt 0.584502 0.788033
vt 0.590103 0.788033
vt 0.590103 0.830929
vt 0.915457 0.921093
vt 0.896780 0.960113
vt 0.892083 0.957062
vt 0.497600 0.332056
vt 0.489950 0.476867
vt 0.489950 0.319297
vt 0.922217 0.127590
vt 0.926937 0.001081
vt 0.937785 0.127590
vt 0.788125 0.320714
vt 0.800626 0.344466
vt 0.788125 0.497600
vt 0.673036 0.434187
vt 0.659820 0.449754
vt 0.659820 0.272279
vt 0.626785 0.569369
vt 0.570338 0.569369
vt 0.570337 0.392482
vt 0.546273 0.177031
vt 0.489845 0.000208
vt 0.546272 0.000208
vt 0.242629 0.952139
vt 0.242628 0.825628
vt 0.282292 0.825628
vt 0.920241 0.001387
vt 0.920241 0.133969
vt 0.882394 0.013253
vt 0.802679 0.406693
vt 0.802679 0.229807
vt 0.803816 0.404399
vt 0.116426 0.821532
vt 0.100125 0.822954
vt 0.100125 0.647699
vt 0.937912 0.455833
vt 0.726803 0.252371
vt 0.740021 0.090463
vt 0.740021 0.267938
vt 0.199617 0.803816
vt 0.199617 0.626930
vt 0.212118 0.780064
vt 0.635192 0.186243
vt 0.640093 0.185757
vt 0.657087 0.357251
vt 0.788156 0.652863
vt 0.792652 0.810195
vt 0.788156 0.810195
vt 0.815047 0.177844
vt 0.838903 0.161462
vt 0.838903 0.318974
vt 0.889939 0.041036
vt 0.889939 0.191385
vt 0.822740 0.088223
vt 0.519131 0.519928
vt 0.484197 0.512890
vt 0.519131 0.339487
vt 0.685795 0.177031
vt 0.650159 0.000145
vt 0.685795 0.000145
vt 0.036682 0.084528
vt 0.032394 0.084528
vt 0.032394 0.078529
vt 0.036682 0.073683
vt 0.381134 0.418403
vt 0.436995 0.250568
vt 0.436995 0.436995
vt 0.306772 0.651017
vt 0.338113 0.657179
vt 0.306772 0.816575
vt 0.437956 0.430615
vt 0.437956 0.250342
vt 0.472082 0.257052
vt 0.850067 0.851662
vt 0.813654 0.845642
vt 0.850067 0.695597
vt 0.488031 0.181815
vt 0.419657 0.016077
vt 0.448146 0.009484
vt 0.814934 0.173841
vt 0.814934 0.000708
vt 0.826144 0.023135
vt 0.049723 0.941915
vt 0.066985 0.907382
vt 0.066985 0.950544
vt 0.074959 0.041467
vt 0.072815 0.041435
vt 0.074959 0.000984
vt 0.008731 0.109533
vt 0.011164 0.109497
vt 0.011164 0.111641
vt 0.063795 0.057415
vt 0.061650 0.057415
vt 0.063795 0.016964
vt 0.972323 0.791907
vt 0.974467 0.791862
vt 0.974467 0.873990
vt 0.932074 0.021085
vt 0.969682 0.000454
vt 0.969682 0.094097
vt 0.382769 0.647518
vt 0.205882 0.647518
vt 0.236844 0.591079
vt 0.579257 0.880370
vt 0.579257 0.749573
vt 0.590103 0.876082
vt 0.016745 0.022328
vt 0.016745 0.010666
vt 0.020733 0.012242
vt 0.762349 0.593318
vt 0.738712 0.755970
vt 0.738712 0.579036
vt 0.535877 0.462517
vt 0.704934 0.011681
vt 0.689662 0.178626
vt 0.689662 0.001001
vt 0.648775 0.000145
vt 0.657087 0.157494
vt 0.648863 0.171889
vt 0.657087 0.179537
vt 0.794247 0.655493
vt 0.778247 0.640059
vt 0.794247 0.478605
vt 0.005573 0.259964
vt 0.005573 0.133441
vt 0.007974 0.135585
vt 0.732046 0.349290
vt 0.732046 0.473677
vt 0.729645 0.349337
vt 0.562988 0.787350
vt 0.562990 0.913862
vt 0.541547 0.913862
vt 0.795433 0.891534
vt 0.795433 0.763216
vt 0.816575 0.887950
vt 0.036505 0.009285
vt 0.043062 0.000803
vt 0.043062 0.014354
vt 0.177031 0.647988
vt 0.177031 0.819764
vt 0.173171 0.814771
vt 0.137683 0.045948
vt 0.141944 0.045458
vt 0.141944 0.082933
vt 0.841970 0.856905
vt 0.846877 0.899508
vt 0.809400 0.899508
vt 0.445223 0.840179
vt 0.467298 0.701288
vt 0.467298 0.843688
vt 0.711907 0.347682
vt 0.711907 0.170797
vt 0.740021 0.347682
vt 0.102184 0.648224
vt 0.878032 0.680812
vt 0.918647 0.667045
vt 0.918647 0.800626
vt 0.000177 0.948949
vt 0.000177 0.822439
vt 0.043062 0.822439
vt 0.704934 0.928382
vt 0.704934 0.971277
vt 0.677066 0.933983
vt 0.086955 0.000833
vt 0.092503 0.028708
vt 0.086902 0.028708
vt 0.457239 0.925649
vt 0.515144 0.925649
vt 0.515144 0.998390
vt 0.457239 0.998390
vt 0.928765 0.474819
vt 0.936190 0.618368
vt 0.931904 0.744805
vt 0.931904 0.618223
vt 0.003190 0.052081
vt 0.003190 0.054226
vt 0.000788 0.052081
vt 0.626389 0.634580
vt 0.028708 0.089313
vt 0.024419 0.089313
vt 0.024419 0.079370
vt 0.583723 0.906384
vt 0.573780 0.910672
vt 0.573780 0.867788
vt 0.648775 0.177031
vt 0.677066 0.971277
vt 0.767134 0.768728
vt 0.744010 0.735852
vt 0.767134 0.591841
vt 0.706528 0.708123
vt 0.676130 0.683117
vt 0.706528 0.531235
vt 0.927777 0.912672
vt 0.968088 0.871102
vt 0.968088 0.969682
vt 0.569370 0.569369
vt 0.500945 0.569369
vt 0.569360 0.392481
vt 0.795841 0.964898
vt 0.003190 0.047235
vt 0.375537 0.426348
vt 0.421844 0.467298
vt 0.237353 0.467298
vt 0.370154 0.663467
vt 0.411558 0.623318
vt 0.547041 0.663467
vt 0.239231 0.934738
vt 0.233919 0.939380
vt 0.233919 0.852800
vt 0.468941 0.667365
vt 0.527903 0.667365
vt 0.469940 0.826144
vt 0.387331 0.686562
vt 0.441780 0.666685
vt 0.441780 0.835713
vt 0.647518 0.178626
vt 0.634414 0.011498
vt 0.647518 0.001197
vt 0.197764 0.652949
vt 0.092565 0.011164
vt 0.092565 0.001510
vt 0.097287 0.011164
vt 0.014354 0.021371
vt 0.009985 0.030303
vt 0.009985 0.019556
vt 0.050487 0.046190
vt 0.052631 0.046190
vt 0.052631 0.051036
vt 0.050487 0.051036
vt 0.322962 0.439881
vt 0.148742 0.470487
vt 0.143366 0.439881
vt 0.250012 0.501692
vt 0.275116 0.564585
vt 0.098229 0.564585
vt 0.488031 0.000252
vt 0.633712 0.676226
vt 0.674629 0.499431
vt 0.674631 0.676226
vt 0.675926 0.421838
vt 0.692175 0.442871
vt 0.675926 0.599672
vt 0.976062 0.247722
vt 0.940125 0.267938
vt 0.940125 0.183842
vt 0.097287 0.819764
vt 0.000786 0.819764
vt 0.097287 0.648226
vt 0.784187 0.000145
vt 0.800626 0.158783
vt 0.784187 0.177031
vt 0.922217 0.812865
vt 0.937785 0.812865
vt 0.922217 0.939380
vt 0.783082 0.915457
vt 0.767631 0.789889
vt 0.783082 0.787988
vt 0.709068 0.889129
vt 0.714668 0.899230
vt 0.709068 0.985631
vt 0.780997 0.377985
vt 0.780997 0.201099
vt 0.797436 0.219348
vt 0.529664 0.976062
vt 0.529664 0.893950
vt 0.572559 0.976062
vt 0.929442 0.793027
vt 0.490103 0.009783
vt 0.491221 0.009741
vt 0.491221 0.170651
vt 0.707587 0.000144
vt 0.736831 0.117088
vt 0.707587 0.177031
vt 0.892083 0.905905
vt 0.659977 0.261056
vt 0.676226 0.240022
vt 0.676226 0.417857
vt 0.351669 0.295051
vt 0.287815 0.257683
vt 0.351669 0.103581
vt 0.526308 0.295849
vt 0.497231 0.121433
vt 0.526308 0.116585
vt 0.575749 0.000208
vt 0.055434 0.287230
vt 0.599672 0.179423
vt 0.574831 0.175900
vt 0.599672 0.000765
vt 0.137627 0.486991
vt 0.133969 0.113236
vt 0.128046 0.112281
vt 0.133969 0.075525
vt 0.078529 0.000208
vt 0.084528 0.037438
vt 0.078529 0.039872
vt 0.377727 0.665107
vt 0.435400 0.832523
vt 0.302466 0.832523
vt 0.893234 0.192980
vt 0.893234 0.066509
vt 0.934595 0.176583
vt 0.010611 0.072617
vt 0.045413 0.037062
vt 0.047846 0.000178
vt 0.047846 0.043062
vt 0.894723 0.283458
vt 0.894723 0.433805
vt 0.815748 0.338914
vt 0.330936 0.151905
vt 0.251191 0.000028
vt 0.317334 0.104273
vt 0.757564 0.899231
vt 0.743210 0.577344
vt 0.718122 0.577344
vt 0.718122 0.400456
vt 0.634432 0.658682
vt 0.634432 0.541621
vt 0.650708 0.543930
vt 0.567052 0.635796
vt 0.625190 0.635796
vt 0.596613 0.810195
vt 0.444393 0.666483
vt 0.467298 0.669642
vt 0.444393 0.835713
vt 0.617216 0.057479
vt 0.617216 0.236041
vt 0.593047 0.232707
vt 0.122833 0.317380
vt 0.274711 0.237635
vt 0.316582 0.317380
vt 0.251191 0.193777
vt 0.485166 0.915457
vt 0.485166 0.788948
vt 0.527903 0.915456
vt 0.155610 0.890591
vt 0.196169 0.770527
vt 0.196169 0.904293
vt 0.625190 0.816575
vt 0.623046 0.816575
vt 0.625190 0.645036
vt 0.601603 0.816575
vt 0.454217 0.202956
vt 0.611361 0.013306
vt 0.798276 0.999985
vt 0.798276 0.903483
vt 0.888344 0.903483
vt 0.694829 0.357395
vt 0.724072 0.357395
vt 0.694829 0.534282
vt 0.452763 0.939380
vt 0.505286 0.354062
vt 0.505286 0.177174
vt 0.516739 0.331151
vt 0.621090 0.539067
vt 0.650315 0.362272
vt 0.663467 0.539067
vt 0.000124 0.065306
vt 0.027113 0.000545
vt 0.027113 0.076554
vt 0.398999 0.927664
vt 0.438590 0.832669
vt 0.438590 0.944164
vt 0.151513 0.966493
vt 0.061444 0.966493
vt 0.151513 0.869991
vt 0.707591 0.717693
vt 0.711409 0.540807
vt 0.736831 0.717693
vt 0.759159 0.197971
vt 0.759159 0.374795
vt 0.734193 0.297812
vt 0.016732 0.904549
vt 0.043062 0.860688
vt 0.043062 0.958518
vt 0.363364 0.912812
vt 0.029582 0.074959
vt 0.029582 0.000021
vt 0.054226 0.065714
vt 0.980846 0.702849
vt 0.980846 0.760754
vt 0.937962 0.760754
vt 0.937962 0.702849
vt 0.717261 0.901444
vt 0.979252 0.578263
vt 0.938077 0.633164
vt 0.938077 0.547383
vt 0.765539 0.769216
vt 0.688027 0.928216
vt 0.635811 0.769216
vt 0.470487 0.845237
vt 0.470487 0.913862
vt 0.461910 0.845237
vt 0.461910 0.913862
vt 0.810461 0.000144
vt 0.813385 0.060081
vt 0.810461 0.177031
vt 0.631569 0.861217
vt 0.627289 0.861485
vt 0.627289 0.792724
vt 0.803816 0.802221
vt 0.792364 0.667342
vt 0.803816 0.625345
vt 0.594110 0.349277
vt 0.632498 0.172389
vt 0.647518 0.349277
vt 0.950544 0.133969
vt 0.935310 0.078104
vt 0.950544 0.060614
vt 0.977966 0.601421
vt 0.810195 0.242566
vt 0.810195 0.419451
vt 0.808048 0.360136
vt 0.813154 0.819764
vt 0.813154 0.645450
vt 0.818169 0.819764
vt 0.708123 0.355657
vt 0.677581 0.355657
vt 0.703034 0.178780
vt 0.629964 0.904293
vt 0.743645 0.000209
vt 0.768728 0.002717
vt 0.743645 0.177031
vt 0.196967 0.277508
vt 0.000182 0.277508
vt 0.030548 0.215217
vt 0.261195 0.901638
s 1
usemtl Material.001
f 1/1/1 2/2/2 3/3/3
f 1/4/1 3/5/3 4/6/4
f 4/7/4 5/8/5 6/9/6
f 4/10/4 6/11/6 7/12/7
f 8/13/8 1/14/1 7/15/7
f 4/16/4 7/17/7 1/18/1
f 4/7/4 3/19/3 5/8/5
f 8/13/8 2/20/2 1/14/1
f 9/21/9 10/22/10 11/23/11
f 12/24/12 7/25/7 6/26/6
f 12/27/12 6/28/6 13/29/11
f 14/30/13 15/31/14 16/32/15
f 14/33/13 16/34/15 17/35/16
f 102/36/8 103/37/17 17/38/16
f 20/39/18 21/40/19 9/41/9
f 20/42/18 9/43/9 11/44/11
f 19/45/20 118/46/21 25/47/22
f 18/48/23 19/49/20 25/50/22
f 29/51/4 18/52/23 25/53/22
f 30/54/21 151/55/24 28/56/20
f 66/57/12 50/58/20 32/59/16
f 26/60/1 36/61/25 24/62/20
f 27/63/26 36/64/25 26/65/1
f 23/66/1 24/67/20 36/68/25
f 43/69/27 150/70/1 38/71/23
f 98/72/28 22/73/29 25/74/22
f 13/75/11 6/76/6 20/77/18
f 40/78/16 26/79/1 39/80/17
f 26/79/1 24/81/20 39/80/17
f 42/82/30 43/83/27 28/84/20
f 38/85/23 28/86/20 43/87/27
f 43/88/27 36/89/25 41/90/31
f 17/38/16 16/91/15 102/36/8
f 44/92/32 45/93/33 46/94/34
f 34/95/35 150/96/1 30/97/21
f 34/98/35 38/99/23 150/100/1
f 43/101/27 47/102/17 36/103/25
f 44/104/32 51/105/26 45/106/33
f 51/107/26 54/108/12 45/109/33
f 50/110/20 45/111/33 54/112/12
f 53/113/36 55/114/7 56/115/37
f 53/116/36 56/117/37 57/118/38
f 52/119/39 166/120/40 31/121/41
f 33/122/4 31/123/41 37/124/13
f 41/125/31 36/126/25 27/127/26
f 53/128/36 59/129/31 55/130/7
f 48/131/30 60/132/40 61/133/32
f 48/134/30 61/135/32 63/136/27
f 24/137/20 62/138/42 65/139/27
f 24/140/20 65/141/27 111/142/8
f 59/143/31 41/144/31 27/145/26
f 42/146/30 49/147/43 58/148/14
f 45/149/33 64/150/2 46/151/34
f 57/152/38 22/153/29 83/154/44
f 70/155/45 72/156/21 69/157/30
f 68/158/46 69/159/30 72/160/21
f 50/161/20 66/162/12 64/163/2
f 50/164/20 64/150/2 45/149/33
f 73/165/47 74/166/34 58/167/14
f 71/168/45 58/169/14 74/170/34
f 76/171/48 78/172/10 80/173/14
f 63/174/27 47/175/17 48/176/30
f 71/177/45 48/176/30 47/175/17
f 27/63/26 26/65/1 79/178/49
f 40/179/16 79/180/49 26/181/1
f 81/182/30 82/183/16 72/184/21
f 81/185/30 72/186/21 70/187/45
f 22/73/29 98/72/28 83/188/44
f 31/189/41 67/190/50 52/191/39
f 77/192/14 71/193/45 74/194/34
f 77/195/14 74/196/34 87/197/32
f 39/198/17 86/199/16 79/200/49
f 39/201/17 79/180/49 40/179/16
f 89/202/51 93/203/52 52/204/39
f 88/205/9 80/206/14 78/207/10
f 84/208/23 85/209/11 78/210/10
f 88/211/9 78/212/10 85/213/11
f 59/143/31 27/145/26 79/214/49
f 59/215/31 79/216/49 55/217/7
f 58/218/14 92/219/53 73/220/47
f 91/221/54 93/222/52 89/223/51
f 138/224/55 140/225/35 55/226/7
f 49/227/43 92/228/53 58/229/14
f 86/230/16 138/231/55 55/232/7
f 39/233/17 111/234/8 100/235/16
f 55/236/7 79/237/49 86/238/16
f 63/239/27 23/240/1 47/241/17
f 36/242/25 47/243/17 23/244/1
f 24/245/20 23/246/1 62/247/42
f 63/248/27 62/249/42 23/250/1
f 92/251/53 49/252/43 107/253/56
f 73/254/47 68/255/46 72/256/21
f 73/257/47 72/258/21 74/259/34
f 86/260/16 39/261/17 138/262/55
f 100/263/16 138/264/55 39/265/17
f 87/266/32 82/267/16 81/268/30
f 87/269/32 81/270/30 77/271/14
f 94/272/3 78/273/10 76/274/48
f 108/275/30 109/276/57 98/277/28
f 56/278/37 29/279/4 25/280/22
f 56/281/37 25/282/22 57/283/38
f 14/284/13 17/285/16 103/286/17
f 103/287/17 104/288/58 14/289/13
f 101/290/5 14/291/13 104/292/58
f 74/293/34 72/294/21 82/295/16
f 74/296/34 82/297/16 87/298/32
f 101/290/5 15/299/14 14/291/13
f 84/300/23 105/301/54 106/302/7
f 25/303/22 22/304/29 57/305/38
f 95/306/52 105/307/54 94/308/3
f 78/309/10 94/310/3 105/311/54
f 78/312/10 105/313/54 84/314/23
f 90/315/59 35/316/60 49/317/43
f 62/318/42 61/319/32 60/320/40
f 62/318/42 60/320/40 70/321/45
f 150/322/1 110/323/31 112/324/42
f 13/325/11 20/326/18 113/327/23
f 13/328/11 113/329/23 114/330/20
f 13/331/11 114/332/20 12/333/12
f 63/334/27 61/335/32 62/336/42
f 153/337/61 90/338/59 151/339/24
f 71/340/45 70/341/45 60/342/40
f 71/343/45 60/344/40 48/345/30
f 83/346/44 98/347/28 75/348/62
f 114/349/20 115/350/12 116/351/7
f 114/349/20 116/351/7 12/352/12
f 95/353/52 166/354/40 133/355/63
f 96/356/64 89/357/51 97/358/40
f 156/359/65 89/360/51 96/361/64
f 89/202/51 52/204/39 97/362/40
f 67/363/50 97/364/40 52/365/39
f 20/326/18 11/366/11 113/327/23
f 75/367/62 117/368/48 110/369/31
f 112/370/42 110/371/31 117/372/48
f 42/373/30 58/374/14 71/375/45
f 47/376/17 43/377/27 71/378/45
f 42/379/30 71/380/45 43/381/27
f 65/382/27 103/383/17 111/384/8
f 51/105/26 44/104/32 80/385/14
f 51/386/26 80/206/14 88/205/9
f 103/387/17 7/388/7 111/389/8
f 75/390/62 120/391/66 117/392/48
f 119/393/14 117/394/48 120/395/66
f 54/108/12 51/107/26 85/396/11
f 62/397/42 70/398/45 103/399/17
f 65/400/27 62/397/42 103/399/17
f 104/401/58 103/402/17 70/403/45
f 69/404/30 104/405/58 70/406/45
f 85/407/11 51/408/26 88/409/9
f 156/410/65 96/411/64 159/412/30
f 121/413/35 159/412/30 96/411/64
f 123/414/12 114/415/20 113/416/23
f 123/417/12 113/418/23 124/419/4
f 99/420/21 12/421/12 116/422/7
f 159/423/30 121/424/35 118/425/21
f 159/423/30 118/425/21 158/426/16
f 56/427/37 154/428/67 29/429/4
f 127/430/1 128/431/16 126/432/26
f 125/433/15 126/432/26 128/431/16
f 12/434/12 111/435/8 7/436/7
f 115/437/12 114/438/20 129/439/68
f 114/440/20 123/441/12 129/442/68
f 131/443/3 132/444/40 133/445/63
f 131/446/3 133/447/63 93/448/52
f 153/337/61 21/449/19 90/338/59
f 15/450/14 3/451/3 16/452/15
f 2/453/2 16/454/15 3/455/3
f 130/456/1 134/457/69 31/458/41
f 130/459/1 31/460/41 33/461/4
f 135/462/34 136/463/36 75/464/62
f 11/465/11 10/466/10 113/467/23
f 15/468/14 101/469/5 3/470/3
f 5/471/5 3/472/3 101/473/5
f 137/474/70 96/475/64 97/476/40
f 137/477/70 97/478/40 141/479/9
f 139/480/12 116/481/7 115/482/12
f 139/483/12 115/484/12 129/485/68
f 154/486/67 56/487/37 140/488/35
f 56/489/37 55/490/7 140/491/35
f 93/448/52 133/447/63 52/492/39
f 8/493/8 102/494/8 2/495/2
f 16/496/15 2/497/2 102/498/8
f 124/499/4 142/500/71 143/501/72
f 124/502/4 143/503/72 123/504/12
f 145/505/48 110/506/31 144/507/73
f 137/508/70 121/509/35 96/510/64
f 126/511/26 125/512/15 132/513/40
f 126/514/26 132/515/40 131/516/3
f 143/517/72 146/518/1 129/519/68
f 143/517/72 129/519/68 123/520/12
f 108/521/30 29/522/4 154/523/67
f 8/524/8 7/525/7 103/526/17
f 8/527/8 103/528/17 102/529/8
f 127/530/1 126/531/26 91/532/54
f 127/533/1 91/534/54 147/535/20
f 126/536/26 131/537/3 91/538/54
f 93/539/52 91/540/54 131/541/3
f 138/542/55 112/543/42 140/544/35
f 122/545/74 112/546/42 138/547/55
f 117/548/48 140/549/35 112/550/42
f 67/551/50 31/552/41 149/553/4
f 31/554/41 134/555/69 149/556/4
f 148/557/75 149/558/4 134/559/69
f 124/560/4 113/561/23 10/562/10
f 124/563/4 10/564/10 142/565/71
f 144/566/73 110/567/31 53/568/36
f 53/116/36 57/118/38 144/569/73
f 136/570/36 144/571/73 57/572/38
f 75/573/62 136/574/36 57/575/38
f 142/500/71 151/576/24 143/501/72
f 150/577/1 143/578/72 151/579/24
f 99/580/21 122/581/74 138/582/55
f 99/583/21 138/584/55 100/585/16
f 92/586/53 107/587/56 68/588/46
f 92/589/53 68/590/46 73/591/47
f 59/592/31 53/593/36 41/594/31
f 110/595/31 41/596/31 53/597/36
f 146/598/1 143/599/72 152/600/7
f 150/601/1 152/602/7 143/603/72
f 104/604/58 6/605/6 101/606/5
f 5/607/5 101/608/5 6/609/6
f 20/77/18 6/76/6 35/610/60
f 99/611/21 116/612/7 122/613/74
f 116/614/7 139/615/12 122/616/74
f 147/617/20 91/618/54 134/619/69
f 147/620/20 134/621/69 130/622/1
f 54/623/12 85/624/11 84/625/23
f 54/623/12 84/625/23 50/626/20
f 70/341/45 71/340/45 81/627/30
f 77/628/14 81/629/30 71/630/45
f 155/631/13 119/632/14 154/633/67
f 120/395/66 154/634/67 119/393/14
f 142/635/71 10/636/10 153/637/61
f 142/638/71 153/639/61 151/640/24
f 57/575/38 83/641/44 75/573/62
f 89/642/51 134/619/69 91/618/54
f 42/643/30 28/644/20 151/645/24
f 151/646/24 30/647/21 150/648/1
f 50/649/20 84/650/23 32/651/16
f 156/652/65 148/653/75 134/654/69
f 112/324/42 152/655/7 150/322/1
f 155/631/13 154/633/67 140/656/35
f 106/657/7 37/658/13 84/659/23
f 32/660/16 84/661/23 37/662/13
f 156/663/65 159/664/30 148/665/75
f 120/666/66 109/667/57 154/668/67
f 108/669/30 154/670/67 109/671/57
f 145/672/48 135/673/34 75/674/62
f 110/369/31 145/675/48 75/367/62
f 9/676/9 21/677/19 10/678/10
f 153/679/61 10/680/10 21/681/19
f 119/682/14 155/683/13 140/684/35
f 119/682/14 140/684/35 117/685/48
f 156/686/65 134/687/69 89/688/51
f 35/689/60 6/690/6 104/691/58
f 127/533/1 147/535/20 157/692/21
f 127/693/1 157/694/21 128/695/16
f 43/696/27 41/697/31 110/698/31
f 118/699/21 19/700/20 158/701/16
f 160/702/12 158/703/16 19/704/20
f 43/705/27 110/706/31 150/707/1
f 98/708/28 109/709/57 75/710/62
f 109/711/57 120/712/66 75/713/62
f 161/714/11 148/715/75 159/716/30
f 42/717/30 151/718/24 90/719/59
f 141/720/9 97/721/40 149/722/4
f 67/551/50 149/553/4 97/723/40
f 99/724/21 100/725/16 111/726/8
f 37/727/13 157/728/21 33/729/4
f 130/459/1 33/461/4 147/730/20
f 49/731/43 42/732/30 90/733/59
f 104/734/58 107/735/56 35/736/60
f 149/737/4 148/738/75 137/739/70
f 149/740/4 137/477/70 141/479/9
f 12/434/12 99/741/21 111/435/8
f 28/742/20 136/743/36 135/744/34
f 28/56/20 135/745/34 30/54/21
f 129/746/68 146/747/1 152/748/7
f 129/749/68 152/750/7 139/751/12
f 108/752/30 98/753/28 121/754/35
f 121/755/35 98/756/28 118/757/21
f 152/758/7 112/546/42 122/545/74
f 152/759/7 122/760/74 139/761/12
f 121/762/35 137/763/70 18/764/23
f 161/765/11 18/766/23 137/767/70
f 161/714/11 137/768/70 148/715/75
f 34/769/35 145/770/48 144/771/73
f 34/772/35 144/773/73 38/774/23
f 107/775/56 49/776/43 35/777/60
f 136/778/36 28/779/20 38/780/23
f 136/781/36 38/782/23 144/783/73
f 160/784/12 19/785/20 18/786/23
f 160/787/12 18/766/23 161/765/11
f 35/788/60 90/789/59 20/790/18
f 21/791/19 20/792/18 90/793/59
f 69/794/30 68/795/46 104/796/58
f 68/795/46 107/797/56 104/796/58
f 145/798/48 34/95/35 30/97/21
f 145/672/48 30/799/21 135/673/34
f 161/800/11 159/801/30 158/802/16
f 157/803/21 162/804/51 128/805/16
f 133/445/63 132/444/40 162/806/51
f 132/807/40 125/808/15 162/809/51
f 128/810/16 162/811/51 125/812/15
f 157/813/21 106/814/7 162/815/51
f 105/816/54 162/817/51 106/818/7
f 160/819/12 161/820/11 158/821/16
f 37/822/13 31/823/41 166/824/40
f 157/825/21 37/826/13 106/827/7
f 147/828/20 33/829/4 157/830/21
f 105/816/54 95/831/52 162/817/51
f 162/832/51 95/833/52 133/834/63
f 46/835/34 76/836/48 80/837/14
f 46/835/34 80/837/14 44/838/32
f 66/57/12 32/59/16 64/839/2
f 163/840/15 64/841/2 32/842/16
f 29/843/4 108/844/30 121/845/35
f 165/846/76 95/847/52 164/848/40
f 94/849/3 164/848/40 95/847/52
f 52/850/39 133/851/63 166/852/40
f 165/853/76 166/854/40 95/855/52
f 164/856/40 76/857/48 163/858/15
f 94/859/3 76/860/48 164/861/40
f 76/862/48 46/863/34 163/864/15
f 64/841/2 163/840/15 46/865/34
f 98/866/28 25/867/22 118/868/21
f 164/869/40 163/870/15 165/871/76
f 163/872/15 32/873/16 165/874/76
f 37/875/13 166/854/40 165/853/76
f 37/876/13 165/877/76 32/878/16
f 29/879/4 121/880/35 18/881/23
f 39/882/17 24/140/20 111/142/8
