# Blender 4.4.0
# www.blender.org
# mtl  Meshy_AI__0501230243_texture.mtl
o Meshy_AI__0501230243_texture
v 0.646900 -0.412362 0.513943
v 0.609008 -1.000000 0.687570
v 0.657662 -0.987979 -0.687570
v 0.558514 -0.330483 -0.451628
v -0.616780 -0.453616 -0.595326
v -0.616780 -0.930879 -0.596160
v -0.616780 -0.933009 0.623510
v -0.657662 -0.447565 0.619050
v -0.585016 -0.420388 0.206075
v 0.270823 0.242757 0.461359
v -0.035253 -0.419004 -0.586427
v -0.106792 0.136501 -0.615037
v 0.304523 0.209755 -0.469707
v 0.478323 0.194021 0.194920
v -0.483646 0.172813 0.229232
v -0.540085 0.182161 -0.150748
v -0.585016 -0.419735 -0.168098
v 0.373077 0.005154 0.556489
v -0.375020 0.209755 -0.469707
v 0.158392 0.242919 0.368337
v -0.375020 -0.419206 -0.470806
v 0.534200 -0.479477 -0.245439
v 0.270823 -0.453919 -0.422283
v -0.465355 0.208047 -0.126817
v 0.560699 0.088050 -0.154616
v 0.552645 0.114189 0.210457
v 0.597462 -0.483624 0.243738
v 0.314500 0.254202 0.196656
v -0.457719 -0.860339 -0.516519
v -0.157176 -0.860339 -0.516519
v 0.270823 -0.455460 0.460139
v 0.270823 0.244298 -0.421063
v -0.457719 -0.843551 0.022694
v -0.157176 -0.843551 0.022694
v -0.157176 -0.931960 0.022540
v -0.457719 -0.931960 0.022540
v -0.457719 -0.842794 -0.410386
v -0.157176 -0.842794 -0.410386
v 0.478783 0.196127 -0.145347
v 0.325133 0.243587 -0.014153
v -0.257599 1.000000 -0.232723
v 0.017868 0.286832 0.405499
v -0.035253 0.244480 -0.525221
v -0.413075 0.229482 0.198251
v -0.035253 0.242575 0.565517
v -0.035253 -0.453737 -0.526441
v -0.457719 -0.860524 -0.410417
v -0.346199 0.136776 0.551426
v -0.341320 0.242757 0.461359
v 0.238236 0.243936 -0.213472
v 0.062285 0.244142 -0.331939
v -0.146880 0.244142 -0.331939
v -0.035253 0.207842 0.625503
v -0.035253 -0.455642 0.564297
v -0.341320 0.244298 -0.421063
v -0.457719 -0.931018 -0.516643
v -0.322830 0.243936 -0.213472
v -0.493072 -0.683398 -0.586916
v 0.027861 -0.383050 0.603308
v -0.493072 -0.860215 -0.587225
v -0.493072 -0.683707 -0.410108
v -0.409728 0.243587 -0.014153
v -0.493072 -0.860524 -0.410417
v -0.530484 -0.454395 -0.149598
v -0.509442 -0.454342 -0.179931
v -0.379961 0.243208 0.202736
v -0.242986 0.242919 0.368337
v -0.341320 -0.453919 -0.422283
v 0.355449 -0.862330 0.623634
v 0.178640 -0.862330 0.623634
v 0.178640 -0.685514 0.623943
v 0.355449 -0.685514 0.623943
v -0.530484 -0.454984 0.187455
v 0.368942 -0.457340 0.530708
v 0.459978 -0.454984 0.187455
v -0.494709 -0.451664 0.524864
v 0.459978 -0.454395 -0.149598
v -0.341320 -0.455460 0.460139
v -0.157176 -0.860524 -0.410417
v 0.304523 -0.419206 -0.470806
v -0.157176 -0.931018 -0.516643
v 0.355449 -0.683676 -0.427828
v 0.346610 -0.683676 -0.427828
v 0.346610 -0.860493 -0.428137
v 0.355449 -0.860493 -0.428137
v 0.346610 -0.683398 -0.586916
v -0.493072 -0.454301 -0.203529
v 0.346610 -0.860215 -0.587225
v 0.178640 -0.860524 -0.410417
v 0.178640 -0.683707 -0.410108
vn 0.5926 0.6763 0.4375
vn 0.5007 -0.5465 0.6713
vn 0.5771 -0.4832 -0.6584
vn 0.4040 0.8466 -0.3464
vn -0.5812 0.5859 -0.5648
vn -0.5981 -0.5788 -0.5543
vn -0.5710 -0.5858 0.5752
vn -0.6062 0.5660 0.5587
vn 0.5449 0.4941 -0.6775
vn 0.0019 -0.4670 -0.8843
vn -0.1161 0.2660 -0.9570
vn -0.8208 0.5599 -0.1136
vn -0.8745 -0.4191 -0.2443
vn -0.8517 0.4864 0.1949
vn -0.9172 -0.3832 0.1091
vn -0.5719 0.5033 -0.6478
vn -0.5339 -0.4575 -0.7111
vn 0.2242 0.9314 0.2867
vn 0.3646 0.8269 0.4281
vn 0.4609 0.8741 0.1533
vn 0.5718 0.8002 0.1808
vn 0.5774 0.5763 0.5783
vn 0.3015 0.9040 0.3031
vn -0.3015 0.9040 0.3031
vn 0.9083 0.2914 -0.3002
vn 0.8703 0.4146 0.2659
vn 0.7043 -0.6827 0.1947
vn 0.5736 -0.7269 -0.3776
vn 0.5706 0.2011 0.7962
vn -0.3435 -0.8859 -0.3118
vn 0.3015 -0.9040 -0.3031
vn -0.5774 -0.5764 -0.5783
vn 0.5774 -0.5763 -0.5784
vn 0.3015 -0.2999 -0.9051
vn -0.3015 -0.2999 -0.9051
vn -0.3549 0.9344 -0.0298
vn 0.5760 0.8000 -0.1680
vn 0.5381 0.8389 -0.0824
vn 0.1485 0.8422 0.5183
vn -0.2257 0.9328 -0.2811
vn 0.5774 -0.5763 -0.5783
vn -0.5095 0.8577 0.0691
vn -0.0441 0.9190 0.3917
vn 0.0222 0.8719 -0.4891
vn -0.5513 0.3035 0.7772
vn -0.4427 0.8167 0.3702
vn 0.2642 0.9407 -0.2129
vn 0.4380 0.8601 -0.2615
vn 0.1833 0.8512 -0.4918
vn -0.1553 0.8054 -0.5721
vn 0.9045 0.3020 -0.3010
vn -0.2623 0.9357 -0.2360
vn -0.5417 -0.1082 -0.8336
vn -0.9938 -0.0412 -0.1034
vn 0.3015 -0.9051 0.2999
vn -0.5761 0.7288 -0.3701
vn -0.8014 0.5966 -0.0429
vn 0.5774 0.5783 -0.5763
vn -0.8908 0.3443 -0.2964
vn -0.7898 0.2767 -0.5474
vn -0.6013 0.7634 0.2359
vn -0.2055 0.9193 0.3355
vn -0.3766 0.4833 0.7903
vn 0.2732 0.4845 0.8310
vn -0.5756 0.3297 -0.7483
vn -0.1396 -0.8900 0.4341
vn 0.3489 -0.1492 0.9252
vn -0.3315 -0.0485 0.9422
vn 0.1982 -0.5264 0.8268
vn -0.9604 -0.1952 0.1990
vn 0.3753 -0.6484 0.6624
vn -0.9470 0.3168 0.0532
vn -0.9805 0.0013 -0.1965
vn 0.2280 0.1514 0.9618
vn -0.5625 -0.5617 0.6067
vn 0.5774 -0.5783 0.5763
vn -0.9045 0.3020 -0.3010
vn 0.0041 -0.2495 0.9684
vn -0.3301 -0.8633 0.3818
vn 0.4852 -0.4663 -0.7397
vn -0.5773 -0.5784 0.5763
vn -0.3015 -0.9051 0.2999
vn -0.5773 0.5763 0.5784
vn -0.5774 -0.5784 0.5763
vn -0.5773 0.5764 0.5784
vn 0.3015 0.9051 -0.2999
vn -0.0388 0.4927 0.8693
vt 0.674294 0.625436
vt 0.699119 0.706386
vt 0.509339 0.706386
vt 0.515981 0.086206
vt 0.515981 0.296508
vt 0.437035 0.217956
vt 0.563946 0.499993
vt 0.494837 0.472951
vt 0.563946 0.296337
vt 0.204212 0.533423
vt 0.000416 0.533423
vt 0.028711 0.463094
vt 0.315312 0.342292
vt 0.315312 0.123864
vt 0.418599 0.257830
vt 0.343536 0.378268
vt 0.441128 0.223425
vt 0.441128 0.441854
vt 0.062694 0.358754
vt 0.218747 0.453482
vt 0.000318 0.453482
vt 0.215431 0.450575
vt 0.279642 0.381059
vt 0.433860 0.450575
vt 0.654061 0.402611
vt 0.545839 0.212957
vt 0.654061 0.212957
vt 0.962196 0.246638
vt 0.923970 0.268892
vt 0.923970 0.187495
vt 0.553290 0.943301
vt 0.553289 0.839874
vt 0.594469 0.873090
vt 0.859000 0.908418
vt 0.840235 0.893516
vt 0.859000 0.804368
vt 0.333807 0.686206
vt 0.444761 0.684268
vt 0.444761 0.866267
vt 0.392707 0.212206
vt 0.392707 0.000705
vt 0.514528 0.087401
vt 0.550865 0.941848
vt 0.467584 0.935228
vt 0.550865 0.838420
vt 0.420869 0.933127
vt 0.420869 0.842026
vt 0.447668 0.933127
vt 0.949115 0.736717
vt 0.923406 0.824117
vt 0.923406 0.729155
vt 0.598829 0.869174
vt 0.523985 0.817234
vt 0.598829 0.709384
vt 0.521795 0.709384
vt 0.521795 0.869174
vt 0.446951 0.817235
vt 0.893546 0.569760
vt 0.898722 0.462399
vt 0.918592 0.569760
vt 0.116277 0.874447
vt 0.084192 0.883709
vt 0.084192 0.756009
vt 0.228845 0.936034
vt 0.228845 0.832890
vt 0.277613 0.872630
vt 0.473831 0.939863
vt 0.421072 0.999987
vt 0.421072 0.935923
vt 0.034883 0.247294
vt 0.000617 0.263805
vt 0.000618 0.000179
vt 0.912778 0.196415
vt 0.873783 0.226741
vt 0.873783 0.114082
vt 0.035577 0.259444
vt 0.035577 0.000576
vt 0.093749 0.257704
vt 0.052662 0.790894
vt 0.082848 0.776606
vt 0.082848 0.889523
vt 0.877783 0.338150
vt 0.918592 0.343837
vt 0.877783 0.449122
vt 0.880619 0.322182
vt 0.906964 0.225703
vt 0.906964 0.334298
vt 0.000430 0.656968
vt 0.000430 0.540487
vt 0.023256 0.646658
vt 0.094262 0.000346
vt 0.143893 0.018911
vt 0.094262 0.259444
vt 0.922950 0.425790
vt 0.949115 0.379884
vt 0.949115 0.463657
vt 0.851733 0.543597
vt 0.818710 0.509067
vt 0.851733 0.409513
vt 0.042151 0.909871
vt 0.010326 0.882182
vt 0.042151 0.803132
vt 0.874988 0.542144
vt 0.854294 0.540363
vt 0.874988 0.413640
vt 0.257991 0.024217
vt 0.209129 0.245636
vt 0.209129 0.000037
vt 0.314676 0.315403
vt 0.267641 0.290529
vt 0.314676 0.088552
vt 0.943504 0.720921
vt 0.936106 0.638488
vt 0.965103 0.638488
vt 0.849949 0.644843
vt 0.880802 0.745937
vt 0.849949 0.773245
vt 0.912778 0.507261
vt 0.893925 0.411089
vt 0.912778 0.402374
vt 0.207846 0.454506
vt 0.187541 0.502900
vt 0.000409 0.454506
vt 0.734441 0.831384
vt 0.734441 0.700105
vt 0.739816 0.831384
vt 0.866267 0.326284
vt 0.866267 0.459296
vt 0.839818 0.330601
vt 0.000145 0.865779
vt 0.046511 0.952117
vt 0.000145 0.963650
vt 0.691851 0.105033
vt 0.668586 0.191858
vt 0.668595 0.001309
vt 0.164620 0.001268
vt 0.186044 0.001268
vt 0.186044 0.033430
vt 0.808129 0.697665
vt 0.786705 0.665502
vt 0.808129 0.534223
vt 0.880975 0.837284
vt 0.901151 0.832350
vt 0.901151 0.930220
vt 0.918709 0.047344
vt 0.956383 0.070523
vt 0.918709 0.145347
vt 0.332923 0.575574
vt 0.343042 0.523338
vt 0.526156 0.575574
vt 0.319763 0.937094
vt 0.278923 0.947662
vt 0.278923 0.848009
vt 0.549411 0.000241
vt 0.549411 0.201305
vt 0.497894 0.018078
vt 0.190404 0.658561
vt 0.095589 0.703479
vt 0.000751 0.658561
vt 0.129798 0.011628
vt 0.129798 0.000911
vt 0.135173 0.011628
vt 0.615729 0.896971
vt 0.626445 0.945194
vt 0.615729 0.950568
vt 0.920046 0.870628
vt 0.906034 0.807634
vt 0.920046 0.770616
vt 0.135173 0.118207
vt 0.126467 0.136626
vt 0.126467 0.111176
vt 0.915685 0.777628
vt 0.898460 0.789234
vt 0.898460 0.681749
vt 0.026600 0.353193
vt 0.000709 0.304824
vt 0.221654 0.304824
vt 0.044631 0.026912
vt 0.091569 0.000545
vt 0.091569 0.242729
vt 0.619178 0.401484
vt 0.601351 0.452029
vt 0.601351 0.313696
vt 0.786210 0.386195
vt 0.828477 0.297778
vt 0.828477 0.475284
vt 0.271799 0.269618
vt 0.204883 0.269618
vt 0.265142 0.027526
vt 0.816849 0.063426
vt 0.816849 0.231102
vt 0.788319 0.185731
vt 0.875756 0.228144
vt 0.895337 0.233771
vt 0.875756 0.341565
vt 0.750357 0.912663
vt 0.835745 0.870320
vt 0.835745 0.970917
vt 0.872081 0.177068
vt 0.848296 0.204939
vt 0.848296 0.081995
vt 0.938981 0.540690
vt 0.938981 0.457927
vt 0.949115 0.536540
vt 0.618741 0.885460
vt 0.629352 0.882756
vt 0.629352 0.949115
vt 0.901151 0.823803
vt 0.882891 0.832838
vt 0.882891 0.723277
vt 0.721832 0.860637
vt 0.732548 0.892799
vt 0.721832 0.914232
vt 0.207854 0.765497
vt 0.218020 0.734984
vt 0.218020 0.768885
vt 0.328520 0.873640
vt 0.418599 0.828858
vt 0.418599 0.944755
vt 0.552883 0.000734
vt 0.584294 0.059891
vt 0.552883 0.191858
vt 0.655498 0.357553
vt 0.655498 0.167217
vt 0.694758 0.287373
vt 0.784873 0.767431
vt 0.781196 0.667862
vt 0.784873 0.577094
vt 0.713300 0.000995
vt 0.752897 0.090639
vt 0.713300 0.190404
vt 0.914527 0.460750
vt 0.914207 0.359869
vt 0.934581 0.359869
vt 0.715107 0.214411
vt 0.715107 0.404064
vt 0.665187 0.404064
vt 0.481098 0.728275
vt 0.446819 0.811036
vt 0.446819 0.687074
vt 0.001171 0.845919
vt 0.001171 0.659826
vt 0.084301 0.753961
vt 0.598829 0.871304
vt 0.598829 0.950569
vt 0.565182 0.927086
vt 0.921539 0.959289
vt 0.921539 0.861288
vt 0.957836 0.940155
vt 0.975278 0.003331
vt 0.975277 0.084301
vt 0.923635 0.014512
vt 0.196110 0.908202
vt 0.234008 0.946102
vt 0.196110 0.983998
vt 0.056577 0.979638
vt 0.056577 0.903842
vt 0.094475 0.941742
vt 0.299415 0.092817
vt 0.272654 0.197672
vt 0.272654 0.000271
vt 0.094167 0.936034
vt 0.179684 0.829763
vt 0.194765 0.936034
vt 0.756248 0.348484
vt 0.761618 0.348264
vt 0.761618 0.479645
vt 0.860804 0.766580
vt 0.886616 0.871529
vt 0.860804 0.889523
vt 0.000457 0.450575
vt 0.000457 0.309191
vt 0.015988 0.398958
vt 0.851660 0.642256
vt 0.889523 0.616380
vt 0.889523 0.735455
vt 0.627898 0.860454
vt 0.601100 0.860454
vt 0.606474 0.729178
vt 0.219474 0.793344
vt 0.201643 0.805221
vt 0.201643 0.766577
vt 0.755804 0.822663
vt 0.734379 0.691387
vt 0.755804 0.659225
vt 0.210753 0.656968
vt 0.020559 0.656968
vt 0.086611 0.560329
vt 0.174305 0.230684
vt 0.229648 0.303048
vt 0.000313 0.303048
vt 0.192480 0.782075
vt 0.226741 0.888163
vt 0.192480 0.901151
vt 0.292268 0.502384
vt 0.338658 0.590108
vt 0.141533 0.590108
vt 0.347047 0.523252
vt 0.540690 0.523252
vt 0.505341 0.563946
vt 0.678770 0.930136
vt 0.630454 0.944755
vt 0.630454 0.841900
vt 0.190404 0.877895
vt 0.187729 0.877761
vt 0.190404 0.824229
vt 0.838879 0.071399
vt 0.841558 0.124998
vt 0.838879 0.124998
vt 0.845919 0.168904
vt 0.818731 0.194765
vt 0.818731 0.045245
vt 0.763047 0.308886
vt 0.787780 0.405091
vt 0.763047 0.498540
vt 0.789708 0.353193
vt 0.789708 0.191673
vt 0.816849 0.234233
vt 0.587739 0.127905
vt 0.587739 0.001291
vt 0.622085 0.031683
vt 0.758710 0.921680
vt 0.758711 0.975277
vt 0.710488 0.975277
vt 0.318051 0.973824
vt 0.366274 0.920227
vt 0.366274 0.973824
vt 0.903263 0.148254
vt 0.784170 0.000494
vt 0.924406 0.000494
vt 0.208573 0.000275
vt 0.208573 0.252177
vt 0.113858 0.169849
vt 0.747564 0.399777
vt 0.764525 0.522801
vt 0.747564 0.590108
vt 0.741840 0.806993
vt 0.760164 0.905905
vt 0.741840 0.915685
vt 0.045780 0.798270
vt 0.079941 0.891441
vt 0.045780 0.906965
vt 0.368655 0.973824
vt 0.368655 0.907914
vt 0.399704 0.949275
vt 0.229648 0.709799
vt 0.136427 0.880802
vt 0.068126 0.709799
vt 0.777606 0.598127
vt 0.777606 0.787780
vt 0.776013 0.787780
vt 0.754560 0.190404
vt 0.754560 0.000744
vt 0.784873 0.003684
vt 0.749990 0.183887
vt 0.717562 0.373541
vt 0.717562 0.183887
vt 0.757408 0.556888
vt 0.776152 0.624961
vt 0.757408 0.747083
vt 0.558132 0.279622
vt 0.517876 0.292147
vt 0.517876 0.093525
vt 0.015467 0.084569
vt 0.029069 0.002527
vt 0.029069 0.194765
vt 0.145518 0.109010
vt 0.145518 0.000217
vt 0.165695 0.005143
vt 0.625748 0.831384
vt 0.625748 0.709367
vt 0.643887 0.805674
vt 0.531969 0.376561
vt 0.441725 0.430227
vt 0.441725 0.224119
vt 0.633712 0.414988
vt 0.633712 0.604643
vt 0.511213 0.568111
vt 0.030382 0.191858
vt 0.030382 0.002205
vt 0.031976 0.191858
vt 0.774828 0.072459
vt 0.805222 0.074414
vt 0.774828 0.261624
vt 0.723376 0.656968
vt 0.723376 0.467315
vt 0.755804 0.656968
vt 0.529917 0.575254
vt 0.553772 0.683130
vt 0.364859 0.683130
vt 0.343019 0.863360
vt 0.208546 0.825290
vt 0.343019 0.705251
vt 0.975278 0.147030
vt 0.975278 0.245636
vt 0.894659 0.150707
vt 0.654061 0.210753
vt 0.545837 0.210753
vt 0.654061 0.021098
vt 0.276159 0.954929
vt 0.242945 0.919967
vt 0.276159 0.881005
vt 0.566863 0.253808
vt 0.598829 0.440749
vt 0.566863 0.446215
vt 0.705932 0.465110
vt 0.738358 0.275457
vt 0.738362 0.465110
vt 0.247169 0.517435
vt 0.219758 0.451915
vt 0.425866 0.451915
vt 0.904058 0.581571
vt 0.810232 0.686037
vt 0.810232 0.527929
vt 0.580141 0.318033
vt 0.598829 0.308429
vt 0.598829 0.414239
vt 0.390983 0.220200
vt 0.301412 0.061860
vt 0.390983 0.000592
vt 0.319036 0.380082
vt 0.099428 0.380082
vt 0.262936 0.284307
vt 0.009182 0.575574
vt 0.000953 0.536494
vt 0.194765 0.536494
vt 0.151525 0.706386
vt 0.293719 0.592787
vt 0.340112 0.706386
vt 0.635503 0.568306
vt 0.635503 0.379720
vt 0.718014 0.493336
vt 0.468691 0.432424
vt 0.518162 0.520342
vt 0.308701 0.520342
vt 0.732548 0.843012
vt 0.625878 0.839137
vt 0.732548 0.658874
vt 0.927313 0.299420
vt 0.908460 0.308135
vt 0.908460 0.203251
vt 0.770339 0.231102
vt 0.763744 0.225418
vt 0.770339 0.101056
vt 0.680404 0.946208
vt 0.685779 0.844415
vt 0.734002 0.946208
vt 0.738362 0.938941
vt 0.732988 0.938941
vt 0.738362 0.837142
vt 0.847372 0.671476
vt 0.847372 0.851733
vt 0.748871 0.839494
vt 0.600660 0.954929
vt 0.600660 0.863828
vt 0.622085 0.863828
vt 0.956382 0.789702
vt 0.934958 0.880802
vt 0.934958 0.789702
vt 0.892602 0.704932
vt 0.892602 0.596143
vt 0.912778 0.602007
vt 0.832095 0.295520
vt 0.840105 0.303334
vt 0.832095 0.433134
vt 0.781966 0.432321
vt 0.781966 0.622085
vt 0.766147 0.501438
vt 0.787780 0.189701
vt 0.787780 0.379355
vt 0.771810 0.303488
vt 0.909686 0.726734
vt 0.909687 0.624941
vt 0.941848 0.726734
vt 0.344985 0.863360
vt 0.344985 0.709155
vt 0.390983 0.805491
vt 0.946424 0.331391
vt 0.946424 0.257467
vt 0.979638 0.296430
vt 0.712200 0.203486
vt 0.672263 0.203486
vt 0.712200 0.013831
vt 0.938941 0.451982
vt 0.918009 0.549411
vt 0.918009 0.450154
vt 0.744176 0.569760
vt 0.725488 0.473555
vt 0.744176 0.463951
vt 0.902239 0.918592
vt 0.902239 0.811352
vt 0.917139 0.890666
vt 0.158796 0.078487
vt 0.158796 0.046835
vt 0.164242 0.053627
vt 0.665689 0.193311
vt 0.655889 0.099325
vt 0.665689 0.001216
vt 0.720921 0.486210
vt 0.720921 0.675863
vt 0.680986 0.637924
vt 0.872081 0.328484
vt 0.809019 0.273688
vt 0.872081 0.188726
vt 0.878445 0.562492
vt 0.878445 0.450816
vt 0.898244 0.457093
vt 0.741372 0.430227
vt 0.741372 0.240628
vt 0.773245 0.240628
vt 0.303374 0.593559
vt 0.495633 0.593559
vt 0.308659 0.624992
vt 0.813943 0.510535
vt 0.786262 0.601736
vt 0.786262 0.416523
vt 0.446555 0.924406
vt 0.446555 0.818709
vt 0.492726 0.862589
vt 0.837983 0.972371
vt 0.837983 0.895215
vt 0.889523 0.936297
vt 0.947662 0.636619
vt 0.903098 0.589526
vt 0.947662 0.538618
vt 0.321788 0.966557
vt 0.321788 0.868553
vt 0.367728 0.915418
vt 0.988359 0.929023
vt 0.988359 0.992719
vt 0.930101 0.956228
vt 0.918592 0.988359
vt 0.860004 0.958792
vt 0.918592 0.924956
vt 0.933502 0.118671
vt 0.989812 0.086533
vt 0.989812 0.149707
vt 0.943301 0.370635
vt 0.913055 0.328683
vt 0.943301 0.273219
s 1
usemtl Material.001
f 1/1/1 2/2/2 3/3/3
f 1/4/1 3/5/3 4/6/4
f 5/7/5 6/8/6 7/9/7
f 5/10/5 7/11/7 8/12/8
f 13/13/9 11/14/10 12/15/11
f 16/16/12 17/17/13 15/18/14
f 9/19/15 15/20/14 17/21/13
f 19/22/16 12/23/11 11/24/10
f 19/25/16 11/26/10 21/27/17
f 20/28/18 10/29/19 28/30/20
f 10/31/19 14/32/21 28/33/20
f 60/34/22 29/35/23 30/36/24
f 25/37/25 26/38/26 27/39/27
f 25/40/25 27/41/27 22/42/28
f 10/43/19 18/44/29 14/45/21
f 35/46/30 36/47/31 34/48/32
f 33/49/33 34/50/32 36/51/31
f 37/52/34 38/53/35 34/54/32
f 37/55/34 34/56/32 33/57/33
f 24/58/36 19/59/16 16/60/12
f 26/61/26 14/62/21 18/63/29
f 14/64/21 39/65/37 40/66/38
f 14/67/21 40/68/38 28/69/20
f 42/70/39 20/71/18 41/72/40
f 37/73/34 61/74/41 38/75/35
f 28/76/20 41/77/40 20/78/18
f 14/79/21 26/80/26 39/81/37
f 25/82/25 39/83/37 26/84/26
f 44/85/42 24/86/36 15/87/14
f 16/88/12 15/89/14 24/90/36
f 28/91/20 40/92/38 41/93/40
f 42/94/39 45/95/43 20/96/18
f 12/97/11 43/98/44 13/99/9
f 48/100/45 49/101/46 15/102/14
f 13/103/9 32/104/47 25/105/25
f 50/106/48 41/107/40 40/108/38
f 50/109/48 51/110/49 41/111/40
f 49/112/46 44/113/42 15/114/14
f 32/115/47 39/116/37 25/117/25
f 43/118/44 32/119/47 13/120/9
f 51/121/49 52/122/50 41/123/40
f 37/124/34 33/125/33 47/126/51
f 36/127/31 47/128/51 33/129/33
f 55/130/52 43/131/44 12/132/11
f 31/133/53 54/134/54 1/135/1
f 56/136/55 29/137/23 47/138/51
f 56/139/55 47/140/51 36/141/31
f 19/142/16 55/143/52 12/144/11
f 10/145/19 20/146/18 45/147/43
f 52/148/50 57/149/56 41/150/40
f 49/151/46 48/152/45 45/153/43
f 62/154/57 41/155/40 57/156/56
f 90/157/31 38/158/35 61/159/41
f 47/160/51 63/161/58 37/162/34
f 61/163/41 37/164/34 63/165/58
f 44/166/42 62/167/57 24/168/36
f 64/169/59 17/170/13 65/171/60
f 55/172/52 19/173/16 24/174/36
f 62/175/57 66/176/61 41/177/40
f 66/178/61 67/179/62 41/180/40
f 69/181/63 70/182/64 2/183/2
f 68/184/65 46/185/66 5/186/5
f 67/187/62 42/188/39 41/189/40
f 1/190/1 71/191/67 72/192/68
f 17/193/13 64/194/59 9/195/15
f 4/196/4 23/197/69 77/198/70
f 31/199/53 74/200/71 54/201/54
f 44/202/42 49/203/46 66/204/61
f 44/205/42 66/206/61 62/207/57
f 73/208/72 9/209/15 64/210/59
f 63/211/58 29/212/23 60/213/22
f 47/214/51 29/215/23 63/216/58
f 75/217/73 31/218/53 1/219/1
f 4/220/4 77/221/70 1/222/1
f 1/223/1 8/224/8 71/225/67
f 1/226/1 54/227/54 8/228/8
f 54/229/54 78/230/74 8/231/8
f 76/232/75 9/233/15 73/234/72
f 90/235/31 61/236/41 58/237/76
f 69/238/63 2/239/2 72/240/68
f 2/241/2 1/242/1 72/243/68
f 66/244/61 49/245/46 67/246/62
f 49/247/46 45/248/43 67/249/62
f 42/250/39 67/251/62 45/252/43
f 60/253/22 58/254/76 61/255/41
f 60/256/22 61/257/41 63/258/58
f 75/259/73 1/260/1 77/261/70
f 73/262/72 8/263/8 78/264/74
f 38/265/35 79/266/77 34/267/32
f 74/268/71 59/269/78 54/270/54
f 6/271/6 81/272/79 56/273/55
f 75/274/73 27/275/27 31/276/53
f 35/277/30 34/278/32 79/279/77
f 30/280/24 81/281/79 79/282/77
f 35/283/30 79/284/77 81/285/79
f 2/286/2 7/287/7 35/288/30
f 36/289/31 35/290/30 7/291/7
f 27/292/27 74/293/71 31/294/53
f 22/295/28 80/296/80 25/297/25
f 36/298/31 6/299/6 56/300/55
f 78/301/74 76/302/75 73/303/72
f 82/304/81 83/305/82 84/306/24
f 82/307/81 84/308/24 85/309/83
f 77/310/70 22/311/28 27/312/27
f 6/313/6 36/314/31 7/315/7
f 59/316/78 76/317/75 78/318/74
f 77/319/70 27/320/27 75/321/73
f 86/322/84 88/323/85 84/324/24
f 86/325/84 84/326/24 83/327/82
f 3/328/3 2/329/2 35/330/30
f 3/331/3 35/332/30 81/333/79
f 3/334/3 81/335/79 6/336/6
f 77/337/70 23/338/69 80/339/80
f 80/340/80 22/341/28 77/342/70
f 62/343/57 57/344/56 24/345/36
f 59/346/78 48/347/45 76/348/75
f 69/349/63 85/350/83 84/351/24
f 69/352/63 84/353/24 89/354/86
f 69/355/63 89/356/86 70/357/64
f 2/358/2 70/359/64 7/360/7
f 70/361/64 71/362/67 7/363/7
f 73/364/72 64/365/59 8/366/8
f 11/367/10 80/368/80 23/369/69
f 59/370/78 78/371/74 54/372/54
f 4/373/4 3/374/3 5/375/5
f 80/376/80 13/377/9 25/378/25
f 82/379/81 72/380/68 83/381/82
f 90/382/31 83/383/82 72/384/68
f 71/385/67 90/386/31 72/387/68
f 8/388/8 7/389/7 71/390/67
f 18/391/29 53/392/87 59/393/78
f 68/394/65 5/395/5 87/396/60
f 80/397/80 11/398/10 13/399/9
f 86/400/84 83/401/82 90/402/31
f 70/403/64 89/404/86 90/405/31
f 70/406/64 90/407/31 71/408/67
f 6/409/6 5/410/5 3/411/3
f 74/412/71 18/413/29 59/414/78
f 46/415/66 11/416/10 23/417/69
f 17/418/13 16/419/12 19/420/16
f 17/421/13 19/422/16 21/423/17
f 58/424/76 60/425/22 86/426/84
f 27/427/27 26/428/26 18/429/29
f 27/430/27 18/431/29 74/432/71
f 9/433/15 76/434/75 15/435/14
f 48/436/45 15/437/14 76/438/75
f 68/439/65 21/440/17 46/441/66
f 65/442/60 87/443/60 5/444/5
f 89/445/86 38/446/35 90/447/31
f 79/448/77 38/449/35 89/450/86
f 59/451/78 53/452/87 48/453/45
f 30/454/24 29/455/23 56/456/55
f 30/457/24 56/458/55 81/459/79
f 21/460/17 11/461/10 46/462/66
f 64/463/59 65/464/60 5/465/5
f 5/466/5 8/467/8 64/468/59
f 88/469/85 60/470/22 30/471/24
f 79/472/77 89/473/86 30/474/24
f 88/475/85 30/476/24 89/477/86
f 88/478/85 89/479/86 84/480/24
f 88/481/85 86/482/84 60/483/22
f 45/484/43 48/485/45 53/486/87
f 10/487/19 45/488/43 53/489/87
f 17/490/13 68/491/65 87/492/60
f 17/493/13 87/494/60 65/495/60
f 5/496/5 46/497/66 4/498/4
f 58/499/76 86/500/84 90/501/31
f 18/502/29 10/503/19 53/504/87
f 17/505/13 21/506/17 68/507/65
f 72/508/68 82/509/81 85/510/83
f 72/511/68 85/512/83 69/513/63
f 23/514/69 4/515/4 46/516/66
f 39/517/37 32/518/47 50/519/48
f 39/520/37 50/521/48 40/522/38
f 55/523/52 52/524/50 43/525/44
f 32/526/47 43/527/44 51/528/49
f 50/529/48 32/530/47 51/531/49
f 51/532/49 43/533/44 52/534/50
f 52/535/50 55/536/52 57/537/56
f 24/538/36 57/539/56 55/540/52
