# Blender 4.4.0
# www.blender.org
mtllib Meshy_AI__0423030947_texture.mtl
o Meshy_AI__0423030947_texture
v 0.711636 0.091335 0.968722
v 0.886899 -0.518939 0.937957
v 0.886899 -0.531029 -0.931103
v 0.794849 0.023925 -1.000000
v 0.821124 0.050186 -0.963603
v 0.738859 0.118396 0.951514
v -0.869829 0.174681 -0.915648
v -0.886899 0.174681 -0.915648
v -0.870185 0.319629 0.892462
v -0.856240 0.264011 0.909349
v -0.186041 0.531029 1.000000
v -0.869829 0.174552 -0.935667
v -0.869829 -0.531029 -0.931103
v -0.355077 0.382185 -0.936674
v -0.869829 -0.518939 0.937957
v -0.831493 0.272564 0.937048
v -0.779572 -0.521269 0.577712
v -0.779572 -0.528116 -0.480783
v 0.175380 -0.055154 -0.483854
v -0.691972 0.244285 -0.418570
v 0.674600 0.136246 -0.448736
v 0.713402 0.173730 0.754480
v -0.691972 0.251726 0.731735
v -0.691972 -0.009717 0.733427
v -0.691972 -0.017158 -0.416878
v 0.729331 -0.521269 0.577712
v -0.779572 -0.048307 0.574642
v -0.779572 -0.055154 -0.483854
v 0.729331 -0.528116 -0.480783
v 0.709064 -0.017158 -0.416878
v 0.175380 -0.017158 -0.416878
v 0.175380 -0.009717 0.733427
v -0.269488 0.060064 0.934212
v 0.175380 0.060064 0.934212
v 0.709064 -0.009717 0.733427
v 0.175380 -0.475771 0.937678
v -0.269488 -0.475771 0.937678
v 0.729331 -0.048307 0.574642
v 0.729331 -0.055154 -0.483854
v -0.269488 0.058762 0.732984
v -0.269488 -0.009717 0.733427
v 0.175380 0.058762 0.732984
v 0.175380 -0.478101 0.577433
v -0.269488 -0.478101 0.577433
v -0.269488 0.051322 -0.417321
v 0.175380 0.051322 -0.417321
v -0.269488 -0.048307 0.574642
v -0.269488 -0.017158 -0.416878
v -0.269488 0.049834 -0.647351
v 0.175380 0.049834 -0.647351
v 0.175380 -0.486001 -0.643885
v -0.269488 -0.486001 -0.643885
v -0.269488 -0.484948 -0.481063
v 0.175380 -0.484948 -0.481063
v 0.175380 -0.048307 0.574642
v -0.269488 -0.055154 -0.483854
vn 0.6124 -0.5736 -0.5439
vn 0.6892 0.6169 -0.3800
vn 0.6350 -0.5210 0.5703
vn 0.3204 0.3156 -0.8932
vn 0.6327 0.5944 0.4964
vn 0.1523 0.2008 0.9677
vn -0.7047 -0.0687 -0.7062
vn -0.8385 0.1553 0.5223
vn -0.7707 0.4741 0.4258
vn -0.8308 -0.1986 -0.5199
vn -0.5557 0.6005 -0.5749
vn -0.5774 -0.5810 -0.5736
vn -0.5814 -0.5694 0.5812
vn -0.2708 0.7826 0.5606
vn 0.0413 0.7205 0.6922
vn -0.0423 0.7370 -0.6745
vn -0.3015 -0.9026 0.3074
vn 0.3015 -0.9026 0.3074
vn 0.5598 -0.5929 0.5789
vn -0.5173 -0.5261 0.6750
vn -0.5992 -0.5256 -0.6039
vn 0.5631 -0.5981 -0.5702
vn 0.3015 -0.9065 -0.2957
vn 0.5774 0.5736 -0.5811
vn 0.5773 0.5811 0.5736
vn 0.3015 -0.2956 0.9065
vn -0.2927 -0.2098 0.9329
vn -0.3015 -0.9065 -0.2957
vn 0.5773 -0.5736 0.5811
vn 0.5773 -0.5811 -0.5736
vn -0.3212 -0.4233 0.8471
vn -0.5827 0.6073 -0.5400
vn -0.6537 0.5579 0.5113
vn -0.3015 0.3074 0.9026
vn 0.3015 0.3074 0.9026
vn -0.3015 0.2956 -0.9065
vn -0.5773 -0.5811 -0.5736
vn -0.9045 -0.2995 0.3035
vn -0.5773 -0.5736 0.5811
vn -0.9045 -0.3035 -0.2996
vn 0.9045 0.2995 -0.3035
vn 0.3014 -0.3074 0.9026
vn 0.3015 -0.3074 -0.9026
vn -0.9045 0.3035 0.2996
vn -0.9045 0.2995 -0.3035
vn -0.2961 -0.2560 -0.9202
vn 0.3015 0.2957 -0.9065
vn 0.9045 -0.3035 -0.2996
vn 0.9045 0.3035 0.2996
vn 0.9045 -0.2995 0.3035
vn -0.5773 0.5811 0.5736
vt 0.228313 0.127085
vt 0.225906 0.000763
vt 0.632930 0.139240
vt 0.217837 0.006038
vt 0.640985 0.000763
vt 0.644512 0.006630
vt 0.178644 0.564576
vt 0.175643 0.255470
vt 0.188285 0.259840
vt 0.594934 0.140764
vt 0.594671 0.529534
vt 0.591267 0.140764
vt 0.178867 0.567937
vt 0.021125 0.573837
vt 0.000309 0.260076
vt 0.177206 0.247083
vt 0.365693 0.159960
vt 0.573781 0.173452
vt 0.332325 0.588535
vt 0.594934 0.595989
vt 0.306310 0.936651
vt 0.306322 0.612880
vt 0.402952 0.593513
vt 0.217239 0.587020
vt 0.217240 0.187073
vt 0.748942 0.369197
vt 0.696189 0.258514
vt 0.748677 0.365541
vt 0.748942 0.001422
vt 0.999996 0.332579
vt 0.999996 0.626335
vt 0.741361 0.628690
vt 0.752988 0.326909
vt 0.215189 0.584386
vt 0.206591 0.579034
vt 0.215189 0.204842
vt 0.079190 0.612880
vt 0.001889 0.593513
vt 0.142571 0.013973
vt 0.234176 0.138662
vt 0.255273 0.618125
vt 0.255273 0.864973
vt 0.199182 0.618128
vt 0.129495 0.456398
vt 0.144805 0.393371
vt 0.187944 0.454212
vt 0.144805 0.327608
vt 0.164179 0.258280
vt 0.199182 0.864976
vt 0.136307 0.015365
vt 0.001875 0.970460
vt 0.079177 0.936651
vt 0.402938 0.970460
vt 0.957802 0.227840
vt 0.856326 0.227847
vt 0.856326 0.000691
vt 0.957802 0.000684
vt 0.129752 0.100725
vt 0.157416 0.050278
vt 0.116684 0.056185
vt 0.129495 0.249289
vt 0.204641 0.222636
vt 0.204641 0.571728
vt 0.198595 0.566124
vt 0.009960 0.105206
vt 0.009960 0.170969
vt 0.750830 0.324893
vt 0.760093 0.206030
vt 0.852317 0.324893
vt 0.121846 0.339779
vt 0.025761 0.343372
vt 0.121846 0.257891
vt 0.210714 0.204976
vt 0.658825 0.877634
vt 0.658829 0.758712
vt 0.886068 0.877634
vt 0.886073 0.758712
vt 0.434861 0.640310
vt 0.478047 0.740579
vt 0.434866 0.755271
vt 0.478048 0.755271
vt 0.129752 0.166488
vt 0.196202 0.864753
vt 0.081751 0.864976
vt 0.081751 0.618238
vt 0.196202 0.618015
vt 0.131993 0.134505
vt 0.116684 0.135078
vt 0.856537 0.632323
vt 0.856537 0.727845
vt 0.779169 0.632172
vt 0.779169 0.727695
vt 0.000309 0.000386
vt 0.750830 0.001121
vt 0.512167 0.640310
vt 0.512173 0.732521
vt 0.129495 0.393944
vt 0.129495 0.328181
vt 0.739320 0.732521
vt 0.724895 0.740579
vt 0.563289 0.600741
vt 0.563289 0.696198
vt 0.513929 0.696200
vt 0.513929 0.600743
vt 0.852317 0.001121
vt 0.852317 0.110572
vt 0.760093 0.110572
vt 0.502040 0.632909
vt 0.406591 0.632909
vt 0.406659 0.597968
vt 0.502108 0.597968
vt 0.405765 0.852566
vt 0.632909 0.852566
vt 0.405761 0.962022
vt 0.016110 0.261844
vt 0.016110 0.484899
vt 0.025761 0.409135
vt 0.013972 0.165680
vt 0.110058 0.162088
vt 0.147367 0.366224
vt 0.147367 0.431987
vt 0.027574 0.370705
vt 0.027574 0.436468
vt 0.739313 0.640310
vt 0.774253 0.640310
vt 0.774259 0.755271
vt 0.724896 0.755271
vt 0.852317 0.206029
vt 0.121846 0.480946
vt 0.121846 0.405542
vt 0.632905 0.962022
vt 0.668825 0.242537
vt 0.627355 0.333332
vt 0.668825 0.146932
vt 0.683542 0.242537
vt 0.683542 0.333332
vt 0.644155 0.031321
vt 0.683542 0.146932
vt 0.683542 0.032240
vt 0.301687 0.713076
vt 0.258507 0.713077
vt 0.258507 0.617621
vt 0.301687 0.617619
vt 0.584616 0.727845
vt 0.616882 0.369985
vt 0.736284 0.350237
vt 0.736284 0.727845
vt 0.407027 0.757471
vt 0.653830 0.757471
vt 0.654006 0.848098
vt 0.407204 0.848098
vt 0.110058 0.080200
vt 0.004321 0.084153
s 1
usemtl Material.002
f 3/1/1 5/2/2 2/3/3
f 4/4/4 5/2/2 3/1/1
f 5/2/2 6/5/5 2/3/3
f 1/6/6 2/3/3 6/5/5
f 7/7/7 10/8/8 9/9/9
f 7/10/7 9/11/9 8/12/10
f 12/13/11 13/14/12 7/7/7
f 15/15/13 16/16/14 10/8/8
f 11/17/15 6/18/5 14/19/16
f 14/19/16 6/18/5 5/20/2
f 10/8/8 7/7/7 15/15/13
f 13/14/12 15/15/13 7/7/7
f 29/21/17 18/22/18 13/23/12
f 8/24/10 9/25/9 14/19/16
f 8/26/10 14/27/16 7/28/7
f 7/28/7 14/27/16 5/29/2
f 11/17/15 14/19/16 9/25/9
f 20/30/19 21/31/20 22/32/21
f 20/30/19 22/32/21 23/33/22
f 5/34/2 4/35/4 7/36/7
f 17/37/23 15/38/13 18/22/18
f 15/38/13 13/23/12 18/22/18
f 6/39/5 11/40/15 10/8/8
f 24/41/24 25/42/25 23/43/22
f 9/9/9 10/8/8 11/40/15
f 25/44/25 45/45/26 20/46/19
f 20/46/19 46/47/27 21/48/20
f 20/49/19 23/43/22 25/42/25
f 6/39/5 10/8/8 1/50/6
f 2/51/3 26/52/28 29/21/17
f 13/23/12 3/53/1 29/21/17
f 2/51/3 29/21/17 3/53/1
f 18/54/18 28/55/29 27/56/30
f 18/54/18 27/56/30 17/57/23
f 1/50/6 16/16/14 34/58/31
f 22/59/21 21/48/20 35/60/32
f 30/61/33 35/60/32 21/48/20
f 1/62/6 10/63/8 16/64/14
f 36/65/34 37/66/35 15/15/13
f 26/67/28 43/68/36 38/69/37
f 19/70/38 54/71/34 39/72/39
f 15/38/13 26/52/28 2/51/3
f 4/35/4 12/73/11 7/36/7
f 38/74/37 55/75/40 39/76/39
f 19/77/38 39/76/39 55/75/40
f 17/37/23 26/52/28 15/38/13
f 37/78/35 41/79/41 33/80/42
f 40/81/43 33/80/42 41/79/41
f 37/66/35 33/82/42 15/15/13
f 16/16/14 15/15/13 33/82/42
f 33/82/42 34/58/31 16/16/14
f 30/83/33 31/84/44 32/85/45
f 30/83/33 32/85/45 35/86/32
f 34/58/31 42/87/46 32/88/45
f 34/58/31 32/88/45 36/65/34
f 37/89/35 36/90/34 44/91/47
f 43/92/36 44/91/47 36/90/34
f 15/15/13 2/93/3 36/65/34
f 36/65/34 2/93/3 34/58/31
f 20/46/19 45/45/26 46/47/27
f 26/67/28 17/94/23 43/68/36
f 44/95/47 47/96/48 37/78/35
f 25/44/25 48/97/49 45/45/26
f 31/98/44 30/61/33 46/47/27
f 30/61/33 21/48/20 46/47/27
f 41/79/41 37/78/35 47/96/48
f 56/99/50 48/100/49 47/96/48
f 41/79/41 47/96/48 48/100/49
f 49/101/29 50/102/39 46/103/27
f 49/101/29 46/103/27 45/104/26
f 27/105/30 47/106/48 44/107/47
f 44/107/47 43/68/36 17/94/23
f 27/105/30 44/107/47 17/94/23
f 51/108/51 52/109/25 53/110/35
f 51/108/51 53/110/35 54/111/34
f 27/112/30 28/113/29 47/114/48
f 29/115/17 54/71/34 18/116/18
f 53/117/35 18/116/18 54/71/34
f 43/118/36 36/65/34 55/119/40
f 32/88/45 55/119/40 36/65/34
f 50/120/39 49/121/29 51/122/51
f 52/123/25 51/122/51 49/121/29
f 56/99/50 53/124/35 52/125/25
f 56/99/50 52/125/25 49/126/29
f 31/98/44 55/119/40 32/88/45
f 49/126/29 48/100/49 56/99/50
f 45/127/26 48/100/49 49/126/29
f 55/128/40 38/69/37 43/68/36
f 18/116/18 53/117/35 28/129/29
f 56/130/50 28/129/29 53/117/35
f 56/131/50 47/114/48 28/113/29
f 40/132/43 23/133/22 42/134/46
f 54/71/34 19/70/38 51/122/51
f 41/135/41 24/136/24 40/132/43
f 24/136/24 23/133/22 40/132/43
f 22/137/21 42/134/46 23/133/22
f 51/122/51 19/70/38 50/120/39
f 19/70/38 31/98/44 50/120/39
f 55/119/40 31/98/44 19/70/38
f 46/47/27 50/120/39 31/98/44
f 32/138/45 42/134/46 35/139/32
f 22/137/21 35/139/32 42/134/46
f 29/115/17 39/72/39 54/71/34
f 42/140/46 34/141/31 33/142/42
f 42/140/46 33/142/42 40/143/43
f 1/50/6 34/58/31 2/93/3
f 12/144/11 4/145/4 3/146/1
f 13/147/12 12/144/11 3/146/1
f 41/148/41 48/149/49 25/150/25
f 41/148/41 25/150/25 24/151/24
f 39/72/39 29/115/17 38/152/37
f 26/153/28 38/152/37 29/115/17
