# Blender 4.4.0
# www.blender.org
mtllib lift.mtl
o Meshy_AI__0418154706_texture
v 0.749989 -0.062733 -0.999971
v 0.749989 -0.062265 1.000000
v 0.749989 0.062265 -1.000000
v 0.749989 0.062733 0.999971
v -0.749989 -0.062265 1.000000
v -0.749989 -0.062733 -0.999971
v -0.749989 0.062733 0.999971
v -0.749989 0.062265 -1.000000
vn 0.5773 -0.5775 -0.5772
vn 0.5774 0.5772 -0.5775
vn 0.5774 -0.5772 0.5775
vn 0.5773 0.5775 0.5772
vn -0.5773 -0.5772 0.5775
vn -0.5774 0.5775 0.5772
vn -0.5774 -0.5775 -0.5772
vn -0.5773 0.5772 -0.5775
vt 0.666665 0.669684
vt 0.666665 0.711239
vt 0.001794 0.669685
vt 0.001794 0.711239
vt 0.001794 0.755813
vt 0.001794 0.714258
vt 0.666665 0.755813
vt 0.666665 0.714258
vt 0.499030 0.000825
vt 0.499030 0.665697
vt 0.000376 0.000825
vt 0.000376 0.665697
vt 0.501344 0.666665
vt 0.501344 0.001794
vt 0.999998 0.666665
vt 0.999998 0.001794
vt 0.499999 0.803405
vt 0.499999 0.844960
vt 0.001345 0.803405
vt 0.001345 0.844960
vt 0.499999 0.758832
vt 0.499999 0.800386
vt 0.001345 0.758832
vt 0.001345 0.800386
s 1
usemtl Material.003
f 1/1/1 3/2/2 2/3/3
f 3/2/2 4/4/4 2/3/3
f 5/5/5 7/6/6 6/7/7
f 7/6/6 8/8/8 6/7/7
f 5/9/5 6/10/7 2/11/3
f 6/10/7 1/12/1 2/11/3
f 8/13/8 7/14/6 3/15/2
f 7/14/6 4/16/4 3/15/2
f 6/17/7 8/18/8 1/19/1
f 8/18/8 3/20/2 1/19/1
f 2/21/3 4/22/4 5/23/5
f 4/22/4 7/24/6 5/23/5
