# Blender 4.4.0
# www.blender.org
# mtl  machine.mtl
o Meshy_AI_I_need_a_machine_with_0418153521_texture
v 0.058338 -0.461028 -0.784541
v 0.071370 -0.373512 -0.790071
v 0.078487 -0.413562 -0.826576
v -0.189849 -0.400337 -0.819427
v -0.149274 -0.378038 -0.792946
v -0.257248 -0.403364 -0.800341
v -0.438691 -0.477441 -0.781799
v -0.075237 -0.425308 -0.789304
v 0.207340 -0.399667 -0.799891
v 0.422044 -0.471064 -0.784025
v -0.343369 -0.406134 -0.804490
v -0.448439 -0.375306 -0.782646
v 0.448056 -0.383049 -0.784278
v -0.458621 0.084263 -0.778078
v 0.455186 0.481062 -0.775080
v 0.454654 0.084207 -0.778078
v -0.459535 0.482751 -0.775741
v -0.578900 0.065368 -0.702409
v 0.577137 0.476820 -0.701460
v 0.533536 0.608028 -0.699456
v 0.533942 -0.234492 -0.699617
v 0.611028 -0.328599 -0.700565
v 0.348634 -0.234307 -0.699431
v -0.493491 -0.052641 -0.699686
v 0.584602 0.328962 -0.701004
v 0.551176 0.025624 -0.704325
v -0.631361 -0.462803 -0.699514
v 0.495488 -0.053295 -0.699467
v -0.572761 0.588371 -0.700026
v -0.774312 -0.863944 -0.742650
v -0.806450 -0.816564 -0.742384
v 0.767738 -0.863908 -0.742678
v -0.898684 -0.789323 -0.740785
v 0.835297 -0.894175 -0.703972
v 0.875209 -0.793545 -0.744732
v 0.752353 -0.815201 -0.735606
v 0.834604 -0.734771 -0.742261
v 0.896962 -0.748121 -0.738317
v -0.838616 -0.630704 -0.741728
v -0.896000 -0.252404 -0.742783
v -0.531660 -0.593893 -0.699798
v 0.828294 0.117396 -0.742058
v 0.897507 -0.146266 -0.742439
v -0.895820 0.766446 -0.742704
v 0.811768 0.423109 -0.742618
v 0.898560 0.732097 -0.742254
v 0.803357 0.786076 -0.739957
v -0.835429 0.728368 -0.735652
v 0.805156 0.867552 -0.741311
v -0.790854 0.809055 -0.739753
v -0.797756 0.872728 -0.739253
v -0.580635 0.883735 -0.740446
v -0.161803 0.824438 -0.741840
v 0.652949 0.871530 -0.742692
v 0.597251 0.821302 -0.737523
v 0.814812 0.905869 -0.696117
v -0.200634 -0.891988 -0.714602
v 0.775741 -0.891985 -0.714597
v 0.785946 -0.803700 -0.695063
v 0.916553 -0.391867 -0.712573
v 0.914762 0.800877 -0.712947
v 0.620517 -0.467754 -0.699257
v -0.935737 0.737832 -0.678604
v 0.529111 -0.596854 -0.699460
v 0.810617 0.586138 -0.700538
v -0.828117 -0.898928 -0.697933
v -0.767693 -0.813400 -0.697357
v -0.834006 -0.735126 -0.698753
v -0.612143 -0.330491 -0.699858
v 0.828661 -0.739144 -0.697460
v 0.651169 0.818549 -0.707219
v 0.761899 0.802807 -0.695811
v -0.660922 0.818523 -0.707212
v 0.642880 0.915111 -0.668711
v -0.536439 -0.234787 -0.699686
v -0.831831 0.747524 -0.696015
v -0.921237 0.801206 -0.706262
v -0.816078 0.905066 -0.690623
v -0.557985 0.916531 -0.661450
v -0.939281 -0.407254 -0.675137
v -0.765001 0.807694 -0.696927
v -0.477608 -0.813920 -0.696850
v 0.687134 -0.811079 -0.698705
v 0.823859 0.111754 -0.696425
v 0.939342 0.611841 -0.667093
v -0.919157 -0.829302 -0.606619
v -0.817659 -0.786543 -0.685558
v 0.659554 0.807530 -0.699420
v -0.093337 0.807830 -0.699417
v -0.676745 -0.741428 -0.698542
v 0.723274 -0.733413 -0.694480
v 0.939039 -0.307267 -0.656954
v 0.815538 -0.907455 -0.664738
v 0.687257 -0.776277 -0.676736
v 0.935430 -0.733433 -0.679132
v 0.001071 -0.903958 -0.678726
v -0.758296 -0.757821 -0.624653
v 0.803784 -0.768276 -0.597335
v -0.675218 0.915818 -0.653093
v -0.940840 -0.734266 -0.626892
v 0.936244 0.823509 -0.595468
v 0.925533 -0.829293 -0.602637
v -0.749662 -0.904648 -0.599490
v -0.751618 -0.904700 -0.461392
v -0.666749 -0.904412 -0.644809
v -0.535472 -0.902108 -0.589501
v -0.608610 -0.904255 -0.642862
v 0.557474 -0.906405 -0.624382
v 0.750691 -0.906401 -0.586305
v 0.935385 -0.619176 -0.586857
v 0.558556 0.918247 -0.625392
v 0.618930 0.953421 -0.629625
v 0.747629 0.920099 -0.603458
v -0.671838 0.955329 -0.639250
v -0.707150 -0.960687 -0.631092
v 0.626707 -0.955133 -0.643439
v 0.865579 -0.874354 -0.571039
v 0.936732 -0.729517 -0.585108
v -0.517622 -0.957992 -0.538541
v -0.937671 0.731074 -0.589152
v -0.837864 -0.895287 -0.479470
v 0.530597 0.952948 -0.550512
v 0.742845 -0.957231 -0.565638
v -0.538301 0.915124 -0.594166
v -0.934826 0.598036 -0.586936
v -0.769185 0.911443 -0.550274
v 0.520348 -0.958571 -0.515920
v 0.523492 -0.898672 -0.584739
v -0.869077 0.868604 -0.578091
v -0.529716 0.956313 -0.455205
v 0.935443 0.653897 -0.586990
v -0.827449 0.896741 -0.484805
v 0.944941 0.735379 -0.566056
v -0.934105 -0.703851 -0.584232
v 0.506623 0.907590 -0.583405
v -0.942864 -0.743938 -0.550367
v 0.865591 0.871143 -0.575593
v 0.912827 -0.753488 -0.576561
v 0.909394 -0.478258 -0.585535
v -0.908996 -0.721531 -0.576815
v -0.908982 -0.474926 -0.585378
v -0.908003 0.767184 -0.585000
v 0.908707 0.763794 -0.585488
v 0.910925 0.823285 -0.583145
v -0.911260 0.821335 -0.577394
v 0.524503 0.892312 -0.578194
v -0.531491 0.894306 -0.581858
v -0.511985 -0.892201 -0.483586
v 0.911125 -0.815735 -0.565259
v 0.908282 -0.616064 -0.492719
v 0.903680 -0.429253 0.034479
v -0.907686 -0.737913 0.058104
v 0.907937 0.769476 -0.493690
v -0.505736 0.892296 -0.493839
v 0.723157 0.956073 -0.435067
v 0.555643 -0.892152 -0.424012
v 0.946168 -0.744327 -0.543838
v 0.676999 0.892314 -0.392202
v 0.507082 0.892353 -0.476969
v -0.911475 -0.808900 -0.412675
v -0.709845 0.901303 -0.405829
v -0.745716 0.954297 -0.503190
v 0.808835 0.901626 -0.472518
v 0.748616 -0.904585 -0.461462
v 0.741365 0.894847 -0.451023
v -0.727933 -0.958963 -0.452595
v 0.917761 -0.759358 -0.486441
v 0.646982 -0.957192 -0.393663
v -0.917636 0.784333 -0.488997
v 0.564366 0.952419 -0.442460
v 0.858624 -0.870236 0.048882
v -0.590264 -0.952629 -0.420552
v -0.666644 -0.894259 -0.396539
v -0.584510 0.892142 -0.409345
v 0.678520 -0.892931 -0.401535
v 0.912985 -0.808749 -0.230353
v -0.826671 -0.890748 -0.161108
v 0.910074 0.777171 -0.013313
v 0.863758 0.872833 0.634770
v -0.743604 0.893898 0.048471
v 0.908642 -0.762592 0.573017
v 0.822558 -0.892046 0.201305
v -0.859296 -0.878867 0.046954
v -0.824152 -0.892534 0.112827
v -0.915968 0.784097 0.285123
v -0.609778 -0.892123 0.393297
v -0.908331 0.768876 0.481832
v -0.922991 -0.822635 0.256158
v 0.745083 0.892167 0.216731
v 0.911143 0.821904 0.570870
v 0.907667 -0.817262 0.556991
v -0.909944 0.824302 0.572529
v -0.908014 -0.758915 0.463358
v 0.772884 0.905097 0.510260
v -0.835451 0.894776 0.534229
v 0.810137 0.905456 0.673621
v -0.593231 0.892235 0.390336
v 0.531863 -0.892201 0.439059
v 0.601824 0.893874 0.388231
v -0.680739 0.898384 0.383167
v -0.721731 -0.904342 0.418166
v 0.685531 0.895453 0.382282
v 0.837540 -0.898213 0.498532
v -0.769985 0.904483 0.492871
v 0.744939 -0.908127 0.434903
v 0.500437 0.892260 0.569449
v -0.848847 -0.899786 0.408830
v -0.914588 -0.852237 0.604846
v 0.627070 -0.955978 0.407120
v -0.670399 -0.958890 0.407236
v -0.514869 -0.892161 0.478916
v -0.726635 0.953752 0.447507
v -0.570221 0.955210 0.428853
v -0.525616 -0.958699 0.518117
v 0.527240 0.956873 0.488134
v 0.749550 -0.956268 0.484279
v 0.745072 0.952299 0.467270
v 0.723808 0.951966 0.597626
v 0.909994 0.777468 0.501823
v 0.522008 -0.958415 0.520980
v -0.908758 0.213743 0.573234
v -0.516570 0.892447 0.472276
v -0.909002 0.713560 0.574024
v -0.753657 -0.957400 0.509158
v -0.931267 -0.813302 0.573305
v 0.908175 0.622419 0.570836
v 0.910534 -0.510550 0.574030
v 0.515151 0.910618 0.568925
v -0.743638 -0.904997 0.611711
v -0.694895 0.951134 0.622295
v -0.512870 -0.892313 0.573278
v -0.914799 -0.748763 0.572185
v -0.534156 0.941973 0.567541
v 0.692507 -0.958370 0.628408
v 0.839301 -0.893900 0.706761
v 0.519743 -0.892436 0.572387
v -0.828037 -0.903966 0.675098
v 0.729048 -0.904692 0.622240
v -0.935639 -0.706246 0.577948
v -0.944086 -0.750576 0.538765
v 0.535275 -0.903843 0.579670
v -0.805742 0.910495 0.673146
v -0.656964 -0.958259 0.636225
v -0.908726 -0.499778 0.574629
v -0.947354 0.741915 0.534232
v -0.937965 0.747950 0.578638
v -0.507046 0.893822 0.573443
v 0.941397 -0.738228 0.554396
v 0.931189 -0.827975 0.593225
v 0.911204 0.726020 0.573658
v -0.947933 -0.824485 0.613977
v 0.933261 -0.698491 0.578937
v 0.939289 -0.016291 0.575623
v -0.934996 0.248179 0.576730
v 0.938647 0.748950 0.578089
v 0.944504 0.732443 0.530895
v 0.926042 0.829293 0.576031
v -0.499126 0.914548 0.579026
v 0.479256 0.913239 0.578221
v -0.548237 -0.904865 0.600978
v -0.935450 -0.468869 0.674951
v 0.935393 -0.734123 0.674858
v -0.935421 0.741323 0.674876
v -0.917090 0.832023 0.653016
v 0.557265 -0.903964 0.674797
v 0.935428 0.741048 0.674907
v 0.920913 0.811013 0.685081
v 0.576005 -0.910142 0.631191
v -0.567164 0.914662 0.662953
v 0.532155 0.915748 0.655327
v -0.861131 -0.894208 0.711409
v 0.604242 0.943591 0.652544
v -0.941646 -0.729292 0.696423
v 0.935589 -0.297320 0.674565
v 0.690207 0.915362 0.659864
v 0.768631 0.885026 0.733114
v -0.913362 -0.792459 0.736322
v 0.919433 0.742755 0.710811
v 0.129065 -0.888805 0.709714
v -0.923408 -0.593794 0.710775
v -0.663893 0.878318 0.739699
v 0.249480 -0.796923 0.685942
v 0.371700 -0.426469 0.683924
v 0.356042 -0.779666 0.691035
v 0.805596 -0.787422 0.683673
v 0.338670 -0.734703 0.694120
v 0.751198 -0.423971 0.683760
v -0.426742 -0.417258 0.698053
v -0.000818 -0.398943 0.681163
v -0.743382 -0.399963 0.679247
v -0.735468 -0.046725 0.688196
v -0.799441 -0.327343 0.701803
v 0.807091 -0.322788 0.683151
v -0.676954 -0.349124 0.690745
v -0.433129 -0.343348 0.683228
v -0.561728 -0.269113 0.694920
v -0.049169 -0.315501 0.683866
v -0.127924 -0.242288 0.686125
v -0.315764 -0.191058 0.684093
v 0.287015 -0.342409 0.687669
v 0.202678 -0.059726 0.685960
v -0.812014 -0.203205 0.684549
v -0.659336 -0.062856 0.683905
v 0.824215 0.273016 0.687075
v 0.695104 -0.003832 0.703816
v -0.074416 -0.065980 0.683652
v 0.065683 -0.237124 0.701203
v -0.476232 -0.064729 0.684177
v -0.506439 -0.118993 0.705240
v 0.524086 0.069007 0.684996
v 0.723159 0.347063 0.683938
v 0.503462 0.307242 0.683652
v 0.602338 0.343039 0.685694
v 0.791291 0.391993 0.718692
v 0.747312 0.341930 0.725495
v 0.682169 0.485377 0.685964
v 0.284564 0.451242 0.683996
v 0.442536 0.456714 0.681985
v 0.320643 0.517992 0.716344
v 0.540905 0.464695 0.684804
v 0.474556 0.723256 0.684631
v 0.355100 0.576799 0.684049
v 0.282704 0.657047 0.684288
v 0.450916 0.523081 0.720683
v 0.460393 0.659352 0.684353
v -0.715555 0.638857 0.685542
v -0.690216 0.720737 0.674115
v -0.772904 0.736659 0.710629
v 0.770144 0.801094 0.684825
v 0.464440 0.787414 0.687521
v 0.376432 0.818095 0.687391
v -0.387878 0.790393 0.683607
v 0.759018 -0.814397 0.695325
v 0.793080 -0.813025 0.711160
v 0.171120 -0.784136 0.706823
v -0.478394 -0.787381 0.704058
v 0.831283 -0.738527 0.695996
v 0.396886 -0.394127 0.712079
v 0.089563 -0.383264 0.692613
v -0.030801 -0.363589 0.706453
v 0.746011 -0.398608 0.710579
v 0.306376 -0.061926 0.703012
v -0.393516 -0.281595 0.714293
v 0.683247 -0.290882 0.718042
v -0.385336 -0.157916 0.715321
v 0.011765 -0.123442 0.719737
v 0.237498 -0.033574 0.722862
v 0.213430 0.238206 0.685558
v 0.386762 0.217768 0.692799
v 0.439926 0.093108 0.708454
v -0.923417 0.741777 0.710720
v 0.288471 0.307501 0.686185
v 0.283121 0.184238 0.697143
v 0.832134 0.746767 0.695004
v -0.539501 0.776108 0.701864
v -0.473832 0.732142 0.694227
v -0.164867 0.785773 0.706346
v -0.688021 0.817336 0.689484
v -0.852225 -0.868330 0.738186
v 0.496859 -0.889312 0.708363
v -0.436757 -0.814632 0.695480
v 0.328442 -0.398351 0.690932
v -0.726405 -0.376259 0.703230
v -0.818918 -0.340791 0.696084
v -0.736889 -0.070340 0.717410
v -0.096306 -0.140280 0.717489
v -0.812571 0.738866 0.686564
v 0.519359 0.023655 0.711610
v 0.287696 0.141091 0.716408
v -0.718917 0.610846 0.695059
v -0.725126 0.610268 0.690666
v -0.720907 0.180323 0.687173
v 0.709193 0.402443 0.690581
v 0.460493 0.445099 0.737439
v 0.488487 0.676893 0.749977
v -0.116272 0.730031 0.746097
v -0.046194 0.729391 0.683133
v -0.316275 0.729794 0.694424
v -0.602494 0.731851 0.744594
v -0.782536 0.795510 0.693305
v 0.654940 0.818765 0.695915
v 0.395656 0.885409 0.734425
v -0.782531 -0.812682 0.692389
v -0.841281 -0.779414 0.693115
v -0.819622 -0.788609 0.703227
v -0.835098 -0.611230 0.691853
v 0.916342 -0.731079 0.715574
v -0.821738 -0.399541 0.691665
v -0.407590 -0.418172 0.724343
v 0.311630 -0.369576 0.712154
v -0.547591 -0.061066 0.750353
v -0.738185 0.068140 0.703323
v -0.727007 0.134367 0.684576
v 0.486929 0.320817 0.749950
v -0.797031 -0.059419 0.703328
v 0.600213 0.353955 0.731965
v 0.630425 0.493914 0.732525
v -0.819514 0.749597 0.738108
v 0.361783 0.714627 0.726048
v 0.215412 0.724084 0.687341
v -0.369372 -0.734750 0.702443
v -0.835079 -0.539453 0.729761
v -0.009563 -0.405543 0.714833
v 0.217012 0.410564 0.687451
v 0.204383 0.416216 0.742867
v 0.414543 0.768681 0.715049
v -0.852408 0.832576 0.739203
v 0.286138 0.818993 0.730017
v 0.732271 -0.816096 0.737826
v -0.429010 -0.590556 0.705187
v 0.349167 -0.507856 0.722239
v 0.829267 0.253325 0.737692
v 0.280270 -0.005629 0.714976
v -0.720534 0.154828 0.742699
v -0.358347 0.475547 0.751933
v -0.356858 0.607057 0.715258
v -0.536370 0.606513 0.691882
v 0.323538 -0.718446 0.728462
v 0.413891 -0.237777 0.708108
v 0.438628 -0.110366 0.705333
v 0.327259 0.078829 0.700176
v -0.140071 -0.061903 0.753527
v 0.133573 0.017154 0.749198
v -0.004011 0.079808 0.698266
v -0.147615 0.080382 0.704153
v 0.283929 0.313131 0.725824
v -0.475288 0.645495 0.750216
v -0.059227 0.768351 0.714923
v -0.408055 -0.595119 0.726285
v 0.588004 -0.317210 0.721145
v 0.506931 -0.233481 0.711678
v -0.899210 0.150273 0.738745
v 0.256533 0.674710 0.749291
v 0.519631 -0.863942 0.738726
v -0.348694 -0.719330 0.729064
v 0.318442 -0.423592 0.727126
v 0.887329 -0.598459 0.738801
v -0.899216 -0.335487 0.738743
v -0.143413 0.206409 0.754486
v 0.201503 0.713795 0.747170
v -0.154728 0.445560 0.759933
v 0.005914 0.404147 0.730478
v -0.001395 0.606824 0.684396
v 0.138429 0.639292 0.749426
v -0.141703 0.607200 0.711505
v -0.898364 0.756995 0.738788
v 0.836021 -0.841687 0.739561
v -0.280152 -0.442003 0.741865
v 0.193459 -0.034820 0.746317
v 0.833630 0.503491 0.738211
v -0.523473 0.295705 0.725353
v 0.886574 0.780973 0.738815
v 0.800023 0.798558 0.736018
v -0.798944 -0.819564 0.738703
v -0.819000 -0.329361 0.730302
v 0.417293 -0.243581 0.796044
v 0.391266 0.212440 0.819784
v -0.709570 0.826131 0.738039
v 0.659472 0.818526 0.729703
v -0.210635 0.887963 0.729303
v -0.278217 -0.463831 0.729244
v 0.026239 -0.282647 0.816939
v 0.513087 -0.181176 0.795603
v -0.346075 0.217540 0.757435
v 0.303928 0.114883 0.821964
v 0.454759 0.383135 0.725260
v 0.289252 0.416844 0.731048
v 0.261951 0.339789 0.747535
v -0.718712 0.606640 0.739827
v 0.132025 0.655434 0.774324
v -0.688628 0.702117 0.743539
v 0.431283 0.827864 0.736696
v -0.008118 0.826705 0.738441
v -0.859606 -0.765677 0.738669
v -0.584253 -0.478294 0.741398
v -0.434867 -0.527698 0.747399
v -0.511649 -0.675673 0.736468
v -0.834068 -0.405087 0.738706
v -0.824098 -0.200564 0.738687
v -0.538431 -0.149807 0.811703
v -0.015218 -0.121060 0.810952
v -0.332415 0.012020 0.753761
v 0.275486 0.456678 0.745975
v 0.749566 0.825465 0.738760
v -0.546092 0.014755 0.754769
v -0.348108 0.827564 0.738736
v 0.415924 -0.123441 0.798164
v -0.032581 0.653196 0.774352
v -0.585030 -0.535264 0.781963
v -0.107824 -0.252372 0.802959
v -0.118073 -0.039399 0.757728
v -0.458667 -0.664319 0.783860
v -0.705032 -0.038919 0.749636
v 0.187470 0.296461 0.768628
v -0.690620 0.288460 0.747836
v 0.139748 0.291788 0.757298
v -0.627972 0.641318 0.761857
v -0.482079 -0.296286 0.814253
v 0.168953 -0.022853 0.784953
v -0.696321 -0.033120 0.775808
v 0.177885 0.684251 0.774221
v -0.670143 0.665924 0.782925
v -0.654445 0.700034 0.762901
v 0.082127 0.702295 0.758973
v -0.205748 -0.657172 0.778903
v -0.283176 -0.561541 0.816717
v -0.240147 -0.529913 0.748649
v -0.244904 0.006378 0.787977
v 0.138453 0.021162 0.786954
v -0.629167 0.214211 0.765437
v -0.444678 0.651017 0.784979
v -0.630286 0.647016 0.785812
v -0.628657 0.024738 0.766375
v -0.363239 -0.206803 0.807443
v -0.227829 -0.028401 0.791059
v -0.645770 0.016547 0.787272
v 0.139876 0.335351 0.788308
v 0.435322 0.120170 0.819301
vn -0.0054 -0.3245 -0.9459
vn -0.0038 0.1828 -0.9831
vn -0.9923 0.1241 -0.0005
vn -0.1606 -0.2730 -0.9485
vn 0.0204 0.0903 -0.9957
vn -0.0051 -0.3245 -0.9459
vn 0.0063 -0.0839 -0.9965
vn -0.0035 0.1828 -0.9831
vn 0.0071 0.1474 -0.9891
vn 0.1703 -0.2507 -0.9530
vn -0.0459 0.1721 -0.9840
vn -0.0000 0.4036 -0.9150
vn -0.2995 0.1594 -0.9407
vn 0.2256 0.2076 -0.9518
vn -0.1714 0.8672 -0.4676
vn 0.0205 0.0904 -0.9957
vn -0.0000 0.4035 -0.9150
vn -0.2103 -0.1763 -0.9616
vn 0.2185 0.1510 -0.9641
vn 0.3050 -0.2075 -0.9295
vn -0.2355 0.2390 -0.9420
vn -0.2745 -0.0599 -0.9597
vn 0.7038 0.0969 -0.7038
vn 0.1191 0.2709 -0.9552
vn 0.0878 0.2059 -0.9746
vn 0.1262 0.0431 -0.9911
vn 0.0078 0.3816 -0.9243
vn -0.0918 -0.2831 -0.9547
vn 0.2190 -0.0035 -0.9757
vn 0.2702 -0.1116 -0.9563
vn -0.1629 -0.0366 -0.9860
vn 0.0607 -0.1508 -0.9867
vn -0.1212 0.1276 -0.9844
vn -0.0630 -0.4894 -0.8698
vn 0.4209 0.4653 -0.7787
vn 0.0536 -0.2887 -0.9559
vn -0.5823 -0.2164 -0.7836
vn 0.4395 -0.7887 -0.4298
vn 0.3783 -0.1342 -0.9159
vn -0.0583 0.9003 -0.4314
vn -0.5704 0.0999 -0.8153
vn 0.4966 -0.0475 -0.8667
vn 0.4737 0.0372 -0.8799
vn -0.5739 -0.0000 -0.8190
vn -0.0676 -0.2495 -0.9660
vn -0.7814 -0.0204 -0.6236
vn 0.5788 0.0003 -0.8155
vn -0.3146 0.0554 -0.9476
vn -0.5897 -0.0211 -0.8073
vn 0.3985 0.0507 -0.9158
vn -0.5618 -0.3541 -0.7476
vn 0.8209 -0.1503 -0.5509
vn -0.0400 0.3577 -0.9330
vn 0.3054 -0.5823 -0.7534
vn -0.1887 0.5443 -0.8174
vn -0.0099 0.6080 -0.7939
vn 0.0049 -0.7073 -0.7069
vn 0.0398 0.2037 -0.9782
vn -0.0651 -0.7517 -0.6563
vn 0.2299 0.9111 -0.3422
vn -0.0015 -0.8641 -0.5033
vn 0.0214 -0.8509 -0.5248
vn -0.4054 0.7853 -0.4679
vn 0.8786 0.0058 -0.4776
vn 0.7632 0.3623 -0.5351
vn 0.1700 -0.0495 -0.9842
vn -0.9589 0.0277 -0.2824
vn 0.0776 -0.2876 -0.9546
vn -0.9313 -0.0654 -0.3584
vn -0.2334 -0.9351 -0.2666
vn 0.0595 0.7788 -0.6245
vn 0.8444 -0.0848 -0.5289
vn -0.1732 0.0700 -0.9824
vn -0.8179 0.0228 -0.5750
vn -0.0530 -0.9264 -0.3729
vn -0.2146 -0.3652 -0.9059
vn 0.0258 -0.9338 -0.3570
vn -0.0049 0.9401 -0.3410
vn -0.0865 0.4714 -0.8777
vn 0.6863 -0.3235 -0.6514
vn -0.8220 0.4490 -0.3503
vn -0.3182 0.9214 -0.2230
vn 0.0303 0.9219 -0.3862
vn -0.9782 -0.0022 -0.2075
vn 0.0926 -0.3510 -0.9318
vn -0.0002 0.6812 -0.7321
vn 0.1221 0.3493 -0.9290
vn -0.3691 -0.0089 -0.9294
vn 0.9770 0.0103 -0.2131
vn -0.8428 -0.5364 0.0438
vn 0.4438 0.6520 -0.6148
vn 0.0064 -0.2414 -0.9704
vn -0.0011 -0.3229 -0.9464
vn -0.0782 0.0121 -0.9969
vn 0.3611 -0.6051 -0.7095
vn 0.9705 0.0042 -0.2410
vn 0.2342 -0.9701 -0.0639
vn 0.7197 0.2297 -0.6552
vn 0.9555 -0.1242 -0.2677
vn -0.0022 -0.9963 -0.0856
vn 0.3055 0.0142 -0.9521
vn -0.1833 -0.0989 -0.9781
vn -0.2662 0.7915 -0.5501
vn -0.9935 -0.0616 -0.0958
vn 0.8581 0.3734 0.3524
vn 0.8945 -0.4242 0.1408
vn -0.4603 -0.8313 -0.3114
vn -0.4372 -0.8892 0.1347
vn -0.1252 -0.8422 -0.5244
vn 0.4000 -0.8939 -0.2024
vn 0.2117 -0.8172 -0.5360
vn -0.2784 -0.8747 -0.3967
vn 0.5503 -0.6594 -0.5123
vn 0.8365 0.0103 0.5479
vn -0.3107 0.8786 -0.3626
vn -0.0486 0.9280 -0.3694
vn 0.3369 0.9350 -0.1103
vn -0.1550 0.8676 -0.4726
vn -0.4281 -0.6690 -0.6076
vn 0.0323 -0.5706 -0.8206
vn 0.6489 -0.7546 0.0975
vn 0.8447 -0.0848 0.5284
vn 0.5788 -0.7837 -0.2255
vn -0.9242 0.2010 0.3247
vn -0.4469 -0.8943 0.0223
vn -0.7528 0.6575 -0.0316
vn 0.5384 -0.8351 -0.1122
vn 0.3896 0.9203 0.0368
vn -0.7257 -0.0009 0.6880
vn -0.5477 0.8312 -0.0960
vn -0.6313 -0.7738 -0.0513
vn -0.3639 -0.9314 0.0076
vn -0.6975 0.7017 -0.1454
vn 0.4372 0.8253 0.3573
vn 0.6947 -0.0473 0.7177
vn -0.2546 0.9667 0.0274
vn 0.0793 0.0803 0.9936
vn -0.7004 0.2057 0.6834
vn -0.3154 0.6387 0.7018
vn -0.5931 0.1886 0.7827
vn 0.5959 0.7779 0.1992
vn 0.7791 -0.0221 0.6265
vn 0.8203 0.0090 0.5719
vn -0.6874 0.1476 0.7111
vn -0.6137 0.0096 0.7895
vn -0.8078 -0.1319 0.5744
vn 0.4148 0.0113 0.9099
vn 0.9179 0.2519 0.3067
vn -0.9694 0.2453 -0.0131
vn -0.5954 0.4751 0.6479
vn 0.3515 0.7354 0.5794
vn 0.3879 -0.8955 0.2181
vn 0.9504 -0.2863 0.1212
vn 0.9997 0.0248 0.0041
vn 1.0000 0.0014 -0.0010
vn -0.9991 0.0423 -0.0007
vn 0.9998 -0.0215 0.0033
vn 0.5937 0.8027 0.0558
vn 0.5027 0.7655 0.4017
vn -0.3039 -0.8980 0.3182
vn 0.0333 0.8193 0.5723
vn -0.9061 -0.1336 0.4014
vn 0.7790 -0.0221 0.6266
vn -0.5790 0.7163 0.3894
vn 0.8448 -0.0848 0.5284
vn -0.9461 -0.3236 0.0151
vn -0.2154 0.8999 0.3793
vn -0.5270 0.8313 0.1767
vn 0.1719 0.9848 0.0262
vn 0.8306 -0.3802 0.4069
vn 0.3931 0.8795 0.2682
vn -0.4233 -0.8059 0.4139
vn 0.9994 0.0049 -0.0328
vn 0.1309 -0.6413 0.7560
vn -0.9781 -0.2068 -0.0227
vn -0.3327 0.7973 0.5037
vn 0.6595 -0.7517 -0.0003
vn 0.3589 -0.5796 0.7316
vn -0.0533 -0.8027 0.5940
vn 0.1143 0.9727 0.2018
vn 0.2662 -0.4773 0.8374
vn 0.9715 -0.2370 0.0080
vn -0.1307 -0.9912 0.0192
vn 0.9996 -0.0293 -0.0015
vn 0.5599 0.8272 -0.0465
vn 0.0007 1.0000 -0.0064
vn 0.7657 0.1449 -0.6267
vn 0.1342 -0.9908 -0.0187
vn -0.5467 -0.8371 -0.0193
vn -0.0860 -0.9961 -0.0208
vn -0.9987 -0.0503 0.0096
vn 0.0700 -0.9576 -0.2795
vn -0.9850 -0.1723 0.0026
vn -0.9784 -0.2057 -0.0219
vn -0.0717 0.9974 -0.0113
vn 0.8820 0.2984 -0.3648
vn 0.7998 -0.3973 -0.4500
vn -0.9161 0.3599 -0.1769
vn -0.9904 0.1349 -0.0302
vn 0.3824 0.8958 -0.2264
vn -0.4304 0.9022 -0.0297
vn 0.4229 0.8813 0.2109
vn 0.2214 0.8960 -0.3849
vn -0.3491 -0.8711 -0.3455
vn -0.2397 0.9305 -0.2770
vn -0.1581 0.8187 -0.5521
vn -0.4446 -0.7857 -0.4300
vn 0.1622 0.8913 -0.4235
vn 0.5060 -0.8550 -0.1141
vn -0.4118 0.9005 -0.1397
vn 0.3579 -0.8708 -0.3370
vn -0.3827 0.8119 -0.4409
vn -0.2802 -0.9598 -0.0186
vn -0.7351 -0.6779 0.0086
vn -0.0537 -0.6401 -0.7664
vn 0.0452 -0.6855 -0.7267
vn 0.8494 -0.3769 -0.3695
vn -0.4838 0.7953 -0.3652
vn 0.3342 0.8147 -0.4739
vn 0.5336 -0.8449 0.0384
vn -0.4257 0.8890 -0.1689
vn 0.5956 -0.7994 -0.0788
vn 0.5455 0.7775 -0.3128
vn 0.1345 0.9549 0.2646
vn 0.9998 -0.0165 -0.0133
vn -0.5999 -0.7799 0.1789
vn -0.7488 -0.0006 -0.6628
vn 0.9320 0.0817 -0.3531
vn -0.7571 -0.0038 -0.6533
vn -0.6016 -0.7966 -0.0591
vn -0.8744 -0.2627 -0.4079
vn 0.8752 -0.0073 -0.4836
vn 0.6410 -0.0031 -0.7676
vn -0.4772 0.8717 -0.1117
vn -0.4331 -0.8320 0.3466
vn -0.1478 0.9692 0.1970
vn 0.1170 -0.8771 -0.4659
vn -0.3084 0.1956 -0.9309
vn 0.5822 0.8093 -0.0777
vn 0.1869 -0.7648 0.6166
vn 0.3634 -0.8375 0.4081
vn -0.4772 -0.8732 -0.0991
vn 0.0137 -0.9809 0.1942
vn 0.4791 -0.7806 0.4014
vn -0.7214 0.1265 -0.6809
vn -0.2254 -0.0407 -0.9734
vn -0.2882 -0.9575 -0.0114
vn -0.2932 0.9009 0.3200
vn -0.0046 -0.7131 0.7010
vn -0.7547 0.0123 -0.6560
vn 0.7261 0.6439 -0.2410
vn -0.8406 0.1357 -0.5243
vn -0.7571 -0.0040 -0.6532
vn 0.3669 0.3632 -0.8564
vn 0.5994 0.1182 -0.7916
vn 0.8901 -0.4295 -0.1528
vn 0.6640 -0.0082 -0.7476
vn -0.9383 -0.3445 -0.0320
vn 0.7151 0.1227 -0.6882
vn 0.7709 -0.0030 -0.6370
vn -0.7571 -0.0005 -0.6533
vn 0.7767 0.0846 -0.6241
vn 0.0003 -0.0001 1.0000
vn 0.6638 -0.0079 -0.7479
vn -0.8406 0.1357 -0.5244
vn 0.5763 0.4552 -0.6787
vn 0.2402 0.8729 -0.4247
vn -0.0451 0.6879 -0.7244
vn 0.3986 -0.8722 0.2835
vn -0.9871 0.0170 0.1589
vn 0.9641 -0.1274 0.2330
vn -0.9611 0.1548 0.2286
vn -0.8222 0.5493 0.1493
vn -0.0221 -0.9762 0.2158
vn 0.9797 0.0669 0.1888
vn 0.8035 0.4664 0.3700
vn -0.2937 -0.7728 0.5627
vn 0.0845 0.9219 0.3781
vn -0.0750 0.9729 0.2189
vn -0.4578 -0.8199 0.3439
vn -0.1207 0.9282 0.3521
vn -0.9581 0.0005 0.2863
vn 0.9759 -0.0017 0.2180
vn 0.1458 0.9105 0.3870
vn 0.1531 0.6355 0.7567
vn -0.6752 -0.2747 0.6846
vn 0.8152 0.0588 0.5762
vn -0.0000 -0.8560 0.5169
vn -0.8545 0.0182 0.5192
vn -0.0249 0.4278 0.9035
vn 0.0370 -0.2322 0.9720
vn 0.2609 -0.1925 0.9460
vn 0.2204 -0.3905 0.8938
vn -0.2742 0.2774 0.9208
vn 0.4450 -0.1881 0.8756
vn 0.1700 -0.4054 0.8982
vn -0.2829 0.7984 0.5316
vn -0.0653 0.4625 0.8842
vn -0.1996 0.1564 0.9673
vn -0.3388 -0.0404 0.9400
vn -0.1971 0.0817 0.9770
vn 0.1025 -0.0426 0.9938
vn -0.0708 0.1859 0.9800
vn 0.1113 0.0145 0.9937
vn -0.4414 -0.2956 0.8472
vn -0.0529 -0.3644 0.9297
vn -0.6237 -0.0516 0.7799
vn 0.3464 0.0156 0.9380
vn -0.1869 0.2352 0.9538
vn 0.0916 -0.4978 0.8624
vn -0.0632 0.0119 0.9979
vn 0.0609 -0.3920 0.9179
vn -0.3364 0.0213 0.9415
vn 0.0699 0.0934 0.9932
vn -0.1107 -0.6101 0.7846
vn 0.8296 -0.0309 -0.5574
vn 0.1599 -0.1695 0.9725
vn -0.2083 0.5289 0.8227
vn 0.1139 0.1877 0.9756
vn -0.0879 -0.2740 0.9577
vn 0.2909 -0.1038 0.9511
vn -0.1123 -0.4203 0.9004
vn 0.2015 -0.1806 0.9627
vn -0.4061 -0.4666 0.7857
vn 0.1853 0.3821 0.9053
vn 0.3193 0.6101 0.7252
vn -0.1690 0.1831 0.9684
vn -0.3298 0.0153 0.9439
vn -0.3932 0.1468 0.9076
vn 0.2397 0.1965 0.9507
vn -0.1192 0.4034 0.9072
vn 0.3181 -0.3245 0.8908
vn 0.4014 0.3408 0.8502
vn -0.4480 -0.4322 0.7826
vn -0.8141 0.2791 0.5093
vn -0.2633 0.3824 0.8857
vn -0.0071 -0.0449 0.9990
vn -0.1476 -0.3495 0.9253
vn 0.1009 0.3610 0.9271
vn -0.0031 -0.5937 0.8047
vn 0.0078 0.5247 0.8512
vn -0.0791 0.8296 0.5528
vn -0.3291 0.8116 0.4827
vn 0.0391 -0.2996 0.9533
vn 0.0037 -0.2757 0.9612
vn -0.8022 0.1600 0.5752
vn -0.0674 -0.3482 0.9350
vn -0.0465 0.1577 0.9864
vn -0.0058 0.1362 0.9907
vn 0.2424 -0.2684 0.9323
vn -0.1037 -0.0406 0.9938
vn 0.5941 -0.6547 0.4673
vn 0.1214 0.0531 0.9912
vn 0.5379 0.5866 0.6055
vn 0.6415 0.7289 0.2389
vn -0.2623 -0.2106 0.9417
vn 0.5950 -0.0181 0.8035
vn 0.1795 0.4683 0.8651
vn 0.5078 -0.1089 0.8545
vn -0.8452 0.2123 0.4904
vn 0.5773 -0.5456 0.6075
vn -0.4604 0.6868 0.5624
vn -0.9434 -0.1960 0.2674
vn 0.0101 0.0733 0.9973
vn -0.0435 0.6322 0.7736
vn -0.0195 0.5835 0.8119
vn 0.0659 -0.5863 0.8074
vn -0.0401 -0.4715 0.8810
vn -0.0041 -0.8523 0.5230
vn 0.0052 0.5742 0.8187
vn 0.1890 -0.0876 0.9781
vn -0.1484 -0.1951 0.9695
vn 0.8430 -0.0207 0.5375
vn -0.6367 -0.5015 0.5858
vn -0.7056 0.5965 0.3825
vn 0.2722 -0.0930 0.9577
vn 0.0786 0.1740 0.9816
vn -0.0183 -0.1818 0.9832
vn -0.9276 0.1001 0.3599
vn -0.5333 0.1777 0.8271
vn -0.4623 -0.0082 0.8867
vn 0.0194 -0.1485 0.9887
vn -0.5359 0.2790 0.7969
vn 0.2376 0.1677 0.9568
vn 0.0163 0.8659 0.5000
vn 0.0263 0.4323 0.9014
vn -0.0093 0.4720 0.8816
vn -0.1132 0.9489 0.2947
vn 0.1499 -0.2552 0.9552
vn -0.0662 -0.9815 0.1797
vn 0.0008 0.5922 0.8058
vn -0.0024 0.4599 0.8880
vn 0.7245 0.2134 0.6555
vn -0.2500 -0.2296 0.9406
vn 0.2222 -0.0078 0.9750
vn 0.7605 -0.1483 0.6322
vn 0.5096 -0.0613 0.8582
vn -0.3624 0.4222 0.8309
vn -0.1578 -0.2014 0.9667
vn -0.0128 -0.8679 0.4965
vn 0.6563 -0.0693 0.7514
vn -0.1337 0.0075 0.9910
vn -0.0368 -0.5145 0.8567
vn -0.1673 -0.0617 0.9840
vn -0.2131 -0.5170 0.8290
vn 0.1707 0.4825 0.8591
vn 0.7440 -0.2163 0.6322
vn 0.0022 0.7986 0.6018
vn 0.2320 0.3979 0.8876
vn -0.2300 -0.3672 0.9013
vn 0.9437 -0.0632 0.3246
vn -0.0431 0.8184 0.5730
vn -0.4500 -0.1356 0.8827
vn 0.9236 -0.0060 0.3833
vn 0.0962 -0.0702 0.9929
vn -0.5123 0.4467 0.7335
vn -0.0012 -0.8861 0.4636
vn 0.0268 0.8832 0.4682
vn -0.3466 -0.0367 0.9373
vn 0.7152 0.0955 0.6924
vn -0.7585 0.0037 0.6517
vn 0.3027 -0.2793 0.9112
vn -0.9057 0.0368 0.4224
vn -0.1190 0.1339 0.9838
vn -0.0396 -0.1439 0.9888
vn 0.0587 -0.2955 0.9535
vn 0.2713 -0.4655 0.8425
vn -0.2337 -0.1678 0.9577
vn -0.1363 0.2957 0.9455
vn -0.0349 -0.2901 0.9563
vn 0.0322 -0.7991 0.6003
vn -0.3075 0.7309 0.6093
vn -0.0578 0.0205 0.9981
vn 0.0733 0.1167 0.9905
vn -0.1420 -0.7872 0.6001
vn 0.0081 -0.8948 0.4464
vn -0.0138 -0.2295 0.9732
vn -0.4657 -0.1255 0.8760
vn -0.0047 -0.0015 1.0000
vn 0.2345 -0.1939 0.9526
vn -0.4940 0.0002 0.8695
vn 0.0620 -0.1295 0.9896
vn 0.0040 -0.4352 0.9003
vn -0.1559 -0.2631 0.9521
vn 0.1683 0.2775 0.9459
vn 0.3463 -0.0156 0.9380
vn -0.3039 0.0036 0.9527
vn 0.1041 -0.1802 0.9781
vn 0.4010 0.7063 0.5834
vn 0.0850 0.1493 0.9851
vn -0.0343 0.0391 0.9986
vn -0.0037 -0.2828 0.9592
vn -0.5925 -0.2330 0.7712
vn 0.0557 -0.5244 0.8496
vn -0.3419 0.1043 0.9339
vn -0.0070 0.0418 0.9991
vn -0.0512 0.0537 0.9972
vn 0.7102 -0.4060 0.5751
vn -0.7588 -0.0329 0.6504
vn 0.1283 0.0726 0.9891
vn 0.2488 0.0884 0.9645
vn -0.4181 -0.6888 0.5922
vn 0.2529 0.5745 0.7785
vn 0.8871 -0.0351 0.4603
vn -0.5768 -0.6554 0.4876
vn 0.3009 0.8200 0.4869
vn -0.1058 -0.5971 0.7952
vn -0.0646 -0.8845 0.4621
vn 0.0011 0.5083 0.8612
vn -0.0486 -0.2045 0.9777
vn 0.6700 -0.3746 0.6409
vn 0.7902 0.2162 0.5735
vn -0.0097 -0.0385 0.9992
vn -0.6346 -0.5136 0.5775
vn -0.1659 0.0802 0.9829
vn 0.1947 -0.1108 0.9746
vn -0.1594 -0.1533 0.9752
vn -0.8371 0.1120 0.5355
vn -0.4055 -0.4022 0.8208
vn -0.6730 0.4987 0.5462
vn -0.0006 -0.2053 0.9787
vn 0.0001 -0.2424 0.9702
vn 0.3948 0.1061 0.9126
vn -0.6693 0.3329 -0.6642
vn 0.8952 0.4406 0.0676
vn -0.3402 -0.5597 -0.7556
vn 0.4271 -0.0287 0.9037
vn 0.2582 -0.0058 0.9661
vn -0.3870 0.6199 0.6826
vn -0.0141 0.7075 0.7066
vn 0.0672 0.6337 0.7707
vn 0.5469 0.1974 0.8136
vn -0.0264 -0.2850 0.9582
vn 0.0961 0.5513 0.8288
vn 0.0044 -0.2641 0.9645
vn -0.3334 0.5922 0.7336
vn 0.0053 -0.5303 0.8478
vn -0.4438 -0.0033 0.8961
vn -0.7593 -0.2582 0.5973
vn 0.0095 -0.7155 0.6985
vn 0.3053 -0.4857 0.8191
vn -0.4222 -0.3540 0.8346
vn 0.6072 0.0012 0.7946
vn -0.6621 0.0234 0.7490
vn -0.8621 -0.0171 0.5064
vn 0.5611 -0.4625 0.6864
vn -0.1041 -0.7576 0.6444
vn 0.2665 -0.4896 0.8302
vn -0.5163 -0.4835 0.7069
vn 0.3423 0.1728 0.9236
vn -0.4266 0.2184 0.8777
vn -0.1053 0.5534 0.8263
vn -0.0083 0.4148 0.9099
vn -0.0020 0.8806 0.4738
vn -0.3463 0.2543 0.9030
vn 0.6841 0.0216 0.7290
vn 0.0206 -0.1617 0.9866
vn 0.6118 -0.4022 0.6811
vn 0.6782 0.2769 0.6807
vn 0.7721 0.0493 0.6336
vn 0.0007 -0.3840 0.9233
vn 0.1209 0.3212 0.9393
vn -0.4023 0.0047 0.9155
vn 0.7069 -0.0001 -0.7073
vn 0.7068 -0.0000 -0.7074
vn 0.7069 -0.0001 -0.7074
vn 0.5997 -0.3330 0.7276
vt 0.628998 0.344279
vt 0.628998 0.329257
vt 0.635635 0.335670
vt 0.187566 0.827801
vt 0.174823 0.796697
vt 0.184440 0.743148
vt 0.178848 0.765717
vt 0.170943 0.740449
vt 0.173887 0.717604
vt 0.185645 0.681309
vt 0.174966 0.811425
vt 0.171577 0.778065
vt 0.682695 0.898376
vt 0.682695 0.860163
vt 0.685493 0.874916
vt 0.172307 0.828825
vt 0.172504 0.676329
vt 0.381616 0.834385
vt 0.378423 0.845908
vt 0.376727 0.827397
vt 0.104322 0.827593
vt 0.044701 0.669533
vt 0.103497 0.672171
vt 0.045229 0.825199
vt 0.113589 0.847193
vt 0.051395 0.647844
vt 0.396667 0.724087
vt 0.396384 0.880292
vt 0.381616 0.710324
vt 0.157423 0.659668
vt 0.171275 0.647156
vt 0.375378 0.725405
vt 0.358339 0.741969
vt 0.358384 0.710324
vt 0.378309 0.766558
vt 0.131298 0.833368
vt 0.073426 0.647502
vt 0.118311 0.655152
vt 0.192465 0.859422
vt 0.130511 0.665064
vt 0.035968 0.842810
vt 0.259865 0.586776
vt 0.252848 0.591917
vt 0.259385 0.324345
vt 0.248958 0.607407
vt 0.267115 0.312561
vt 0.248712 0.305599
vt 0.252737 0.326539
vt 0.923382 0.940097
vt 0.916398 0.931985
vt 0.927090 0.933633
vt 0.225264 0.596109
vt 0.168916 0.603296
vt 0.211854 0.843287
vt 0.913417 0.805178
vt 0.925758 0.843667
vt 0.017355 0.596283
vt 0.909914 0.759787
vt 0.923969 0.712879
vt 0.907719 0.706050
vt 0.023593 0.586176
vt 0.907817 0.693787
vt 0.011232 0.578090
vt 0.001804 0.578822
vt 0.000000 0.541811
vt 0.008576 0.470957
vt 0.001250 0.331988
vt 0.009172 0.341745
vt 0.014145 0.306942
vt 0.000000 0.303612
vt 0.612754 0.899994
vt 0.612754 0.878168
vt 0.617752 0.887002
vt 0.266214 0.488979
vt 0.265916 0.322817
vt 0.909132 0.946686
vt 0.269756 0.571848
vt 0.268954 0.469076
vt 0.273941 0.511083
vt 0.032081 0.654408
vt 0.927090 0.704896
vt 0.192080 0.646404
vt 0.814008 0.716298
vt 0.824894 0.711222
vt 0.825550 0.885199
vt 0.554231 0.441319
vt 0.552174 0.651939
vt 0.545906 0.413532
vt 0.211355 0.662778
vt 0.376172 0.789704
vt 0.898557 0.809857
vt 0.886479 0.730484
vt 0.895398 0.757811
vt 0.891064 0.696013
vt 0.268838 0.595601
vt 0.883415 0.981038
vt 0.875709 0.974424
vt 0.882245 0.714833
vt 0.875155 0.709075
vt 0.883415 0.693787
vt 0.279899 0.884946
vt 0.280223 0.853094
vt 0.287541 0.870940
vt 0.172732 0.855319
vt 0.907719 0.955060
vt 0.900137 0.956308
vt 0.466871 0.982640
vt 0.459901 0.956581
vt 0.464685 0.947376
vt 0.458845 0.975518
vt 0.465833 0.817733
vt 0.460983 0.732490
vt 0.466871 0.710324
vt 0.540884 0.442841
vt 0.900477 0.967491
vt 0.379172 0.860622
vt 0.358339 0.893118
vt 0.280961 0.621027
vt 0.287692 0.617767
vt 0.818676 0.705405
vt 0.279899 0.607407
vt 0.158438 0.841829
vt 0.554247 0.706121
vt 0.547414 0.710324
vt 0.551907 0.689049
vt 0.543055 0.692037
vt 0.538203 0.647902
vt 0.825550 0.976893
vt 0.814142 0.911846
vt 0.460011 0.714731
vt 0.875634 0.924886
vt 0.875903 0.725970
vt 0.374912 0.878481
vt 0.890845 0.811325
vt 0.268838 0.319088
vt 0.281365 0.339768
vt 0.381616 0.899308
vt 0.000000 0.879050
vt 0.003771 0.874099
vt 0.012861 0.885841
vt 0.818222 0.995376
vt 0.802683 0.983884
vt 0.873232 0.982881
vt 0.289676 0.879777
vt 0.002286 0.631700
vt 0.000000 0.633160
vt 0.003198 0.614266
vt 0.001202 0.856453
vt 0.002929 0.759826
vt 0.244789 0.835441
vt 0.234043 0.868894
vt 0.243148 0.637230
vt 0.231914 0.630534
vt 0.409333 0.888784
vt 0.396667 0.905254
vt 0.396667 0.710324
vt 0.157580 0.691200
vt 0.283243 0.496716
vt 0.105909 0.608098
vt 0.034994 0.607407
vt 0.901112 0.355414
vt 0.904408 0.332149
vt 0.904408 0.380382
vt 0.791676 0.682797
vt 0.789999 0.692965
vt 0.784432 0.689584
vt 0.241973 0.892991
vt 0.244934 0.884812
vt 0.233231 0.895620
vt 0.232420 0.612674
vt 0.871558 0.725854
vt 0.279554 0.569476
vt 0.787639 0.550490
vt 0.793048 0.516047
vt 0.623335 0.878168
vt 0.626882 0.885248
vt 0.623335 0.891309
vt 0.273702 0.307400
vt 0.554247 0.415337
vt 0.550730 0.396798
vt 0.563620 0.874850
vt 0.575048 0.860163
vt 0.575048 0.884404
vt 0.883415 0.962440
vt 0.268838 0.579528
vt 0.437898 0.870993
vt 0.427046 0.857000
vt 0.437898 0.844123
vt 0.536657 0.667916
vt 0.791624 0.408881
vt 0.806109 0.967723
vt 0.293576 0.303612
vt 0.292698 0.585811
vt 0.775938 0.422212
vt 0.753648 0.421767
vt 0.783126 0.436409
vt 0.773884 0.458780
vt 0.782721 0.446336
vt 0.778220 0.645476
vt 0.771801 0.678444
vt 0.530400 0.392958
vt 0.276118 0.596570
vt 0.299602 0.875081
vt 0.295280 0.549965
vt 0.533370 0.457194
vt 0.533542 0.446780
vt 0.529835 0.424881
vt 0.774976 0.874062
vt 0.765793 0.891643
vt 0.765793 0.870048
vt 0.857928 0.705954
vt 0.585426 0.873393
vt 0.599770 0.860163
vt 0.599770 0.878187
vt 0.599676 0.898054
vt 0.595006 0.896832
vt 0.599676 0.878187
vt 0.735903 0.323749
vt 0.746731 0.328637
vt 0.748729 0.338354
vt 0.444217 0.898618
vt 0.444217 0.865005
vt 0.450486 0.887938
vt 0.769897 0.708166
vt 0.767390 0.697990
vt 0.295586 0.568812
vt 0.740069 0.316239
vt 0.735903 0.357992
vt 0.747492 0.352077
vt 0.798737 0.717518
vt 0.773130 0.393123
vt 0.756163 0.407034
vt 0.520005 0.461797
vt 0.332901 0.890708
vt 0.332901 0.868405
vt 0.341982 0.870855
vt 0.533615 0.667207
vt 0.526821 0.644486
vt 0.798439 0.740226
vt 0.887732 0.303780
vt 0.880643 0.319772
vt 0.880643 0.302759
vt 0.870950 0.320211
vt 0.868104 0.302759
vt 0.519155 0.683886
vt 0.771437 0.639625
vt 0.524516 0.701100
vt 0.502499 0.642773
vt 0.295056 0.332573
vt 0.508222 0.693824
vt 0.298541 0.318692
vt 0.798797 0.962532
vt 0.526363 0.466058
vt 0.793048 0.969432
vt 0.796685 0.693787
vt 0.526102 0.404861
vt 0.939946 0.970173
vt 0.935411 0.947294
vt 0.939151 0.923228
vt 0.516840 0.972704
vt 0.516983 0.930631
vt 0.521131 0.969593
vt 0.522073 0.748158
vt 0.517601 0.719410
vt 0.929081 0.730890
vt 0.933102 0.712097
vt 0.927090 0.717420
vt 0.522641 0.725500
vt 0.928088 0.701928
vt 0.932432 0.702033
vt 0.518200 0.710324
vt 0.935732 0.966084
vt 0.786481 0.392541
vt 0.784087 0.379239
vt 0.786481 0.369195
vt 0.498313 0.711635
vt 0.501089 0.714599
vt 0.504377 0.891888
vt 0.508148 0.710324
vt 0.508148 0.892920
vt 0.343570 0.860397
vt 0.333495 0.868405
vt 0.332901 0.850455
vt 0.835609 0.318991
vt 0.846365 0.330273
vt 0.845473 0.337053
vt 0.763128 0.705649
vt 0.617752 0.897201
vt 0.617752 0.878168
vt 0.623335 0.880492
vt 0.938110 0.982709
vt 0.522641 0.976953
vt 0.791918 0.235354
vt 0.808294 0.258531
vt 0.794489 0.282320
vt 0.897536 0.224666
vt 0.995150 0.664608
vt 0.886679 0.665942
vt 0.997184 0.622521
vt 0.802762 0.021997
vt 1.000000 0.410435
vt 0.787119 0.023310
vt 0.787271 0.013153
vt 0.939946 0.693787
vt 0.856583 0.332598
vt 0.852970 0.334588
vt 0.857266 0.317789
vt 0.500566 0.428803
vt 0.756198 0.462687
vt 0.745078 0.644974
vt 0.796671 0.292899
vt 0.790237 0.295406
vt 0.525104 0.643375
vt 0.510216 0.638906
vt 0.525767 0.463046
vt 0.494350 0.436842
vt 0.640373 0.883407
vt 0.640282 0.866138
vt 0.650741 0.878655
vt 0.523172 0.387257
vt 0.546302 0.356109
vt 0.546302 0.383375
vt 0.546302 0.391870
vt 0.550582 0.385013
vt 0.550582 0.391941
vt 1.000000 0.683115
vt 0.966917 0.679158
vt 0.494864 0.673657
vt 0.510430 0.679707
vt 0.846365 0.310837
vt 0.507987 0.414370
vt 0.563435 0.861627
vt 0.563620 0.885211
vt 0.554247 0.890628
vt 0.978048 0.693787
vt 0.352632 0.892788
vt 0.343289 0.892089
vt 0.352632 0.872926
vt 0.504375 0.425894
vt 0.582805 0.346206
vt 0.610478 0.372891
vt 0.582805 0.381961
vt 0.554247 0.860163
vt 0.809847 0.283006
vt 0.748728 0.356054
vt 0.748728 0.316239
vt 0.761665 0.345644
vt 0.516926 0.355679
vt 0.998830 0.401184
vt 0.983654 0.407323
vt 0.758233 0.863984
vt 0.748550 0.888558
vt 0.748550 0.858979
vt 0.501698 0.455937
vt 0.509346 0.373118
vt 0.846365 0.302759
vt 0.650741 0.860163
vt 0.796262 0.302759
vt 0.902047 0.299729
vt 0.434929 0.870994
vt 0.434929 0.895775
vt 0.427046 0.878593
vt 0.605560 0.349237
vt 0.529528 0.346206
vt 0.798092 0.302759
vt 0.808306 0.305705
vt 0.796931 0.313846
vt 0.715180 0.359539
vt 0.715180 0.345039
vt 0.724712 0.355904
vt 0.857266 0.302759
vt 0.844280 0.357054
vt 0.833850 0.374249
vt 0.833104 0.362183
vt 0.751546 0.677986
vt 0.343570 0.839670
vt 0.617561 0.358122
vt 0.853759 0.290470
vt 0.798823 0.342735
vt 0.808306 0.332821
vt 0.575048 0.874309
vt 0.585426 0.860163
vt 0.585426 0.886738
vt 0.833104 0.341217
vt 0.704494 0.408680
vt 0.495771 0.652285
vt 0.882874 0.372647
vt 0.890993 0.360073
vt 0.890993 0.392516
vt 0.882874 0.335001
vt 0.877072 0.370977
vt 0.877072 0.320266
vt 0.884659 0.018908
vt 0.788722 0.004787
vt 0.995196 0.000000
vt 0.320445 0.404109
vt 0.667082 0.696295
vt 0.742476 0.436207
vt 0.417775 0.679047
vt 0.990654 0.279593
vt 0.643738 0.690055
vt 0.741320 0.665943
vt 0.670285 0.402917
vt 0.660362 0.408893
vt 0.851448 0.405579
vt 0.614755 0.445278
vt 0.817811 0.407698
vt 0.852674 0.680010
vt 0.390984 0.424682
vt 0.984129 0.009107
vt 0.888205 0.689854
vt 0.988140 0.288982
vt 0.802451 0.398032
vt 0.999015 0.392958
vt 0.817421 0.668598
vt 0.340922 0.419638
vt 0.335127 0.694304
vt 0.313207 0.413132
vt 0.359904 0.653073
vt 0.605768 0.640218
vt 0.361648 0.448991
vt 0.360910 0.668005
vt 0.611578 0.426162
vt 0.362730 0.434697
vt 0.596072 0.692387
vt 0.342060 0.683131
vt 0.607027 0.676643
vt 0.330770 0.466151
vt 0.613009 0.404451
vt 0.793048 0.684232
vt 0.578805 0.392972
vt 0.979020 0.302759
vt 0.901112 0.352251
vt 0.895002 0.368505
vt 0.895002 0.332149
vt 0.628918 0.373951
vt 0.621923 0.382333
vt 0.617561 0.363607
vt 0.624333 0.346206
vt 0.348951 0.675618
vt 0.352280 0.648919
vt 0.637561 0.347693
vt 0.343480 0.461449
vt 0.573594 0.344499
vt 0.570775 0.323391
vt 0.582131 0.323391
vt 0.347363 0.424282
vt 0.775226 0.392541
vt 0.775226 0.373888
vt 0.784087 0.381257
vt 0.325198 0.427800
vt 0.972532 0.016945
vt 0.552471 0.323391
vt 0.582906 0.298573
vt 0.576845 0.323391
vt 0.613257 0.335019
vt 0.628998 0.346044
vt 0.800914 0.502274
vt 0.765793 0.839479
vt 0.776576 0.845673
vt 0.765793 0.852867
vt 0.801938 0.416933
vt 0.637561 0.386617
vt 0.798542 0.677719
vt 0.984919 0.043152
vt 0.868104 0.333606
vt 0.857266 0.319514
vt 0.989836 0.236568
vt 0.864916 0.333465
vt 0.329771 0.707205
vt 0.817435 0.351516
vt 0.808306 0.337244
vt 0.816648 0.330332
vt 0.580396 0.422266
vt 0.319341 0.670052
vt 0.418421 0.857239
vt 0.409333 0.874711
vt 0.409333 0.841678
vt 0.758233 0.893718
vt 0.758233 0.858979
vt 0.765568 0.873234
vt 0.798866 0.666640
vt 0.774599 0.869098
vt 0.568006 0.385013
vt 0.546302 0.383217
vt 0.546302 0.352637
vt 0.548963 0.298548
vt 0.328994 0.642679
vt 0.562210 0.692511
vt 0.627025 0.860163
vt 0.627025 0.878168
vt 0.612754 0.877891
vt 0.570223 0.407799
vt 0.576612 0.673771
vt 0.584272 0.638041
vt 0.593015 0.381961
vt 0.596995 0.388226
vt 0.593015 0.391990
vt 0.343570 0.872926
vt 0.343570 0.840833
vt 0.351974 0.864696
vt 0.841062 0.386959
vt 0.841062 0.374249
vt 0.843601 0.375246
vt 0.311285 0.689061
vt 0.574882 0.359585
vt 0.585571 0.461684
vt 0.799020 0.624100
vt 0.588160 0.387310
vt 0.582805 0.390146
vt 0.766296 0.870048
vt 0.780276 0.888296
vt 0.786109 0.872866
vt 0.786109 0.906012
vt 0.328871 0.638190
vt 0.352632 0.839670
vt 0.627025 0.891591
vt 0.631904 0.878986
vt 0.631904 0.895701
vt 0.545019 0.862077
vt 0.543168 0.852523
vt 0.546699 0.848554
vt 0.984976 0.025466
vt 0.994182 0.290764
vt 0.600943 0.390904
vt 0.596995 0.385957
vt 0.600943 0.381961
vt 0.267087 0.901435
vt 0.279899 0.888769
vt 0.274011 0.899447
vt 0.650740 0.892363
vt 0.650740 0.879942
vt 0.655633 0.883385
vt 0.543168 0.841437
vt 0.549408 0.938907
vt 0.554143 0.801298
vt 0.553983 0.907673
vt 0.530538 0.909813
vt 0.535494 0.836109
vt 0.534468 0.938027
vt 0.549749 0.796667
vt 0.554247 0.726933
vt 0.530179 0.740843
vt 0.535490 0.722359
vt 0.588160 0.390559
vt 0.588160 0.381961
vt 0.593015 0.383399
vt 0.549408 0.722423
vt 0.554091 0.710324
vt 0.530749 0.725625
vt 0.530701 0.711115
vt 0.533320 0.710324
vt 0.332252 0.396228
vt 0.331263 0.393656
vt 0.530179 0.884208
vt 0.527524 0.882713
vt 0.523191 0.716285
vt 0.525485 0.712877
vt 0.522641 0.888757
vt 0.522641 0.710324
vt 0.817435 0.302759
vt 0.595006 0.897999
vt 0.590315 0.883508
vt 0.595006 0.878187
vt 0.982285 0.877931
vt 0.978153 0.872128
vt 0.982285 0.693787
vt 0.979949 0.696416
vt 0.552845 0.944596
vt 0.530179 0.947278
vt 0.273180 0.881184
vt 0.256518 0.840691
vt 0.273007 0.718206
vt 0.535495 0.871619
vt 0.546109 0.863771
vt 0.546109 0.884958
vt 0.829813 0.954701
vt 0.846151 0.960839
vt 0.825550 0.961504
vt 0.256048 0.634040
vt 0.272486 0.632877
vt 0.259726 0.618475
vt 0.273468 0.619733
vt 0.582805 0.372238
vt 0.583710 0.640710
vt 0.581847 0.455646
vt 0.568327 0.644389
vt 0.829419 0.838227
vt 0.830090 0.707552
vt 0.846632 0.708936
vt 0.829863 0.693787
vt 0.848503 0.696943
vt 0.899456 0.376201
vt 0.895002 0.389188
vt 0.313226 0.648315
vt 0.327567 0.636770
vt 0.315805 0.460588
vt 0.328886 0.469697
vt 0.564533 0.285658
vt 0.330554 0.463583
vt 0.563863 0.402099
vt 0.576739 0.708166
vt 0.315953 0.708332
vt 0.313053 0.394492
vt 0.315873 0.448195
vt 0.561861 0.346206
vt 0.832225 0.976812
vt 0.252961 0.885192
vt 0.846240 0.886251
vt 0.315228 0.433595
vt 0.776576 0.858140
vt 0.786109 0.839479
vt 0.318403 0.867557
vt 0.327367 0.860942
vt 0.327367 0.887113
vt 0.418421 0.882447
vt 0.418421 0.841678
vt 0.425734 0.863298
vt 0.792777 0.839479
vt 0.792777 0.880293
vt 0.786109 0.850879
vt 0.303410 0.420230
vt 0.246141 0.895890
vt 0.852290 0.987801
vt 0.575685 0.647637
vt 0.748550 0.864147
vt 0.734648 0.850410
vt 0.748550 0.839479
vt 0.605940 0.345307
vt 0.605940 0.320748
vt 0.611695 0.342330
vt 0.852883 0.708606
vt 0.562446 0.571201
vt 0.250436 0.861993
vt 0.300713 0.664877
vt 0.637374 0.345686
vt 0.637374 0.285658
vt 0.653411 0.336570
vt 0.783965 0.186307
vt 0.782320 0.281290
vt 0.720936 0.207147
vt 0.781112 0.204499
vt 0.773515 0.201524
vt 0.720514 0.271963
vt 0.726884 0.912246
vt 0.730185 0.839479
vt 0.730185 0.966303
vt 0.716339 0.016700
vt 0.656412 0.018006
vt 0.704348 0.007091
vt 0.703298 0.281500
vt 0.707878 0.028027
vt 0.706779 0.069679
vt 0.694339 0.047694
vt 0.702059 0.135254
vt 0.689643 0.121793
vt 0.680897 0.089708
vt 0.706700 0.192671
vt 0.658599 0.178240
vt 0.682963 0.004952
vt 0.659088 0.031016
vt 0.602041 0.284361
vt 0.649385 0.262317
vt 0.664838 0.360795
vt 0.664838 0.323575
vt 0.685806 0.351993
vt 0.659622 0.130918
vt 0.659413 0.062289
vt 0.668976 0.057110
vt 0.636696 0.233124
vt 0.589397 0.267098
vt 0.596162 0.229579
vt 0.590108 0.246461
vt 0.724712 0.357953
vt 0.724712 0.345039
vt 0.730120 0.354795
vt 0.582310 0.278689
vt 0.332580 0.885134
vt 0.327367 0.899903
vt 0.605940 0.345256
vt 0.582906 0.331170
vt 0.605933 0.332813
vt 0.569405 0.235957
vt 0.525431 0.224600
vt 0.877072 0.381126
vt 0.882591 0.370977
vt 0.882591 0.392679
vt 0.613257 0.320748
vt 0.601016 0.299516
vt 0.613257 0.285753
vt 0.896975 0.328436
vt 0.890993 0.332149
vt 0.890993 0.309590
vt 0.586266 0.320049
vt 0.582906 0.285658
vt 0.539782 0.021343
vt 0.525677 0.025676
vt 0.523549 0.011508
vt 0.512201 0.275077
vt 0.565908 0.260081
vt 0.514566 0.222863
vt 0.509346 0.207828
vt 0.513986 0.077295
vt 0.967895 0.706817
vt 0.965159 0.701011
vt 0.969369 0.698775
vt 0.722775 0.963847
vt 0.719065 0.950347
vt 0.722775 0.839479
vt 0.720487 0.981966
vt 0.787092 0.273324
vt 0.314219 0.889299
vt 0.314219 0.876186
vt 0.317952 0.884055
vt 0.486009 0.965625
vt 0.480004 0.905058
vt 0.486368 0.900815
vt 0.485521 0.837145
vt 0.482740 0.852553
vt 0.479487 0.831961
vt 0.635532 0.896075
vt 0.635532 0.878986
vt 0.640282 0.891877
vt 0.710596 0.138369
vt 0.659246 0.195931
vt 0.817435 0.392445
vt 0.817435 0.366843
vt 0.822736 0.382198
vt 0.698426 0.260303
vt 0.497997 0.870771
vt 0.497997 0.897898
vt 0.493102 0.883010
vt 0.675757 0.077785
vt 0.665995 0.315419
vt 0.664838 0.285658
vt 0.670069 0.295916
vt 0.787119 0.366017
vt 0.780773 0.361430
vt 0.787119 0.315102
vt 0.611521 0.209645
vt 0.632970 0.218719
vt 0.249913 0.633933
vt 0.596155 0.192857
vt 0.617291 0.191942
vt 0.521603 0.285658
vt 0.889933 0.334257
vt 0.882874 0.360073
vt 0.882874 0.320266
vt 0.508499 0.899085
vt 0.509211 0.862124
vt 0.516840 0.873170
vt 0.986668 0.839332
vt 0.983046 0.801252
vt 0.986668 0.693787
vt 0.509494 0.026023
vt 0.516704 0.051379
vt 0.558086 0.403547
vt 0.562176 0.634017
vt 0.782620 0.061967
vt 0.787119 0.069091
vt 0.483698 0.893378
vt 0.774202 0.285658
vt 0.486368 0.710324
vt 0.481164 0.713181
vt 0.696773 0.076401
vt 0.706544 0.003773
vt 0.660892 0.017731
vt 0.712260 0.298031
vt 0.718824 0.285658
vt 0.716513 0.315877
vt 0.951270 0.864222
vt 0.951871 0.703351
vt 0.953255 0.887697
vt 0.644832 0.232289
vt 0.493102 0.900206
vt 0.489445 0.893011
vt 0.486368 0.872118
vt 0.548354 0.846364
vt 0.549408 0.846418
vt 0.546908 0.919438
vt 0.580085 0.264699
vt 0.628199 0.329257
vt 0.613280 0.309440
vt 0.627059 0.315138
vt 0.806382 0.391260
vt 0.817435 0.355224
vt 0.815964 0.389863
vt 0.547888 0.841437
vt 0.653411 0.356800
vt 0.653411 0.285658
vt 0.664496 0.293574
vt 0.447915 0.766811
vt 0.458801 0.754987
vt 0.456188 0.801078
vt 0.446901 0.849833
vt 0.455779 0.827975
vt 0.458845 0.865005
vt 0.983708 0.865260
vt 0.513265 0.009878
vt 0.949981 0.958957
vt 0.947380 0.939237
vt 0.949215 0.891681
vt 0.302739 0.483921
vt 0.786733 0.010038
vt 0.300353 0.390341
vt 0.300353 0.400615
vt 0.298541 0.393775
vt 0.781087 0.000000
vt 0.782812 0.003688
vt 0.752466 0.001041
vt 0.853247 0.960272
vt 0.716464 0.003302
vt 0.480270 0.964693
vt 0.780773 0.301048
vt 0.780773 0.373887
vt 0.776212 0.370785
vt 0.478679 0.890455
vt 0.711709 0.196848
vt 0.895002 0.392516
vt 0.890993 0.388303
vt 0.748351 0.864147
vt 0.740554 0.881110
vt 0.734648 0.864147
vt 0.498298 0.723551
vt 0.498296 0.754826
vt 0.487432 0.742646
vt 0.638130 0.346206
vt 0.640597 0.365363
vt 0.637561 0.354021
vt 0.773075 0.357708
vt 0.761665 0.354699
vt 0.773289 0.320988
vt 0.994280 0.854652
vt 0.991109 0.830037
vt 0.994280 0.693787
vt 0.418421 0.894763
vt 0.410306 0.894763
vt 0.413937 0.874711
vt 0.870890 0.370717
vt 0.860361 0.341217
vt 0.869722 0.343747
vt 0.458749 0.889196
vt 0.450486 0.873641
vt 0.458749 0.865005
vt 0.960722 0.701516
vt 0.787119 0.324546
vt 0.796931 0.306561
vt 0.789554 0.350198
vt 0.782121 0.172897
vt 0.773646 0.080584
vt 0.952804 0.962517
vt 0.952586 0.933819
vt 0.959073 0.921579
vt 0.775226 0.302766
vt 0.778012 0.285658
vt 0.786759 0.285658
vt 0.637561 0.384922
vt 0.427046 0.793285
vt 0.427429 0.763867
vt 0.436986 0.762895
vt 0.549408 0.938837
vt 0.299886 0.303612
vt 0.299886 0.390341
vt 0.298541 0.308433
vt 0.637119 0.017512
vt 0.522790 0.004762
vt 0.508148 0.835232
vt 0.518189 0.214309
vt 0.244934 0.618177
vt 0.942419 0.876220
vt 0.969369 0.970064
vt 0.960722 0.711430
vt 0.968653 0.911023
vt 0.749168 0.070381
vt 0.952507 0.897718
vt 0.870890 0.372824
vt 0.870890 0.320266
vt 0.877072 0.334335
vt 0.824376 0.302759
vt 0.824376 0.366843
vt 0.817435 0.313130
vt 0.719584 0.070759
vt 0.712690 0.019568
vt 0.612753 0.860163
vt 0.605704 0.880010
vt 0.478679 0.892986
vt 0.473450 0.845680
vt 0.478374 0.841564
vt 0.976797 0.956133
vt 0.969506 0.786782
vt 0.978153 0.783428
vt 0.658810 0.007474
vt 0.649863 0.191453
vt 0.468512 0.807243
vt 0.478500 0.810604
vt 0.477927 0.802742
vt 0.475428 0.729249
vt 0.833104 0.392868
vt 0.833104 0.374249
vt 0.841062 0.391436
vt 0.713474 0.754358
vt 0.690526 0.754615
vt 0.690281 0.723983
vt 0.712401 0.960409
vt 0.705980 0.957747
vt 0.712401 0.839479
vt 0.876970 0.370228
vt 0.357241 0.839670
vt 0.356471 0.869285
vt 0.352732 0.839823
vt 0.689233 0.214306
vt 0.715885 0.211412
vt 0.667522 0.218521
vt 0.635265 0.199488
vt 0.498313 0.823455
vt 0.486827 0.812249
vt 0.493332 0.710324
vt 0.791289 0.838517
vt 0.779850 0.815059
vt 0.779873 0.790525
vt 0.624935 0.192705
vt 0.493102 0.870771
vt 0.766590 0.320108
vt 0.586945 0.321198
vt 0.427046 0.726602
vt 0.422842 0.757220
vt 0.415321 0.736854
vt 0.734648 0.918370
vt 0.730185 0.873906
vt 0.734648 0.839479
vt 0.805992 0.345549
vt 0.805992 0.389811
vt 0.798663 0.379428
vt 0.685493 0.883336
vt 0.690930 0.839479
vt 0.692797 0.885600
vt 0.516840 0.809171
vt 0.302719 0.177955
vt 0.310915 0.176058
vt 0.300713 0.202808
vt 0.357241 0.893677
vt 0.352855 0.870041
vt 0.314219 0.895626
vt 0.307785 0.882117
vt 0.716627 0.271043
vt 0.702951 0.244035
vt 0.688561 0.230192
vt 0.245336 0.734860
vt 0.613257 0.300518
vt 0.427583 0.710324
vt 0.787119 0.350198
vt 0.798624 0.354593
vt 0.798663 0.384937
vt 0.513299 0.791218
vt 0.511365 0.710324
vt 0.982285 0.702352
vt 0.301378 0.697209
vt 0.555829 0.637831
vt 0.554247 0.392958
vt 0.707205 0.842944
vt 0.352632 0.891037
vt 0.585426 0.897666
vt 0.585426 0.878187
vt 0.590315 0.883977
vt 0.474019 0.369715
vt 0.486082 0.388991
vt 0.309366 0.211150
vt 0.245530 0.817807
vt 0.497497 0.870771
vt 0.434929 0.886262
vt 0.438344 0.877405
vt 0.759242 0.791146
vt 0.976708 0.702503
vt 0.735858 0.352574
vt 0.730120 0.356869
vt 0.730120 0.345039
vt 0.637374 0.297222
vt 0.637374 0.322430
vt 0.437894 0.712072
vt 0.718662 0.789134
vt 0.725205 0.816618
vt 0.690006 0.815363
vt 0.685493 0.839158
vt 0.690400 0.791367
vt 0.448827 0.712599
vt 0.458845 0.710324
vt 0.685493 0.964251
vt 0.775023 0.895223
vt 0.780276 0.872866
vt 0.780276 0.906233
vt 0.245086 0.631254
vt 0.857928 0.978889
vt 0.352016 0.839566
vt 0.347654 0.817824
vt 0.354220 0.771572
vt 0.437429 0.839878
vt 0.427046 0.844123
vt 0.969369 0.744048
vt 0.618627 0.285658
vt 0.743666 0.726241
vt 0.422961 0.793970
vt 0.787119 0.389811
vt 0.857928 0.701977
vt 0.941812 0.964019
vt 0.260959 0.006209
vt 0.285195 0.000000
vt 0.293044 0.014408
vt 0.968698 0.980002
vt 0.961633 0.972930
vt 0.307785 0.888809
vt 0.300713 0.894438
vt 0.300713 0.876186
vt 0.969369 0.973740
vt 0.350877 0.715567
vt 0.358339 0.754612
vt 0.959097 0.885760
vt 0.860148 0.363548
vt 0.859317 0.385385
vt 0.844280 0.386101
vt 0.654740 0.184141
vt 0.578648 0.180640
vt 0.774779 0.377486
vt 0.761241 0.389041
vt 0.761241 0.360795
vt 0.595828 0.192033
vt 0.969730 0.693787
vt 0.952803 0.693787
vt 0.951270 0.969644
vt 0.942231 0.706146
vt 0.951270 0.693787
vt 0.950528 0.709888
vt 0.485605 0.004737
vt 0.509346 0.000000
vt 0.497369 0.005538
vt 0.941931 0.939981
vt 0.302846 0.587454
vt 0.300713 0.829550
vt 0.344142 0.817481
vt 0.321894 0.839670
vt 0.300713 0.714735
vt 0.336618 0.710324
vt 0.444217 0.884878
vt 0.438538 0.845993
vt 0.444217 0.844123
vt 0.664838 0.370246
vt 0.658158 0.389924
vt 0.641850 0.383720
vt 0.876454 0.376970
vt 0.860622 0.389317
vt 0.860361 0.372824
vt 0.332901 0.852419
vt 0.318403 0.860942
vt 0.318403 0.839670
vt 0.757435 0.756525
vt 0.766362 0.305925
vt 0.757738 0.289470
vt 0.774289 0.307358
vt 0.515494 0.335166
vt 0.543720 0.329269
vt 0.548516 0.342592
vt 0.467794 0.730087
vt 0.476975 0.724429
vt 0.427046 0.817975
vt 0.409523 0.840509
vt 0.466871 0.713684
vt 0.414428 0.841678
vt 0.806382 0.351516
vt 0.940627 0.900984
vt 0.941074 0.825942
vt 0.309119 0.202873
vt 0.960729 0.983136
vt 0.960722 0.960127
vt 0.714395 0.360795
vt 0.712531 0.387074
vt 0.688725 0.378044
vt 0.286815 0.247517
vt 0.284569 0.211765
vt 0.286971 0.224810
vt 0.285754 0.190010
vt 0.876454 0.390859
vt 0.754623 0.288397
vt 0.756840 0.308868
vt 0.739649 0.315461
vt 0.312293 0.876186
vt 0.300713 0.858258
vt 0.316926 0.858258
vt 0.792323 0.758925
vt 0.686165 0.351112
vt 0.696472 0.339188
vt 0.689851 0.355581
vt 0.664838 0.354372
vt 0.960602 0.863752
vt 0.478679 0.710324
vt 0.787119 0.302759
vt 0.332072 0.170939
vt 0.317484 0.190314
vt 0.320420 0.181025
vt 0.000717 0.295264
vt 0.054696 0.299754
vt 0.960627 0.898641
vt 0.791915 0.722428
vt 0.739827 0.360795
vt 0.761241 0.363999
vt 0.739827 0.382391
vt 0.835609 0.340064
vt 0.824983 0.341217
vt 0.835609 0.302759
vt 0.824376 0.306072
vt 0.833104 0.348977
vt 0.824376 0.366270
vt 0.824376 0.341217
vt 0.447383 0.864638
vt 0.941493 0.767875
vt 0.377317 0.126008
vt 0.358726 0.142453
vt 0.939946 0.955345
vt 0.279987 0.295207
vt 0.288970 0.303612
vt 0.018494 0.291121
vt 0.290475 0.286182
vt 0.960811 0.693787
vt 0.299589 0.290821
vt 0.509346 0.392958
vt 0.298262 0.213124
vt 0.844280 0.365588
vt 0.486368 0.869168
vt 0.299415 0.130525
vt 0.379170 0.259757
vt 0.348725 0.230046
vt 0.685849 0.293942
vt 0.510123 0.346206
vt 0.514443 0.324831
vt 0.300713 0.027357
vt 0.696472 0.285658
vt 0.410010 0.812403
vt 0.287228 0.028425
vt 0.412198 0.089792
vt 0.356138 0.131191
vt 0.429332 0.057947
vt 0.453350 0.048822
vt 0.670162 0.893606
vt 0.663014 0.869734
vt 0.670162 0.860163
vt 0.641850 0.360763
vt 0.660059 0.356800
vt 0.986668 0.750780
vt 0.991109 0.693787
vt 0.990409 0.747012
vt 0.546034 0.322711
vt 0.509346 0.285658
vt 0.688725 0.388006
vt 0.662163 0.860163
vt 0.663014 0.879942
vt 0.549408 0.841437
vt 0.544137 0.836467
vt 0.547662 0.803490
vt 0.486368 0.715720
vt 0.441451 0.783302
vt 0.543167 0.780721
vt 0.761665 0.316239
vt 0.744713 0.839479
vt 0.548963 0.285658
vt 0.549408 0.726630
vt 0.685493 0.708245
vt 0.544710 0.710324
vt 0.829228 0.388405
vt 0.696472 0.322947
vt 0.713006 0.336653
vt 0.696472 0.351807
vt 0.444217 0.837775
vt 0.701492 0.965097
vt 0.705819 0.910125
vt 0.705980 0.966082
vt 0.442678 0.717053
vt 0.699282 0.845646
vt 0.705980 0.839479
vt 0.444217 0.858765
vt 0.558825 0.839784
vt 0.556475 0.860163
vt 0.554247 0.805863
vt 0.554753 0.722821
vt 0.560545 0.713988
vt 0.640282 0.860163
vt 0.640282 0.878986
vt 0.627025 0.869968
vt 0.987200 0.820377
vt 0.991109 0.847250
vt 0.536035 0.859574
vt 0.541451 0.810574
vt 0.542932 0.863771
vt 0.692871 0.904990
vt 0.699282 0.840314
vt 0.698581 0.919909
vt 0.414015 0.710770
vt 0.692798 0.839479
vt 0.570776 0.345799
vt 0.548963 0.342685
vt 0.550332 0.323391
vt 0.758182 0.708166
vt 0.409333 0.742014
vt 0.409835 0.710324
vt 0.696472 0.316239
vt 0.698354 0.956391
vt 0.790418 0.708309
vt 0.559942 0.708166
vt 0.566691 0.711349
vt 0.561971 0.856156
vt 0.685849 0.323575
vt 0.542932 0.710324
vt 0.538380 0.711808
vt 0.715180 0.316239
vt 0.685849 0.295826
vt 0.535495 0.791817
vt 0.692798 0.973417
vt 0.696204 0.970465
vt 0.717695 0.901547
vt 0.712401 0.894106
vt 0.714821 0.839479
vt 0.719065 0.842213
vt 0.674697 0.363895
vt 0.664838 0.387686
vt 0.696472 0.293426
vt 0.723190 0.945731
vt 0.726884 0.839479
vt 0.726884 0.947085
vt 0.723145 0.913374
vt 0.719065 0.948466
vt 0.712612 0.947762
vt 0.722775 0.840442
vt 0.621590 0.850289
vt 0.566952 0.848376
vt 0.568869 0.749880
vt 0.688725 0.391327
vt 0.717421 0.320332
vt 0.735903 0.342143
vt 0.735903 0.316239
vt 0.756840 0.311094
vt 0.677143 0.716697
vt 0.685493 0.708166
vt 0.627807 0.858509
vt 0.567617 0.820268
vt 0.310678 0.858258
vt 0.300713 0.839669
vt 0.318403 0.839669
vt 0.739649 0.285658
vt 0.684124 0.788154
vt 0.682398 0.855915
vt 0.674998 0.850623
vt 0.678190 0.785177
vt 0.569884 0.718188
vt 0.680672 0.867907
vt 0.670162 0.882562
vt 0.569751 0.323391
vt 0.739826 0.386514
vt 0.714395 0.386514
vt 0.732483 0.360795
vt 0.739649 0.303228
vt 0.718824 0.314129
vt 0.765793 0.848080
vt 0.759154 0.379779
vt 0.774289 0.285658
vt 0.844280 0.347862
vt 0.860361 0.363548
s 1
usemtl Material
f 1/1/1 2/2/2 3/3/3
f 7/4/4 6/5/5 1/6/6
f 8/7/7 2/8/8 1/6/6
f 1/6/6 2/8/8 9/9/9
f 1/6/6 9/9/9 10/10/10
f 6/5/5 7/4/4 11/11/11
f 1/6/6 6/5/5 5/12/12
f 1/13/6 5/14/12 8/15/7
f 7/4/4 12/16/13 11/11/11
f 9/9/9 13/17/14 10/10/10
f 4/18/15 6/19/16 5/20/17
f 8/7/7 5/12/12 2/8/8
f 14/21/18 15/22/19 16/23/20
f 14/21/18 17/24/21 15/22/19
f 14/21/18 18/25/22 17/24/21
f 15/22/19 19/26/23 16/23/20
f 15/27/19 17/28/21 20/29/24
f 13/17/14 21/30/25 22/31/26
f 13/32/14 23/33/27 21/34/25
f 23/33/27 13/32/14 9/35/9
f 16/23/20 24/36/28 14/21/18
f 16/23/20 25/37/29 26/38/30
f 7/4/4 27/39/31 12/16/13
f 28/40/32 16/23/20 26/38/30
f 25/37/29 16/23/20 19/26/23
f 17/24/21 18/25/22 29/41/33
f 30/42/34 31/43/35 32/44/36
f 33/45/37 31/43/35 30/42/34
f 34/46/38 32/44/36 35/47/39
f 32/44/36 31/43/35 36/48/40
f 36/48/40 35/47/39 32/44/36
f 35/49/39 37/50/41 38/51/42
f 33/45/37 39/52/43 31/43/35
f 33/45/37 40/53/44 39/52/43
f 7/4/4 1/6/6 41/54/45
f 37/50/41 42/55/46 38/51/42
f 42/55/46 43/56/47 38/51/42
f 40/53/44 44/57/48 39/52/43
f 45/58/49 43/56/47 42/55/46
f 45/58/49 46/59/50 43/56/47
f 45/58/49 47/60/51 46/59/50
f 39/52/43 44/57/48 48/61/52
f 47/60/51 49/62/53 46/59/50
f 44/57/48 50/63/54 48/61/52
f 44/57/48 51/64/55 50/63/54
f 50/63/54 52/65/56 53/66/57
f 53/66/57 54/67/58 55/68/59
f 55/68/59 54/67/58 47/69/51
f 51/64/55 52/65/56 50/63/54
f 47/69/51 54/67/58 56/70/60
f 47/71/51 56/72/60 49/73/53
f 53/66/57 52/65/56 54/67/58
f 57/74/61 30/42/34 58/75/62
f 32/44/36 58/75/62 30/42/34
f 35/49/39 59/76/63 37/50/41
f 41/54/45 27/39/31 7/4/4
f 38/77/42 43/78/47 60/79/64
f 20/80/24 19/26/23 15/22/19
f 49/62/53 61/81/65 46/59/50
f 58/75/62 32/44/36 34/46/38
f 10/10/10 13/17/14 62/82/66
f 18/25/22 14/21/18 24/36/28
f 63/83/67 44/84/48 40/85/44
f 54/86/58 52/87/56 56/88/60
f 64/89/68 1/6/6 10/10/10
f 9/35/9 2/90/8 23/33/27
f 16/23/20 28/40/32 24/36/28
f 42/91/46 65/92/69 45/93/49
f 45/93/49 65/92/69 47/94/51
f 30/42/34 66/95/70 33/45/37
f 31/96/35 67/97/71 36/98/40
f 36/98/40 59/99/63 35/100/39
f 31/101/35 39/102/43 68/103/72
f 69/104/73 12/16/13 27/39/31
f 37/105/41 70/106/74 42/91/46
f 47/107/51 71/108/75 55/109/59
f 47/107/51 72/110/76 71/108/75
f 53/111/57 73/112/77 50/113/54
f 55/109/59 71/108/75 53/111/57
f 52/87/56 74/114/78 56/88/60
f 59/115/63 70/106/74 37/105/41
f 1/6/6 64/89/68 41/54/45
f 13/17/14 22/31/26 62/82/66
f 11/116/11 75/117/79 6/19/5
f 39/102/43 48/118/52 68/103/72
f 48/118/52 76/119/80 68/103/72
f 63/83/67 77/120/81 44/84/48
f 50/121/54 76/119/80 48/118/52
f 71/108/75 73/112/77 53/111/57
f 66/95/70 30/42/34 57/74/61
f 12/16/13 69/104/73 75/122/79
f 44/123/48 77/124/81 51/125/55
f 77/124/81 78/126/82 51/125/55
f 51/125/55 79/127/83 52/87/56
f 40/85/44 33/128/37 80/129/84
f 64/89/68 10/10/10 62/82/66
f 6/19/5 75/117/79 5/20/12
f 50/113/54 73/112/77 81/130/85
f 36/98/40 67/97/71 82/131/86
f 36/98/40 82/131/86 83/132/87
f 36/98/40 83/132/87 59/99/63
f 12/133/13 75/117/79 11/116/11
f 5/20/12 75/117/79 23/33/27
f 5/20/12 23/33/27 2/90/8
f 70/106/74 84/134/88 42/91/46
f 43/78/47 46/135/50 85/136/89
f 42/91/46 84/134/88 65/92/69
f 20/29/24 17/28/21 29/137/33
f 50/138/54 81/139/85 76/140/80
f 66/141/70 86/142/90 33/128/37
f 31/96/35 87/143/91 67/97/71
f 31/101/35 68/103/72 87/144/91
f 88/145/92 71/146/75 72/147/76
f 73/148/77 89/149/93 81/139/85
f 73/148/77 71/146/75 89/149/93
f 71/146/75 88/145/92 89/149/93
f 82/150/86 90/151/94 83/152/87
f 27/39/31 41/54/45 90/151/94
f 90/151/94 41/54/45 83/152/87
f 83/152/87 41/54/45 64/89/68
f 64/89/68 62/82/66 83/152/87
f 62/82/66 91/153/95 83/152/87
f 75/154/79 69/155/73 28/156/32
f 75/122/79 28/40/32 23/157/27
f 21/30/25 23/157/27 28/40/32
f 21/30/25 28/40/32 22/31/26
f 69/104/73 24/36/28 28/40/32
f 43/78/47 85/136/89 92/158/96
f 69/104/73 18/25/22 24/36/28
f 28/40/32 26/38/30 22/31/26
f 81/139/85 69/104/73 27/39/31
f 26/38/30 25/37/29 22/31/26
f 69/104/73 81/139/85 18/25/22
f 84/159/88 72/147/76 65/160/69
f 18/25/22 81/139/85 29/41/33
f 19/161/23 20/162/24 25/163/29
f 29/41/33 89/149/93 20/80/24
f 25/37/29 88/145/92 72/147/76
f 20/80/24 88/145/92 25/37/29
f 72/100/76 47/94/51 65/92/69
f 29/41/33 81/139/85 89/149/93
f 89/149/93 88/145/92 20/80/24
f 52/87/56 79/127/83 74/114/78
f 58/164/62 34/165/38 93/166/97
f 87/167/91 90/151/94 67/168/71
f 67/168/71 90/151/94 82/150/86
f 68/169/72 27/39/31 90/151/94
f 91/153/95 62/82/66 70/170/74
f 68/169/72 76/140/80 27/39/31
f 62/82/66 84/159/88 70/170/74
f 62/82/66 22/31/26 84/159/88
f 76/140/80 81/139/85 27/39/31
f 22/31/26 25/37/29 84/159/88
f 25/37/29 72/147/76 84/159/88
f 59/99/63 83/132/87 94/171/98
f 38/77/42 60/79/64 95/172/99
f 51/125/55 78/126/82 79/127/83
f 58/164/62 96/173/100 57/174/61
f 58/164/62 93/166/97 96/173/100
f 91/175/95 94/176/98 83/177/87
f 80/129/84 63/83/67 40/85/44
f 46/135/50 61/178/65 85/136/89
f 49/179/53 56/88/60 61/180/65
f 97/181/101 90/182/94 87/183/91
f 59/115/63 98/184/102 70/106/74
f 38/77/42 95/172/99 35/185/39
f 90/186/94 97/187/101 68/188/72
f 60/79/64 43/78/47 92/158/96
f 78/126/82 99/189/103 79/127/83
f 57/174/61 96/173/100 66/190/70
f 100/191/104 80/129/84 33/128/37
f 60/79/64 92/158/96 95/172/99
f 85/136/89 61/178/65 101/192/105
f 35/185/39 95/172/99 102/193/106
f 66/190/70 103/194/107 104/195/108
f 66/190/70 105/196/109 103/194/107
f 96/173/100 105/196/109 66/190/70
f 96/173/100 106/197/110 107/198/111
f 93/166/97 108/199/112 96/173/100
f 93/166/97 109/200/113 108/199/112
f 61/180/65 56/88/60 101/201/105
f 35/185/39 102/193/106 34/202/38
f 68/103/72 97/203/101 87/144/91
f 92/158/96 85/136/89 110/204/114
f 74/114/78 111/205/115 112/206/116
f 74/114/78 112/206/116 113/207/117
f 33/128/37 86/142/90 100/191/104
f 91/208/95 98/209/102 94/210/98
f 74/114/78 113/207/117 56/88/60
f 96/173/100 107/198/111 105/196/109
f 94/171/98 98/211/102 59/99/63
f 98/212/102 91/213/95 70/214/74
f 99/215/103 114/216/118 79/217/83
f 115/218/119 105/219/109 107/220/111
f 108/221/112 109/222/113 116/223/120
f 102/224/106 117/225/121 34/165/38
f 95/172/99 118/226/122 102/193/106
f 105/219/109 115/218/119 103/227/107
f 115/218/119 107/220/111 119/228/123
f 107/220/111 106/229/110 119/228/123
f 120/230/124 77/120/81 63/83/67
f 86/231/90 66/190/70 121/232/125
f 122/233/126 112/206/116 111/205/115
f 116/234/120 109/235/113 123/236/127
f 118/226/122 95/172/99 110/204/114
f 79/127/83 114/237/118 124/238/128
f 125/239/129 120/230/124 63/83/67
f 99/240/103 126/241/130 114/242/118
f 116/242/120 127/243/131 108/244/112
f 78/126/82 126/245/130 99/189/103
f 96/173/100 108/199/112 128/246/132
f 77/124/81 129/247/133 78/126/82
f 114/237/118 130/248/134 124/238/128
f 85/136/89 131/249/135 110/204/114
f 101/192/105 131/249/135 85/136/89
f 79/127/83 124/238/128 74/114/78
f 74/114/78 124/238/128 111/205/115
f 80/129/84 125/239/129 63/83/67
f 78/126/82 129/247/133 132/250/136
f 96/173/100 128/246/132 106/197/110
f 95/172/99 92/158/96 110/204/114
f 101/192/105 133/251/137 131/249/135
f 80/129/84 100/191/104 134/252/138
f 134/252/138 125/239/129 80/129/84
f 124/238/128 135/253/139 111/205/115
f 86/142/90 136/254/140 100/191/104
f 129/255/133 77/120/81 120/230/124
f 137/256/141 101/201/105 56/88/60
f 135/253/139 122/233/126 111/205/115
f 138/257/142 110/258/114 139/259/143
f 140/260/144 141/261/145 134/262/138
f 134/262/138 141/261/145 125/263/129
f 141/261/145 142/264/146 125/263/129
f 110/258/114 131/265/135 139/259/143
f 139/259/143 131/265/135 143/266/147
f 143/266/147 131/265/135 133/267/137
f 125/263/129 142/264/146 120/268/124
f 143/266/147 101/269/105 144/270/148
f 142/264/146 145/271/149 120/268/124
f 132/250/136 126/245/130 78/126/82
f 118/272/122 110/258/114 138/257/142
f 143/266/147 133/267/137 101/269/105
f 120/273/124 145/274/149 129/275/133
f 146/276/150 135/277/139 147/278/151
f 146/276/150 122/279/126 135/277/139
f 124/280/128 147/278/151 135/277/139
f 119/281/123 106/282/110 148/283/152
f 127/284/131 128/285/132 108/286/112
f 102/224/106 149/287/153 117/225/121
f 86/288/90 140/289/144 136/290/140
f 102/291/106 118/272/122 138/257/142
f 136/292/140 140/260/144 134/262/138
f 139/293/143 150/294/154 138/295/142
f 139/293/143 151/296/155 150/294/154
f 140/297/144 152/298/156 141/299/145
f 139/293/143 153/300/157 151/296/155
f 141/299/145 152/298/156 142/301/146
f 139/293/143 143/302/147 153/300/157
f 144/303/148 153/300/157 143/302/147
f 101/269/105 137/304/141 144/270/148
f 147/305/151 124/306/128 154/307/158
f 112/206/116 155/308/159 113/207/117
f 128/246/132 148/309/152 106/197/110
f 128/246/132 156/310/160 148/309/152
f 149/311/153 102/312/106 138/295/142
f 147/313/151 154/314/158 146/315/150
f 146/315/150 154/314/158 158/316/161
f 146/317/150 159/318/162 122/319/126
f 123/320/127 127/321/131 116/322/120
f 138/323/163 157/324/164 118/325/165
f 136/254/140 134/252/138 100/191/104
f 86/326/90 160/327/166 140/297/144
f 161/328/167 126/245/130 132/250/136
f 126/245/130 162/329/168 114/237/118
f 124/306/128 130/330/134 154/307/158
f 66/190/70 104/195/108 121/232/125
f 117/225/121 93/166/97 34/165/38
f 113/207/117 163/331/169 56/88/60
f 104/332/108 103/333/107 115/334/119
f 121/335/125 160/327/166 86/326/90
f 123/336/127 109/337/113 164/338/170
f 138/295/142 150/294/154 149/311/153
f 56/88/60 163/331/169 137/256/141
f 113/207/117 165/339/171 163/331/169
f 119/340/123 166/341/172 115/342/119
f 115/334/119 166/343/172 104/332/108
f 149/311/153 150/294/154 167/344/173
f 146/345/150 158/346/161 159/347/162
f 162/329/168 130/248/134 114/237/118
f 127/321/131 123/320/127 168/348/174
f 145/349/149 142/301/146 169/350/175
f 165/351/171 113/352/117 155/353/159
f 122/233/126 170/354/176 112/206/116
f 123/320/127 164/355/170 168/348/174
f 127/284/131 156/356/160 128/285/132
f 159/318/162 170/357/176 122/319/126
f 170/354/176 155/308/159 112/206/116
f 117/358/121 149/311/153 171/359/177
f 126/360/130 161/361/167 162/362/168
f 119/340/123 172/363/178 166/341/172
f 168/348/174 156/364/160 127/321/131
f 165/365/171 155/366/159 158/367/161
f 162/329/168 161/328/167 130/248/134
f 166/368/172 173/369/179 104/370/108
f 154/307/158 130/330/134 174/371/180
f 168/372/174 164/373/170 175/374/181
f 109/200/113 93/166/97 164/375/170
f 119/281/123 148/283/152 172/376/178
f 166/341/172 172/363/178 173/377/179
f 149/311/153 176/378/182 171/359/177
f 159/379/162 158/367/161 170/380/176
f 170/380/176 158/367/161 155/366/159
f 172/381/178 148/382/152 173/383/179
f 175/374/181 156/384/160 168/372/174
f 104/195/108 177/385/183 121/232/125
f 154/314/158 174/386/180 158/316/161
f 174/387/180 130/388/134 161/389/167
f 164/390/170 93/391/97 175/392/181
f 149/311/153 167/344/173 176/378/182
f 176/378/182 167/344/173 150/294/154
f 153/300/157 144/303/148 178/393/184
f 137/394/141 179/395/185 144/303/148
f 163/331/169 179/396/185 137/256/141
f 117/225/121 171/397/177 93/166/97
f 177/385/183 104/195/108 173/398/179
f 180/399/186 174/386/180 161/328/167
f 150/294/154 151/296/155 181/400/187
f 93/166/97 182/401/188 175/402/181
f 93/166/97 171/397/177 182/401/188
f 121/232/125 177/385/183 183/403/189
f 150/294/154 181/400/187 176/378/182
f 173/398/179 148/309/152 184/404/190
f 185/405/191 145/349/149 169/350/175
f 156/310/160 186/406/192 148/309/152
f 175/402/181 182/401/188 156/310/160
f 152/298/156 187/407/193 142/301/146
f 177/385/183 173/398/179 184/404/190
f 160/327/166 152/298/156 140/297/144
f 160/327/166 188/408/194 152/298/156
f 189/409/195 165/339/171 158/316/161
f 179/395/185 190/410/196 144/303/148
f 174/386/180 189/409/195 158/316/161
f 132/250/136 180/399/186 161/328/167
f 121/335/125 183/411/189 160/327/166
f 148/309/152 186/406/192 184/404/190
f 176/378/182 181/400/187 191/412/197
f 142/301/146 187/407/193 169/350/175
f 144/303/148 190/410/196 178/393/184
f 187/407/193 185/405/191 169/350/175
f 145/349/149 192/413/198 129/414/133
f 165/339/171 189/409/195 163/331/169
f 160/327/166 183/411/189 188/408/194
f 188/408/194 193/415/199 152/298/156
f 176/378/182 191/412/197 171/359/177
f 163/331/169 189/409/195 194/416/200
f 177/385/183 184/404/190 183/403/189
f 145/349/149 185/405/191 192/413/198
f 129/247/133 195/417/201 132/250/136
f 163/331/169 196/418/202 179/396/185
f 163/331/169 194/416/200 196/418/202
f 180/399/186 197/419/203 174/386/180
f 186/406/192 156/310/160 198/420/204
f 156/310/160 182/401/188 198/420/204
f 195/417/201 180/399/186 132/250/136
f 174/386/180 199/421/205 189/409/195
f 180/399/186 200/422/206 197/419/203
f 184/404/190 186/406/192 201/423/207
f 202/424/208 194/416/200 189/409/195
f 202/424/208 189/409/195 199/421/205
f 203/425/209 182/401/188 171/397/177
f 195/417/201 204/426/210 180/399/186
f 205/427/211 198/420/204 182/401/188
f 205/427/211 182/401/188 203/425/209
f 206/428/212 199/421/205 174/386/180
f 184/404/190 201/423/207 207/429/213
f 183/411/189 208/430/214 188/408/194
f 207/429/213 208/431/214 183/403/189
f 184/404/190 207/429/213 183/403/189
f 203/432/209 171/359/177 191/412/197
f 204/426/210 200/422/206 180/399/186
f 185/405/191 187/407/193 192/413/198
f 209/433/215 198/434/204 205/435/211
f 210/436/216 201/437/207 186/438/192
f 211/439/217 210/436/216 186/438/192
f 200/422/206 212/440/218 213/441/219
f 200/422/206 213/441/219 197/419/203
f 211/439/217 214/442/220 210/436/216
f 199/421/205 215/443/221 202/424/208
f 209/444/215 205/445/211 216/446/222
f 215/443/221 217/447/223 202/424/208
f 200/448/206 204/449/210 212/450/218
f 217/447/223 215/443/221 218/451/224
f 178/393/184 190/410/196 219/452/225
f 216/453/222 220/454/226 209/455/215
f 220/456/226 198/2/204 209/457/215
f 193/415/199 221/458/227 152/298/156
f 197/459/203 213/460/219 222/461/228
f 152/298/156 223/462/229 187/407/193
f 210/436/216 224/463/230 201/437/207
f 208/430/214 225/464/231 188/408/194
f 178/393/184 226/465/232 153/300/157
f 199/244/205 206/466/212 215/467/221
f 188/408/194 225/464/231 193/415/199
f 181/400/187 151/296/155 227/468/233
f 206/466/212 228/469/234 215/467/221
f 192/470/198 195/417/201 129/247/133
f 202/471/208 217/472/223 194/473/200
f 201/423/207 229/474/235 207/429/213
f 212/440/218 230/475/236 213/441/219
f 224/476/230 229/477/235 201/478/207
f 186/479/192 231/480/237 211/481/217
f 225/464/231 232/482/238 193/415/199
f 213/460/219 233/483/239 222/461/228
f 187/407/193 223/462/229 192/413/198
f 224/484/230 210/485/216 214/486/220
f 204/426/210 230/475/236 212/440/218
f 216/453/222 234/487/240 220/454/226
f 213/441/219 230/475/236 233/488/239
f 203/425/209 235/489/241 205/427/211
f 178/393/184 219/452/225 226/465/232
f 198/490/204 220/491/226 236/492/242
f 197/419/203 206/428/212 174/386/180
f 151/296/155 153/300/157 226/465/232
f 237/493/243 207/429/213 229/474/235
f 238/494/244 205/427/211 235/489/241
f 236/495/242 186/406/192 198/420/204
f 239/496/245 232/497/238 240/498/246
f 205/499/211 238/500/244 216/501/222
f 220/502/226 241/503/247 236/504/242
f 242/505/248 204/426/210 195/417/201
f 243/506/249 224/484/230 214/486/220
f 231/507/237 186/406/192 236/495/242
f 193/415/199 232/482/238 244/508/250
f 151/296/155 226/465/232 227/468/233
f 244/508/250 221/458/227 193/415/199
f 221/458/227 223/462/229 152/298/156
f 245/342/251 246/509/252 223/510/253
f 233/483/239 247/511/254 222/461/228
f 222/512/228 247/513/254 197/514/203
f 197/419/203 247/515/254 206/428/212
f 216/501/222 238/500/244 234/516/240
f 191/517/197 248/518/255 249/519/256
f 191/520/197 181/521/187 248/522/255
f 226/465/232 219/452/225 250/523/257
f 250/523/257 219/452/225 190/410/196
f 203/432/209 191/412/197 249/524/256
f 208/525/214 251/526/258 225/527/231
f 251/528/258 240/529/246 225/530/231
f 225/531/231 240/532/246 232/533/238
f 181/521/187 252/534/259 248/522/255
f 239/535/245 221/536/227 244/537/250
f 227/538/233 253/539/260 252/540/259
f 239/535/245 254/541/261 221/536/227
f 254/541/261 223/542/229 221/536/227
f 227/538/233 226/543/232 253/539/260
f 226/543/232 255/544/262 253/539/260
f 256/545/263 255/546/262 250/547/264
f 246/548/265 192/549/198 223/542/229
f 250/550/257 190/551/196 257/552/266
f 190/553/196 179/396/185 257/554/266
f 247/555/254 258/556/267 259/557/268
f 247/555/254 259/557/268 206/558/212
f 233/559/239 258/556/267 247/555/254
f 206/558/212 259/557/268 228/560/234
f 217/472/223 196/561/202 194/473/200
f 217/447/223 218/451/224 196/418/202
f 211/562/217 231/563/237 260/564/269
f 260/565/269 231/566/237 241/567/247
f 241/567/247 231/566/237 236/568/242
f 232/569/238 239/535/245 244/537/250
f 181/570/187 227/538/233 252/540/259
f 254/541/261 246/548/265 223/542/229
f 226/543/232 250/550/257 255/544/262
f 250/550/257 257/552/266 255/544/262
f 239/571/245 261/572/270 254/573/261
f 214/574/220 211/575/217 260/576/269
f 252/577/259 262/578/271 248/579/255
f 261/572/270 263/580/272 254/573/261
f 246/581/265 264/582/273 192/583/198
f 195/121/201 192/583/198 264/582/273
f 224/484/230 243/506/249 229/584/235
f 241/585/247 237/493/243 260/586/269
f 241/585/247 265/587/274 237/493/243
f 254/573/261 263/580/272 246/581/265
f 253/588/260 255/589/262 266/590/275
f 255/589/262 257/591/266 267/592/276
f 204/426/210 242/505/248 230/475/236
f 241/593/247 220/594/226 268/434/277
f 251/528/258 239/571/245 240/529/246
f 255/589/262 267/592/276 266/590/275
f 233/488/239 269/595/278 258/596/267
f 270/597/279 259/598/268 258/596/267
f 220/454/226 234/487/240 268/599/277
f 228/600/234 259/598/268 270/597/279
f 207/429/213 237/493/243 271/601/280
f 203/425/209 249/602/256 235/489/241
f 264/603/273 242/505/248 195/417/201
f 246/581/265 263/580/272 264/582/273
f 257/554/266 179/396/185 267/604/276
f 270/597/279 272/605/281 228/600/234
f 215/443/221 272/605/281 218/451/224
f 243/506/249 214/486/220 260/606/269
f 271/601/280 208/431/214 207/429/213
f 228/600/234 272/605/281 215/443/221
f 248/579/255 262/578/271 249/607/256
f 251/528/258 273/608/282 239/571/245
f 252/577/259 253/588/260 274/609/283
f 230/475/236 269/595/278 233/488/239
f 273/608/282 261/572/270 239/571/245
f 218/451/224 275/610/284 196/418/202
f 243/611/249 260/612/269 229/513/235
f 234/613/240 238/614/244 268/615/277
f 275/610/284 218/451/224 272/605/281
f 258/596/267 269/595/278 270/597/279
f 242/616/248 269/617/278 230/618/236
f 179/396/185 196/418/202 267/604/276
f 270/619/279 276/620/285 272/621/281
f 276/622/285 275/610/284 272/605/281
f 251/528/258 277/623/286 273/608/282
f 262/578/271 235/624/241 249/607/256
f 260/586/269 237/493/243 229/474/235
f 268/625/277 265/587/274 241/585/247
f 238/494/244 265/587/274 268/625/277
f 238/494/244 235/489/241 265/587/274
f 252/577/259 274/609/283 262/578/271
f 253/588/260 266/590/275 274/609/283
f 208/626/214 271/627/280 277/628/286
f 208/629/214 277/630/286 251/631/258
f 267/592/276 278/632/287 266/590/275
f 237/493/243 265/587/274 279/633/288
f 261/572/270 280/634/289 263/580/272
f 242/505/248 281/635/290 269/595/278
f 196/418/202 275/610/284 276/622/285
f 282/636/291 283/637/292 284/638/293
f 282/639/291 285/640/294 283/641/292
f 284/642/293 283/641/292 286/643/295
f 285/640/294 287/644/296 283/641/292
f 288/645/297 289/646/298 290/647/299
f 290/648/299 291/649/300 292/650/301
f 287/644/296 285/640/294 293/651/302
f 294/652/303 295/653/304 296/654/305
f 295/653/304 297/655/306 298/656/307
f 295/653/304 298/656/307 299/657/308
f 300/658/309 301/659/310 297/655/306
f 292/650/301 291/649/300 302/660/311
f 294/652/303 296/654/305 303/661/312
f 304/662/313 305/663/314 293/651/302
f 297/664/306 306/665/315 307/666/316
f 298/656/307 306/667/315 299/657/308
f 297/655/306 301/659/310 306/667/315
f 306/667/315 308/668/317 299/657/308
f 296/654/305 309/669/318 303/661/312
f 309/669/318 308/668/317 303/661/312
f 305/663/314 304/662/313 310/670/319
f 310/670/319 311/671/320 312/672/321
f 310/670/319 304/662/313 311/671/320
f 312/672/321 311/671/320 313/673/322
f 311/674/320 314/675/323 315/676/324
f 311/671/320 304/662/313 314/677/323
f 314/678/323 304/679/313 316/614/325
f 317/680/326 318/681/327 319/682/328
f 320/683/329 321/684/330 312/672/321
f 319/685/328 322/686/331 317/687/326
f 317/688/326 322/689/331 323/690/332
f 324/691/333 318/692/327 322/693/331
f 322/689/331 318/694/327 325/695/334
f 322/689/331 325/695/334 323/690/332
f 326/696/335 327/697/336 328/698/337
f 304/662/313 329/699/338 316/700/325
f 320/683/329 316/700/325 321/684/330
f 330/701/339 331/702/340 332/703/341
f 330/701/339 329/699/338 331/702/340
f 321/684/330 329/699/338 330/701/339
f 316/700/325 329/699/338 321/684/330
f 333/704/342 334/705/343 285/706/294
f 282/707/291 335/708/344 336/709/345
f 284/710/293 335/708/344 282/707/291
f 282/639/291 333/711/342 285/640/294
f 334/712/343 337/713/346 285/714/294
f 287/715/296 338/716/347 283/717/292
f 289/718/298 339/719/348 340/720/349
f 287/721/296 293/722/302 341/723/350
f 295/653/304 340/724/349 297/655/306
f 340/724/349 300/658/309 297/655/306
f 300/658/309 342/725/351 301/659/310
f 295/726/304 299/727/308 343/728/352
f 293/651/302 305/663/314 344/729/353
f 299/730/308 308/731/317 345/732/354
f 345/733/354 308/668/317 309/669/318
f 307/734/316 306/735/315 346/736/355
f 301/737/310 347/738/356 348/739/357
f 312/672/321 349/740/358 350/741/359
f 280/634/289 351/742/360 263/580/272
f 349/740/358 352/743/361 353/744/362
f 349/740/358 312/672/321 352/743/361
f 312/672/321 313/673/322 320/683/329
f 304/662/313 354/745/363 329/699/338
f 327/746/336 355/747/364 328/748/337
f 327/749/336 356/750/365 355/751/364
f 332/752/341 357/753/366 330/754/339
f 332/703/341 358/755/367 355/756/364
f 332/703/341 331/702/340 358/755/367
f 359/757/368 271/601/280 237/493/243
f 360/758/369 265/587/274 235/489/241
f 336/759/345 361/760/370 282/639/291
f 282/639/291 361/760/370 333/711/342
f 362/761/371 283/717/292 338/716/347
f 285/640/294 337/762/346 293/651/302
f 290/763/299 289/718/298 363/764/372
f 296/654/305 295/653/304 343/765/352
f 364/766/373 292/650/301 302/660/311
f 303/661/312 365/767/374 294/652/303
f 366/768/375 306/769/315 298/770/307
f 293/651/302 337/762/346 304/662/313
f 302/771/311 367/772/376 364/773/373
f 305/663/314 310/670/319 368/774/377
f 310/670/319 312/672/321 350/741/359
f 369/775/378 353/776/362 352/777/361
f 370/778/379 371/779/380 372/780/381
f 311/671/320 373/781/382 313/673/322
f 314/782/323 316/783/325 373/784/382
f 374/785/383 325/786/334 318/787/327
f 370/778/379 326/788/335 371/779/380
f 312/789/321 321/790/330 375/791/384
f 376/792/385 377/793/386 378/794/387
f 379/795/388 356/796/365 327/797/336
f 355/798/364 357/753/366 332/752/341
f 380/799/389 355/756/364 358/755/367
f 329/800/338 381/801/390 331/802/340
f 382/803/391 270/597/279 269/595/278
f 382/803/391 276/622/285 270/597/279
f 265/587/274 360/758/369 279/633/288
f 361/760/370 336/759/345 383/804/392
f 384/805/393 383/806/392 385/807/394
f 384/808/393 385/809/394 386/810/395
f 262/578/271 274/609/283 387/811/396
f 386/810/395 292/650/301 388/812/397
f 287/715/296 341/813/350 338/716/347
f 289/814/298 288/815/297 389/816/398
f 362/761/371 390/817/399 339/719/348
f 300/658/309 390/818/399 342/725/351
f 290/819/299 363/820/372 291/435/300
f 387/811/396 274/609/283 278/632/287
f 366/821/375 346/822/355 306/823/315
f 303/824/312 308/825/317 391/826/400
f 274/609/283 266/590/275 278/632/287
f 372/827/381 392/828/401 393/829/402
f 312/830/321 394/831/403 352/832/361
f 302/833/311 395/834/404 367/835/376
f 313/836/322 396/837/405 320/838/329
f 317/839/326 374/840/383 318/841/327
f 320/842/329 397/843/406 316/844/325
f 364/773/373 367/772/376 398/845/407
f 356/796/365 379/795/388 378/794/387
f 399/846/408 321/847/330 400/848/409
f 336/759/345 385/809/394 383/804/392
f 335/849/344 286/643/295 401/850/410
f 384/851/393 386/852/395 402/853/411
f 273/608/282 280/634/289 261/572/270
f 289/814/298 403/854/412 339/855/348
f 340/720/349 363/764/372 289/718/298
f 295/653/304 294/652/303 340/724/349
f 388/812/397 292/650/301 364/766/373
f 348/739/357 347/738/356 404/856/413
f 392/828/401 291/857/300 393/829/402
f 348/858/357 404/859/413 405/860/414
f 392/861/401 372/780/381 371/779/380
f 326/862/335 392/863/401 371/864/380
f 392/865/401 326/696/335 328/698/337
f 367/866/376 328/698/337 380/799/389
f 356/750/365 378/867/387 355/751/364
f 321/684/330 330/701/339 406/868/415
f 351/742/360 407/869/416 263/580/272
f 263/580/272 407/869/416 264/582/273
f 381/801/390 408/870/417 331/802/340
f 237/493/243 279/633/288 359/757/368
f 383/871/392 409/872/418 361/873/370
f 361/873/370 409/872/418 333/704/342
f 333/704/342 409/872/418 334/705/343
f 284/642/293 286/643/295 335/849/344
f 235/624/241 262/578/271 387/811/396
f 385/809/394 336/759/345 410/874/419
f 336/759/345 401/850/410 410/874/419
f 385/809/394 292/650/301 386/810/395
f 385/809/394 410/874/419 292/650/301
f 388/875/397 402/853/411 386/852/395
f 286/876/295 283/877/292 411/878/420
f 292/879/301 288/880/297 290/881/299
f 410/874/419 288/882/297 292/650/301
f 388/875/397 364/773/373 402/853/411
f 338/716/347 390/817/399 362/761/371
f 340/724/349 294/652/303 363/883/372
f 300/658/309 340/724/349 390/818/399
f 363/883/372 294/652/303 291/649/300
f 299/213/308 345/884/354 343/885/352
f 294/886/303 365/887/374 291/888/300
f 337/889/346 412/890/421 304/891/313
f 302/660/311 291/649/300 395/892/404
f 342/725/351 413/893/422 301/659/310
f 291/649/300 392/865/401 395/892/404
f 310/670/319 350/741/359 368/774/377
f 291/888/300 414/894/423 393/895/402
f 393/895/402 414/894/423 372/896/381
f 414/894/423 370/897/379 372/896/381
f 395/892/404 392/865/401 328/698/337
f 313/898/322 373/899/382 396/900/405
f 395/892/404 328/698/337 367/866/376
f 415/901/424 416/902/425 417/903/426
f 328/698/337 355/756/364 380/799/389
f 335/849/344 401/850/410 336/759/345
f 286/904/295 418/905/427 401/906/410
f 418/907/427 286/876/295 411/878/420
f 288/908/297 410/909/419 389/910/398
f 289/814/298 389/816/398 403/854/412
f 390/817/399 340/720/349 339/719/348
f 390/818/399 419/911/428 342/725/351
f 338/912/347 419/911/428 390/818/399
f 420/913/429 342/725/351 419/911/428
f 342/725/351 420/913/429 421/914/430
f 306/915/315 391/826/400 308/825/317
f 306/915/315 422/916/431 391/826/400
f 303/824/312 391/826/400 365/917/374
f 413/893/422 342/725/351 421/914/430
f 365/887/374 414/894/423 291/888/300
f 368/774/377 350/741/359 421/914/430
f 423/918/432 424/919/433 425/920/434
f 421/914/430 369/921/378 413/893/422
f 369/775/378 352/777/361 426/922/435
f 394/831/403 426/923/435 352/832/361
f 322/630/331 319/682/328 324/924/333
f 417/925/426 416/926/425 427/927/436
f 377/928/386 400/929/409 406/930/415
f 400/931/409 321/932/330 406/933/415
f 428/934/437 378/935/387 377/936/386
f 378/867/387 357/937/366 355/751/364
f 196/938/202 276/939/285 267/940/276
f 401/941/410 429/942/438 410/909/419
f 280/634/289 273/608/282 277/623/286
f 362/713/371 411/943/420 283/944/292
f 341/945/350 430/946/439 338/912/347
f 430/946/439 341/945/350 344/729/353
f 430/946/439 431/947/440 338/912/347
f 293/651/302 344/729/353 341/945/350
f 431/947/440 419/911/428 338/912/347
f 420/913/429 368/774/377 421/914/430
f 432/948/441 351/742/360 280/634/289
f 397/949/406 373/784/382 316/783/325
f 319/682/328 318/681/327 324/924/333
f 404/859/413 400/950/409 405/860/414
f 433/951/442 323/952/332 325/953/334
f 428/954/437 357/937/366 378/867/387
f 357/937/366 428/954/437 406/955/415
f 357/753/366 406/956/415 330/754/339
f 264/603/273 407/957/416 242/505/248
f 359/757/368 279/633/288 434/958/443
f 279/633/288 360/758/369 434/958/443
f 360/758/369 235/489/241 434/958/443
f 359/757/368 277/959/286 271/601/280
f 418/905/427 435/960/444 401/906/410
f 435/961/444 429/942/438 401/941/410
f 389/910/398 410/909/419 429/942/438
f 411/962/420 362/963/371 436/964/445
f 437/965/446 387/966/396 278/967/287
f 438/968/447 432/948/441 280/634/289
f 306/915/315 301/969/310 422/916/431
f 301/970/310 413/360/422 347/971/356
f 424/919/433 439/972/448 425/920/434
f 412/890/421 354/973/363 304/891/313
f 311/974/320 315/975/324 373/976/382
f 373/784/382 397/949/406 396/977/405
f 315/978/324 314/782/323 373/784/382
f 405/860/414 400/950/409 440/979/449
f 441/980/450 442/981/451 443/982/452
f 444/983/453 443/982/452 442/981/451
f 441/980/450 445/984/454 416/902/425
f 377/793/386 440/985/449 400/986/409
f 378/794/387 379/795/388 376/792/385
f 377/936/386 406/987/415 428/934/437
f 380/988/389 281/989/290 398/990/407
f 446/991/455 407/869/416 351/742/360
f 235/624/241 387/811/396 447/992/456
f 389/993/398 448/994/457 403/995/412
f 431/947/440 305/663/314 420/913/429
f 305/663/314 368/774/377 420/913/429
f 348/858/357 449/996/458 301/997/310
f 449/996/458 348/858/357 405/860/414
f 412/890/421 450/998/459 354/973/363
f 320/999/329 396/977/405 397/949/406
f 415/901/424 417/903/426 451/1000/460
f 445/1001/454 427/927/436 416/926/425
f 375/1002/384 433/951/442 325/953/334
f 267/592/276 452/1003/461 278/632/287
f 329/800/338 453/1004/462 381/801/390
f 281/1005/290 242/1006/248 407/1007/416
f 383/871/392 384/1008/393 454/1009/463
f 383/871/392 454/1009/463 409/872/418
f 334/1010/343 447/1011/456 337/1012/346
f 447/1013/456 412/890/421 337/889/346
f 448/994/457 436/1014/445 403/995/412
f 403/995/412 436/1014/445 339/1015/348
f 364/773/373 455/1016/464 402/853/411
f 344/729/353 305/663/314 431/947/440
f 420/1017/429 419/1018/428 456/1019/465
f 413/893/422 369/921/378 347/1020/356
f 347/1020/356 369/921/378 404/1021/413
f 349/1022/358 353/1023/362 457/1024/466
f 369/921/378 426/1025/435 404/1021/413
f 455/1016/464 364/773/373 398/845/407
f 450/998/459 453/1026/462 354/973/363
f 367/772/376 380/1027/389 398/845/407
f 453/1004/462 329/800/338 354/1028/363
f 458/1029/467 380/1030/389 358/1031/367
f 281/1032/290 380/1033/389 458/1034/467
f 453/1004/462 459/1035/468 381/801/390
f 458/1029/467 358/1031/367 408/870/417
f 408/870/417 358/1031/367 331/802/340
f 459/1035/468 408/870/417 381/801/390
f 382/803/391 269/595/278 460/1036/469
f 281/635/290 460/1036/469 269/595/278
f 435/1037/444 461/1038/470 429/1039/438
f 418/1040/427 411/1041/420 436/1014/445
f 429/1039/438 461/1038/470 389/993/398
f 448/994/457 389/993/398 461/1038/470
f 436/1014/445 448/994/457 461/1038/470
f 339/1042/348 436/1043/445 362/1044/371
f 297/1045/306 307/1046/316 462/1047/471
f 456/1048/465 431/1049/440 463/1050/472
f 463/1051/472 431/1052/440 420/1053/429
f 464/1054/473 425/920/434 439/972/448
f 369/1055/378 465/1056/474 353/1057/362
f 466/1058/475 467/1059/476 468/1060/477
f 370/897/379 414/894/423 469/1061/478
f 443/982/452 445/984/454 441/980/450
f 370/897/379 469/1061/478 326/1062/335
f 443/1063/452 470/1064/479 445/1001/454
f 469/1061/478 471/1065/480 326/1062/335
f 443/1063/452 444/1066/453 470/1064/479
f 325/786/334 374/785/383 375/1067/384
f 408/870/417 472/1068/481 473/1069/482
f 267/940/276 276/939/285 452/1070/461
f 454/1009/463 384/1008/393 474/1071/483
f 474/1072/483 384/851/393 402/853/411
f 475/1073/484 476/1074/485 477/1075/486
f 435/1037/444 436/1014/445 461/1038/470
f 418/1040/427 436/1014/445 435/1037/444
f 402/1076/411 455/1077/464 478/1078/487
f 478/1078/487 455/1077/464 479/1079/488
f 431/947/440 430/946/439 344/729/353
f 456/1048/465 419/1080/428 431/1049/440
f 345/1081/354 309/1082/318 480/1083/489
f 366/1084/375 481/1085/490 346/1086/355
f 437/965/446 278/967/287 452/1070/461
f 482/1087/491 423/918/432 425/920/434
f 424/919/433 442/981/451 439/972/448
f 468/1088/477 404/1089/413 426/1090/435
f 394/1091/403 312/789/321 375/791/384
f 483/1050/492 374/840/383 317/839/326
f 455/1016/464 398/845/407 479/1092/488
f 351/742/360 432/948/441 446/991/455
f 326/1062/335 471/1065/480 327/1093/336
f 399/846/408 375/1094/384 321/847/330
f 377/793/386 376/792/385 440/985/449
f 459/1095/468 453/1096/462 484/1097/493
f 447/1098/456 434/1099/443 235/70/241
f 277/623/286 438/968/447 280/634/289
f 474/1072/483 402/853/411 478/1100/487
f 464/1054/473 451/1000/460 485/1101/494
f 349/1102/358 457/1103/466 350/1104/359
f 483/1105/492 317/1106/326 433/1107/442
f 317/1106/326 323/1108/332 433/1107/442
f 433/1109/442 399/1110/408 400/1111/409
f 471/1112/480 379/795/388 327/797/336
f 408/870/417 486/1113/495 458/1029/467
f 408/870/417 473/1069/482 486/1113/495
f 408/1114/417 484/1097/493 472/1115/481
f 459/1035/468 484/1116/493 408/870/417
f 434/1099/443 454/1117/463 359/1118/368
f 434/1099/443 447/1098/456 409/1119/418
f 434/1099/443 409/1119/418 454/1117/463
f 454/1117/463 474/1120/483 359/1118/368
f 447/1121/456 334/705/343 409/872/418
f 359/1118/368 474/1120/483 277/1122/286
f 387/966/396 437/965/446 447/1123/456
f 474/1120/483 438/1124/447 277/1122/286
f 474/1120/483 478/1078/487 438/1124/447
f 478/1078/487 479/1079/488 438/1124/447
f 456/1019/465 487/1125/496 420/1017/429
f 301/969/310 449/1126/458 422/916/431
f 438/1124/447 479/1079/488 432/1127/441
f 447/1123/456 437/965/446 412/1128/421
f 482/1087/491 464/1054/473 485/1101/494
f 437/965/446 452/1070/461 412/1128/421
f 412/1128/421 452/1070/461 450/1129/459
f 468/1088/477 433/1130/442 404/1089/413
f 394/1131/403 374/1132/383 466/1058/475
f 432/1127/441 479/1079/488 446/1133/455
f 433/1130/442 400/1134/409 404/1089/413
f 415/901/424 441/980/450 416/902/425
f 488/1135/497 445/1001/454 470/1064/479
f 479/1079/488 398/1136/407 446/1133/455
f 450/1129/459 452/1070/461 453/1096/462
f 398/1136/407 281/1005/290 407/1007/416
f 398/1136/407 407/1007/416 446/1133/455
f 453/1096/462 452/1070/461 484/1097/493
f 473/1137/482 382/1138/391 460/1139/469
f 484/1097/493 452/1070/461 276/939/285
f 486/1140/495 473/1137/482 460/1139/469
f 472/1115/481 382/1138/391 473/1137/482
f 486/1140/495 281/1032/290 458/1034/467
f 486/1140/495 460/1139/469 281/1032/290
f 472/1115/481 276/939/285 382/1138/391
f 484/1097/493 276/939/285 472/1115/481
f 477/1141/486 489/1142/498 475/1143/484
f 297/1045/306 490/1144/499 298/1145/307
f 422/1146/431 449/1147/458 491/1148/500
f 394/1131/403 466/1058/475 468/1060/477
f 468/1060/477 467/1059/476 483/1149/492
f 466/1058/475 374/1132/383 467/1059/476
f 467/1059/476 374/1132/383 483/1149/492
f 374/1132/383 394/1131/403 375/1150/384
f 445/1001/454 488/1135/497 427/927/436
f 477/1075/486 476/1074/485 492/1151/501
f 492/532/501 489/1152/498 477/1153/486
f 365/1154/374 493/1155/502 414/1156/423
f 391/826/400 493/1157/502 365/917/374
f 425/920/434 464/1054/473 482/1087/491
f 449/996/458 405/860/414 494/1158/503
f 493/1155/502 495/1159/504 414/1156/423
f 468/1160/477 426/923/435 394/831/403
f 424/919/433 496/1161/505 442/981/451
f 468/1060/477 483/1149/492 433/1162/442
f 414/1156/423 495/1159/504 469/1163/478
f 417/903/426 497/1164/506 451/1000/460
f 495/1159/504 471/1165/480 469/1163/478
f 433/1109/442 375/1166/384 399/1110/408
f 343/1167/352 498/1168/507 296/1169/305
f 449/996/458 494/1158/503 499/1170/508
f 500/1171/509 495/1172/504 493/1173/502
f 423/918/432 496/1161/505 424/919/433
f 405/860/414 440/979/449 501/1174/510
f 442/981/451 496/1161/505 444/983/453
f 502/1175/511 471/1176/480 495/1172/504
f 503/1177/512 379/795/388 471/1112/480
f 504/1178/513 440/1179/449 376/1180/385
f 379/1181/388 503/1182/512 376/1180/385
f 463/1183/472 420/1184/429 487/1185/496
f 422/1146/431 491/1148/500 391/1186/400
f 391/1186/400 491/1148/500 493/1187/502
f 499/1188/508 491/1189/500 449/1190/458
f 508/1191/514 423/1192/432 482/1193/491
f 464/1054/473 415/901/424 451/1000/460
f 497/1194/506 417/925/426 427/927/436
f 504/1178/513 376/1180/385 503/1182/512
f 423/1192/432 508/1191/514 509/1195/515
f 465/1196/474 421/1197/430 350/1198/359
f 485/1101/494 451/1000/460 510/1199/516
f 439/972/448 442/981/451 441/980/450
f 441/980/450 415/901/424 464/1054/473
f 427/927/436 511/1200/517 512/1201/518
f 298/770/307 490/1202/499 366/768/375
f 485/1203/494 508/1191/514 482/1193/491
f 510/1199/516 513/1204/519 485/1101/494
f 439/972/448 441/980/450 464/1054/473
f 451/1000/460 497/1164/506 510/1199/516
f 427/927/436 512/1201/518 497/1194/506
f 427/927/436 488/1135/497 511/1200/517
f 471/1205/480 502/1206/511 503/1182/512
f 504/1178/513 501/1207/510 440/1179/449
f 307/734/316 346/736/355 462/1208/471
f 493/1209/502 491/1189/500 500/1210/509
f 343/1167/352 514/1211/520 498/1168/507
f 346/736/355 481/1212/490 462/1208/471
f 499/1188/508 515/1213/521 491/1189/500
f 516/1214/522 508/1191/514 485/1203/494
f 513/1215/519 516/1214/522 485/1203/494
f 405/860/414 501/1174/510 494/1158/503
f 496/1216/505 517/1217/523 470/1218/479
f 496/1216/505 470/1218/479 444/1219/453
f 475/664/484 489/1220/498 476/1221/485
f 297/1045/306 462/1047/471 490/1144/499
f 366/768/375 490/1202/499 481/1222/490
f 491/1189/500 515/1213/521 500/1210/509
f 513/1223/519 512/1224/518 516/1225/522
f 513/1223/519 510/1226/516 512/1224/518
f 423/1227/432 509/1228/515 496/1216/505
f 509/1228/515 517/1217/523 496/1216/505
f 500/1171/509 502/1175/511 495/1172/504
f 510/1226/516 497/1229/506 512/1224/518
f 517/1230/523 501/1207/510 470/1231/479
f 504/1178/513 503/1182/512 511/1232/517
f 492/1233/501 476/1221/485 489/1220/498
f 498/369/507 480/1234/489 296/1235/305
f 480/1234/489 309/1236/318 296/1235/305
f 421/1237/430 465/1056/474 369/1055/378
f 516/1238/522 502/1206/511 500/1239/509
f 494/1240/503 501/1207/510 517/1230/523
f 470/1231/479 504/1178/513 488/1241/497
f 488/1241/497 504/1178/513 511/1232/517
f 501/1207/510 504/1178/513 470/1231/479
f 503/1182/512 502/1206/511 511/1232/517
f 343/1242/352 345/1243/354 514/1244/520
f 345/1081/354 480/1083/489 514/1245/520
f 515/1246/521 516/1238/522 500/1239/509
f 515/1246/521 499/1247/508 509/1248/515
f 515/1246/521 508/1249/514 516/1238/522
f 515/1246/521 509/1248/515 508/1249/514
f 499/1247/508 494/1240/503 509/1248/515
f 509/1248/515 494/1240/503 517/1230/523
f 516/1238/522 512/1250/518 502/1206/511
f 512/1250/518 511/1232/517 502/1206/511
f 507/1143/524 506/1251/525 505/1252/526
f 350/1198/359 518/1253/527 465/1196/474
f 498/1254/507 514/1255/520 480/1256/489
f 490/1257/499 462/1258/471 481/769/490
f 463/628/472 487/1259/496 456/353/465
f 350/1104/359 457/1103/466 518/1260/527
f 353/1057/362 465/1056/474 457/1261/466
f 518/1262/527 457/840/466 465/1263/474
