# Blender 4.4.0
# www.blender.org
# mtl  Meshy_AI__0430155724_texture.mtl
o Meshy_AI__0430155724_texture
v 1.000000 -0.262016 0.976211
v 1.000000 -0.500111 0.976170
v 1.000000 -0.500103 0.928551
v 1.000000 -0.262008 0.928592
v 1.000000 -0.261685 -0.928551
v 1.000000 -0.499780 -0.928592
v 1.000000 -0.499772 -0.976211
v 1.000000 -0.261677 -0.976170
v 0.988095 -0.262008 0.928592
v 0.988095 -0.261685 -0.928551
v 0.952381 -0.261685 -0.928551
v 0.988095 -0.500103 0.928551
v 0.988095 -0.499780 -0.928592
v 0.952381 -0.262008 0.928592
v 0.952381 -0.499780 -0.928592
v 0.952381 -0.500103 0.928551
v 0.559524 -0.499844 -0.559545
v 0.559524 -0.464130 -0.559538
v -0.074357 0.204972 0.359828
v 0.559524 -0.464318 0.523795
v 0.559524 -0.500033 0.523789
v -0.312512 0.204972 0.359828
v -0.964286 -0.262008 0.928592
v -0.074357 -0.033183 0.359763
v -0.312512 -0.033183 0.359763
v -0.964286 -0.261685 -0.928551
v -0.428571 -0.404774 0.404758
v -0.428571 -0.464298 0.404747
v -1.000000 -0.261677 -0.976170
v 0.488095 -0.464298 0.404747
v 0.488095 -0.404774 0.404758
v -1.000000 -0.500111 0.976170
v -1.000000 -0.499772 -0.976211
v -0.964286 -0.499780 -0.928592
v -0.964286 -0.500103 0.928551
v -1.000000 -0.262016 0.976211
v 0.488095 -0.404621 -0.476195
v 0.488095 -0.464144 -0.476205
v -0.428571 -0.464144 -0.476205
v -0.523810 -0.500033 0.523789
v -0.428571 -0.404621 -0.476195
v -0.523810 -0.464318 0.523795
v -0.523810 -0.464130 -0.559538
v -0.523810 -0.499844 -0.559545
v -0.376905 0.238209 -0.318738
v -0.376905 0.238091 0.359834
v -0.375417 0.238206 -0.302869
v 0.026571 0.500111 -0.302823
v 0.428571 0.238206 -0.302869
v 0.428571 0.238093 0.351893
v 0.428571 0.238091 0.359834
v 0.026571 0.499997 0.351939
v -0.375417 0.238093 0.351893
v -0.023845 -0.035622 0.011929
v 0.154798 -0.035622 0.011929
v 0.154798 -0.035683 0.359786
v -0.023845 -0.035683 0.359786
v 0.343833 0.186532 0.359825
v 0.343833 0.031710 0.359774
v -0.023845 0.238091 0.359834
v 0.428571 0.238209 -0.318738
v 0.428571 -0.404766 0.359722
v 0.428571 -0.404648 -0.318849
v -0.376905 -0.404648 -0.318849
v -0.376905 -0.404766 0.359722
v 0.154798 -0.374302 0.359727
v -0.023845 -0.374302 0.359727
v 0.190452 0.186532 0.359801
v 0.190452 0.031710 0.359774
v 0.154798 -0.374241 0.011870
v -0.023845 -0.374241 0.011870
vn 0.5773 0.5773 0.5775
vn 0.5773 -0.5774 0.5773
vn 0.5773 -0.5773 -0.5775
vn 0.5773 0.5774 -0.5773
vn 0.3015 0.9046 -0.3014
vn -0.3015 0.9046 -0.3014
vn 0.3015 0.9045 0.3017
vn -0.3015 0.9045 0.3017
vn 0.3015 -0.9045 -0.3017
vn 0.3015 -0.9046 0.3014
vn -0.5773 -0.5775 0.5772
vn -0.3015 -0.9045 -0.3017
vn -0.3015 -0.9046 0.3014
vn 0.5774 -0.5772 -0.5775
vn 0.5773 0.5775 -0.5772
vn 0.5774 0.5772 0.5775
vn 0.5773 -0.5775 0.5772
vn 0.0002 -0.0002 1.0000
vn -0.0002 -0.0002 1.0000
vn -0.0000 -0.0002 1.0000
vn -0.5773 0.5775 -0.5772
vn -0.5773 0.5773 0.5774
vn -0.5773 0.5773 0.5775
vn 0.5774 0.5773 0.5774
vn -0.5773 -0.5773 -0.5774
vn 0.5774 0.5774 -0.5773
vn -0.5774 0.5774 -0.5773
vn -0.5774 -0.5774 0.5773
vn -0.5774 0.5774 -0.5772
vn -0.5774 0.5772 0.5775
vn -0.1401 0.9856 -0.0942
vn -0.0000 0.7983 -0.6023
vn 0.8053 0.5814 -0.1162
vn 0.8053 0.5813 0.1164
vn -0.0000 0.7981 0.6026
vn -0.1404 0.9856 0.0946
vn 0.5774 -0.5774 0.5772
vn -0.5774 -0.5775 0.5772
vn -0.3014 -0.3015 0.9046
vn 0.3013 -0.3017 0.9045
vn -0.0000 0.7069 0.7073
vn -0.0000 -0.0004 1.0000
vn -0.0001 -0.0001 1.0000
vn 0.3015 0.3014 0.9046
vn 0.0001 -0.0001 1.0000
vn -0.0001 -0.0002 1.0000
vn -0.3015 0.3014 0.9046
vn -0.5774 0.5741 0.5805
vn 0.5774 0.5733 0.5813
vt 0.444178 0.080952
vt 0.444178 0.000280
vt 0.460313 0.000280
vt 0.222272 0.571423
vt 0.222272 0.489153
vt 0.238093 0.568258
vt 0.441264 0.003454
vt 0.441265 0.084126
vt 0.425131 0.084126
vt 0.561899 0.000269
vt 0.561899 0.082539
vt 0.546078 0.003433
vt 0.253966 0.290473
vt 0.249932 0.290473
vt 0.253966 0.274339
vt 0.365076 0.477153
vt 0.356519 0.485709
vt 0.356519 0.462892
vt 0.235767 0.330155
vt 0.235767 0.313524
vt 0.239680 0.314503
vt 0.089855 0.446027
vt 0.089855 0.423210
vt 0.098412 0.431767
vt 0.156403 0.369838
vt 0.156403 0.353206
vt 0.160316 0.354185
vt 0.246757 0.001326
vt 0.250791 0.001326
vt 0.246757 0.017460
vt 0.820277 0.269120
vt 0.825388 0.269120
vt 0.825388 0.534915
vt 0.817104 0.270706
vt 0.822214 0.536502
vt 0.817104 0.536502
vt 0.245175 0.246208
vt 0.249204 0.326779
vt 0.245175 0.326981
vt 0.568248 0.000279
vt 0.564215 0.080952
vt 0.564215 0.000279
vt 0.418184 0.401583
vt 0.418184 0.320910
vt 0.422218 0.320910
vt 0.394380 0.399996
vt 0.394380 0.319223
vt 0.398409 0.399794
vt 0.812690 0.266664
vt 0.806363 0.007197
vt 0.812690 0.000868
vt 0.128570 0.383528
vt 0.128570 0.406345
vt 0.120014 0.397789
vt 0.023809 0.516835
vt 0.015253 0.525392
vt 0.015253 0.502574
vt 0.000876 0.698406
vt 0.000876 0.664330
vt 0.266664 0.664330
vt 0.582534 0.644438
vt 0.314569 0.644438
vt 0.318902 0.610639
vt 0.822214 0.804754
vt 0.817102 0.804754
vt 0.822214 0.538959
vt 0.825388 0.000869
vt 0.825388 0.266664
vt 0.820277 0.266664
vt 0.796817 0.785706
vt 0.788055 0.785706
vt 0.788055 0.519911
vt 0.791230 0.000870
vt 0.799992 0.266663
vt 0.791230 0.266664
vt 0.271686 0.080952
vt 0.271686 0.000260
vt 0.352377 0.000260
vt 0.000085 0.885705
vt 0.000085 0.771590
vt 0.057142 0.828647
vt 0.828563 0.434198
vt 0.828563 0.699993
vt 0.823701 0.693511
vt 0.744342 0.138916
vt 0.749199 0.398021
vt 0.744342 0.404758
vt 0.288886 0.735150
vt 0.287768 0.752373
vt 0.022531 0.735150
vt 0.266664 0.752373
vt 0.000308 0.752373
vt 0.001427 0.735151
vt 0.625390 0.536502
vt 0.591591 0.272870
vt 0.625390 0.268537
vt 0.597941 0.601581
vt 0.597941 0.333616
vt 0.631740 0.597248
vt 0.661799 0.267534
vt 0.666660 0.274016
vt 0.661799 0.533328
vt 0.777770 0.501195
vt 0.772910 0.507931
vt 0.772910 0.242091
vt 0.742850 0.423805
vt 0.725627 0.422687
vt 0.742850 0.157449
vt 0.768240 0.536502
vt 0.750986 0.270708
vt 0.768246 0.270708
vt 0.768246 0.720628
vt 0.759483 0.720628
vt 0.759483 0.454833
vt 0.779334 0.780944
vt 0.770594 0.515149
vt 0.779357 0.515149
vt 0.219045 0.996815
vt 0.001232 0.766901
vt 0.219045 0.766901
vt 0.001729 0.714278
vt 0.026090 0.696340
vt 0.268251 0.714278
vt 0.655549 0.671357
vt 0.418962 0.688882
vt 0.389753 0.671357
vt 0.281819 0.758722
vt 0.311027 0.735357
vt 0.547614 0.758722
vt 0.232906 0.576127
vt 0.499995 0.576127
vt 0.258344 0.599994
vt 0.595232 0.595232
vt 0.508647 0.462337
vt 0.595232 0.329436
vt 0.749199 0.749199
vt 0.483404 0.749199
vt 0.725832 0.719990
vt 0.656213 0.604071
vt 0.685707 0.359262
vt 0.685707 0.626978
vt 0.679358 0.247222
vt 0.658634 0.268251
vt 0.658634 0.001512
vt 0.738277 0.426261
vt 0.758722 0.449626
vt 0.738277 0.692056
vt 0.622216 0.266664
vt 0.535631 0.133765
vt 0.622216 0.000870
vt 0.809537 0.533328
vt 0.809537 0.267533
vt 0.815865 0.273861
vt 0.426011 0.205122
vt 0.557137 0.384069
vt 0.426011 0.480154
vt 0.573804 0.574597
vt 0.298772 0.574597
vt 0.477719 0.443470
vt 0.376980 0.376187
vt 0.189036 0.188241
vt 0.376980 0.000296
vt 0.188093 0.000296
vt 0.188093 0.376187
vt 0.000148 0.188242
vt 0.863483 0.974593
vt 0.700924 0.974593
vt 0.700924 0.752746
vt 0.824732 0.697191
vt 0.987292 0.919038
vt 0.824732 0.919038
vt 0.063491 0.584121
vt 0.009649 0.556470
vt 0.063491 0.451626
vt 0.885705 0.540515
vt 0.885705 0.673009
vt 0.831862 0.645358
vt 0.781706 0.410389
vt 0.790468 0.410389
vt 0.781706 0.676184
vt 0.775357 0.000869
vt 0.784119 0.000869
vt 0.775357 0.266664
vt 0.770383 0.543721
vt 0.773008 0.659949
vt 0.770383 0.809516
vt 0.687609 0.617454
vt 0.687609 0.351659
vt 0.720628 0.617454
vt 0.272293 0.733326
vt 0.272293 0.701684
vt 0.538090 0.733326
vt 0.778532 0.205629
vt 0.787294 0.205629
vt 0.778532 0.471424
vt 0.771421 0.266664
vt 0.762659 0.266664
vt 0.771421 0.000867
vt 0.799979 0.538880
vt 0.806341 0.543899
vt 0.799979 0.804754
vt 0.798405 0.803166
vt 0.792042 0.542311
vt 0.798405 0.537292
vt 0.379361 0.390472
vt 0.378857 0.165941
vt 0.379361 0.160563
vt 0.816967 0.000869
vt 0.822214 0.000869
vt 0.816967 0.266664
vt 0.790455 0.274059
vt 0.796817 0.269041
vt 0.796817 0.534915
vt 0.426260 0.701580
vt 0.692055 0.668561
vt 0.692056 0.701580
vt 0.382536 0.165670
vt 0.382037 0.387298
vt 0.382037 0.162981
vt 0.736500 0.714278
vt 0.718584 0.713068
vt 0.736500 0.447881
vt 0.266664 0.733326
vt 0.000266 0.733326
vt 0.001477 0.715407
vt 0.414766 0.265751
vt 0.417456 0.265751
vt 0.414766 0.419043
vt 0.231857 0.317457
vt 0.231857 0.234908
vt 0.242855 0.285699
vt 0.701580 0.083406
vt 0.701580 0.349203
vt 0.667503 0.349203
vt 0.539677 0.609518
vt 0.271705 0.609518
vt 0.535344 0.575718
vt 0.341753 0.612262
vt 0.609518 0.612262
vt 0.605592 0.644438
vt 0.691388 0.351659
vt 0.723802 0.351659
vt 0.723802 0.617454
vt 0.625717 0.173801
vt 0.634914 0.155520
vt 0.634914 0.253966
vt 0.419527 0.199423
vt 0.422218 0.318540
vt 0.419527 0.319044
vt 0.438656 0.771670
vt 0.558724 0.771670
vt 0.471216 0.895229
vt 0.533733 0.346028
vt 0.533733 0.128210
vt 0.555550 0.254113
vt 0.086124 0.095237
vt 0.086124 0.000771
vt 0.104761 0.079280
vt 0.670736 0.000107
vt 0.695231 0.008312
vt 0.670736 0.112697
vt 0.844723 0.369205
vt 0.863483 0.361027
vt 0.863483 0.468249
vt 0.815390 0.556417
vt 0.820627 0.556909
vt 0.815390 0.822214
vt 0.213581 0.235311
vt 0.230156 0.230966
vt 0.230156 0.314283
vt 0.698406 0.847141
vt 0.654571 0.888880
vt 0.654571 0.776288
vt 0.534805 0.001009
vt 0.546026 0.022827
vt 0.534805 0.120634
vt 0.806341 0.274060
vt 0.799980 0.534915
vt 0.799980 0.269041
vt 0.803166 0.000867
vt 0.803166 0.266664
vt 0.796837 0.007197
vt 0.436503 0.876182
vt 0.398720 0.839794
vt 0.436503 0.775376
vt 0.566652 0.338092
vt 0.566652 0.184802
vt 0.584121 0.257411
vt 0.831598 0.431742
vt 0.831598 0.213928
vt 0.860309 0.283854
vt 0.189297 0.361901
vt 0.189297 0.193437
vt 0.234918 0.337012
vt 0.062615 0.049124
vt 0.082539 0.000599
vt 0.082539 0.076190
vt 0.000606 0.198368
vt 0.158729 0.348168
vt 0.000606 0.515074
vt 0.266664 0.765072
vt 0.000869 0.765071
vt 0.150160 0.755019
vt 0.331743 0.660311
vt 0.065948 0.660311
vt 0.065948 0.448179
vt 0.904753 0.151048
vt 0.843156 0.203173
vt 0.843156 0.051765
vt 0.641263 0.150622
vt 0.624458 0.153967
vt 0.624458 0.037127
vt 0.898404 0.525330
vt 0.830051 0.588883
vt 0.830051 0.433182
vt 0.392059 0.333252
vt 0.387993 0.393647
vt 0.387993 0.240001
vt 0.565074 0.363488
vt 0.543533 0.349228
vt 0.565074 0.195024
vt 0.807948 0.550070
vt 0.814277 0.556397
vt 0.807948 0.815865
vt 0.657136 0.268251
vt 0.624370 0.004482
vt 0.657136 0.000412
vt 0.085323 0.459519
vt 0.293065 0.293719
vt 0.425393 0.459519
vt 0.239269 0.491233
vt 0.276188 0.527808
vt 0.239269 0.565074
vt 0.107524 0.074602
vt 0.107524 0.000761
vt 0.144443 0.037337
vt 0.381073 0.000837
vt 0.434916 0.028488
vt 0.381073 0.133332
vt 0.001377 0.542449
vt 0.061904 0.660311
vt 0.001376 0.660311
vt 0.595021 0.770974
vt 0.655549 0.770974
vt 0.595021 0.885705
vt 0.832171 0.211219
vt 0.885705 0.182976
vt 0.885705 0.312695
vt 0.730151 0.331743
vt 0.712233 0.330532
vt 0.730151 0.065342
vt 0.707929 0.720627
vt 0.441528 0.720628
vt 0.442739 0.702709
vt 0.378067 0.154253
vt 0.532534 0.000663
vt 0.532534 0.313489
vt 0.408905 0.198057
vt 0.414281 0.198057
vt 0.408905 0.415869
vt 0.220211 0.770146
vt 0.438091 0.770146
vt 0.225884 0.999990
vt 0.383020 0.403137
vt 0.385710 0.185337
vt 0.385710 0.403171
vt 0.082539 0.080624
vt 0.000327 0.165078
vt 0.000327 0.000595
vt 0.946022 0.001185
vt 0.946022 0.119046
vt 0.831291 0.001185
vt 0.190802 0.000595
vt 0.273013 0.085049
vt 0.190802 0.165078
vt 0.478914 0.888880
vt 0.593644 0.771019
vt 0.593645 0.888880
vt 0.627545 0.275908
vt 0.660311 0.271838
vt 0.660311 0.539677
vt 0.660311 0.561333
vt 0.628890 0.565074
vt 0.628890 0.297402
vt 0.330984 0.506344
vt 0.085315 0.461247
vt 0.355552 0.461247
vt 0.387496 0.202605
vt 0.406345 0.185744
vt 0.406345 0.431742
vt 0.757135 0.758722
vt 0.739176 0.711249
vt 0.757135 0.492928
vt 0.755188 0.000868
vt 0.768246 0.018129
vt 0.755188 0.266664
vt 0.828062 0.000231
vt 0.844436 0.016698
vt 0.828062 0.246029
vt 0.432610 0.768246
vt 0.650933 0.752658
vt 0.698406 0.768246
vt 0.739268 0.017236
vt 0.752373 0.000503
vt 0.752373 0.266664
vt 0.398409 0.698406
vt 0.132613 0.698406
vt 0.381149 0.652782
vt 0.704858 0.266664
vt 0.704858 0.000869
vt 0.736500 0.000869
vt 0.402163 0.669834
vt 0.666094 0.638414
vt 0.669834 0.669834
s 1
usemtl Material
f 1/1/1 2/2/2 3/3/3
f 1/4/1 3/5/3 4/6/4
f 5/7/1 6/8/2 7/9/3
f 5/10/1 7/11/3 8/12/4
f 4/13/4 9/14/5 1/15/1
f 9/16/5 14/17/6 1/18/1
f 8/19/4 10/20/7 5/21/1
f 8/22/4 11/23/8 10/24/7
f 2/25/2 12/26/9 3/27/3
f 6/28/2 13/29/10 7/30/3
f 10/31/7 11/32/8 14/33/6
f 10/34/7 14/35/6 9/36/5
f 4/37/4 3/38/3 12/39/9
f 4/40/4 12/41/9 9/42/5
f 10/43/7 13/44/10 6/45/2
f 10/46/7 6/47/2 5/48/1
f 32/49/11 16/50/12 2/51/2
f 2/52/2 16/53/12 12/54/9
f 13/55/10 15/56/13 7/57/3
f 13/58/10 10/59/7 9/60/5
f 13/61/10 9/62/5 12/63/9
f 15/64/13 13/65/10 16/66/12
f 13/67/10 12/68/9 16/69/12
f 17/70/14 18/71/15 20/72/16
f 17/73/14 20/74/16 21/75/17
f 25/76/18 24/77/19 19/78/20
f 25/79/18 19/80/20 22/81/20
f 29/82/21 36/83/22 23/84/5
f 23/85/5 26/86/7 29/87/21
f 27/88/23 28/89/8 30/90/7
f 27/91/23 30/92/7 31/93/24
f 14/94/6 11/95/8 15/96/13
f 14/97/6 15/98/13 16/99/12
f 33/100/25 34/101/10 32/102/11
f 35/103/9 32/104/11 34/105/10
f 37/106/26 38/107/5 39/108/6
f 37/109/26 39/110/6 41/111/27
f 40/112/28 42/113/22 43/114/21
f 40/115/28 43/116/21 44/117/25
f 45/118/29 65/119/8 46/120/30
f 18/121/15 38/122/5 30/123/7
f 18/124/15 30/125/7 20/126/16
f 42/127/22 28/128/8 43/129/21
f 43/130/21 28/131/8 39/132/6
f 47/133/31 48/134/32 49/135/33
f 42/136/22 20/137/16 28/138/8
f 30/139/7 28/140/8 20/141/16
f 38/142/5 18/143/15 39/144/6
f 43/145/21 39/146/6 18/147/15
f 50/148/34 52/149/35 53/150/36
f 33/151/25 7/152/3 15/153/13
f 48/154/32 52/155/35 50/156/34
f 48/157/32 50/158/34 49/159/33
f 21/160/17 40/161/28 44/162/25
f 21/163/17 44/164/25 17/165/14
f 48/166/32 47/167/31 53/168/36
f 48/169/32 53/170/36 52/171/35
f 54/172/37 55/173/38 56/174/39
f 54/175/37 56/176/39 57/177/40
f 21/178/17 20/179/16 40/180/28
f 42/181/22 40/182/28 20/183/16
f 53/184/36 60/185/41 50/186/34
f 11/187/8 26/188/7 15/189/13
f 8/190/4 7/191/3 29/192/21
f 44/193/25 43/194/21 17/195/14
f 18/196/15 17/197/14 43/198/21
f 32/199/11 35/200/9 16/201/12
f 15/202/13 34/203/10 33/204/25
f 46/205/30 47/206/31 45/207/29
f 49/208/33 61/209/15 47/210/31
f 23/211/5 36/212/22 14/213/6
f 15/214/13 26/215/7 34/216/10
f 53/217/36 47/218/31 46/219/30
f 38/220/5 37/221/26 31/222/24
f 38/223/5 31/224/24 30/225/7
f 51/226/16 50/227/34 60/228/41
f 51/229/16 68/230/42 58/231/43
f 26/232/7 23/233/5 35/234/9
f 26/235/7 35/236/9 34/237/10
f 29/238/21 32/239/11 36/240/22
f 29/241/21 33/242/25 32/243/11
f 19/244/20 60/245/41 22/246/20
f 60/247/41 53/248/36 46/249/30
f 65/250/8 67/251/44 25/252/18
f 46/253/30 65/254/8 25/255/18
f 46/256/30 25/257/18 22/258/20
f 56/259/39 69/260/45 19/261/20
f 60/262/41 19/263/20 69/264/45
f 45/265/29 47/266/31 61/267/15
f 24/268/19 57/269/40 19/270/20
f 57/271/40 56/272/39 19/273/20
f 46/274/30 22/275/20 60/276/41
f 26/277/7 11/278/8 29/279/21
f 8/280/4 29/281/21 11/282/8
f 69/283/45 68/284/42 60/285/41
f 51/286/16 60/287/41 68/288/42
f 62/289/7 51/290/16 59/291/46
f 69/292/45 62/293/7 59/294/46
f 58/295/43 59/296/46 51/297/16
f 45/298/29 64/299/6 65/300/8
f 65/301/8 62/302/7 67/303/44
f 45/304/29 61/305/15 63/306/5
f 24/307/19 25/308/18 67/309/44
f 57/310/40 24/311/19 67/312/44
f 66/313/47 62/314/7 56/315/39
f 66/316/47 67/317/44 62/318/7
f 69/319/45 56/320/39 62/321/7
f 1/322/1 14/323/6 36/324/22
f 16/325/12 35/326/9 23/327/5
f 63/328/5 64/329/6 45/330/29
f 69/331/45 59/332/46 58/333/43
f 69/334/45 58/335/43 68/336/42
f 70/337/48 71/338/49 67/339/44
f 70/340/48 67/341/44 66/342/47
f 55/343/38 54/344/37 70/345/48
f 71/346/49 70/347/48 54/348/37
f 28/349/8 27/350/23 41/351/27
f 28/352/8 41/353/27 39/354/6
f 50/355/34 62/356/7 49/357/33
f 61/358/15 49/359/33 63/360/5
f 63/361/5 49/362/33 62/363/7
f 51/364/16 62/365/7 50/366/34
f 54/367/37 57/368/40 71/369/49
f 67/370/44 71/371/49 57/372/40
f 56/373/39 55/374/38 70/375/48
f 56/376/39 70/377/48 66/378/47
f 14/379/6 16/380/12 23/381/5
f 33/382/25 29/383/21 7/384/3
f 64/385/6 63/386/5 41/387/27
f 62/388/7 31/389/24 63/390/5
f 37/391/26 63/392/5 31/393/24
f 31/394/24 62/395/7 27/396/23
f 27/397/23 65/398/8 64/399/6
f 27/400/23 64/401/6 41/402/27
f 65/403/8 27/404/23 62/405/7
f 37/406/26 41/407/27 63/408/5
f 1/409/1 36/410/22 32/411/11
f 32/412/11 2/413/2 1/414/1
