# Blender 4.4.0
# www.blender.org
mtllib Meshy_AI__0429001506_texture.mtl
o Meshy_AI__0429001506_texture
v 0.998092 -0.543393 0.912918
v 1.000000 -0.601058 0.933344
v 1.000000 -0.602085 -0.933323
v 1.000000 -0.563990 -0.933344
v -0.967710 -0.543990 -0.925470
v -1.000000 -0.602085 -0.933323
v -1.000000 -0.601058 0.933344
v -1.000000 -0.562963 0.933323
v 0.929618 -0.152098 0.852634
v 0.865273 -0.534670 0.849962
v 0.904762 -0.563830 -0.643991
v 0.904762 -0.182878 -0.644201
v 0.080926 0.255401 -0.310766
v 0.027810 0.198258 -0.310734
v 0.018838 0.198258 -0.310734
v -0.045048 -0.182878 -0.644201
v 0.018838 0.255401 -0.310766
v -0.045048 -0.563830 -0.643991
v -0.045048 -0.563003 0.860770
v -0.045048 -0.182050 0.860561
v 0.717907 0.176235 -0.543066
v 0.771429 0.198802 0.678408
v 0.771429 -0.182150 0.678618
v 0.771429 0.198210 -0.397782
v 0.771429 -0.182800 -0.502334
v 0.771429 0.198744 0.573646
v 0.371486 -0.558383 -0.643994
v -0.052861 0.186896 -0.524882
v -0.011162 -0.182800 -0.502334
v -0.011162 -0.182150 0.678618
v -0.011162 0.198802 0.678408
v 0.733333 0.198744 0.573646
v 0.733333 0.198771 0.622599
v 0.371486 -0.182878 -0.644201
v -0.077124 -0.073531 -0.619823
v 0.733333 0.239727 0.573624
v -0.093371 -0.048179 -0.619837
v 0.018838 0.198771 0.622599
v 0.170971 -0.182878 -0.644144
v 0.170971 -0.558383 -0.643994
v 0.733333 0.239241 -0.310757
v -0.112914 -0.024122 -0.619850
v -0.047619 -0.182066 0.831647
v -0.047619 -0.563019 0.831856
v -0.047619 -0.563804 -0.596715
v 0.017313 0.209683 -0.397040
v -0.047619 -0.182852 -0.596925
v 0.733333 0.255914 0.622567
v -0.047619 -0.182188 0.609304
v -0.135581 -0.001607 -0.619863
v 0.733333 0.255401 -0.310766
v -0.815162 -0.126455 0.609273
v -0.820743 -0.154189 0.609288
v -0.776857 -0.047503 0.609230
v -0.822610 -0.182188 0.609304
v -0.757295 -0.023446 0.609216
v -0.161105 0.019173 -0.619874
v -0.814533 -0.182188 0.609304
v 0.018838 0.255914 0.622567
v -0.793105 -0.072855 0.609244
v -0.189295 0.037993 -0.619884
v 0.388387 0.543794 -0.427853
v -0.822610 -0.182865 -0.619763
v -0.805924 -0.099255 0.609258
v 0.718312 0.255887 0.573615
v 0.474276 0.602085 0.632854
v 0.080926 0.255887 0.573615
v -0.814533 -0.182865 -0.619763
v -0.814533 -0.182852 -0.596925
v -0.219829 0.054697 -0.619893
v -0.252457 0.069116 -0.619901
v -0.820743 -0.154865 -0.619778
v -0.047619 -0.182865 -0.619763
v -0.815162 -0.127131 -0.619793
v -0.286819 0.081097 -0.619908
v 0.718312 0.255401 -0.310766
v -0.322629 0.090545 -0.619913
v -0.359524 0.097364 -0.619917
v -0.397124 0.101478 -0.619919
v -0.435105 0.102850 -0.619920
v -0.473086 0.101478 -0.619919
v -0.814533 -0.563019 0.831856
v -0.814533 -0.182066 0.831647
v -0.510705 0.097364 -0.619917
v -0.799647 -0.555969 -0.591755
v -0.547600 0.090545 -0.619913
v -0.583410 0.081097 -0.619908
v -0.049486 -0.154189 0.609288
v -0.055067 -0.126455 0.609273
v -0.064305 -0.099255 0.609258
v -0.077124 -0.072855 0.609244
v -0.093371 -0.047503 0.609230
v -0.112914 -0.023446 0.609216
v -0.135581 -0.000931 0.609204
v -0.161105 0.019849 0.609193
v -0.189295 0.038669 0.609182
v -0.219829 0.055373 0.609173
v -0.252457 0.069792 0.609165
v -0.617771 0.069116 -0.619901
v -0.286819 0.081773 0.609158
v -0.650400 0.054697 -0.619893
v -0.680933 0.037993 -0.619884
v -0.322629 0.091221 0.609153
v -0.359524 0.098040 0.609150
v -0.709105 0.019173 -0.619874
v -0.397124 0.102154 0.609147
v -0.435105 0.103526 0.609146
v -0.473086 0.102154 0.609147
v -0.510705 0.098040 0.609150
v -0.547600 0.091221 0.609153
v -0.583410 0.081773 0.609158
v -0.734648 -0.001607 -0.619863
v -0.757295 -0.024122 -0.619850
v -0.617771 0.069792 0.609165
v -0.776857 -0.048179 -0.619837
v -0.650400 0.055373 0.609173
v -0.680933 0.038669 0.609182
v -0.709105 0.019849 0.609193
v -0.734648 -0.000931 0.609204
v -0.793105 -0.073531 -0.619823
v -0.805924 -0.099931 -0.619808
v -0.064305 -0.099931 -0.619808
v -0.055067 -0.127131 -0.619793
v -0.049486 -0.154865 -0.619778
vn 0.5934 0.6547 0.4682
vn 0.5703 -0.4710 0.6730
vn 0.5777 -0.5776 -0.5768
vn 0.5780 0.5761 -0.5779
vn -0.3942 0.7352 -0.5514
vn -0.7047 -0.4005 -0.5856
vn -0.5801 -0.5755 0.5764
vn -0.5801 0.5751 0.5769
vn 0.6028 0.5748 0.5534
vn 0.3201 0.8364 0.4450
vn 0.2836 0.9066 -0.3126
vn 0.5718 0.5776 -0.5826
vn -0.4044 0.8794 -0.2512
vn -0.5774 0.5770 -0.5777
vn -0.3406 0.7529 -0.5631
vn -0.5370 0.8400 -0.0775
vn -0.5773 0.5770 -0.5777
vn -0.2953 0.9122 -0.2839
vn -0.3130 0.9244 0.2178
vn -0.5761 0.5760 0.5799
vn 0.3274 0.8945 -0.3044
vn 0.8256 0.4889 -0.2818
vn 0.2267 0.9413 0.2500
vn 0.4183 0.5304 -0.7373
vn 0.8406 0.5172 0.1607
vn 0.5773 0.5777 0.5770
vn -0.6284 0.4937 -0.6011
vn -0.3307 0.8816 -0.3367
vn -0.3024 0.9012 0.3105
vn -0.5664 0.5796 0.5859
vn 0.3015 0.9047 0.3010
vn -0.3015 0.9047 0.3010
vn -0.4018 0.9107 -0.0957
vn 0.9761 0.1781 0.1246
vn 0.8362 0.5341 -0.1250
vn 0.5773 0.5777 0.5771
vn 0.3025 0.9048 -0.2996
vn 0.9022 0.3211 0.2880
vn 0.9142 -0.2663 -0.3055
vn 0.5774 0.5777 0.5770
vn 0.5773 0.5770 -0.5777
vn 0.4261 0.5768 -0.6969
vn 0.3713 0.6127 -0.6977
vn 0.3713 0.6134 0.6970
vn -0.5828 0.4221 0.6944
vn -0.5328 0.4826 0.6951
vn -0.5328 0.4818 -0.6957
vn -0.5980 -0.5591 0.5743
vn -0.7092 -0.0048 0.7050
vn -0.7150 0.0957 0.6925
vn -0.5773 0.5777 0.5770
vn 0.2415 0.9565 0.1636
vn 0.0961 0.7644 0.6375
vn -0.1854 0.9754 0.1192
vn -0.0000 -0.7075 -0.7067
vn -0.2954 -0.9103 -0.2901
vn -0.5980 -0.5597 -0.5736
vn -0.0001 0.7067 -0.7075
vn -0.0000 0.7068 -0.7074
vn -0.6962 0.1871 -0.6930
vn 0.5981 -0.5598 -0.5735
vn -0.7150 0.0950 -0.6926
vn 0.5451 0.8178 -0.1843
vn -0.0328 0.7692 -0.6382
vn -0.6962 0.1878 0.6928
vn -0.0000 0.7147 -0.6995
vn -0.0518 0.7129 -0.6994
vn -0.0518 0.7136 0.6986
vn -0.0000 -0.0005 -1.0000
vn 0.5329 0.4826 0.6950
vn 0.4801 0.5333 -0.6965
vn 0.4802 0.5341 0.6959
vn -0.2992 0.9054 0.3011
vn -0.5774 0.5777 0.5770
vn -0.1039 0.7073 -0.6993
vn -0.2836 0.9099 -0.3026
vn 0.6279 0.3524 0.6939
vn 0.6666 0.2742 0.6932
vn 0.6666 0.2734 -0.6935
vn 0.3170 0.6420 -0.6981
vn 0.7151 0.0958 0.6924
vn 0.6962 0.1878 0.6928
vn 0.5829 0.4219 0.6945
vn 0.4261 0.5776 0.6963
vn 0.3170 0.6428 0.6974
vn 0.2628 0.6664 0.6978
vn 0.2092 0.6847 0.6981
vn -0.2628 0.6664 0.6978
vn -0.2092 0.6840 -0.6989
vn -0.2628 0.6656 -0.6985
vn 0.2628 0.6656 -0.6985
vn -0.3170 0.6420 -0.6981
vn 0.2092 0.6840 -0.6989
vn 0.1564 0.6985 0.6983
vn 0.1040 0.7080 0.6985
vn 0.0518 0.7136 0.6986
vn -0.0000 0.7154 0.6987
vn -0.1039 0.7080 0.6985
vn -0.1564 0.6985 0.6984
vn -0.2092 0.6847 0.6981
vn 0.1564 0.6977 -0.6991
vn -0.4802 0.5333 -0.6964
vn -0.4802 0.5341 0.6958
vn -0.4261 0.5768 -0.6970
vn 0.6279 0.3517 -0.6943
vn 0.5829 0.4211 -0.6949
vn -0.5828 0.4213 -0.6949
vn -0.3170 0.6428 0.6974
vn -0.3714 0.6134 0.6970
vn -0.4261 0.5775 0.6964
vn -0.6279 0.3524 0.6939
vn -0.6666 0.2742 0.6932
vn 0.1040 0.7072 -0.6993
vn -0.6279 0.3517 -0.6943
vn 0.5329 0.4818 -0.6956
vn -0.6666 0.2734 -0.6935
vn 0.0518 0.7129 -0.6994
vn 0.7151 0.0950 -0.6926
vn 0.6963 0.1871 -0.6930
vn -0.1564 0.6977 -0.6991
vn -0.3715 0.6126 -0.6976
vt 0.708202 0.073766
vt 0.715466 0.071199
vt 0.715466 0.306153
vt 0.618961 0.225823
vt 0.618961 0.460893
vt 0.614115 0.460742
vt 0.692172 0.607985
vt 0.683806 0.608978
vt 0.683806 0.374024
vt 0.690687 0.236270
vt 0.690687 0.001169
vt 0.695500 0.001321
vt 0.407649 0.407649
vt 0.349022 0.391154
vt 0.407649 0.163936
vt 0.000078 0.391583
vt 0.243758 0.391583
vt 0.227930 0.449246
vt 0.007394 0.001026
vt 0.023294 0.001026
vt 0.007394 0.003523
vt 0.023294 0.018303
vt 0.469213 0.340262
vt 0.411558 0.325666
vt 0.469213 0.097929
vt 0.242926 0.454238
vt 0.000592 0.454238
vt 0.015189 0.396584
vt 0.195158 0.569045
vt 0.216001 0.493253
vt 0.430112 0.569045
vt 0.620333 0.811802
vt 0.660558 0.795208
vt 0.660558 0.905148
vt 0.071105 0.321960
vt 0.270991 0.251203
vt 0.320296 0.321960
vt 0.885360 0.369970
vt 0.913467 0.267760
vt 0.913467 0.377699
vt 0.307930 0.000367
vt 0.376036 0.025990
vt 0.307930 0.246253
vt 0.369380 0.063593
vt 0.369380 0.309481
vt 0.298284 0.287650
vt 0.043261 0.017929
vt 0.043261 0.028529
vt 0.029639 0.028529
vt 0.001047 0.461692
vt 0.011647 0.475313
vt 0.001047 0.490843
vt 0.668812 0.310989
vt 0.675533 0.089394
vt 0.675533 0.324455
vt 0.632272 0.132610
vt 0.632272 0.367716
vt 0.619600 0.174904
vt 0.436240 0.597507
vt 0.452574 0.615634
vt 0.434599 0.599388
vt 0.058236 0.018546
vt 0.047635 0.029950
vt 0.047635 0.018546
vt 0.344422 0.881853
vt 0.329560 0.683597
vt 0.344422 0.674112
vt 0.860223 0.654725
vt 0.844694 0.861887
vt 0.844694 0.644125
vt 0.236270 0.627391
vt 0.236270 0.642255
vt 0.001322 0.627391
vt 0.645361 0.284523
vt 0.645361 0.049569
vt 0.658894 0.070622
vt 0.512473 0.667522
vt 0.512473 0.730441
vt 0.504055 0.707722
vt 0.252087 0.878526
vt 0.208994 0.872487
vt 0.208994 0.673133
vt 0.659682 0.694070
vt 0.683852 0.727277
vt 0.562163 0.885181
vt 0.043261 0.039933
vt 0.044925 0.008096
vt 0.032733 0.018303
vt 0.032733 0.000538
vt 0.772463 0.179632
vt 0.831937 0.367946
vt 0.772463 0.402658
vt 0.580692 0.236755
vt 0.580692 0.471708
vt 0.506489 0.236755
vt 0.610336 0.931770
vt 0.610336 0.825766
vt 0.672205 0.931770
vt 0.717828 0.463912
vt 0.722121 0.476159
vt 0.722121 0.698827
vt 0.762753 0.533758
vt 0.767046 0.533758
vt 0.762751 0.768710
vt 0.642255 0.449246
vt 0.635779 0.449068
vt 0.642255 0.214205
vt 0.001243 0.658894
vt 0.001393 0.652969
vt 0.236270 0.658894
vt 0.051580 0.014975
vt 0.049338 0.014825
vt 0.051580 0.007166
vt 0.874062 0.296106
vt 0.874062 0.082705
vt 0.881853 0.297834
vt 0.595667 0.482524
vt 0.581309 0.481645
vt 0.595667 0.247138
vt 0.443375 0.587475
vt 0.208868 0.573118
vt 0.444254 0.573118
vt 0.106488 0.878526
vt 0.000484 0.878526
vt 0.000484 0.660763
vt 0.306345 0.418464
vt 0.110548 0.323153
vt 0.352741 0.323153
vt 0.707945 0.783194
vt 0.800323 0.858221
vt 0.694675 0.960056
vt 0.047722 0.006994
vt 0.049098 0.000789
vt 0.049916 0.007480
vt 0.841677 0.840257
vt 0.745009 0.808847
vt 0.841920 0.613837
vt 0.562163 0.658762
vt 0.767166 0.236270
vt 0.767166 0.001319
vt 0.768710 0.005685
vt 0.720579 0.444255
vt 0.720579 0.213660
vt 0.722122 0.444243
vt 0.837921 0.318651
vt 0.881853 0.299900
vt 0.881853 0.515801
vt 0.886442 0.228727
vt 0.999988 0.228727
vt 0.947673 0.248115
vt 0.850902 0.416610
vt 0.843134 0.630608
vt 0.843134 0.415337
vt 0.047722 0.014975
vt 0.216830 0.201224
vt 0.306985 0.000321
vt 0.306985 0.257901
vt 0.569532 0.657216
vt 0.668877 0.443060
vt 0.668877 0.672205
vt 0.542135 0.669834
vt 0.560726 0.694090
vt 0.542135 0.878526
vt 0.584254 0.001233
vt 0.608978 0.208455
vt 0.584254 0.236270
vt 0.108588 0.077024
vt 0.215472 0.000758
vt 0.215472 0.269548
vt 0.490038 0.601785
vt 0.694675 0.778007
vt 0.430121 0.602323
vt 0.106488 0.871870
vt 0.092867 0.690333
vt 0.106488 0.673056
vt 0.742088 0.236270
vt 0.736682 0.001379
vt 0.742088 0.001254
vt 0.762054 0.490495
vt 0.756646 0.725449
vt 0.756646 0.490495
vt 0.841921 0.344582
vt 0.841920 0.562390
vt 0.802453 0.451079
vt 0.870664 0.637264
vt 0.870664 0.488875
vt 0.910139 0.600163
vt 0.470577 0.102813
vt 0.475868 0.131221
vt 0.470577 0.337767
vt 0.722121 0.001240
vt 0.722121 0.236270
vt 0.716750 0.026584
vt 0.695500 0.429280
vt 0.691509 0.429280
vt 0.691509 0.194328
vt 0.714273 0.476302
vt 0.741718 0.748743
vt 0.741718 0.513731
vt 0.747080 0.748621
vt 0.582356 0.236270
vt 0.539663 0.198274
vt 0.582356 0.001197
vt 0.801988 0.459566
vt 0.801987 0.682189
vt 0.786358 0.682189
vt 0.711803 0.783685
vt 0.711803 0.719454
vt 0.748743 0.766873
vt 0.313704 0.684786
vt 0.523196 0.295360
vt 0.539095 0.494171
vt 0.523194 0.494171
vt 0.451713 0.885181
vt 0.494763 0.669799
vt 0.539095 0.885181
vt 0.322792 0.753312
vt 0.569465 0.484701
vt 0.574037 0.456272
vt 0.574037 0.488798
vt 0.665005 0.754696
vt 0.690508 0.878304
vt 0.665005 0.898492
vt 0.530776 0.000468
vt 0.523461 0.235438
vt 0.432453 0.000468
vt 0.742088 0.475868
vt 0.736725 0.240976
vt 0.742088 0.240853
vt 0.001204 0.625617
vt 0.001429 0.618355
vt 0.236270 0.625617
vt 0.770690 0.236270
vt 0.770690 0.001316
vt 0.772038 0.104354
vt 0.881404 0.242926
vt 0.881404 0.103719
vt 0.906812 0.123866
vt 0.452574 0.583207
vt 0.698827 0.194248
vt 0.698827 0.429280
vt 0.692722 0.194408
vt 0.074874 0.792004
vt 0.021441 0.700453
vt 0.074874 0.669267
vt 0.569874 0.489179
vt 0.871080 0.638833
vt 0.956728 0.638833
vt 0.955503 0.758727
vt 0.961719 0.787148
vt 0.876287 0.908475
vt 0.876287 0.726990
vt 0.001652 0.611124
vt 0.315407 0.856674
vt 0.316136 0.800886
vt 0.316136 0.916795
vt 0.801778 0.936761
vt 0.801778 0.830758
vt 0.861887 0.935246
vt 0.250722 0.885157
vt 0.302825 0.794588
vt 0.302825 0.915131
vt 0.541591 0.524676
vt 0.504551 0.587348
vt 0.306621 0.524676
vt 0.000504 0.585684
vt 0.000504 0.512942
vt 0.235438 0.582560
vt 0.690874 0.463960
vt 0.697163 0.463792
vt 0.697163 0.698827
vt 0.884237 0.484187
vt 0.884294 0.379700
vt 0.940089 0.379730
vt 0.983981 0.346086
vt 0.788977 0.395579
vt 0.795332 0.395579
vt 0.788977 0.608978
vt 0.870507 0.665127
vt 0.876862 0.665127
vt 0.870507 0.878526
vt 0.665550 0.430943
vt 0.659940 0.430809
vt 0.665550 0.195926
vt 0.629128 0.448884
vt 0.812193 0.296106
vt 0.831937 0.222959
vt 0.772515 0.017998
vt 0.831937 0.000771
vt 0.848025 0.000993
vt 0.941753 0.000993
vt 0.941753 0.189682
vt 0.898306 0.562389
vt 0.898306 0.461696
vt 0.938425 0.481624
vt 0.026622 0.024958
vt 0.025594 0.017218
vt 0.025594 0.009346
vt 0.026621 0.001419
vt 0.530910 0.035044
vt 0.532440 0.058533
vt 0.530910 0.066555
vt 0.698827 0.121463
vt 0.694847 0.090204
vt 0.696345 0.081960
vt 0.698827 0.073701
vt 0.131212 0.670879
vt 0.149749 0.714896
vt 0.149749 0.723785
vt 0.735433 0.445918
vt 0.728802 0.390251
vt 0.731657 0.381549
vt 0.735433 0.372906
vt 0.119748 0.673309
vt 0.154740 0.737395
vt 0.154740 0.747080
vt 0.329447 0.896828
vt 0.320567 0.815667
vt 0.324601 0.806597
vt 0.329447 0.797706
vt 0.670243 0.678861
vt 0.670243 0.443804
vt 0.677197 0.444010
vt 0.725286 0.239252
vt 0.732105 0.239252
vt 0.725286 0.474204
vt 0.109061 0.885181
vt 0.117567 0.671949
vt 0.212976 0.885181
vt 0.186662 0.550308
vt 0.000171 0.455349
vt 0.233774 0.455349
vt 0.678700 0.236270
vt 0.678700 0.001219
vt 0.685516 0.236073
vt 0.388062 0.684431
vt 0.404322 0.675537
vt 0.404322 0.871870
vt 0.602789 0.423667
vt 0.239252 0.648488
vt 0.239252 0.641530
vt 0.474204 0.648486
vt 0.698526 0.487169
vt 0.705483 0.487169
vt 0.698526 0.722122
vt 0.371911 0.284523
vt 0.371911 0.049555
vt 0.405985 0.159608
vt 0.079866 0.723517
vt 0.076480 0.813635
vt 0.076480 0.723088
vt 0.768710 0.417633
vt 0.768304 0.187340
vt 0.768710 0.182678
vt 0.412989 0.318415
vt 0.599385 0.457565
vt 0.599385 0.222276
vt 0.612306 0.252821
vt 0.317631 0.787252
vt 0.322792 0.886244
vt 0.317631 0.895164
vt 0.227212 0.001081
vt 0.237934 0.108454
vt 0.232927 0.117616
vt 0.227212 0.126454
vt 0.216994 0.000814
vt 0.222959 0.126042
vt 0.216994 0.134774
vt 0.082644 0.673003
vt 0.094841 0.806410
vt 0.089042 0.815254
vt 0.082644 0.823618
vt 0.387992 0.699019
vt 0.400994 0.849068
vt 0.394754 0.857438
vt 0.387992 0.865215
vt 0.001580 0.632817
vt 0.236270 0.645583
vt 0.001407 0.639106
vt 0.430944 0.244590
vt 0.373961 0.038791
vt 0.430944 0.000797
vt 0.239252 0.655567
vt 0.255996 0.665128
vt 0.490843 0.672205
vt 0.255783 0.672205
vt 0.252909 0.666102
vt 0.017957 0.666102
vt 0.252909 0.659808
vt 0.324177 0.659942
vt 0.559062 0.665550
vt 0.324043 0.665550
vt 0.785349 0.677197
vt 0.763442 0.484830
vt 0.785349 0.443186
vt 0.001228 0.645583
vt 0.252909 0.672205
vt 0.406043 0.854437
vt 0.427616 0.675779
vt 0.427616 0.870206
vt 0.324314 0.654186
vt 0.669777 0.001319
vt 0.675533 0.001319
vt 0.669777 0.236270
vt 0.688844 0.240821
vt 0.688844 0.475868
vt 0.682193 0.241010
vt 0.708811 0.001397
vt 0.702885 0.236270
vt 0.702885 0.001247
vt 0.306153 0.602323
vt 0.070522 0.602323
vt 0.258761 0.580887
vt 0.621478 0.224252
vt 0.628945 0.346861
vt 0.621478 0.459229
vt 0.347391 0.739838
vt 0.361061 0.905474
vt 0.354453 0.913147
vt 0.347391 0.920123
vt 0.206320 0.865215
vt 0.192095 0.685492
vt 0.199023 0.678725
vt 0.206320 0.672757
vt 0.386019 0.871870
vt 0.378615 0.679550
vt 0.386019 0.674154
vt 0.361061 0.881853
vt 0.346184 0.684699
vt 0.353490 0.679640
vt 0.361061 0.675503
vt 0.540759 0.881853
vt 0.525564 0.676066
vt 0.533069 0.672339
vt 0.540759 0.669592
vt 0.868542 0.722122
vt 0.853117 0.510422
vt 0.860774 0.508127
vt 0.868542 0.506855
vt 0.678344 0.712138
vt 0.678344 0.477185
vt 0.685516 0.712138
vt 0.711622 0.710474
vt 0.711622 0.475522
vt 0.718794 0.710474
vt 0.749643 0.712138
vt 0.749643 0.477190
vt 0.755399 0.712138
vt 0.713039 0.460752
vt 0.718794 0.225873
vt 0.718794 0.460893
vt 0.663852 0.001319
vt 0.649644 0.377550
vt 0.655567 0.142672
vt 0.655567 0.377699
vt 0.725285 0.001316
vt 0.732105 0.001316
vt 0.725285 0.236270
vt 0.066338 0.321363
vt 0.246253 0.390179
vt 0.000557 0.390179
vt 0.181410 0.562390
vt 0.000250 0.000569
vt 0.160564 0.172334
vt 0.000250 0.321960
vt 0.301501 0.522456
vt 0.520793 0.287502
vt 0.520793 0.522457
vt 0.758727 0.014632
vt 0.758727 0.249581
vt 0.753117 0.249581
vt 0.724833 0.732105
vt 0.724833 0.497088
vt 0.730441 0.731970
vt 0.532217 0.648911
vt 0.297376 0.641684
vt 0.532440 0.641684
vt 0.347525 0.608372
vt 0.112682 0.615634
vt 0.347302 0.601145
vt 0.708280 0.544087
vt 0.708280 0.309133
vt 0.715466 0.309357
vt 0.735432 0.316136
vt 0.730954 0.081201
vt 0.735432 0.081071
vt 0.643539 0.377396
vt 0.698668 0.481930
vt 0.705483 0.250855
vt 0.705483 0.485851
vt 0.705999 0.748743
vt 0.705999 0.513790
vt 0.710474 0.748743
vt 0.347750 0.615634
vt 0.756563 0.487515
vt 0.756563 0.252564
vt 0.762055 0.487515
vt 0.740424 0.507204
vt 0.734934 0.742088
vt 0.734934 0.507076
vt 0.029950 0.017217
vt 0.028922 0.024958
vt 0.029949 0.009345
vt 0.028922 0.001418
vt 0.656216 0.008486
vt 0.657230 0.016589
vt 0.654204 0.039933
vt 0.654204 0.000352
vt 0.675227 0.661138
vt 0.677197 0.669535
vt 0.672288 0.708811
vt 0.672288 0.652748
vt 0.108119 0.677605
vt 0.111480 0.686125
vt 0.108119 0.742088
vt 0.160573 0.763287
vt 0.157295 0.754443
vt 0.164724 0.690391
vt 0.851198 0.064511
vt 0.855231 0.073580
vt 0.846351 0.154740
vt 0.846351 0.055620
vt 0.164724 0.772038
vt 0.444438 0.824098
vt 0.457565 0.674056
vt 0.450670 0.832474
vt 0.554326 0.850196
vt 0.560726 0.707945
vt 0.560726 0.858559
vt 0.548529 0.841352
vt 0.889877 0.247477
vt 0.883912 0.372708
vt 0.883912 0.238744
vt 0.895164 0.256577
vt 0.307358 0.949487
vt 0.312808 0.841718
vt 0.312808 0.958392
vt 0.302655 0.940318
vt 0.457426 0.840257
vt 0.841072 0.003463
vt 0.833381 0.212976
vt 0.833381 0.000716
vt 0.848576 0.007190
vt 0.811971 0.483311
vt 0.804399 0.685516
vt 0.804399 0.479174
vt 0.370506 0.680947
vt 0.363016 0.878526
vt 0.363016 0.676163
vt 0.377700 0.686620
vt 0.435292 0.894188
vt 0.442591 0.707695
vt 0.442591 0.900156
vt 0.428365 0.887421
vt 0.853161 0.871550
vt 0.860223 0.698243
vt 0.860223 0.878526
vt 0.846554 0.863876
vt 0.858559 0.418904
vt 0.684448 0.612016
vt 0.692172 0.610008
vt 0.692172 0.825282
vt 0.533773 0.000692
vt 0.539095 0.231279
vt 0.533731 0.231279
vt 0.612306 0.236270
vt 0.605044 0.001429
vt 0.612306 0.001204
vt 0.044987 0.035922
vt 0.049916 0.029865
vt 0.049916 0.039933
vt 0.760018 0.245282
vt 0.765382 0.240917
vt 0.765382 0.475868
vt 0.765382 0.001319
vt 0.765382 0.236270
vt 0.759974 0.001319
vt 0.656816 0.236146
vt 0.662222 0.001257
vt 0.662222 0.236270
vt 0.597782 0.001653
vt 0.654452 0.430678
vt 0.726615 0.468932
vt 0.732105 0.468804
vt 0.732105 0.703819
vt 0.638350 0.236270
vt 0.638350 0.001316
vt 0.645583 0.001316
vt 0.631176 0.001316
vt 0.621869 0.001426
vt 0.614699 0.236270
vt 0.614699 0.001207
vt 0.137653 0.618242
vt 0.372502 0.625195
vt 0.372292 0.632272
vt 0.628945 0.001642
vt 0.372708 0.618242
vt 0.682189 0.562390
vt 0.675371 0.327533
vt 0.682188 0.327336
vt 0.275763 0.638928
vt 0.510621 0.632277
vt 0.510809 0.638928
vt 0.688844 0.001223
vt 0.688844 0.236270
vt 0.682193 0.001411
vt 0.510438 0.625803
vt 0.745595 0.236270
vt 0.745595 0.001318
vt 0.752071 0.236270
vt 0.752071 0.474204
vt 0.745777 0.474204
vt 0.745777 0.239253
vt 0.001547 0.646868
s 1
usemtl Material.001
f 1/1/1 2/2/2 3/3/3
f 1/4/1 3/5/3 4/6/4
f 5/7/5 6/8/6 7/9/7
f 5/10/5 7/11/7 8/12/8
f 9/13/9 10/14/10 11/15/11
f 9/16/9 11/17/11 12/18/12
f 15/19/13 17/20/14 14/21/15
f 13/22/16 14/21/15 17/20/14
f 16/23/17 18/24/18 19/25/19
f 16/26/17 19/27/19 20/28/20
f 25/29/21 24/30/22 23/31/23
f 21/32/24 24/33/22 25/34/21
f 24/35/22 26/36/25 23/37/23
f 22/38/26 23/39/23 26/40/25
f 28/41/27 29/42/28 30/43/29
f 28/44/27 30/45/29 31/46/30
f 26/47/25 32/48/26 33/49/31
f 26/50/25 33/51/31 22/52/26
f 38/53/32 15/54/13 31/55/30
f 28/56/27 31/57/30 15/58/13
f 14/59/15 46/60/33 15/61/13
f 26/62/25 36/63/34 32/64/26
f 33/65/31 38/66/32 31/67/30
f 33/68/31 31/69/30 22/70/26
f 36/71/34 26/72/25 41/73/35
f 26/74/25 24/75/22 41/76/35
f 28/77/27 15/78/13 46/79/33
f 24/80/22 21/81/24 46/82/33
f 28/83/27 46/84/33 21/85/24
f 32/48/26 36/86/34 33/49/31
f 48/87/36 33/88/31 36/89/34
f 45/90/37 49/91/38 44/92/31
f 47/93/39 49/94/38 45/95/37
f 43/96/40 44/97/31 49/98/38
f 48/99/36 36/100/34 51/101/41
f 41/102/35 51/103/41 36/104/34
f 57/105/42 61/106/43 96/107/44
f 54/108/45 56/109/46 113/110/47
f 55/111/48 58/112/49 53/113/50
f 58/114/49 49/115/38 53/116/50
f 17/117/14 15/118/13 38/119/32
f 59/120/51 17/121/14 38/122/32
f 31/123/30 30/124/29 23/125/23
f 22/126/26 31/127/30 23/128/23
f 65/129/52 66/130/53 67/131/54
f 68/132/55 69/133/56 63/134/57
f 21/135/24 25/136/21 29/137/28
f 21/85/24 29/138/28 28/83/27
f 55/139/48 63/140/57 69/141/56
f 55/142/48 69/143/56 58/144/49
f 30/145/29 20/146/20 23/147/23
f 29/148/28 34/149/58 39/150/59
f 74/151/60 73/152/61 72/153/62
f 63/134/57 72/154/62 68/132/55
f 65/155/52 76/156/63 66/157/53
f 62/158/64 66/159/53 76/160/63
f 12/161/12 25/162/21 23/163/23
f 12/164/12 23/165/23 9/166/9
f 67/167/54 66/168/53 13/169/16
f 62/158/64 13/170/16 66/159/53
f 48/171/36 65/129/52 67/131/54
f 17/121/14 59/120/51 67/172/54
f 48/173/36 67/174/54 59/175/51
f 72/176/62 53/177/50 52/178/65
f 72/179/62 52/180/65 74/181/60
f 29/182/28 25/183/21 34/184/58
f 12/185/12 34/186/58 25/187/21
f 20/188/20 30/189/29 16/190/17
f 16/191/17 30/192/29 29/193/28
f 51/194/41 76/195/63 65/196/52
f 51/101/41 65/197/52 48/99/36
f 63/198/57 53/199/50 72/200/62
f 9/201/9 23/202/23 20/203/20
f 67/204/54 13/205/16 17/206/14
f 29/207/28 39/208/59 16/209/17
f 59/210/51 38/66/32 33/65/31
f 59/211/51 33/212/31 48/213/36
f 9/214/9 20/215/20 10/216/10
f 24/80/22 46/82/33 62/217/64
f 41/218/35 24/219/22 76/220/63
f 62/221/64 76/222/63 24/223/22
f 19/224/19 10/225/10 20/226/20
f 63/227/57 55/228/48 53/229/50
f 80/230/66 81/231/67 108/232/68
f 11/233/11 18/234/18 27/235/69
f 62/236/64 46/237/33 13/238/16
f 14/59/15 13/239/16 46/60/33
f 93/240/70 50/241/71 94/242/72
f 82/243/73 83/244/74 58/245/49
f 51/246/41 41/218/35 76/220/63
f 12/247/12 11/248/11 27/249/69
f 34/250/58 12/251/12 27/252/69
f 108/232/68 81/231/67 84/253/75
f 40/254/69 27/255/69 18/256/18
f 18/257/18 16/258/17 40/259/69
f 39/260/59 40/261/69 16/262/17
f 82/263/73 58/264/49 85/265/76
f 69/266/56 85/267/76 58/268/49
f 50/269/71 57/270/42 94/271/72
f 34/272/58 27/273/69 40/274/69
f 34/149/58 40/275/69 39/150/59
f 69/276/56 68/277/55 47/278/39
f 73/279/61 47/280/39 68/281/55
f 91/282/77 90/283/78 122/284/79
f 96/107/44 61/106/43 70/285/80
f 58/114/49 83/286/74 49/115/38
f 83/287/74 43/288/40 49/289/38
f 83/290/74 82/291/73 44/292/31
f 83/293/74 44/294/31 43/295/40
f 49/296/38 88/297/81 89/298/82
f 49/296/38 89/298/82 90/299/78
f 49/300/38 90/301/78 91/302/77
f 49/303/38 91/304/77 92/305/83
f 49/303/38 92/305/83 93/306/70
f 49/307/38 93/308/70 94/309/72
f 49/310/38 94/311/72 95/312/84
f 49/310/38 95/312/84 96/313/44
f 49/314/38 96/315/44 97/316/85
f 49/317/38 97/318/85 98/319/86
f 49/317/38 98/319/86 100/320/87
f 114/321/88 87/322/89 99/323/90
f 98/324/86 97/325/85 71/326/91
f 69/327/56 47/328/39 85/329/76
f 45/330/37 85/331/76 47/332/39
f 101/333/92 114/334/88 99/335/90
f 10/336/10 1/337/1 11/338/11
f 4/6/4 11/339/11 1/4/1
f 100/340/87 98/341/86 75/342/93
f 71/343/91 75/344/93 98/345/86
f 4/346/4 5/347/5 18/348/18
f 44/349/31 82/350/73 19/351/19
f 45/352/37 44/353/31 19/354/19
f 19/25/19 18/24/18 45/355/37
f 19/356/19 1/357/1 10/358/10
f 49/359/38 100/360/87 103/361/94
f 49/362/38 103/363/94 104/364/95
f 49/362/38 104/364/95 106/365/96
f 49/366/38 106/367/96 107/368/97
f 49/369/38 107/370/97 108/371/68
f 49/369/38 108/371/68 109/372/98
f 49/373/38 109/374/98 110/375/99
f 111/376/100 49/373/38 110/375/99
f 94/377/72 57/378/42 95/379/84
f 18/380/18 11/381/11 4/382/4
f 100/340/87 75/342/93 103/383/94
f 77/384/101 103/385/94 75/386/93
f 112/387/102 119/388/103 105/389/104
f 35/390/105 91/391/77 122/392/79
f 8/393/8 85/394/76 5/395/5
f 57/378/42 96/396/44 95/379/84
f 113/397/47 119/388/103 112/387/102
f 82/398/73 85/399/76 8/400/8
f 35/390/105 37/401/106 91/391/77
f 92/402/83 91/403/77 37/404/106
f 96/405/44 70/406/80 97/407/85
f 115/408/107 54/409/45 113/410/47
f 8/411/8 19/412/19 82/413/73
f 1/414/1 19/415/19 8/416/8
f 49/417/38 111/418/100 114/419/88
f 49/417/38 114/419/88 116/420/108
f 49/421/38 116/422/108 117/423/109
f 49/421/38 117/423/109 118/424/110
f 49/425/38 118/426/110 119/427/103
f 49/428/38 119/429/103 56/430/46
f 49/428/38 56/430/46 54/431/45
f 49/432/38 54/433/45 60/434/111
f 49/432/38 60/434/111 64/435/112
f 49/436/38 64/437/112 52/438/65
f 52/438/65 53/439/50 49/436/38
f 103/440/94 77/441/101 104/442/95
f 78/443/113 104/444/95 77/445/101
f 54/446/45 115/447/107 60/448/111
f 120/449/114 60/450/111 115/451/107
f 92/402/83 37/404/106 93/452/70
f 42/453/115 93/454/70 37/455/106
f 70/456/80 71/457/91 97/458/85
f 85/459/76 18/460/18 5/461/5
f 45/330/37 18/462/18 85/331/76
f 2/463/2 7/464/7 6/465/6
f 2/466/2 6/467/6 3/468/3
f 121/469/116 64/470/112 60/471/111
f 121/472/116 60/473/111 120/474/114
f 104/475/95 78/476/113 106/477/96
f 79/478/117 106/479/96 78/480/113
f 7/481/7 2/482/2 1/483/1
f 1/484/1 8/485/8 7/486/7
f 42/453/115 50/487/71 93/454/70
f 5/488/5 4/489/4 6/490/6
f 3/491/3 6/492/6 4/493/4
f 79/478/117 80/494/66 106/479/96
f 64/495/112 121/496/116 52/497/65
f 74/498/60 52/499/65 121/500/116
f 124/501/118 73/502/61 123/503/119
f 122/504/79 123/503/119 73/502/61
f 35/505/105 122/506/79 73/507/61
f 37/508/106 35/505/105 73/507/61
f 42/509/115 37/510/106 73/511/61
f 50/512/71 42/509/115 73/511/61
f 57/513/42 50/514/71 73/515/61
f 61/516/43 57/517/42 73/518/61
f 71/519/91 70/520/80 73/521/61
f 75/522/93 71/519/91 73/521/61
f 70/523/80 61/516/43 73/518/61
f 84/524/75 73/525/61 86/526/120
f 81/527/67 73/528/61 84/529/75
f 80/530/66 73/528/61 81/527/67
f 79/531/117 73/532/61 80/533/66
f 78/534/113 73/532/61 79/531/117
f 77/535/101 73/536/61 78/537/113
f 75/538/93 73/536/61 77/535/101
f 87/539/89 86/526/120 73/525/61
f 120/540/114 73/541/61 121/542/116
f 115/543/107 73/541/61 120/540/114
f 113/544/47 73/545/61 115/546/107
f 112/547/102 73/548/61 113/549/47
f 105/550/104 73/548/61 112/547/102
f 102/551/121 73/552/61 105/553/104
f 101/554/92 73/552/61 102/551/121
f 99/555/90 73/556/61 101/557/92
f 87/558/89 73/556/61 99/555/90
f 74/151/60 121/559/116 73/152/61
f 68/560/55 72/561/62 73/562/61
f 47/563/39 88/564/81 49/565/38
f 80/566/66 107/567/97 106/568/96
f 73/569/61 124/570/118 47/571/39
f 47/572/39 124/573/118 88/574/81
f 88/575/81 124/576/118 89/577/82
f 123/578/119 89/579/82 124/580/118
f 80/566/66 108/581/68 107/567/97
f 122/284/79 90/283/78 89/582/82
f 123/583/119 122/584/79 89/585/82
f 84/586/75 109/587/98 108/588/68
f 109/587/98 84/586/75 110/589/99
f 86/590/120 110/591/99 84/592/75
f 87/593/89 111/594/100 110/595/99
f 87/596/89 110/591/99 86/590/120
f 111/594/100 87/593/89 114/597/88
f 101/598/92 116/599/108 114/600/88
f 102/601/121 117/602/109 116/603/108
f 102/604/121 116/605/108 101/606/92
f 117/602/109 102/601/121 118/607/110
f 105/608/104 118/609/110 102/610/121
f 119/611/103 118/612/110 105/613/104
f 113/110/47 56/109/46 119/614/103
