# Blender 4.5.2 LTS
# www.blender.org
mtllib wrench2.mtl
o wrench
v -0.046293 1.679520 -0.123160
v -0.059784 1.538257 -0.121214
v -0.079084 1.593420 -0.115009
v 0.004824 1.658864 -0.119382
v -0.002793 1.525452 -0.118415
v -0.037415 1.517306 -0.114650
v 0.030962 1.611561 -0.107451
v -0.094884 1.523933 -0.105131
v 0.046370 1.527246 -0.095725
v -0.100948 1.684862 -0.102381
v -0.063817 1.690177 -0.095508
v 0.003923 1.689661 -0.103438
v -0.109474 1.580696 -0.098107
v 0.053374 1.689042 -0.081569
v 0.070315 1.537699 -0.072205
v -0.125205 1.523238 -0.076972
v -0.130318 1.682273 -0.074327
v -0.140015 1.571385 -0.063415
v -0.040508 1.469766 -0.076660
v -0.055923 1.678044 -0.077551
v -0.001618 1.687927 -0.071858
v 0.026191 1.471003 -0.047146
v -0.049616 1.390910 -0.072903
v -0.010048 1.377280 -0.081311
v -0.059195 1.376398 -0.078747
v -0.044247 1.277483 -0.084539
v 0.029977 1.278790 -0.056188
v -0.034251 -0.018781 -0.070119
v 0.045358 -0.016951 -0.079512
v -0.008474 -0.141174 -0.081164
v 0.049072 -0.152236 -0.077171
v 0.005152 -0.240480 -0.081019
v -0.037222 -0.165593 -0.062831
v 0.044908 -0.210779 -0.080103
v 0.042750 -0.345103 -0.079899
v 0.006626 -0.358151 -0.082476
v -0.032578 -0.248852 -0.064858
v 0.037870 -0.378244 -0.081919
v -0.016160 -0.386435 -0.074238
v -0.002953 -0.478832 -0.076238
v 0.059335 -0.455010 -0.072958
v 0.044878 -0.479128 -0.073744
v -0.143733 1.649460 -0.057078
v 0.007612 1.474953 -0.065365
v -0.023233 1.395070 -0.075424
v -0.045127 -0.354787 -0.052646
v 0.080878 -0.361120 -0.055575
v 0.035728 -0.522994 -0.073165
v 0.006843 -0.530552 -0.063727
v -0.066808 1.684725 -0.045100
v -0.142743 1.523652 -0.053179
v -0.056962 1.611831 -0.078317
v -0.006948 1.615076 -0.078188
v -0.029246 1.585683 -0.079255
v -0.069315 1.587593 -0.072631
v -0.090619 1.476692 -0.056012
v -0.080201 1.408779 -0.059592
v 0.081141 1.629834 -0.049834
v -0.085439 1.289463 -0.064823
v 0.075108 -0.167150 -0.057039
v 0.011093 1.587590 -0.067035
v 0.024721 1.394278 -0.048911
v 0.041544 1.376520 -0.040615
v 0.073435 -0.276927 -0.061178
v -0.039686 -0.456398 -0.057414
v -0.091235 1.593502 -0.059639
v -0.065414 1.567292 -0.047772
v -0.016901 1.568720 -0.061198
v -0.099628 1.378543 -0.050677
v -0.004765 -0.012738 -0.043990
v -0.057720 -0.093143 -0.038326
v -0.034890 -0.526640 -0.047224
v 0.085131 -0.461814 -0.054132
v 0.072922 -0.524152 -0.050732
v -0.097863 1.444612 -0.037316
v -0.096060 1.387441 -0.042010
v 0.082663 -0.091743 -0.048026
v -0.118506 1.685977 -0.034698
v -0.154115 1.604582 -0.028430
v 0.041407 -0.011717 -0.043390
v 0.078320 -0.013117 -0.042760
v -0.056272 -0.484156 -0.015321
v 0.094243 -0.362357 -0.034468
v -0.070158 1.619966 -0.035587
v 0.088536 1.686358 -0.020772
v -0.114205 1.289896 -0.023637
v 0.042299 1.484489 -0.032790
v -0.079662 1.274760 -0.047807
v 0.013349 -0.529911 -0.038315
v 0.088185 -0.478143 -0.029699
v 0.045249 1.686398 -0.029446
v 0.012583 1.615916 -0.033560
v 0.021068 1.583195 -0.045302
v 0.090464 1.527944 -0.024944
v 0.039744 1.273365 -0.039402
v -0.035014 -0.008531 -0.040991
v -0.062135 -0.275183 -0.021304
v 0.100374 -0.281930 -0.019052
v -0.156199 1.677615 -0.011040
v -0.157074 1.534325 -0.000524
v 0.006851 1.676607 -0.038385
v 0.041969 1.611591 -0.030965
v -0.104549 1.267983 -0.016384
v -0.061467 -0.350531 -0.003010
v 0.099785 -0.242865 -0.021271
v 0.092546 -0.519575 -0.007583
v -0.148383 1.685503 0.040675
v -0.046886 1.489172 -0.043907
v -0.012410 1.508155 -0.044663
v -0.068221 1.237854 -0.033738
v -0.105717 1.170886 -0.028896
v -0.032036 1.239629 -0.008510
v -0.089439 1.188333 -0.040198
v -0.085046 1.150771 -0.041178
v 0.023874 1.234982 -0.039308
v -0.068619 0.984745 -0.034938
v -0.087884 1.043858 -0.038439
v 0.013471 1.182670 -0.031102
v 0.025588 1.047729 -0.037124
v 0.041189 1.204007 -0.030756
v 0.044544 1.101804 -0.035366
v -0.074750 0.875104 -0.040591
v -0.096379 0.948444 -0.030538
v 0.042265 0.869682 -0.039469
v 0.054228 0.937095 -0.031042
v 0.051714 0.830003 -0.037559
v 0.045118 0.755336 -0.039817
v 0.059627 0.736575 -0.035495
v 0.055852 0.633419 -0.040095
v -0.060911 0.605370 -0.040246
v -0.043641 0.543190 -0.034468
v -0.070059 0.477516 -0.031155
v -0.052499 0.404514 -0.039682
v 0.066724 0.578924 -0.034873
v 0.043106 0.535416 -0.036050
v 0.073089 0.432057 -0.030123
v -0.035739 0.401908 -0.033868
v -0.042311 0.263855 -0.039693
v 0.064257 0.395308 -0.039998
v -0.024929 0.161624 -0.035008
v -0.037019 0.127412 -0.040289
v -0.066542 -0.021333 -0.020112
v 0.070351 0.212276 -0.039870
v 0.071847 0.096542 -0.039301
v 0.054387 0.168046 -0.032446
v -0.066382 -0.162617 -0.008995
v 0.092573 -0.019003 -0.027747
v -0.109349 1.614928 -0.030418
v 0.002093 1.516752 -0.036594
v -0.035695 1.455753 -0.045819
v -0.064632 1.190841 -0.016583
v 0.000176 1.214683 -0.017686
v -0.099884 1.051680 -0.028209
v -0.067842 1.062555 -0.030764
v 0.048917 1.081284 -0.026613
v 0.025995 0.904834 -0.032021
v -0.069139 0.740129 -0.040083
v -0.088989 0.812950 -0.030158
v -0.051599 0.862263 -0.015498
v -0.054574 0.769514 -0.030601
v -0.079697 0.670913 -0.030192
v 0.026557 0.801038 -0.030293
v -0.047912 0.661053 -0.032157
v 0.060146 0.829378 -0.027089
v 0.033303 0.659791 -0.031331
v 0.066870 0.692838 -0.024743
v -0.029601 0.468180 -0.016388
v -0.063001 0.377838 -0.031177
v -0.058542 0.270713 -0.029081
v 0.047825 0.351479 -0.032934
v -0.024359 0.247990 -0.030321
v -0.055703 0.183560 -0.026352
v 0.078927 0.294966 -0.029055
v -0.015759 0.054898 -0.030672
v -0.051681 0.084889 -0.028266
v 0.083674 0.179994 -0.029543
v 0.086087 0.091376 -0.030716
v 0.056326 0.031510 -0.031098
v -0.063117 -0.389609 0.005931
v -0.109518 1.676127 -0.029165
v -0.088649 1.678455 -0.033103
v -0.101393 1.579522 -0.008783
v -0.082354 1.540676 -0.017985
v -0.002300 1.452408 -0.031841
v -0.046270 1.386707 -0.043573
v -0.010113 1.387794 -0.033280
v 0.041118 1.401939 -0.008877
v -0.077302 0.591273 -0.027638
v -0.048019 -0.013535 -0.022119
v 0.035613 0.010239 -0.014990
v 0.098262 -0.160487 -0.008099
v -0.009499 -0.528288 -0.014725
v -0.117656 1.484826 -0.011810
v 0.040342 1.585088 0.007986
v -0.116542 1.377757 -0.001256
v -0.073637 1.475331 -0.014852
v 0.011578 1.037592 -0.014901
v 0.017324 0.951290 -0.019910
v 0.020112 0.872816 -0.015287
v -0.042450 0.693571 -0.015201
v 0.063912 0.648594 -0.025194
v 0.051281 0.043054 -0.016613
v -0.053829 -0.519895 0.019141
v 0.043259 -0.462485 -0.035821
v -0.000778 -0.462726 -0.036566
v 0.047598 -0.526329 -0.028799
v 0.007280 1.389131 -0.011011
v 0.053550 1.291095 0.002812
v -0.062444 1.089187 -0.015398
v -0.057387 0.970148 -0.016623
v 0.023973 0.718263 -0.015438
v 0.020849 0.801919 -0.015614
v -0.035687 0.566910 -0.015427
v 0.027211 0.607054 -0.015154
v -0.025387 0.386593 -0.015200
v 0.032727 0.485838 -0.015865
v -0.021218 0.301832 -0.015982
v -0.015354 0.217692 -0.015138
v -0.009482 0.118803 -0.015210
v 0.039596 0.304072 -0.015266
v 0.043371 0.217803 -0.015851
v 0.046198 0.134092 -0.015676
v -0.003270 0.023149 -0.015247
v 0.103037 -0.464693 -0.004606
v 0.007019 1.154902 -0.015160
v 0.046298 1.153265 0.026018
v -0.047120 0.778895 -0.015182
v 0.035764 0.402782 -0.015291
v 0.095955 -0.171051 0.022826
v 0.101549 -0.353344 0.009132
v -0.018001 -0.478271 -0.003083
v -0.155942 1.602486 0.022975
v -0.151878 1.516397 -0.000728
v 0.014091 1.494736 -0.002478
v -0.077747 1.387307 0.001291
v 0.091350 1.589005 0.020282
v -0.106744 1.197755 0.030259
v -0.102917 1.109730 0.028461
v -0.099256 1.026913 0.029715
v -0.093314 0.920762 0.029743
v -0.086612 0.765051 0.028584
v -0.080028 0.667318 0.030740
v -0.073885 0.553362 0.028881
v 0.061420 0.773603 0.027054
v -0.048012 0.063281 0.029104
v 0.097689 -0.094604 0.000816
v -0.000200 -0.462343 0.035422
v -0.126135 1.687685 0.075877
v -0.111557 1.471026 0.006640
v 0.043236 1.688001 0.027469
v -0.109700 1.386624 0.003827
v -0.112404 1.284395 0.026271
v 0.044331 1.473080 0.009538
v 0.036655 1.280253 0.048568
v 0.042976 1.212406 0.029791
v 0.049869 1.045757 0.031565
v 0.055028 0.927063 0.026218
v 0.058306 -0.517421 0.004890
v -0.109540 1.685124 0.030989
v 0.014477 1.520609 0.018198
v -0.052747 1.386341 0.038712
v 0.071060 0.530147 0.024947
v 0.073986 0.488670 0.031651
v 0.076656 0.390987 0.031557
v 0.084064 0.210032 0.031738
v -0.065299 -0.103995 0.014938
v -0.064071 -0.242543 0.011921
v -0.020849 -0.532099 0.026145
v 0.066481 0.646078 0.026883
v -0.061700 0.285369 0.021301
v -0.060957 -0.019647 0.039817
v 0.092948 -0.086286 0.027256
v -0.048721 -0.459378 0.047634
v -0.004484 -0.523094 0.025493
v 0.082086 -0.480000 0.042846
v -0.072194 1.464575 0.014374
v 0.087290 0.044600 0.033207
v 0.079482 1.690033 0.046217
v 0.004961 1.399585 0.022080
v -0.055317 0.168382 0.021645
v 0.047117 -0.465041 0.031624
v -0.105817 1.592375 0.031878
v 0.039365 1.392700 0.029434
v -0.045577 -0.009482 0.031638
v 0.084011 0.138858 0.031220
v 0.086040 -0.011921 0.039812
v 0.082745 -0.523147 0.036238
v -0.065842 1.524735 0.037267
v 0.039893 1.596316 0.035201
v 0.091759 -0.238683 0.036598
v 0.095930 -0.275691 0.031075
v 0.094507 -0.415871 0.037731
v 0.076055 1.658176 0.061450
v 0.085576 1.528996 0.034008
v -0.067287 0.420095 0.027057
v 0.092724 -0.464399 0.043556
v -0.078188 1.575913 0.045476
v -0.050665 1.454208 0.042229
v -0.028119 1.388934 0.043624
v -0.051300 -0.263748 0.047846
v 0.079609 -0.356419 0.057821
v -0.062832 1.191011 0.015734
v 0.000989 1.205953 0.018951
v -0.034197 1.254725 0.018038
v -0.060892 1.088117 0.015159
v 0.007965 1.120400 0.015796
v 0.011068 1.054568 0.015906
v -0.058255 1.009018 0.015168
v 0.012774 0.988182 0.015283
v -0.052067 0.912666 0.015542
v 0.018144 0.837775 0.015070
v -0.059306 0.884376 0.029299
v -0.048307 0.804616 0.015569
v 0.015952 0.926462 0.015977
v 0.021761 0.741361 0.015153
v -0.043553 0.705385 0.016300
v -0.037789 0.610291 0.015391
v 0.026078 0.670626 0.015633
v 0.035906 0.664319 0.032514
v 0.027879 0.605597 0.015514
v 0.031068 0.504125 0.015082
v -0.030297 0.480162 0.015734
v -0.025086 0.375755 0.015167
v 0.035925 0.418400 0.015319
v 0.038404 0.342701 0.015727
v -0.021941 0.304793 0.016117
v 0.041834 0.229832 0.015193
v -0.024043 0.260822 0.027754
v -0.016529 0.217497 0.015572
v -0.011323 0.118271 0.015373
v 0.044806 0.128717 0.015992
v 0.049503 0.063457 0.018918
v -0.007688 0.036100 0.016759
v 0.043411 0.015068 0.015030
v 0.005030 -0.015247 0.041359
v -0.045727 -0.164115 0.055429
v 0.039291 -0.529186 0.033891
v -0.143754 1.541031 0.058051
v -0.132566 1.521428 0.070787
v -0.097977 1.457900 0.036627
v -0.103300 1.377078 0.040648
v -0.000206 1.568808 0.046576
v 0.016376 1.467814 0.058987
v 0.024187 1.395502 0.048528
v -0.062459 1.273505 0.040902
v -0.001836 1.272339 0.044382
v -0.072273 1.147962 0.031911
v 0.014657 1.160388 0.031436
v -0.066182 1.035329 0.031007
v -0.067916 0.964768 0.035182
v 0.023650 0.985463 0.032577
v -0.051183 0.718772 0.030642
v 0.028595 0.842533 0.032248
v 0.041556 0.511882 0.032124
v -0.031954 0.387944 0.031412
v -0.054788 0.258099 0.032417
v -0.022334 0.182941 0.032970
v 0.052027 0.220318 0.031902
v -0.047537 -0.097289 0.056770
v -0.042368 -0.346098 0.054527
v -0.068218 1.629028 0.035504
v -0.076672 1.681517 0.033281
v 0.012104 1.681848 0.034408
v 0.005868 1.618693 0.038480
v -0.015875 1.466821 0.042666
v 0.032384 1.376242 0.055021
v 0.052072 0.943997 0.033517
v -0.040877 0.570547 0.029383
v 0.059451 0.743563 0.033238
v 0.061332 0.653728 0.033599
v -0.042790 0.300958 0.041134
v 0.047743 0.358068 0.032350
v -0.012742 0.028057 0.030849
v 0.052477 0.011647 0.031526
v -0.099603 1.597340 0.047619
v -0.087362 1.222637 0.039732
v -0.084718 1.066359 0.039448
v 0.056248 0.832448 0.033535
v 0.066268 0.580346 0.033604
v -0.046559 0.178340 0.034453
v -0.047401 1.566046 0.056632
v 0.025711 1.218587 0.038886
v -0.078716 0.937915 0.039589
v 0.031517 1.066430 0.038611
v 0.037776 0.921270 0.038645
v -0.069085 0.766699 0.039911
v -0.056826 0.577849 0.040246
v 0.053022 0.538181 0.038784
v -0.033861 0.152709 0.039389
v 0.069006 0.136779 0.038669
v -0.024850 -0.389474 0.071674
v 0.042506 0.819299 0.037883
v 0.047088 0.692622 0.038433
v -0.048232 0.402902 0.040078
v 0.058932 0.387500 0.037642
v 0.063382 0.275474 0.038026
v -0.022271 -0.011053 0.041699
v -0.026053 -0.523096 0.059450
v 0.030900 -0.522671 0.077116
v -0.089745 1.487639 0.065782
v -0.075766 1.272917 0.048481
v 0.067100 -0.155494 0.066058
v -0.134611 1.606872 0.070181
v -0.001291 1.687716 0.074955
v -0.002807 1.594146 0.076121
v 0.064819 1.529476 0.075750
v 0.025445 1.508594 0.090798
v -0.007369 -0.348079 0.079106
v 0.064463 -0.227009 0.070222
v -0.079982 1.284441 0.070402
v 0.046713 1.612480 0.097716
v 0.045698 -0.018159 0.076252
v 0.063491 -0.095783 0.068051
v 0.064971 -0.281906 0.068359
v -0.009986 -0.474780 0.073681
v -0.057326 1.683917 0.076743
v -0.059518 1.593304 0.078968
v 0.004640 1.280839 0.075891
v -0.004750 -0.018111 0.081970
v 0.044608 -0.449062 0.081965
v 0.051273 -0.476193 0.070580
v -0.075007 1.464373 0.061676
v -0.028377 1.279620 0.082884
v -0.068490 1.383826 0.071842
v 0.052540 -0.364606 0.076152
v -0.015872 1.378615 0.082023
v -0.001450 -0.227131 0.081772
v -0.028346 1.392251 0.075409
v -0.027167 1.473737 0.077022
v -0.095477 1.655894 0.108565
v -0.053813 1.502987 0.096962
v 0.038466 -0.164583 0.080432
v 0.033360 -0.339628 0.081370
v 0.025889 1.682735 0.108264
v 0.001600 -0.161396 0.080080
v -0.096039 1.593134 0.107983
v -0.063462 1.525206 0.120185
v 0.003930 1.689692 0.108158
v -0.105368 1.685464 0.096971
v 0.040999 1.543116 0.098450
v 0.002794 1.533167 0.119049
v -0.040680 1.681668 0.121120
vn -0.0801 0.4567 -0.8860
vn -0.1359 -0.1482 -0.9796
vn -0.4008 0.0018 -0.9161
vn 0.2902 0.1631 -0.9429
vn 0.2615 -0.3987 -0.8790
vn -0.0910 -0.5164 -0.8515
vn 0.5598 0.0187 -0.8284
vn -0.4304 -0.3880 -0.8150
vn 0.6278 -0.4166 -0.6574
vn -0.3552 0.7556 -0.5504
vn 0.1285 0.9917 -0.0050
vn 0.0931 0.9503 -0.2969
vn -0.6667 -0.0150 -0.7452
vn 0.5467 0.6308 -0.5507
vn 0.7899 -0.2109 -0.5759
vn -0.7070 -0.3163 -0.6325
vn -0.6410 0.6547 -0.4006
vn -0.8747 -0.0344 -0.4834
vn -0.1848 -0.4004 -0.8975
vn 0.3639 0.5787 0.7299
vn -0.3494 0.8519 0.3902
vn 0.7110 -0.3614 -0.6032
vn -0.1159 0.3725 -0.9208
vn 0.2712 0.2163 -0.9379
vn -0.3142 0.1820 -0.9317
vn -0.1424 -0.4674 -0.8725
vn 0.2709 -0.4446 -0.8538
vn -0.4605 0.5938 -0.6599
vn 0.2555 0.6035 -0.7553
vn -0.3134 0.0012 -0.9496
vn 0.3522 0.0133 -0.9358
vn -0.1673 0.0012 -0.9859
vn -0.7029 -0.0119 -0.7112
vn 0.3651 0.0119 -0.9309
vn 0.3008 0.0034 -0.9537
vn -0.2377 -0.0038 -0.9713
vn -0.6102 -0.0060 -0.7922
vn 0.1574 -0.0402 -0.9867
vn -0.3725 -0.0199 -0.9278
vn -0.3361 -0.1501 -0.9298
vn 0.5509 -0.0630 -0.8322
vn 0.3922 -0.1779 -0.9025
vn -0.8832 0.0437 -0.4670
vn 0.4643 -0.2782 -0.8408
vn 0.1004 0.1920 -0.9762
vn -0.7960 -0.0009 -0.6053
vn 0.7025 -0.0016 -0.7117
vn 0.1639 -0.6140 -0.7721
vn -0.1231 -0.8833 -0.4525
vn 0.5971 0.6623 0.4525
vn -0.8327 -0.4269 -0.3527
vn 0.5449 -0.1268 0.8288
vn -0.5288 -0.0586 0.8467
vn -0.0170 0.4480 0.8939
vn 0.3604 0.4397 0.8227
vn -0.5976 -0.5616 -0.5723
vn -0.5278 0.2519 -0.8112
vn 0.9319 0.0413 -0.3604
vn -0.6250 -0.3632 -0.6909
vn 0.7608 0.0176 -0.6488
vn -0.6157 0.1801 0.7671
vn 0.6917 0.2146 -0.6896
vn 0.8501 0.1515 -0.5043
vn 0.7110 0.0055 -0.7032
vn -0.7661 -0.1261 -0.6303
vn 0.7379 0.0631 0.6719
vn 0.4942 0.5550 0.6692
vn -0.2289 0.4734 0.8506
vn -0.8162 0.2239 -0.5326
vn 0.1851 0.8023 -0.5675
vn -0.8717 -0.0084 -0.4900
vn -0.5358 -0.7428 -0.4015
vn 0.7524 -0.2618 -0.6044
vn 0.5436 -0.7023 -0.4596
vn -0.8455 -0.1140 -0.5217
vn -0.8662 0.3738 -0.3315
vn 0.8193 0.0246 -0.5728
vn 0.1163 0.9772 0.1776
vn -0.9784 -0.0096 -0.2066
vn -0.1766 0.8145 -0.5527
vn 0.4178 0.2695 -0.8676
vn -0.9484 -0.1388 -0.2851
vn 0.8992 0.0027 -0.4375
vn 0.4958 -0.2775 0.8229
vn 0.8674 0.4915 -0.0778
vn -0.9366 -0.1931 -0.2923
vn 0.7924 -0.4904 -0.3629
vn -0.1416 -0.6550 -0.7422
vn 0.3207 -0.7391 0.5924
vn 0.8833 -0.3150 -0.3472
vn -0.2976 0.9215 0.2495
vn -0.5998 -0.3395 0.7245
vn -0.8121 0.4076 0.4175
vn 0.9149 -0.3626 -0.1775
vn 0.9115 -0.1808 -0.3693
vn -0.3663 0.5420 -0.7564
vn -0.9697 -0.0478 -0.2396
vn 0.9604 0.0143 -0.2782
vn -0.9531 0.2679 -0.1407
vn -0.9886 -0.1506 -0.0091
vn -0.6209 0.2320 0.7488
vn -0.8426 0.0424 0.5369
vn -0.8951 -0.2973 -0.3324
vn -0.9994 -0.0109 0.0334
vn 0.9859 0.0244 -0.1658
vn 0.7059 -0.7079 0.0227
vn -0.7254 0.6579 0.2025
vn 0.4196 0.1525 0.8948
vn -0.3170 0.1314 0.9393
vn 0.3452 -0.1086 -0.9322
vn -0.7984 0.0097 -0.6020
vn 0.1286 -0.2806 -0.9512
vn 0.0201 0.0902 -0.9957
vn 0.3491 0.0308 -0.9366
vn -0.0661 -0.1390 -0.9881
vn 0.6186 0.0169 -0.7855
vn -0.3523 -0.0129 -0.9358
vn -0.7793 -0.0403 -0.6253
vn -0.4493 -0.0128 -0.8933
vn 0.7754 0.0073 -0.6314
vn 0.7109 0.0610 -0.7006
vn 0.1326 0.0080 -0.9911
vn -0.8843 -0.0393 -0.4652
vn -0.0305 0.0037 -0.9995
vn 0.8976 0.0409 -0.4390
vn 0.5149 0.0274 -0.8568
vn -0.0923 -0.0029 -0.9957
vn 0.6574 0.0249 -0.7531
vn 0.3920 -0.0010 -0.9200
vn -0.1552 -0.0197 -0.9877
vn 0.5297 0.0281 -0.8477
vn -0.7706 -0.0461 -0.6357
vn -0.1581 0.0022 -0.9874
vn 0.8371 0.0307 -0.5462
vn -0.3704 -0.0180 -0.9287
vn 0.8883 0.0451 -0.4570
vn 0.7150 0.0373 -0.6981
vn -0.0965 -0.0066 -0.9953
vn 0.2788 0.0258 -0.9600
vn 0.6636 0.0314 -0.7474
vn -0.1314 -0.0019 -0.9913
vn -0.8293 0.5276 -0.1844
vn 0.1607 0.0036 -0.9870
vn 0.0743 0.0122 -0.9972
vn -0.7095 -0.0235 -0.7043
vn -0.9961 -0.0155 -0.0866
vn 0.9788 0.0472 -0.1991
vn 0.8574 -0.0395 0.5131
vn -0.6841 0.1896 0.7043
vn -0.0735 0.0608 0.9954
vn 0.4078 -0.0262 -0.9127
vn -0.4703 -0.0788 -0.8790
vn -0.9422 -0.0369 -0.3330
vn 0.8331 0.0525 -0.5506
vn 0.9898 0.0659 -0.1263
vn -0.7605 -0.0294 -0.6486
vn -0.0358 -0.0009 -0.9994
vn -0.8731 -0.0482 -0.4851
vn 0.5224 0.0248 -0.8523
vn 0.7665 0.0516 -0.6401
vn -0.8809 -0.0517 -0.4704
vn -0.7804 -0.0212 -0.6249
vn 0.7210 0.0453 -0.6915
vn 0.9555 0.0446 -0.2915
vn -0.6976 -0.0285 -0.7159
vn 0.9687 -0.0002 -0.2483
vn 0.6203 0.0328 -0.7837
vn -0.8735 -0.0508 -0.4842
vn -0.8699 -0.0448 -0.4912
vn -0.6887 -0.0281 -0.7245
vn 0.7657 0.0410 -0.6419
vn -0.8904 -0.0379 -0.4536
vn 0.9111 0.0364 -0.4105
vn 0.6220 0.0935 -0.7774
vn -0.9251 -0.0408 -0.3776
vn 0.8933 0.0238 -0.4489
vn 0.8976 0.0430 -0.4387
vn -0.6770 0.1479 -0.7210
vn -0.9972 -0.0121 0.0740
vn 0.7356 0.2863 0.6139
vn 0.2360 0.3768 0.8957
vn 0.8749 0.4467 0.1873
vn 0.9343 0.2149 0.2843
vn -0.6510 0.1271 0.7484
vn 0.4076 0.3871 0.8271
vn -0.3235 0.8339 0.4471
vn 0.9730 0.0690 -0.2203
vn -0.9350 -0.0460 -0.3517
vn -0.8484 0.5182 -0.1084
vn -0.2764 0.4176 -0.8656
vn 0.9900 0.0198 -0.1394
vn 0.4863 -0.8635 0.1334
vn -0.7973 -0.5410 -0.2677
vn -0.9075 0.4086 -0.0973
vn -0.9456 0.3236 -0.0323
vn 0.8686 0.0698 0.4906
vn -0.4972 -0.0089 -0.8676
vn -0.6090 -0.0245 -0.7928
vn -0.5637 -0.0285 -0.8255
vn 0.4574 0.0265 -0.8888
vn 0.9598 0.0092 -0.2807
vn -0.5326 0.0821 -0.8424
vn -0.8365 -0.4714 0.2792
vn -0.5814 -0.5647 0.5857
vn 0.5619 -0.6024 0.5669
vn -0.2821 -0.8426 0.4588
vn -0.7335 0.6057 0.3085
vn 0.9937 -0.0813 0.0771
vn 0.4935 0.0306 -0.8692
vn 0.4299 0.0165 -0.9027
vn -0.6554 -0.0259 -0.7549
vn -0.3695 -0.0089 -0.9292
vn 0.4603 0.0272 -0.8874
vn -0.5080 -0.0209 -0.8611
vn 0.4158 0.0191 -0.9093
vn -0.5912 -0.0236 -0.8062
vn 0.6377 0.0386 -0.7693
vn 0.4309 0.0206 -0.9021
vn 0.3960 0.0229 -0.9180
vn -0.4304 -0.0157 -0.9025
vn -0.5135 -0.0180 -0.8579
vn -0.5426 -0.0179 -0.8398
vn 0.5774 0.2565 -0.7751
vn 0.9648 -0.2608 -0.0339
vn -0.3967 -0.0484 -0.9167
vn 0.9148 0.0543 0.4002
vn 0.5173 0.0265 -0.8554
vn -0.3268 -0.0150 -0.9450
vn 0.9371 0.0142 0.3489
vn 0.9907 0.0108 0.1355
vn 0.9832 -0.1000 0.1527
vn -0.9818 0.0089 0.1898
vn -0.8470 -0.5303 -0.0359
vn -0.9754 0.1061 0.1933
vn 0.8461 0.5075 -0.1631
vn 0.9844 -0.0078 0.1756
vn -0.9197 -0.0297 0.3916
vn -0.8641 -0.0375 0.5019
vn -0.8722 -0.0377 0.4877
vn -0.8711 -0.0456 0.4890
vn -0.9246 -0.0506 0.3776
vn -0.8672 -0.0461 0.4959
vn -0.8740 -0.0522 0.4831
vn 0.9724 0.0404 0.2299
vn -0.8326 -0.0307 0.5531
vn 0.9973 0.0265 -0.0688
vn 0.4422 -0.7830 -0.4375
vn -0.3437 0.8818 0.3228
vn -0.9006 -0.4137 0.1334
vn -0.6145 0.7208 -0.3206
vn -0.9766 0.2147 0.0150
vn -0.8894 -0.1914 0.4151
vn 0.9296 -0.3089 0.2011
vn 0.7435 -0.4109 0.5276
vn 0.8273 0.0068 0.5617
vn 0.8500 0.0409 0.5252
vn 0.9846 0.0411 0.1698
vn -0.6563 -0.7507 -0.0752
vn 0.5420 0.6549 -0.5267
vn -0.9230 0.1617 -0.3492
vn 0.2475 0.8591 -0.4480
vn 0.9972 0.0516 0.0537
vn 0.8922 0.0451 0.4493
vn 0.7606 0.0274 0.6487
vn 0.8346 0.0217 0.5505
vn -0.9873 -0.0336 0.1553
vn -0.9765 -0.0525 0.2089
vn -0.0175 -0.9978 -0.0634
vn 0.9700 0.0263 0.2418
vn -0.9672 -0.0306 0.2521
vn -0.6896 0.6195 0.3752
vn 0.9444 0.0322 0.3271
vn -0.8649 -0.0705 0.4969
vn 0.5939 -0.2000 -0.7793
vn 0.8721 -0.3225 0.3679
vn 0.9464 0.0535 -0.3184
vn 0.7368 0.0399 0.6749
vn 0.3413 0.9233 0.1762
vn -0.8456 0.2512 -0.4710
vn -0.9574 -0.0508 0.2844
vn -0.5505 -0.3224 -0.7701
vn 0.9134 0.1547 -0.3765
vn 0.9362 0.1472 0.3190
vn -0.7002 0.5165 0.4928
vn 0.9065 0.0207 0.4216
vn 0.6438 0.3073 0.7008
vn 0.5647 -0.7452 0.3546
vn 0.7005 0.2572 -0.6657
vn -0.7523 0.1127 -0.6491
vn 0.8942 0.0232 0.4471
vn 0.9386 0.0280 0.3440
vn 0.8331 -0.0008 0.5532
vn 0.8862 0.0579 0.4596
vn 0.8482 -0.4032 0.3435
vn -0.9049 -0.0524 0.4224
vn 0.7790 -0.2441 0.5775
vn 0.5220 0.5021 -0.6896
vn 0.4946 0.0274 -0.8687
vn -0.2380 0.5082 -0.8277
vn -0.8440 -0.0448 0.5345
vn 0.7161 0.0249 0.6976
vn 0.3906 -0.0748 0.9175
vn -0.4455 -0.1395 0.8843
vn -0.0217 -0.3976 0.9173
vn 0.5141 0.0164 0.8576
vn -0.3964 -0.0391 0.9172
vn -0.5040 -0.0225 0.8634
vn 0.3813 0.0125 0.9244
vn -0.4858 -0.0180 0.8739
vn 0.5801 0.0321 0.8139
vn -0.3189 -0.0118 0.9477
vn 0.7049 0.0296 0.7087
vn 0.5209 0.0259 0.8532
vn -0.5865 -0.0215 0.8096
vn -0.4149 -0.0177 0.9097
vn 0.5389 0.0283 0.8419
vn 0.4101 0.0237 0.9117
vn -0.5059 -0.0204 0.8624
vn -0.7110 -0.0287 0.7026
vn -0.5868 -0.0212 0.8095
vn -0.3797 -0.0166 0.9250
vn 0.5634 0.0300 0.8256
vn 0.3701 0.0199 0.9288
vn -0.4936 -0.0198 0.8694
vn -0.5932 -0.0188 0.8048
vn 0.6757 0.0378 0.7362
vn -0.2714 -0.0063 0.9624
vn 0.8341 0.0471 0.5496
vn 0.6573 0.0336 0.7529
vn 0.4099 0.0125 0.9121
vn -0.4899 -0.0137 0.8717
vn -0.5591 0.0250 0.8287
vn 0.5563 0.2759 0.7838
vn -0.2714 0.3221 0.9070
vn 0.1128 0.7948 0.5963
vn -0.7967 -0.0126 0.6042
vn -0.0576 -0.7982 -0.5996
vn -0.8784 -0.0783 0.4715
vn -0.7489 -0.4225 0.5106
vn -0.8719 -0.0986 0.4796
vn -0.8451 0.1169 0.5217
vn -0.5559 0.4516 -0.6979
vn 0.6053 -0.3509 0.7145
vn 0.6446 0.2874 0.7084
vn 0.2582 -0.7611 0.5950
vn -0.0730 -0.6094 0.7895
vn 0.7074 0.0338 0.7060
vn -0.7152 -0.0322 0.6982
vn 0.6886 0.0300 0.7245
vn 0.6941 0.0298 0.7193
vn -0.7173 -0.0288 0.6962
vn 0.7804 0.0456 0.6236
vn -0.6659 -0.0252 0.7456
vn -0.7049 -0.0299 0.7087
vn 0.7984 0.0409 0.6007
vn -0.6906 -0.0197 0.7230
vn 0.7502 0.0173 0.6610
vn -0.7068 -0.0316 0.7067
vn -0.7058 -0.0201 0.7081
vn -0.8156 -0.0037 0.5786
vn 0.6662 -0.2749 -0.6932
vn 0.4040 0.7420 -0.5350
vn -0.4942 0.2927 -0.8186
vn -0.7597 -0.1904 -0.6218
vn -0.2768 0.0766 -0.9579
vn 0.7509 0.1837 0.6343
vn 0.7065 0.0278 0.7072
vn 0.7713 0.0452 0.6349
vn 0.6367 0.0213 0.7708
vn 0.6150 0.0291 0.7880
vn -0.0475 0.0135 0.9988
vn -0.6672 -0.0230 0.7446
vn 0.6878 0.1918 0.7001
vn -0.4436 0.2726 0.8538
vn 0.7943 -0.0432 -0.6060
vn 0.0440 -0.0725 0.9964
vn -0.0413 0.0001 0.9991
vn 0.6808 0.0246 0.7320
vn 0.7079 0.0405 0.7051
vn -0.6305 -0.0355 0.7754
vn 0.1403 0.4721 -0.8703
vn -0.0124 -0.0332 0.9994
vn 0.0139 0.0002 0.9999
vn -0.0126 0.0073 0.9999
vn -0.0081 -0.0006 1.0000
vn -0.0829 -0.0007 0.9966
vn 0.0327 -0.0002 0.9995
vn -0.0059 -0.0034 1.0000
vn 0.1118 -0.0065 0.9937
vn -0.2037 -0.0054 0.9790
vn -0.5749 -0.0181 0.8180
vn 0.0254 -0.0013 0.9997
vn 0.0190 0.0041 0.9998
vn -0.0266 0.0014 0.9996
vn -0.1309 -0.0066 0.9914
vn -0.0434 0.0012 0.9991
vn -0.0858 0.5561 0.8266
vn -0.4906 -0.6169 0.6155
vn 0.1000 -0.6889 0.7179
vn -0.5596 -0.5576 0.6131
vn -0.1519 -0.7535 0.6397
vn 0.6934 0.0133 0.7204
vn -0.8098 0.0154 0.5865
vn -0.4368 0.7293 -0.5267
vn -0.5041 0.2794 -0.8172
vn 0.7198 -0.3238 0.6140
vn 0.4631 -0.5929 0.6588
vn -0.2874 -0.0217 0.9576
vn 0.6223 0.0115 0.7827
vn -0.5617 -0.3888 0.7303
vn 0.7243 0.0005 0.6894
vn 0.2597 0.6908 0.6748
vn 0.5483 0.0122 0.8362
vn 0.6489 -0.0063 0.7608
vn -0.3647 -0.1113 0.9244
vn 0.3861 0.8401 -0.3810
vn 0.4105 0.2150 -0.8862
vn 0.3362 -0.6336 0.6968
vn -0.1260 0.4973 0.8584
vn 0.2518 -0.0839 0.9641
vn 0.4441 -0.2022 0.8729
vn -0.4678 -0.2067 0.8593
vn -0.0563 -0.6259 0.7778
vn -0.3522 0.1015 0.9304
vn 0.3833 -0.0159 0.9235
vn 0.2041 0.2637 0.9428
vn -0.2787 0.0055 0.9604
vn 0.1078 0.1727 0.9791
vn 0.0705 -0.4515 0.8895
vn -0.5542 0.0633 0.8300
vn -0.1517 -0.6353 0.7572
vn 0.2237 0.0177 0.9745
vn 0.2492 -0.0131 0.9684
vn 0.4635 0.3299 0.8224
vn -0.2886 -0.0012 0.9574
vn -0.5530 -0.0191 0.8330
vn -0.2571 -0.4042 0.8778
vn 0.0413 0.9706 0.2372
vn -0.2787 0.8299 0.4833
vn 0.5546 -0.2233 0.8016
vn 0.2631 -0.3109 0.9133
vn -0.0857 0.2793 0.9564
vt 0.425771 0.490835
vt 0.430725 0.410393
vt 0.443056 0.441370
vt 0.396687 0.480214
vt 0.398422 0.404340
vt 0.418034 0.399037
vt 0.381643 0.454035
vt 0.451161 0.401706
vt 0.371922 0.406622
vt 0.593204 0.126947
vt 0.597771 0.105834
vt 0.615617 0.102943
vt 0.457902 0.492954
vt 0.616440 0.072045
vt 0.398678 0.497846
vt 0.460908 0.433697
vt 0.371922 0.498757
vt 0.487703 0.206499
vt 0.461098 0.166798
vt 0.474298 0.159633
vt 0.469829 0.400983
vt 0.475989 0.491174
vt 0.479888 0.428149
vt 0.420934 0.372395
vt 0.589569 0.098157
vt 0.598618 0.068161
vt 0.615550 0.041395
vt 0.478251 0.251582
vt 0.586842 0.167065
vt 0.585398 0.136348
vt 0.612922 0.136348
vt 0.424737 0.327486
vt 0.401647 0.320483
vt 0.429544 0.318988
vt 0.418835 0.263092
vt 0.378475 0.265679
vt 0.665708 0.553576
vt 0.620181 0.554682
vt 0.650393 0.483984
vt 0.618058 0.477886
vt 0.642585 0.427617
vt 0.667621 0.470278
vt 0.620187 0.444590
vt 0.621269 0.368298
vt 0.641541 0.360771
vt 0.664792 0.422976
vt 0.623882 0.349439
vt 0.654844 0.344758
vt 0.647163 0.292287
vt 0.612147 0.306002
vt 0.620252 0.292260
vt 0.009901 0.961875
vt 0.000000 0.903238
vt 0.019877 0.943981
vt 0.394464 0.376461
vt 0.384888 0.374799
vt 0.409772 0.330369
vt 0.672436 0.362935
vt 0.601018 0.359594
vt 0.625409 0.267333
vt 0.642248 0.263092
vt 0.570473 0.096643
vt 0.018454 0.899460
vt 0.012695 0.871513
vt 0.025335 0.872716
vt 0.656156 0.689518
vt 0.667528 0.653677
vt 0.693866 0.664384
vt 0.683481 0.704457
vt 0.687176 0.644576
vt 0.665108 0.638291
vt 0.450521 0.375506
vt 0.443102 0.337137
vt 0.455087 0.220104
vt 0.443430 0.269247
vt 0.604418 0.469727
vt 0.483872 0.472456
vt 0.708266 0.652584
vt 0.384115 0.331200
vt 0.374714 0.321559
vt 0.605015 0.407324
vt 0.668986 0.305178
vt 0.651943 0.637284
vt 0.648917 0.690096
vt 0.635760 0.696630
vt 0.640114 0.668943
vt 0.627710 0.669223
vt 0.696455 0.637284
vt 0.453976 0.319666
vt 0.661090 0.263092
vt 0.615619 0.262168
vt 0.631104 0.245895
vt 0.680630 0.511685
vt 0.666751 0.265422
vt 0.598579 0.302433
vt 0.605599 0.267042
vt 0.455011 0.357347
vt 0.032436 0.789690
vt 0.037276 0.794905
vt 0.027518 0.806238
vt 0.600721 0.512685
vt 0.572087 0.136348
vt 0.553977 0.121464
vt 0.036748 0.919496
vt 0.483764 0.723567
vt 0.456464 0.714824
vt 0.475021 0.714518
vt 0.657150 0.243014
vt 0.677867 0.240578
vt 0.680630 0.289900
vt 0.176600 0.067017
vt 0.200227 0.015622
vt 0.188942 0.068219
vt 0.483183 0.677860
vt 0.458799 0.677860
vt 0.649208 0.704227
vt 0.027331 0.845043
vt 0.442752 0.253960
vt 0.049320 0.740415
vt 0.027360 0.738524
vt 0.435837 0.140465
vt 0.443408 0.132127
vt 0.692450 0.061861
vt 0.670435 0.043150
vt 0.683487 0.000000
vt 0.178726 0.265668
vt 0.182272 0.220978
vt 0.200541 0.264611
vt 0.594610 0.359187
vt 0.672086 0.563942
vt 0.686689 0.554682
vt 0.679532 0.576803
vt 0.558858 0.633468
vt 0.558858 0.607233
vt 0.584831 0.619131
vt 0.651943 0.722505
vt 0.664625 0.704457
vt 0.670170 0.729548
vt 0.586361 0.034444
vt 0.591094 0.009867
vt 0.558857 0.648698
vt 0.567431 0.633468
vt 0.584887 0.651261
vt 0.594418 0.610888
vt 0.584831 0.625003
vt 0.584831 0.601227
vt 0.433155 0.164485
vt 0.683863 0.065421
vt 0.438693 0.088862
vt 0.454537 0.133355
vt 0.423802 0.021248
vt 0.433956 0.023228
vt 0.432163 0.079147
vt 0.614073 0.245970
vt 0.483872 0.654295
vt 0.488237 0.594255
vt 0.506716 0.639261
vt 0.191601 0.116227
vt 0.166983 0.112384
vt 0.044626 0.961425
vt 0.054187 0.880459
vt 0.578717 0.685403
vt 0.558857 0.690134
vt 0.384587 0.609144
vt 0.394156 0.624557
vt 0.371922 0.612221
vt 0.452611 0.324883
vt 0.710829 0.074914
vt 0.515686 0.596181
vt 0.167921 0.134584
vt 0.584831 0.576402
vt 0.592931 0.566240
vt 0.592931 0.601227
vt 0.710379 0.561085
vt 0.582217 0.594131
vt 0.508011 0.120820
vt 0.603808 0.656136
vt 0.617699 0.612674
vt 0.631551 0.659286
vt 0.636367 0.624962
vt 0.710829 0.046743
vt 0.722824 0.058265
vt 0.054426 0.728005
vt 0.353790 0.734200
vt 0.348933 0.713216
vt 0.371922 0.676098
vt 0.329808 0.713812
vt 0.593286 0.222116
vt 0.593286 0.259372
vt 0.587893 0.231824
vt 0.772651 0.946837
vt 0.771387 0.925384
vt 0.783037 0.937653
vt 0.421374 0.000000
vt 0.768056 0.830822
vt 0.776748 0.864906
vt 0.304184 0.680168
vt 0.296660 0.709507
vt 0.300116 0.603239
vt 0.288050 0.691681
vt 0.288256 0.633541
vt 0.774917 0.768772
vt 0.785191 0.811211
vt 0.294660 0.501804
vt 0.286805 0.539926
vt 0.290337 0.479110
vt 0.295659 0.436848
vt 0.288126 0.425951
vt 0.292383 0.367425
vt 0.776235 0.615404
vt 0.768895 0.579683
vt 0.786205 0.543359
vt 0.778300 0.501266
vt 0.287775 0.336341
vt 0.302057 0.312146
vt 0.287812 0.252929
vt 0.769238 0.499338
vt 0.777299 0.421190
vt 0.293115 0.232120
vt 0.771190 0.362742
vt 0.778887 0.343653
vt 0.594610 0.235654
vt 0.485140 0.784967
vt 0.500696 0.742746
vt 0.511962 0.783374
vt 0.293888 0.128122
vt 0.295735 0.062421
vt 0.304326 0.103479
vt 0.486376 0.701605
vt 0.515609 0.703015
vt 0.169857 0.261850
vt 0.188253 0.178448
vt 0.651943 0.742776
vt 0.643962 0.630360
vt 0.625587 0.594276
vt 0.800863 0.974449
vt 0.791056 0.947689
vt 0.805166 0.946877
vt 0.710829 0.034254
vt 0.291294 0.733985
vt 0.311685 0.698822
vt 0.805619 0.925448
vt 0.783807 0.869891
vt 0.765214 0.874977
vt 0.286805 0.730944
vt 0.160906 0.887334
vt 0.164519 0.805408
vt 0.165818 0.899154
vt 0.303447 0.522216
vt 0.776336 0.692075
vt 0.785616 0.734160
vt 0.790265 0.760883
vt 0.798976 0.708311
vt 0.805158 0.768739
vt 0.767631 0.708412
vt 0.785166 0.653331
vt 0.305611 0.463326
vt 0.767449 0.646680
vt 0.163043 0.744101
vt 0.168632 0.691515
vt 0.169216 0.744750
vt 0.304991 0.383010
vt 0.162706 0.666430
vt 0.172243 0.633109
vt 0.790379 0.536673
vt 0.800512 0.499206
vt 0.800994 0.579586
vt 0.785586 0.486618
vt 0.786800 0.425772
vt 0.303789 0.207709
vt 0.768203 0.411762
vt 0.788287 0.376313
vt 0.168262 0.440376
vt 0.174015 0.497773
vt 0.167844 0.518327
vt 0.175357 0.393752
vt 0.769851 0.302005
vt 0.782309 0.266505
vt 0.789247 0.320211
vt 0.287659 0.109667
vt 0.288270 0.059308
vt 0.306443 0.025975
vt 0.294412 0.000000
vt 0.315203 0.001586
vt 0.170768 0.324674
vt 0.483872 0.536562
vt 0.519940 0.573891
vt 0.682926 0.255851
vt 0.694848 0.257456
vt 0.677867 0.261412
vt 0.559249 0.105680
vt 0.706099 0.224483
vt 0.707501 0.261412
vt 0.653636 0.133311
vt 0.642387 0.112322
vt 0.670435 0.121655
vt 0.627710 0.724973
vt 0.648423 0.090108
vt 0.663920 0.060836
vt 0.663917 0.105718
vt 0.644244 0.593667
vt 0.622652 0.554682
vt 0.642774 0.556758
vt 0.037625 0.730539
vt 0.049770 0.672621
vt 0.416239 0.095875
vt 0.801708 0.830812
vt 0.786640 0.608142
vt 0.169401 0.375015
vt 0.605505 0.235924
vt 0.765214 0.263092
vt 0.653321 0.227754
vt 0.159776 0.181272
vt 0.651943 0.579574
vt 0.670703 0.593263
vt 0.533153 0.136348
vt 0.582431 0.056799
vt 0.038391 0.827489
vt 0.050881 0.851353
vt 0.651943 0.668943
vt 0.415643 0.608902
vt 0.059632 0.790894
vt 0.602397 0.603241
vt 0.808120 0.941779
vt 0.805619 0.864899
vt 0.817596 0.859525
vt 0.808909 0.783790
vt 0.815250 0.810392
vt 0.818204 0.765804
vt 0.789937 0.664914
vt 0.799733 0.646586
vt 0.163429 0.641403
vt 0.169445 0.601867
vt 0.813140 0.287383
vt 0.821380 0.275796
vt 0.821083 0.294100
vt 0.805619 0.263092
vt 0.506440 0.520458
vt 0.488534 0.496426
vt 0.525384 0.499536
vt 0.565643 0.690135
vt 0.584887 0.727259
vt 0.559964 0.728708
vt 0.584887 0.690842
vt 0.699813 0.576849
vt 0.683782 0.221117
vt 0.670170 0.730908
vt 0.681848 0.704457
vt 0.695285 0.730908
vt 0.710829 0.036159
vt 0.732110 0.000000
vt 0.732110 0.042507
vt 0.715419 0.001793
vt 0.594610 0.639895
vt 0.651943 0.557973
vt 0.469940 0.583154
vt 0.481842 0.576988
vt 0.481842 0.621289
vt 0.400960 0.034147
vt 0.790382 0.889942
vt 0.799271 0.874954
vt 0.791004 0.822256
vt 0.810190 0.724860
vt 0.818706 0.677984
vt 0.818242 0.725539
vt 0.789948 0.592860
vt 0.810286 0.644531
vt 0.819311 0.614784
vt 0.808390 0.573702
vt 0.789634 0.490265
vt 0.810860 0.469197
vt 0.819482 0.545854
vt 0.790009 0.442054
vt 0.798267 0.411567
vt 0.789413 0.394155
vt 0.800995 0.362564
vt 0.789346 0.337884
vt 0.811924 0.364929
vt 0.820619 0.442526
vt 0.820689 0.393471
vt 0.821140 0.345891
vt 0.798337 0.301764
vt 0.789247 0.283441
vt 0.160297 0.008499
vt 0.188876 0.010958
vt 0.815029 0.960280
vt 0.816929 0.926214
vt 0.130497 0.927858
vt 0.162411 0.957203
vt 0.790009 0.713456
vt 0.820167 0.498643
vt 0.076256 0.002087
vt 0.086459 0.000000
vt 0.080304 0.055721
vt 0.341166 0.022757
vt 0.319505 0.014591
vt 0.341284 0.001998
vt 0.142389 0.175108
vt 0.151580 0.071621
vt 0.726724 0.107744
vt 0.706627 0.110596
vt 0.706627 0.074914
vt 0.431235 0.729399
vt 0.420159 0.702877
vt 0.431235 0.694903
vt 0.175070 0.001433
vt 0.065794 0.919732
vt 0.054768 0.870190
vt 0.387447 0.571715
vt 0.406886 0.558387
vt 0.648664 0.052753
vt 0.642667 0.002463
vt 0.667246 0.002764
vt 0.388756 0.535221
vt 0.400792 0.714106
vt 0.371922 0.702782
vt 0.414656 0.697861
vt 0.412280 0.202264
vt 0.082499 0.689479
vt 0.348912 0.686714
vt 0.053467 0.604924
vt 0.083903 0.639437
vt 0.309329 0.664786
vt 0.350078 0.628996
vt 0.054943 0.546246
vt 0.086892 0.592434
vt 0.309464 0.598120
vt 0.349892 0.561316
vt 0.307933 0.548946
vt 0.058953 0.469276
vt 0.089888 0.532121
vt 0.308411 0.504421
vt 0.349163 0.499984
vt 0.093511 0.443656
vt 0.062983 0.388547
vt 0.309608 0.464168
vt 0.348567 0.452582
vt 0.347889 0.404060
vt 0.066569 0.343405
vt 0.097525 0.388164
vt 0.309776 0.416629
vt 0.310519 0.353453
vt 0.346968 0.332032
vt 0.067813 0.278659
vt 0.099662 0.323371
vt 0.132775 0.712018
vt 0.310151 0.284535
vt 0.310376 0.237345
vt 0.345748 0.275858
vt 0.345307 0.229486
vt 0.310482 0.181246
vt 0.344859 0.181283
vt 0.343526 0.133420
vt 0.310302 0.132199
vt 0.113475 0.044952
vt 0.310639 0.084636
vt 0.342478 0.077174
vt 0.309810 0.032849
vt 0.154164 0.218607
vt 0.681542 0.115579
vt 0.679592 0.156260
vt 0.670435 0.133105
vt 0.494402 0.101467
vt 0.061950 0.843913
vt 0.428698 0.666906
vt 0.396541 0.666906
vt 0.062597 0.795934
vt 0.589583 0.625003
vt 0.594417 0.650798
vt 0.589583 0.652146
vt 0.077774 0.738613
vt 0.730828 0.261412
vt 0.715307 0.233434
vt 0.116876 1.000000
vt 0.127938 0.961475
vt 0.166755 0.996662
vt 0.128182 0.866718
vt 0.132099 0.799271
vt 0.706627 0.115579
vt 0.670484 0.110065
vt 0.676096 0.090698
vt 0.521408 0.102561
vt 0.419084 0.572713
vt 0.371922 0.677218
vt 0.411119 0.137231
vt 0.135809 0.573634
vt 0.132282 0.549973
vt 0.133107 0.494474
vt 0.134364 0.391597
vt 0.530304 0.735844
vt 0.526050 0.657256
vt 0.670595 0.617100
vt 0.133834 0.639524
vt 0.070667 0.221997
vt 0.074790 0.161216
vt 0.102769 0.170950
vt 0.078686 0.111809
vt 0.594610 0.201522
vt 0.139225 0.223253
vt 0.542875 0.533274
vt 0.706488 0.117327
vt 0.679749 0.614631
vt 0.471889 0.621289
vt 0.481842 0.635384
vt 0.471889 0.662372
vt 0.727829 0.581757
vt 0.711104 0.593953
vt 0.653859 0.173948
vt 0.616440 0.171043
vt 0.650821 0.167942
vt 0.632443 0.045650
vt 0.399806 0.498757
vt 0.415934 0.681853
vt 0.134874 0.297627
vt 0.554155 0.000000
vt 0.418627 0.504186
vt 0.106240 0.104493
vt 0.546164 0.783183
vt 0.728889 0.719259
vt 0.708266 0.696610
vt 0.730438 0.689986
vt 0.706488 0.155378
vt 0.706627 0.077184
vt 0.558916 0.566240
vt 0.619033 0.118372
vt 0.394062 0.093636
vt 0.116876 0.003709
vt 0.135277 0.351214
vt 0.131653 0.265537
vt 0.651943 0.618963
vt 0.729026 0.606972
vt 0.617230 0.078799
vt 0.431235 0.614827
vt 0.604169 0.205503
vt 0.135281 0.136736
vt 0.138617 0.115668
vt 0.136097 0.036109
vt 0.556136 0.023126
vt 0.394808 0.244640
vt 0.405652 0.261327
vt 0.400245 0.169675
vt 0.585398 0.217217
vt 0.585398 0.167065
vt 0.594402 0.191598
vt 0.102332 0.247618
vt 0.708266 0.731471
vt 0.133264 0.008574
vt 0.134102 0.000000
vt 0.571762 0.251561
vt 0.556436 0.243183
vt 0.547538 0.214443
vt 0.616440 0.038273
vt 0.382114 0.667143
vt 0.546554 0.644329
vt 0.124605 0.070081
vt 0.583492 0.569522
vt 0.404976 0.666907
vt 0.226320 0.686900
vt 0.262811 0.693519
vt 0.244265 0.722200
vt 0.224554 0.628481
vt 0.264458 0.644820
vt 0.264370 0.607385
vt 0.223832 0.583534
vt 0.263494 0.569683
vt 0.224629 0.528696
vt 0.262330 0.484210
vt 0.840560 0.699127
vt 0.847883 0.653541
vt 0.848211 0.714957
vt 0.223731 0.467294
vt 0.263546 0.534573
vt 0.261677 0.429413
vt 0.223625 0.410859
vt 0.224253 0.356759
vt 0.262128 0.389158
vt 0.831825 0.633966
vt 0.821460 0.677991
vt 0.821830 0.637745
vt 0.261330 0.352219
vt 0.260307 0.294570
vt 0.224844 0.282723
vt 0.224888 0.223352
vt 0.260651 0.245798
vt 0.259923 0.202781
vt 0.224655 0.182997
vt 0.258721 0.138661
vt 0.839243 0.344353
vt 0.845857 0.319537
vt 0.845868 0.369218
vt 0.225292 0.133328
vt 0.225468 0.076892
vt 0.257549 0.081208
vt 0.258298 0.044023
vt 0.225186 0.030161
vt 0.253603 0.016788
vt 0.230243 0.000412
vt 0.552965 0.700609
vt 0.670435 0.074914
vt 0.087763 0.885602
vt 0.095982 0.874623
vt 0.079872 0.837029
vt 0.083962 0.791399
vt 0.487703 0.251561
vt 0.501014 0.214315
vt 0.512257 0.241494
vt 0.620828 0.000000
vt 0.383810 0.138633
vt 0.384019 0.096991
vt 0.228116 0.733423
vt 0.262335 0.730992
vt 0.839949 0.849053
vt 0.849013 0.814750
vt 0.848938 0.873196
vt 0.823304 0.942177
vt 0.821716 0.893463
vt 0.830929 0.916031
vt 0.840074 0.784975
vt 0.848783 0.769793
vt 0.837622 0.744987
vt 0.821829 0.856024
vt 0.821463 0.818300
vt 0.831744 0.816538
vt 0.821915 0.783196
vt 0.839251 0.604943
vt 0.831586 0.735292
vt 0.821380 0.732801
vt 0.847144 0.597108
vt 0.847314 0.542991
vt 0.821756 0.600790
vt 0.831652 0.547309
vt 0.821517 0.543117
vt 0.846632 0.409566
vt 0.846658 0.468953
vt 0.837636 0.416708
vt 0.821754 0.494349
vt 0.110070 0.155656
vt 0.836087 0.300127
vt 0.821693 0.387174
vt 0.831603 0.381567
vt 0.821994 0.451323
vt 0.845633 0.263092
vt 0.822143 0.329708
vt 0.554899 0.738544
vt 0.549187 0.597292
vt 0.704724 0.612141
vt 0.074038 0.967154
vt 0.730130 0.689986
vt 0.708266 0.657354
vt 0.730130 0.637284
vt 0.711760 0.687287
vt 0.726995 0.222408
vt 0.709184 0.226648
vt 0.709184 0.174617
vt 0.729148 0.186451
vt 0.503116 0.145422
vt 0.517953 0.183139
vt 0.378664 0.086477
vt 0.431235 0.636632
vt 0.442439 0.614834
vt 0.448386 0.648754
vt 0.127894 0.808902
vt 0.839389 0.520558
vt 0.129582 0.694976
vt 0.130103 0.643948
vt 0.114461 0.179978
vt 0.831850 0.459858
vt 0.577654 0.161503
vt 0.585398 0.166103
vt 0.585206 0.212835
vt 0.571762 0.136348
vt 0.821380 0.265217
vt 0.831126 0.263092
vt 0.823923 0.292563
vt 0.476795 0.576989
vt 0.466462 0.557031
vt 0.481842 0.568526
vt 0.212612 0.705290
vt 0.836087 0.891838
vt 0.200960 0.641803
vt 0.200679 0.594706
vt 0.209741 0.616565
vt 0.128734 0.745495
vt 0.130598 0.602179
vt 0.113634 0.110325
vt 0.594610 0.711611
vt 0.605312 0.711611
vt 0.602221 0.739259
vt 0.621554 0.709780
vt 0.619128 0.675180
vt 0.594610 0.674916
vt 0.539381 0.238616
vt 0.706479 0.736920
vt 0.695284 0.714685
vt 0.706479 0.704457
vt 0.536238 0.136348
vt 0.537210 0.174940
vt 0.522676 0.138603
vt 0.201206 0.691828
vt 0.200541 0.741180
vt 0.276598 0.699770
vt 0.268918 0.667150
vt 0.201072 0.534318
vt 0.209540 0.543529
vt 0.275633 0.613292
vt 0.286805 0.662261
vt 0.285657 0.601114
vt 0.216539 0.558500
vt 0.219336 0.512711
vt 0.269082 0.567650
vt 0.275113 0.530768
vt 0.210192 0.446124
vt 0.219262 0.418521
vt 0.267889 0.486431
vt 0.201472 0.390156
vt 0.200541 0.445808
vt 0.201814 0.325355
vt 0.211838 0.338640
vt 0.220985 0.334155
vt 0.267032 0.385123
vt 0.265975 0.298492
vt 0.273017 0.313014
vt 0.212010 0.181156
vt 0.221895 0.157992
vt 0.220868 0.230293
vt 0.220532 0.113709
vt 0.212967 0.096821
vt 0.571762 0.232674
vt 0.836087 0.333792
vt 0.558858 0.572002
vt 0.627710 0.668943
vt 0.677867 0.206624
vt 0.677867 0.174617
vt 0.707566 0.176891
vt 0.374958 0.031896
vt 0.219297 0.662580
vt 0.219619 0.598521
vt 0.286471 0.695866
vt 0.283998 0.543305
vt 0.274959 0.472795
vt 0.283239 0.479906
vt 0.273990 0.400798
vt 0.282573 0.429396
vt 0.281112 0.378377
vt 0.211812 0.239153
vt 0.201873 0.249587
vt 0.281853 0.336608
vt 0.283715 0.284403
vt 0.282494 0.228914
vt 0.272177 0.227379
vt 0.265165 0.211058
vt 0.204263 0.157277
vt 0.206632 0.111776
vt 0.271549 0.163698
vt 0.263747 0.132798
vt 0.281618 0.126049
vt 0.202740 0.046603
vt 0.214880 0.003568
vt 0.221689 0.025595
vt 0.202008 0.005230
vt 0.270832 0.084853
vt 0.279609 0.085680
vt 0.278769 0.032096
vt 0.258167 0.014415
vt 0.276287 0.000000
vt 0.673141 0.636464
vt 0.706953 0.637284
vt 0.095984 0.854533
vt 0.220339 0.733390
vt 0.284247 0.734339
vt 0.118543 0.184358
vt 0.093366 0.923102
vt 0.706488 0.165247
vt 0.708114 0.129507
vt 0.728884 0.168670
vt 0.726724 0.090731
vt 0.737436 0.074914
vt 0.737436 0.108437
vt 0.709184 0.203280
vt 0.693155 0.221117
vt 0.683618 0.411590
vt 0.687732 0.364660
vt 0.706867 0.362910
vt 0.116876 0.143813
vt 0.728884 0.115579
vt 0.104229 0.739235
vt 0.371922 0.222323
vt 0.377472 0.173569
vt 0.616699 0.198491
vt 0.631926 0.197078
vt 0.652851 0.175045
vt 0.677831 0.193524
vt 0.116997 0.218319
vt 0.118395 0.112662
vt 0.466462 0.539932
vt 0.466462 0.498757
vt 0.482821 0.516581
vt 0.456464 0.728902
vt 0.431235 0.729241
vt 0.455661 0.698875
vt 0.431235 0.677860
vt 0.734001 0.059284
vt 0.722824 0.053215
vt 0.735550 0.049916
vt 0.722824 0.074914
vt 0.521664 0.036199
vt 0.545577 0.038127
vt 0.446366 0.559450
vt 0.466462 0.572696
vt 0.431235 0.592765
vt 0.431235 0.666907
vt 0.417244 0.689280
vt 0.454249 0.655174
vt 0.467431 0.654357
vt 0.447281 0.677860
vt 0.440172 0.592765
vt 0.459383 0.606995
vt 0.624102 0.174617
vt 0.683275 0.300471
vt 0.680630 0.266479
vt 0.704363 0.291046
vt 0.735336 0.305019
vt 0.763587 0.296273
vt 0.765214 0.323880
vt 0.757427 0.287526
vt 0.739190 0.289676
vt 0.757590 0.263092
vt 0.727016 0.263407
vt 0.094934 0.840954
vt 0.467431 0.624407
vt 0.586189 0.321920
vt 0.575776 0.266067
vt 0.594610 0.268068
vt 0.764093 0.553339
vt 0.740108 0.549779
vt 0.749718 0.505615
vt 0.696778 0.339659
vt 0.481842 0.539932
vt 0.581515 0.259372
vt 0.571763 0.232673
vt 0.587893 0.232673
vt 0.103038 0.795427
vt 0.756739 0.357560
vt 0.740784 0.352969
vt 0.682339 0.174487
vt 0.670434 0.156260
vt 0.683701 0.156260
vt 0.591067 0.512032
vt 0.558858 0.513102
vt 0.582726 0.496426
vt 0.580567 0.332399
vt 0.558092 0.319956
vt 0.687486 0.468030
vt 0.711268 0.431507
vt 0.094918 0.968933
vt 0.527114 0.084934
vt 0.508558 0.065306
vt 0.558858 0.566240
vt 0.520061 0.365128
vt 0.550403 0.327004
vt 0.546069 0.373066
vt 0.528363 0.319884
vt 0.571481 0.372609
vt 0.573261 0.395712
vt 0.680630 0.550399
vt 0.687040 0.505982
vt 0.711327 0.550238
vt 0.115631 0.951222
vt 0.590598 0.563486
vt 0.528720 0.387685
vt 0.734530 0.466650
vt 0.748992 0.431059
vt 0.751269 0.471693
vt 0.729986 0.367283
vt 0.695207 0.263928
vt 0.510220 0.377319
vt 0.371922 0.263092
vt 0.557034 0.263289
vt 0.713656 0.468827
vt 0.748824 0.399900
vt 0.116876 0.915623
vt 0.458290 0.525132
vt 0.505444 0.026213
vt 0.509825 0.014877
vt 0.527963 0.263092
vt 0.107863 0.967861
vt 0.487704 0.086073
vt 0.578755 0.455553
vt 0.579731 0.416029
vt 0.594610 0.410096
vt 0.499117 0.435888
vt 0.483872 0.393749
vt 0.521299 0.399308
vt 0.558227 0.407806
vt 0.444618 0.531796
vt 0.593507 0.483661
vt 0.562450 0.493817
vt 0.488761 0.047032
vt 0.495601 0.471354
vt 0.524611 0.489019
vt 0.488535 0.487628
vt 0.549641 0.496426
vt 0.431235 0.498757
s 1
usemtl Material.001
f 1/1/1 2/2/2 3/3/3
f 1/1/1 4/4/4 2/2/2
f 2/2/2 5/5/5 6/6/6
f 7/7/7 5/5/5 4/4/4
f 2/2/2 4/4/4 5/5/5
f 3/3/3 2/2/2 8/8/8
f 2/2/2 6/6/6 8/8/8
f 7/7/7 9/9/9 5/5/5
f 10/10/10 11/11/11 1/12/1
f 1/1/1 3/3/3 10/13/10
f 1/12/1 11/11/11 12/14/12
f 1/1/1 12/15/12 4/4/4
f 3/3/3 8/8/8 13/16/13
f 10/13/10 3/3/3 13/16/13
f 12/15/12 14/17/14 4/4/4
f 7/18/7 15/19/15 9/20/9
f 14/17/14 7/7/7 4/4/4
f 13/16/13 8/8/8 16/21/16
f 10/13/10 13/16/13 17/22/17
f 16/21/16 18/23/18 13/16/13
f 6/6/6 19/24/19 8/8/8
f 5/5/5 19/24/19 6/6/6
f 12/14/12 20/25/20 21/26/21
f 12/14/12 21/26/21 14/27/14
f 7/18/7 14/28/14 15/19/15
f 5/29/5 9/30/9 22/31/22
f 23/32/23 24/33/24 25/34/25
f 25/34/25 24/33/24 26/35/26
f 27/36/27 26/35/26 24/33/24
f 28/37/28 29/38/29 30/39/30
f 29/38/29 31/40/31 30/39/30
f 30/39/30 31/40/31 32/41/32
f 30/39/30 32/41/32 33/42/33
f 31/40/31 34/43/34 32/41/32
f 32/41/32 34/43/34 35/44/35
f 32/41/32 35/44/35 36/45/36
f 32/41/32 36/45/36 37/46/37
f 35/44/35 38/47/38 36/45/36
f 36/45/36 38/47/38 39/48/39
f 39/48/39 38/47/38 40/49/40
f 38/47/38 41/50/41 42/51/42
f 38/47/38 42/51/42 40/49/40
f 17/52/17 13/53/13 43/54/43
f 11/11/11 20/25/20 12/14/12
f 5/5/5 44/55/44 19/24/19
f 5/5/5 22/56/22 44/55/44
f 23/32/23 45/57/45 24/33/24
f 33/42/33 32/41/32 37/46/37
f 46/58/46 37/46/37 36/45/36
f 47/59/47 38/47/38 35/44/35
f 41/50/41 38/47/38 47/59/47
f 40/49/40 48/60/48 49/61/49
f 40/49/40 42/51/42 48/60/48
f 50/62/50 11/11/11 10/10/10
f 18/63/18 16/64/16 51/65/51
f 20/66/20 52/67/52 53/68/53
f 21/69/21 20/66/20 53/68/53
f 52/67/52 54/70/54 53/68/53
f 54/70/54 52/67/52 55/71/55
f 8/8/8 19/24/19 56/72/56
f 19/24/19 45/57/45 57/73/57
f 58/74/58 15/19/15 14/28/14
f 44/55/44 45/57/45 19/24/19
f 25/34/25 26/35/26 59/75/59
f 60/76/60 34/43/34 31/40/31
f 46/58/46 36/45/36 39/48/39
f 43/77/43 13/16/13 18/23/18
f 53/68/53 54/70/54 61/78/61
f 45/57/45 23/32/23 57/73/57
f 44/55/44 62/79/62 45/57/45
f 45/57/45 62/79/62 24/33/24
f 63/80/63 27/36/27 24/33/24
f 34/43/34 64/81/64 35/44/35
f 39/48/39 40/49/40 65/82/65
f 64/81/64 47/59/47 35/44/35
f 52/67/52 66/83/66 55/71/55
f 8/8/8 56/72/56 16/21/16
f 55/84/55 67/85/67 54/86/54
f 54/86/54 67/85/67 68/87/68
f 68/88/68 61/78/61 54/70/54
f 69/89/69 57/73/57 25/34/25
f 25/34/25 57/73/57 23/32/23
f 62/79/62 63/80/63 24/33/24
f 29/90/29 28/91/28 70/92/70
f 71/93/71 30/39/30 33/42/33
f 40/49/40 49/61/49 72/94/72
f 41/50/41 73/95/73 42/51/42
f 42/51/42 74/96/74 48/60/48
f 56/72/56 19/24/19 75/97/75
f 57/73/57 75/97/75 19/24/19
f 69/98/69 76/99/76 57/100/57
f 59/75/59 69/89/69 25/34/25
f 30/39/30 71/93/71 28/37/28
f 77/101/77 31/40/31 29/38/29
f 17/102/17 78/103/78 10/10/10
f 43/54/43 18/63/18 79/104/79
f 11/105/11 50/106/50 20/107/20
f 80/108/80 81/109/81 29/90/29
f 64/81/64 34/43/34 60/76/60
f 65/82/65 40/49/40 82/110/82
f 83/111/83 41/112/41 47/113/47
f 50/106/50 52/114/52 20/107/20
f 50/106/50 84/115/84 52/114/52
f 55/84/55 66/116/66 67/85/67
f 16/64/16 56/117/56 51/65/51
f 85/118/85 58/74/58 14/28/14
f 86/119/86 69/98/69 59/120/59
f 87/121/87 22/122/22 9/20/9
f 88/123/88 26/124/26 27/125/27
f 81/126/81 77/127/77 29/128/29
f 77/101/77 60/76/60 31/40/31
f 83/129/83 73/95/73 41/50/41
f 49/130/49 48/131/48 89/132/89
f 42/133/42 90/134/90 74/135/74
f 66/136/66 52/137/52 84/138/84
f 21/26/21 91/139/91 14/27/14
f 91/139/91 85/140/85 14/27/14
f 53/141/53 61/142/61 92/143/92
f 61/144/61 68/145/68 93/146/93
f 58/74/58 94/147/94 15/19/15
f 59/148/59 26/124/26 88/123/88
f 22/122/22 62/149/62 44/150/44
f 95/151/95 27/152/27 63/153/63
f 28/91/28 96/154/96 70/92/70
f 70/92/70 80/108/80 29/90/29
f 37/155/37 46/156/46 97/157/97
f 64/158/64 98/159/98 47/113/47
f 17/52/17 43/54/43 99/160/99
f 78/103/78 50/62/50 10/10/10
f 51/65/51 100/161/100 18/63/18
f 53/141/53 101/162/101 21/163/21
f 93/164/93 102/165/102 61/166/61
f 57/73/57 76/167/76 75/97/75
f 59/148/59 88/123/88 103/168/103
f 9/20/9 15/19/15 87/121/87
f 46/156/46 104/169/104 97/157/97
f 39/48/39 65/82/65 46/58/46
f 64/158/64 105/170/105 98/159/98
f 40/49/40 72/94/72 82/110/82
f 73/171/73 90/172/90 42/173/42
f 48/131/48 74/174/74 89/132/89
f 90/134/90 106/175/106 74/135/74
f 107/176/107 78/103/78 17/102/17
f 67/177/67 108/178/108 68/179/68
f 108/178/108 109/180/109 68/179/68
f 102/181/102 92/182/92 61/168/61
f 86/119/86 59/120/59 103/183/103
f 87/121/87 15/19/15 94/147/94
f 88/184/88 110/185/110 111/186/111
f 88/184/88 112/187/112 110/185/110
f 111/188/111 110/189/110 113/190/113
f 113/191/113 114/192/114 111/193/111
f 27/152/27 95/151/95 115/194/115
f 114/192/114 116/195/116 117/196/117
f 118/197/118 115/198/115 119/199/119
f 115/198/115 120/200/120 119/199/119
f 121/201/121 119/199/119 120/200/120
f 117/196/117 116/195/116 122/202/122
f 123/203/123 117/196/117 122/202/122
f 119/199/119 121/201/121 124/204/124
f 125/205/125 124/204/124 121/201/121
f 126/206/126 127/207/127 124/204/124
f 127/207/127 128/208/128 129/209/129
f 130/210/130 131/211/131 132/212/132
f 131/211/131 133/213/133 132/212/132
f 129/209/129 134/214/134 135/215/135
f 134/214/134 136/216/136 135/215/135
f 133/213/133 137/217/137 138/218/138
f 139/219/139 135/215/135 136/216/136
f 138/218/138 140/220/140 141/221/141
f 28/91/28 142/222/142 96/154/96
f 28/223/28 71/224/71 142/225/142
f 143/226/143 144/227/144 145/228/145
f 71/224/71 33/229/33 146/230/146
f 33/229/33 37/155/37 97/157/97
f 81/126/81 147/231/147 77/127/77
f 60/232/60 105/170/105 64/158/64
f 66/136/66 84/138/84 148/233/148
f 101/162/101 53/141/53 92/143/92
f 109/180/109 149/234/149 68/179/68
f 108/178/108 150/235/150 109/180/109
f 110/236/110 151/237/151 113/238/113
f 88/123/88 27/125/27 112/239/112
f 112/187/112 27/240/27 152/241/152
f 151/237/151 114/242/114 113/238/113
f 114/192/114 117/196/117 111/193/111
f 111/193/111 117/196/117 153/243/153
f 27/240/27 115/198/115 152/241/152
f 114/192/114 154/244/154 116/195/116
f 95/245/95 120/200/120 115/198/115
f 155/246/155 125/247/125 121/248/121
f 119/199/119 124/204/124 156/249/156
f 157/250/157 158/251/158 122/202/122
f 159/252/159 160/253/160 122/254/122
f 122/202/122 160/255/160 157/250/157
f 157/250/157 161/256/161 158/251/158
f 156/249/156 124/204/124 162/257/162
f 160/255/160 163/258/163 157/250/157
f 157/250/157 163/258/163 130/210/130
f 157/250/157 130/210/130 161/256/161
f 125/205/125 126/206/126 124/204/124
f 164/259/164 128/260/128 126/261/126
f 126/206/126 128/208/128 127/207/127
f 127/207/127 129/209/129 165/262/165
f 166/263/166 129/264/129 128/260/128
f 167/265/167 137/266/137 131/267/131
f 129/209/129 135/215/135 165/262/165
f 131/211/131 137/217/137 133/213/133
f 133/213/133 138/218/138 168/268/168
f 168/268/168 138/218/138 169/269/169
f 135/215/135 139/219/139 170/270/170
f 171/271/171 138/218/138 137/217/137
f 172/272/172 169/269/169 138/218/138
f 171/271/171 140/220/140 138/218/138
f 141/221/141 172/272/172 138/218/138
f 173/273/173 139/274/139 136/275/136
f 139/219/139 143/226/143 170/270/170
f 173/273/173 143/276/143 139/274/139
f 145/228/145 170/270/170 143/226/143
f 140/220/140 174/277/174 141/221/141
f 141/221/141 96/278/96 175/279/175
f 176/280/176 144/227/144 143/226/143
f 176/280/176 177/281/177 144/227/144
f 178/282/178 145/228/145 144/227/144
f 178/282/178 144/227/144 81/283/81
f 178/282/178 81/283/81 80/284/80
f 144/227/144 177/281/177 81/283/81
f 81/126/81 177/285/177 147/231/147
f 46/156/46 65/286/65 179/287/179
f 98/159/98 83/111/83 47/113/47
f 180/288/180 181/289/181 78/290/78
f 181/291/181 50/62/50 78/103/78
f 100/161/100 79/104/79 18/63/18
f 181/289/181 84/292/84 50/293/50
f 148/294/148 182/295/182 66/296/66
f 182/297/182 67/85/67 66/116/66
f 183/298/183 108/299/108 67/300/67
f 150/235/150 184/301/184 109/180/109
f 185/302/185 186/303/186 150/235/150
f 88/304/88 111/305/111 103/183/103
f 62/149/62 22/122/22 187/306/187
f 115/198/115 118/197/118 152/241/152
f 117/196/117 123/203/123 153/243/153
f 123/203/123 122/202/122 158/251/158
f 116/307/116 159/252/159 122/254/122
f 130/210/130 188/308/188 161/256/161
f 124/204/124 127/207/127 162/257/162
f 162/257/162 127/207/127 165/262/165
f 130/210/130 132/212/132 188/308/188
f 131/211/131 130/210/130 163/258/163
f 132/212/132 133/213/133 168/268/168
f 173/273/173 176/309/176 143/276/143
f 142/222/142 189/310/189 96/154/96
f 141/221/141 174/277/174 96/278/96
f 96/278/96 174/277/174 70/311/70
f 70/92/70 190/312/190 80/108/80
f 33/229/33 97/157/97 146/230/146
f 191/313/191 60/232/60 77/127/77
f 60/232/60 191/313/191 105/170/105
f 72/314/72 49/130/49 192/315/192
f 99/316/99 107/176/107 17/102/17
f 99/160/99 43/54/43 79/104/79
f 182/295/182 183/298/183 67/300/67
f 21/26/21 101/317/101 91/139/91
f 56/117/56 75/318/75 193/319/193
f 68/179/68 149/234/149 93/320/93
f 93/164/93 194/321/194 102/165/102
f 69/98/69 86/119/86 195/322/195
f 196/323/196 185/302/185 150/235/150
f 118/324/118 119/325/119 197/326/197
f 119/325/119 156/327/156 198/328/198
f 156/327/156 199/329/199 198/328/198
f 160/253/160 200/330/200 163/331/163
f 201/332/201 134/333/134 129/264/129
f 172/272/172 141/221/141 175/279/175
f 178/334/178 190/335/190 202/336/202
f 178/334/178 80/337/80 190/335/190
f 82/338/82 72/339/72 203/340/203
f 89/341/89 204/342/204 205/343/205
f 204/342/204 89/341/89 206/344/206
f 89/132/89 74/174/74 206/345/206
f 180/288/180 84/292/84 181/289/181
f 180/288/180 148/346/148 84/292/84
f 51/347/51 56/348/56 193/349/193
f 101/350/101 102/351/102 91/352/91
f 92/353/92 102/351/102 101/350/101
f 108/178/108 183/354/183 196/323/196
f 108/178/108 196/323/196 150/235/150
f 184/301/184 150/235/150 207/355/207
f 186/356/186 207/357/207 150/358/150
f 87/121/87 187/306/187 22/122/22
f 63/153/63 208/359/208 95/151/95
f 114/242/114 151/237/151 209/360/209
f 114/242/114 209/360/209 154/361/154
f 116/307/116 154/361/154 210/362/210
f 126/261/126 125/247/125 164/259/164
f 162/363/162 211/364/211 212/365/212
f 200/330/200 213/366/213 163/331/163
f 162/363/162 165/367/165 211/364/211
f 213/366/213 131/267/131 163/331/163
f 211/364/211 165/367/165 214/368/214
f 166/263/166 128/260/128 164/259/164
f 201/332/201 129/264/129 166/263/166
f 165/367/165 135/369/135 214/368/214
f 167/265/167 215/370/215 137/266/137
f 135/369/135 170/371/170 216/372/216
f 215/370/215 217/373/217 137/266/137
f 217/373/217 171/374/171 137/266/137
f 218/375/218 140/376/140 171/374/171
f 140/376/140 218/375/218 219/377/219
f 170/371/170 145/378/145 220/379/220
f 145/378/145 221/380/221 220/379/220
f 145/378/145 222/381/222 221/380/221
f 219/377/219 174/382/174 140/376/140
f 223/383/223 70/337/70 174/382/174
f 145/378/145 178/334/178 222/381/222
f 224/384/224 73/385/73 83/111/83
f 76/99/76 69/98/69 195/322/195
f 109/180/109 184/301/184 149/234/149
f 152/386/152 118/324/118 225/387/225
f 226/388/226 121/248/121 120/389/120
f 210/362/210 159/252/159 116/307/116
f 197/326/197 119/325/119 198/328/198
f 159/252/159 227/390/227 160/253/160
f 227/390/227 200/330/200 160/253/160
f 199/329/199 156/327/156 162/363/162
f 199/329/199 162/363/162 212/365/212
f 131/267/131 213/366/213 167/265/167
f 135/369/135 216/372/216 214/368/214
f 170/371/170 228/391/228 216/372/216
f 171/374/171 217/373/217 218/375/218
f 96/392/96 189/393/189 175/394/175
f 219/377/219 223/383/223 174/382/174
f 178/334/178 202/336/202 222/381/222
f 223/395/223 190/396/190 70/397/70
f 65/286/65 82/338/82 179/287/179
f 191/313/191 229/398/229 105/170/105
f 98/159/98 230/399/230 83/111/83
f 205/400/205 231/401/231 89/402/89
f 231/403/231 192/404/192 89/405/89
f 89/132/89 192/315/192 49/130/49
f 224/384/224 90/406/90 73/385/73
f 100/161/100 232/407/232 79/104/79
f 51/65/51 193/319/193 233/408/233
f 149/409/149 234/410/234 93/164/93
f 196/411/196 235/412/235 185/413/185
f 184/414/184 234/410/234 149/409/149
f 185/415/185 235/416/235 186/417/186
f 58/74/58 236/418/236 94/147/94
f 111/305/111 237/419/237 103/183/103
f 62/149/62 187/306/187 63/153/63
f 110/185/110 112/187/112 151/420/151
f 153/421/153 238/422/238 111/305/111
f 152/241/152 225/423/225 151/420/151
f 151/420/151 225/423/225 209/424/209
f 153/421/153 123/425/123 239/426/239
f 154/361/154 209/360/209 210/362/210
f 209/424/209 197/427/197 210/428/210
f 118/324/118 197/326/197 225/387/225
f 225/423/225 197/427/197 209/424/209
f 197/427/197 198/429/198 210/428/210
f 158/430/158 240/431/240 123/425/123
f 210/428/210 199/432/199 159/433/159
f 198/429/198 199/432/199 210/428/210
f 241/434/241 158/430/158 161/435/161
f 199/432/199 212/436/212 159/433/159
f 159/433/159 212/436/212 227/437/227
f 227/437/227 212/436/212 200/438/200
f 161/435/161 188/439/188 242/440/242
f 212/436/212 211/441/211 200/438/200
f 200/438/200 211/441/211 214/442/214
f 200/438/200 214/442/214 213/443/213
f 188/439/188 132/444/132 243/445/243
f 164/259/164 244/446/244 166/263/166
f 214/442/214 216/447/216 213/443/213
f 213/443/213 228/448/228 167/449/167
f 228/448/228 215/450/215 167/449/167
f 213/443/213 216/447/216 228/448/228
f 215/450/215 228/448/228 220/451/220
f 170/371/170 220/379/220 228/391/228
f 215/450/215 220/451/220 217/452/217
f 217/452/217 220/451/220 218/453/218
f 220/451/220 221/454/221 218/453/218
f 175/394/175 189/393/189 245/455/245
f 221/454/221 222/456/222 218/453/218
f 218/453/218 222/456/222 219/457/219
f 219/457/219 190/396/190 223/395/223
f 222/456/222 202/458/202 219/457/219
f 219/457/219 202/458/202 190/396/190
f 246/459/246 191/313/191 77/127/77
f 205/460/205 247/461/247 231/462/231
f 107/176/107 248/463/248 78/103/78
f 100/161/100 51/65/51 233/408/233
f 193/319/193 75/318/75 249/464/249
f 102/165/102 250/465/250 91/466/91
f 76/99/76 251/467/251 75/318/75
f 76/468/76 195/469/195 251/470/251
f 252/471/252 195/322/195 86/119/86
f 253/472/253 87/293/87 94/473/94
f 112/187/112 152/241/152 151/420/151
f 254/474/254 255/475/255 95/476/95
f 255/475/255 120/389/120 95/476/95
f 125/247/125 155/246/155 256/477/256
f 125/247/125 256/477/256 257/478/257
f 179/287/179 104/169/104 46/156/46
f 204/479/204 206/480/206 258/481/258
f 248/463/248 259/482/259 78/103/78
f 260/483/260 93/164/93 234/410/234
f 261/484/261 186/417/186 235/416/235
f 253/485/253 187/306/187 87/121/87
f 257/478/257 164/259/164 125/247/125
f 262/486/262 136/275/136 134/333/134
f 263/487/263 264/488/264 136/275/136
f 136/275/136 264/488/264 173/273/173
f 265/489/265 176/309/176 173/273/173
f 71/224/71 146/230/146 266/490/266
f 97/157/97 267/491/267 146/230/146
f 246/459/246 77/127/77 147/231/147
f 72/314/72 192/315/192 268/492/268
f 230/399/230 224/384/224 83/111/83
f 85/118/85 236/418/236 58/74/58
f 153/421/153 239/426/239 238/422/238
f 166/263/166 269/493/269 201/332/201
f 168/494/168 169/495/169 270/496/270
f 172/497/172 270/496/270 169/495/169
f 142/222/142 271/498/271 189/310/189
f 246/459/246 147/231/147 272/499/272
f 82/338/82 273/500/273 179/287/179
f 204/501/204 247/461/247 205/460/205
f 192/315/192 274/502/274 268/492/268
f 90/503/90 224/504/224 275/505/275
f 206/345/206 106/506/106 258/507/258
f 206/345/206 74/174/74 106/506/106
f 78/508/78 259/509/259 180/510/180
f 196/411/196 183/298/183 276/511/276
f 93/164/93 260/483/260 194/321/194
f 184/414/184 207/512/207 234/410/234
f 186/417/186 261/484/261 207/513/207
f 187/306/187 208/359/208 63/153/63
f 262/486/262 263/487/263 136/275/136
f 277/514/277 147/231/147 177/285/177
f 251/467/251 249/464/249 75/318/75
f 91/139/91 278/515/278 85/140/85
f 234/410/234 207/512/207 279/516/279
f 280/517/280 172/497/172 175/394/175
f 142/225/142 266/490/266 271/518/271
f 142/225/142 71/224/71 266/490/266
f 231/519/231 274/520/274 192/521/192
f 247/461/247 204/501/204 281/522/281
f 204/479/204 258/481/258 281/523/281
f 90/134/90 275/524/275 106/175/106
f 148/294/148 282/525/282 182/295/182
f 103/183/103 252/471/252 86/119/86
f 253/485/253 283/526/283 187/306/187
f 237/419/237 111/305/111 238/422/238
f 187/306/187 283/526/283 208/359/208
f 120/389/120 255/475/255 226/388/226
f 189/393/189 284/527/284 245/455/245
f 176/309/176 285/528/285 177/285/177
f 147/231/147 286/529/286 272/499/272
f 72/314/72 268/492/268 203/530/203
f 106/506/106 287/531/287 258/507/258
f 79/104/79 232/407/232 99/160/99
f 180/510/180 259/509/259 282/525/282
f 182/295/182 288/532/288 183/298/183
f 102/165/102 289/533/289 250/465/250
f 196/411/196 276/511/276 235/412/235
f 188/439/188 243/445/243 242/440/242
f 271/498/271 284/534/284 189/310/189
f 290/535/290 291/536/291 105/170/105
f 230/399/230 292/537/292 224/384/224
f 282/525/282 148/294/148 180/510/180
f 276/511/276 183/298/183 288/532/288
f 250/538/250 278/515/278 91/139/91
f 194/321/194 289/533/289 102/165/102
f 293/539/293 85/118/85 278/540/278
f 294/541/294 253/485/253 94/147/94
f 254/542/254 95/543/95 208/544/208
f 239/426/239 123/425/123 240/431/240
f 121/248/121 226/388/226 155/246/155
f 295/545/295 132/444/132 168/494/168
f 229/398/229 290/535/290 105/170/105
f 247/546/247 274/520/274 231/519/231
f 224/384/224 296/547/296 275/548/275
f 182/295/182 282/525/282 288/532/288
f 282/549/282 297/550/297 288/551/288
f 293/539/293 236/418/236 85/118/85
f 298/552/298 235/412/235 276/511/276
f 260/483/260 234/410/234 279/516/279
f 261/484/261 299/553/299 207/513/207
f 226/388/226 256/477/256 155/246/155
f 161/435/161 242/440/242 241/434/241
f 244/446/244 269/493/269 166/263/166
f 201/332/201 269/493/269 134/333/134
f 173/273/173 264/488/264 265/489/265
f 175/394/175 245/455/245 280/517/280
f 176/309/176 265/489/265 285/528/285
f 177/285/177 285/528/285 277/514/277
f 97/157/97 300/554/300 267/491/267
f 104/169/104 300/554/300 97/157/97
f 98/159/98 291/536/291 230/399/230
f 230/399/230 301/555/301 292/537/292
f 292/537/292 296/547/296 224/384/224
f 275/524/275 287/556/287 106/175/106
f 193/319/193 249/464/249 233/408/233
f 236/418/236 294/541/294 94/147/94
f 207/513/207 299/553/299 279/557/279
f 302/558/302 303/559/303 304/560/304
f 302/558/302 305/561/305 306/562/306
f 303/559/303 302/558/302 306/562/306
f 306/562/306 305/561/305 307/563/307
f 305/561/305 308/564/308 307/563/307
f 308/564/308 309/565/309 307/563/307
f 158/430/158 241/434/241 240/431/240
f 310/566/310 311/567/311 308/564/308
f 312/568/312 313/569/313 310/570/310
f 313/571/313 311/567/311 310/566/310
f 309/565/309 308/564/308 314/572/314
f 308/564/308 311/567/311 314/572/314
f 313/571/313 315/573/315 311/567/311
f 316/574/316 315/573/315 313/571/313
f 164/259/164 257/478/257 244/446/244
f 316/574/316 317/575/317 315/573/315
f 315/573/315 317/575/317 318/576/318
f 319/577/319 315/578/315 318/579/318
f 318/576/318 317/575/317 320/580/320
f 132/444/132 295/545/295 243/445/243
f 317/575/317 321/581/321 320/580/320
f 317/575/317 322/582/322 321/581/321
f 134/333/134 269/493/269 262/486/262
f 270/496/270 295/545/295 168/494/168
f 323/583/323 324/584/324 322/582/322
f 322/582/322 324/584/324 321/581/321
f 325/585/325 324/584/324 323/583/323
f 172/497/172 280/517/280 270/496/270
f 326/586/326 327/587/327 323/583/323
f 328/588/328 329/589/329 326/590/326
f 329/591/329 327/587/327 326/586/326
f 323/583/323 327/587/327 325/585/325
f 329/591/329 330/592/330 327/587/327
f 330/592/330 331/593/331 327/587/327
f 330/592/330 332/594/332 331/593/331
f 333/595/333 334/596/334 330/592/330
f 330/592/330 334/596/334 332/594/332
f 333/595/333 335/597/335 334/596/334
f 146/230/146 267/491/267 336/598/336
f 277/514/277 286/529/286 147/231/147
f 105/170/105 291/536/291 98/159/98
f 258/481/258 337/599/337 281/523/281
f 232/407/232 100/161/100 338/600/338
f 100/161/100 233/408/233 339/601/339
f 249/464/249 251/467/251 340/602/340
f 251/467/251 195/322/195 341/603/341
f 194/604/194 260/605/260 342/606/342
f 261/607/261 235/412/235 298/552/298
f 253/485/253 343/608/343 344/609/344
f 253/485/253 344/609/344 283/526/283
f 345/610/345 302/558/302 304/560/304
f 304/560/304 303/559/303 346/611/346
f 347/612/347 305/613/305 302/614/302
f 303/615/303 306/616/306 348/617/348
f 305/613/305 349/618/349 308/619/308
f 350/620/350 310/570/310 308/619/308
f 307/621/307 309/622/309 351/623/351
f 309/622/309 314/624/314 351/623/351
f 312/568/312 352/625/352 313/569/313
f 353/626/353 314/624/314 311/627/311
f 313/569/313 352/625/352 316/628/316
f 352/625/352 317/629/317 316/628/316
f 318/579/318 320/630/320 319/577/319
f 354/631/354 320/630/320 321/632/321
f 323/633/323 322/634/322 355/635/355
f 354/631/354 321/632/321 324/636/324
f 280/517/280 356/637/356 270/496/270
f 328/588/328 357/638/357 329/589/329
f 327/639/327 358/640/358 325/641/325
f 329/589/329 357/638/357 330/642/330
f 327/639/327 331/643/331 358/640/358
f 271/518/271 266/490/266 359/644/359
f 360/645/360 104/169/104 179/287/179
f 258/507/258 287/531/287 337/646/337
f 99/160/99 232/407/232 107/647/107
f 259/648/259 361/649/361 282/650/282
f 259/648/259 362/651/362 361/649/361
f 363/652/363 250/653/250 289/654/289
f 363/652/363 289/654/289 364/655/364
f 288/532/288 298/552/298 276/511/276
f 195/322/195 252/471/252 341/603/341
f 279/656/279 365/657/365 260/605/260
f 103/183/103 237/419/237 252/471/252
f 283/526/283 366/658/366 208/359/208
f 304/659/304 346/660/346 345/661/345
f 308/619/308 349/618/349 350/620/350
f 307/621/307 348/617/348 306/616/306
f 256/477/256 367/662/367 257/478/257
f 311/627/311 315/578/315 353/626/353
f 317/629/317 368/663/368 322/634/322
f 244/446/244 369/664/369 269/493/269
f 369/664/369 370/665/370 269/493/269
f 320/630/320 354/631/354 319/577/319
f 295/545/295 270/496/270 371/666/371
f 354/631/354 324/636/324 372/667/372
f 323/633/323 355/635/355 326/590/326
f 355/635/355 328/588/328 326/590/326
f 324/636/324 325/641/325 372/667/372
f 325/641/325 358/640/358 372/667/372
f 373/668/373 333/669/333 330/670/330
f 373/668/373 335/671/335 333/669/333
f 334/672/334 374/673/374 332/674/332
f 266/490/266 146/230/146 336/598/336
f 300/554/300 104/169/104 360/645/360
f 246/459/246 272/499/272 191/313/191
f 272/499/272 229/398/229 191/313/191
f 282/675/282 361/676/361 375/677/375
f 233/408/233 249/464/249 339/601/339
f 260/605/260 365/657/365 342/606/342
f 376/678/376 302/558/302 345/610/345
f 376/679/376 347/612/347 302/614/302
f 238/680/238 239/681/239 377/682/377
f 347/612/347 349/618/349 305/613/305
f 348/617/348 307/621/307 351/623/351
f 312/568/312 310/570/310 350/620/350
f 351/623/351 314/624/314 353/626/353
f 257/478/257 378/683/378 244/446/244
f 244/446/244 378/683/378 369/664/369
f 317/629/317 352/625/352 368/663/368
f 368/663/368 355/635/355 322/634/322
f 269/493/269 379/684/379 262/486/262
f 262/486/262 379/684/379 263/487/263
f 280/517/280 380/685/380 356/637/356
f 374/686/374 334/687/334 335/688/335
f 247/689/247 281/686/281 274/690/274
f 281/686/281 337/691/337 274/690/274
f 288/551/288 297/550/297 381/692/381
f 342/693/342 289/694/289 194/695/194
f 261/696/261 298/697/298 299/698/299
f 365/657/365 279/656/279 299/698/299
f 237/699/237 376/678/376 252/700/252
f 376/678/376 237/699/237 238/680/238
f 346/611/346 303/559/303 382/701/382
f 303/559/303 348/702/348 382/701/382
f 239/681/239 240/703/240 383/704/383
f 382/701/382 384/705/384 226/706/226
f 384/705/384 256/707/256 226/706/226
f 350/708/350 383/704/383 312/709/312
f 348/702/348 351/710/351 384/705/384
f 384/705/384 351/710/351 385/711/385
f 312/709/312 386/712/386 352/713/352
f 351/710/351 353/714/353 385/711/385
f 242/715/242 386/712/386 241/716/241
f 367/662/367 378/683/378 257/478/257
f 242/715/242 243/717/243 387/718/387
f 353/626/353 315/578/315 319/577/319
f 352/713/352 387/718/387 368/719/368
f 370/665/370 379/684/379 269/493/269
f 319/720/319 354/721/354 388/722/388
f 270/496/270 356/637/356 371/666/371
f 371/723/371 328/724/328 355/725/355
f 371/723/371 357/726/357 328/724/328
f 389/727/389 330/592/330 357/726/357
f 380/685/380 280/517/280 245/455/245
f 330/670/330 389/728/389 373/668/373
f 331/643/331 332/674/332 390/729/390
f 390/729/390 332/674/332 374/673/374
f 267/491/267 300/554/300 336/598/336
f 360/645/360 179/287/179 391/730/391
f 301/555/301 230/399/230 291/536/291
f 268/731/268 274/690/274 337/691/337
f 341/603/341 340/602/340 251/467/251
f 381/692/381 365/657/365 288/551/288
f 288/551/288 365/657/365 298/697/298
f 381/692/381 342/606/342 365/657/365
f 298/697/298 365/657/365 299/698/299
f 343/732/343 253/733/253 294/734/294
f 366/658/366 254/735/254 208/359/208
f 238/680/238 377/682/377 376/678/376
f 376/678/376 377/682/377 347/736/347
f 347/736/347 377/682/377 349/737/349
f 377/682/377 383/704/383 349/737/349
f 377/682/377 239/681/239 383/704/383
f 382/701/382 226/706/226 255/738/255
f 349/737/349 383/704/383 350/708/350
f 384/705/384 382/701/382 348/702/348
f 383/704/383 240/703/240 386/712/386
f 240/703/240 241/716/241 386/712/386
f 383/704/383 386/712/386 312/709/312
f 384/705/384 385/711/385 256/707/256
f 385/711/385 367/739/367 256/707/256
f 353/714/353 392/740/392 385/711/385
f 385/711/385 378/741/378 367/739/367
f 385/711/385 392/740/392 378/741/378
f 386/712/386 242/715/242 387/718/387
f 352/713/352 386/712/386 387/718/387
f 392/740/392 353/714/353 393/742/393
f 353/714/353 319/720/319 393/742/393
f 393/742/393 369/743/369 392/740/392
f 378/741/378 392/740/392 369/743/369
f 393/742/393 370/744/370 369/743/369
f 387/718/387 243/717/243 394/745/394
f 243/717/243 295/746/295 394/745/394
f 394/745/394 368/719/368 387/718/387
f 368/719/368 394/745/394 355/725/355
f 393/742/393 319/720/319 388/722/388
f 393/742/393 379/747/379 370/744/370
f 393/742/393 388/722/388 379/747/379
f 388/722/388 263/748/263 379/747/379
f 295/746/295 371/723/371 394/745/394
f 264/749/264 263/748/263 388/722/388
f 388/722/388 354/721/354 395/750/395
f 264/749/264 388/722/388 395/750/395
f 354/721/354 372/751/372 395/750/395
f 355/725/355 394/745/394 371/723/371
f 371/723/371 356/752/356 389/727/389
f 356/752/356 380/753/380 389/727/389
f 396/754/396 395/750/395 372/751/372
f 396/754/396 264/749/264 395/750/395
f 372/751/372 358/755/358 396/754/396
f 264/749/264 396/754/396 265/756/265
f 380/753/380 245/757/245 389/727/389
f 389/727/389 397/758/397 373/759/373
f 284/760/284 397/758/397 245/757/245
f 358/755/358 390/761/390 396/754/396
f 396/754/396 390/761/390 265/756/265
f 358/640/358 331/643/331 390/729/390
f 265/756/265 390/761/390 285/762/285
f 285/762/285 390/761/390 277/763/277
f 373/759/373 397/758/397 335/597/335
f 390/761/390 374/764/374 277/763/277
f 335/597/335 286/765/286 374/764/374
f 203/530/203 268/492/268 398/766/398
f 399/767/399 337/646/337 287/531/287
f 100/161/100 339/601/339 338/600/338
f 249/464/249 340/602/340 400/768/400
f 252/700/252 376/678/376 401/769/401
f 376/678/376 345/610/345 401/769/401
f 346/611/346 255/738/255 254/770/254
f 346/611/346 382/701/382 255/738/255
f 389/727/389 357/726/357 371/723/371
f 245/757/245 397/758/397 389/727/389
f 266/490/266 336/598/336 359/644/359
f 374/764/374 286/765/286 277/763/277
f 272/499/272 402/771/402 229/398/229
f 179/287/179 273/500/273 391/730/391
f 82/338/82 203/340/203 273/500/273
f 232/407/232 403/772/403 107/647/107
f 363/773/363 364/774/364 404/775/404
f 364/776/364 289/777/289 405/778/405
f 294/734/294 406/779/406 407/780/407
f 300/781/300 360/782/360 408/783/408
f 229/398/229 409/784/409 290/535/290
f 364/774/364 405/785/405 404/775/404
f 410/786/410 341/603/341 252/471/252
f 236/418/236 411/787/411 294/541/294
f 411/787/411 406/788/406 294/541/294
f 294/734/294 407/780/407 343/732/343
f 397/789/397 284/534/284 271/498/271
f 335/790/335 412/791/412 286/792/286
f 413/793/413 272/499/272 286/529/286
f 409/784/409 229/398/229 402/771/402
f 414/794/414 301/555/301 291/536/291
f 415/795/415 203/796/203 398/797/398
f 268/492/268 337/646/337 399/767/399
f 362/798/362 416/799/416 361/800/361
f 417/801/417 361/800/361 416/799/416
f 375/802/375 297/803/297 282/804/282
f 375/802/375 417/805/417 297/803/297
f 404/806/404 250/538/250 363/807/363
f 400/808/400 339/809/339 249/810/249
f 404/806/404 278/515/278 250/538/250
f 289/811/289 342/405/342 405/812/405
f 401/813/401 410/814/410 252/815/252
f 344/609/344 366/658/366 283/526/283
f 254/816/254 418/817/418 346/660/346
f 397/789/397 419/818/419 335/790/335
f 413/793/413 402/771/402 272/499/272
f 273/819/273 203/820/203 415/821/415
f 398/766/398 268/492/268 399/767/399
f 420/822/420 296/823/296 292/824/292
f 275/825/275 421/826/421 287/827/287
f 421/826/421 399/828/399 287/827/287
f 340/602/340 341/603/341 422/829/422
f 411/787/411 236/418/236 293/539/293
f 345/661/345 423/830/423 401/813/401
f 345/661/345 346/660/346 418/817/418
f 366/831/366 418/832/418 254/833/254
f 286/834/286 412/835/412 413/836/413
f 360/782/360 391/837/391 408/783/408
f 361/676/361 417/838/417 375/677/375
f 340/602/340 422/829/422 400/768/400
f 381/839/381 405/840/405 342/841/342
f 341/603/341 410/786/410 424/842/424
f 401/813/401 423/830/423 410/814/410
f 290/535/290 414/794/414 291/536/291
f 301/843/301 425/844/425 292/824/292
f 425/844/425 420/822/420 292/824/292
f 297/845/297 417/846/417 381/847/381
f 417/848/417 405/849/405 381/850/381
f 341/603/341 424/842/424 422/829/422
f 344/851/344 426/852/426 366/831/366
f 271/498/271 419/818/419 397/789/397
f 336/853/336 300/781/300 427/854/427
f 409/784/409 414/794/414 290/535/290
f 420/822/420 421/826/421 296/823/296
f 107/647/107 403/772/403 248/855/248
f 259/482/259 248/463/248 362/856/362
f 248/463/248 416/857/416 362/856/362
f 404/858/404 405/849/405 417/848/417
f 422/859/422 428/860/428 429/861/429
f 428/860/428 422/859/422 424/862/424
f 343/863/343 407/864/407 429/861/429
f 429/861/429 428/860/428 343/863/343
f 428/860/428 344/851/344 343/863/343
f 428/860/428 426/852/426 344/851/344
f 426/852/426 418/832/418 366/831/366
f 345/661/345 418/817/418 423/830/423
f 271/865/271 359/866/359 419/867/419
f 419/818/419 412/791/412 335/790/335
f 421/826/421 275/825/275 296/823/296
f 248/855/248 403/772/403 430/868/430
f 403/772/403 232/407/232 338/600/338
f 416/869/416 404/858/404 417/848/417
f 431/870/431 422/859/422 429/861/429
f 432/871/432 409/872/409 402/873/402
f 433/874/433 425/844/425 301/843/301
f 415/821/415 398/875/398 399/828/399
f 400/876/400 422/859/422 431/870/431
f 278/540/278 434/877/434 293/539/293
f 424/862/424 426/852/426 428/860/428
f 423/878/423 418/832/418 426/852/426
f 419/867/419 359/866/359 435/879/435
f 359/866/359 336/853/336 435/879/435
f 336/853/336 427/854/427 435/879/435
f 413/836/413 432/871/432 402/873/402
f 300/781/300 408/783/408 427/854/427
f 433/874/433 414/880/414 409/872/409
f 414/880/414 433/874/433 301/843/301
f 273/819/273 415/821/415 391/837/391
f 415/821/415 399/828/399 421/826/421
f 338/600/338 436/881/436 403/772/403
f 400/808/400 437/882/437 339/809/339
f 404/806/404 438/883/438 278/515/278
f 438/883/438 434/884/434 278/515/278
f 424/862/424 410/885/410 423/878/423
f 424/862/424 423/878/423 426/852/426
f 419/867/419 413/836/413 412/835/412
f 419/867/419 432/871/432 413/836/413
f 419/867/419 435/879/435 432/871/432
f 435/879/435 427/854/427 432/871/432
f 427/854/427 433/874/433 432/871/432
f 432/871/432 433/874/433 409/872/409
f 427/854/427 408/783/408 433/874/433
f 391/837/391 420/822/420 408/783/408
f 433/874/433 408/783/408 425/844/425
f 391/837/391 415/821/415 420/822/420
f 408/783/408 420/822/420 425/844/425
f 415/821/415 421/826/421 420/822/420
f 248/855/248 430/868/430 439/886/439
f 248/463/248 439/887/439 416/857/416
f 338/600/338 339/601/339 436/881/436
f 411/888/411 440/889/440 406/890/406
f 406/890/406 440/889/440 407/864/407
f 430/868/430 403/772/403 436/881/436
f 404/806/404 416/857/416 438/883/438
f 436/891/436 339/892/339 437/893/437
f 429/861/429 407/864/407 441/894/441
f 441/894/441 407/864/407 440/889/440
f 431/895/431 437/882/437 400/808/400
f 293/896/293 434/897/434 411/888/411
f 439/887/439 442/898/442 438/883/438
f 439/887/439 438/883/438 416/857/416
f 440/889/440 411/888/411 441/894/441
f 430/899/430 442/900/442 439/901/439
f 429/861/429 441/894/441 431/870/431
f 438/902/438 442/900/442 434/897/434
f 437/882/437 431/895/431 441/903/441
f 430/899/430 436/891/436 442/900/442
f 436/891/436 437/893/437 442/900/442
f 442/900/442 441/894/441 434/897/434
f 442/900/442 437/893/437 441/894/441
f 441/894/441 411/888/411 434/897/434
