# Blender 4.4.0
# www.blender.org
# mtl  Meshy_AI__0426182437_texture.mtl
o Meshy_AI__0426182437_texture
v 0.176660 0.997150 0.141277
v 0.188271 0.725015 0.139973
v 0.181378 0.998656 -0.131064
v 0.192990 0.726521 -0.132368
v 0.160680 0.998494 0.137651
v 0.172292 0.726359 0.136347
v 0.165398 1.000000 -0.134690
v 0.177010 0.727865 -0.135994
v 0.146554 0.145065 0.020296
v 0.143246 0.141443 -0.036273
v 0.130731 0.146412 0.007742
v 0.129530 0.142848 -0.042112
v -0.190927 -0.998389 0.156657
v -0.202572 -0.726253 0.156913
v -0.203575 -0.998675 -0.115434
v -0.215220 -0.726538 -0.115179
v -0.175060 -0.999715 0.152561
v -0.186705 -0.727578 0.152817
v -0.187708 -1.000000 -0.119530
v -0.199353 -0.727863 -0.119274
v -0.164357 -0.145766 0.038676
v -0.162698 -0.141890 -0.017949
v -0.148907 -0.147055 0.025660
v -0.149159 -0.143267 -0.024192
v -0.190927 -0.491756 0.897179
v -0.202572 -0.314700 0.690517
v -0.203575 -0.698736 0.720563
v -0.215220 -0.521680 0.513901
v -0.175060 -0.495731 0.895525
v -0.186705 -0.318674 0.688863
v -0.187708 -0.702711 0.718909
v -0.199353 -0.525654 0.512247
v -0.164357 -0.027303 0.172495
v -0.162698 -0.067820 0.132748
v -0.148907 -0.038033 0.165015
v -0.149159 -0.073459 0.129737
v -0.190927 -0.753119 -0.637858
v -0.202572 -0.563848 -0.442320
v -0.203575 -0.557990 -0.827486
v -0.215220 -0.368719 -0.631948
v -0.175060 -0.751101 -0.641661
v -0.186705 -0.561831 -0.446123
v -0.187708 -0.555973 -0.831289
v -0.199353 -0.366702 -0.635751
v -0.164358 -0.074849 -0.107919
v -0.162698 -0.031502 -0.144557
v -0.148907 -0.066403 -0.117905
v -0.149159 -0.027979 -0.149891
v -0.190927 0.783290 0.695562
v -0.202572 0.610482 0.485334
v -0.203575 0.573441 0.868759
v -0.215220 0.400633 0.658531
v -0.175060 0.780972 0.699189
v -0.186705 0.608163 0.488961
v -0.187708 0.571122 0.872386
v -0.199353 0.398314 0.662158
v -0.164357 0.150181 0.112418
v -0.162698 0.104007 0.145423
v -0.148907 0.140953 0.121687
v -0.149159 0.100064 0.150455
v -0.190927 0.997150 -0.141718
v -0.202572 0.725015 -0.140753
v -0.203575 0.998656 0.130370
v -0.215220 0.726521 0.131335
v -0.175060 0.998494 -0.137628
v -0.186705 0.726359 -0.136663
v -0.187708 1.000000 0.134460
v -0.199353 0.727865 0.135425
v -0.164357 0.145065 -0.019912
v -0.162698 0.141443 0.036730
v -0.148907 0.146412 -0.006902
v -0.149159 0.142848 0.042966
v -0.190927 0.551913 -0.889414
v -0.202572 0.379162 -0.679139
v -0.203575 0.762496 -0.717111
v -0.215220 0.589746 -0.506836
v -0.175060 0.555921 -0.887843
v -0.186705 0.383170 -0.677567
v -0.187708 0.766504 -0.715539
v -0.199353 0.593753 -0.505264
v -0.164358 0.102526 -0.155292
v -0.162698 0.143855 -0.116391
v -0.148907 0.113408 -0.148036
v -0.149159 0.149555 -0.113497
v 0.198436 0.551913 0.888656
v 0.203951 0.379162 0.678131
v 0.206060 0.762496 0.716057
v 0.211576 0.589746 0.505532
v 0.182529 0.555921 0.887547
v 0.188045 0.383170 0.677022
v 0.190154 0.766504 0.714948
v 0.195670 0.593754 0.504423
v 0.150497 0.102526 0.155619
v 0.147705 0.143855 0.116782
v 0.134842 0.113408 0.148815
v 0.134087 0.149555 0.114284
v 0.152274 0.783290 -0.695647
v 0.170037 0.610482 -0.485848
v 0.159873 0.573441 -0.869140
v 0.177635 0.400633 -0.659340
v 0.136308 0.780971 -0.698811
v 0.154071 0.608163 -0.489011
v 0.143907 0.571122 -0.872303
v 0.161669 0.398314 -0.662504
v 0.142700 0.150181 -0.111977
v 0.140080 0.104007 -0.144921
v 0.126986 0.140953 -0.120792
v 0.126400 0.100064 -0.149556
v 0.191109 -0.753119 0.637206
v 0.197054 -0.563848 0.441412
v 0.209275 -0.557990 0.826386
v 0.215220 -0.368720 0.630592
v 0.175360 -0.751101 0.641470
v 0.181305 -0.561831 0.445676
v 0.193525 -0.555972 0.830649
v 0.199470 -0.366702 0.634855
v 0.149117 -0.074850 0.108266
v 0.148526 -0.031502 0.144937
v 0.133964 -0.066403 0.118698
v 0.135147 -0.027979 0.150663
v 0.146402 -0.491756 -0.897179
v 0.164061 -0.314700 -0.690944
v 0.164189 -0.698736 -0.721007
v 0.181848 -0.521680 -0.514771
v 0.130590 -0.495731 -0.895064
v 0.148249 -0.318674 -0.688828
v 0.148377 -0.702711 -0.718891
v 0.166035 -0.525654 -0.512655
v 0.140950 -0.027303 -0.172028
v 0.140449 -0.067820 -0.132250
v 0.125724 -0.038033 -0.164102
v 0.127003 -0.073460 -0.128846
v 0.167970 -0.998389 -0.156971
v 0.179602 -0.726252 -0.157566
v 0.188537 -0.998674 0.114636
v 0.200169 -0.726538 0.114041
v 0.152228 -0.999715 -0.152415
v 0.163861 -0.727578 -0.153010
v 0.172796 -1.000000 0.119193
v 0.184428 -0.727863 0.118598
v 0.144848 -0.145766 -0.038266
v 0.144838 -0.141890 0.018383
v 0.129783 -0.147055 -0.024806
v 0.131486 -0.143267 0.025017
vn 0.6080 -0.0900 0.7888
vn 0.6476 0.5762 -0.4986
vn 0.5110 0.5496 0.6609
vn -0.5824 -0.0508 -0.8113
vn -0.5044 0.5843 -0.6358
vn -0.6237 0.6015 0.4992
vn -0.7610 -0.0572 0.6463
vn -0.7628 -0.5609 0.3219
vn 0.5756 -0.7208 -0.3862
vn -0.5321 -0.5782 -0.6185
vn 0.7775 -0.0633 -0.6257
vn 0.3523 -0.6389 0.6839
vn -0.5848 0.0864 0.8066
vn -0.6619 -0.5740 -0.4821
vn -0.4916 -0.5526 0.6730
vn 0.5586 0.0545 -0.8277
vn 0.4857 -0.5813 -0.6528
vn 0.7795 0.0544 0.6241
vn 0.6380 -0.6036 0.4781
vn 0.7719 0.5595 0.3020
vn -0.5866 0.7225 -0.3660
vn 0.5138 0.5811 -0.6311
vn -0.7954 0.0661 -0.6025
vn -0.3322 0.6358 0.6967
vn -0.5848 0.6691 0.4585
vn -0.6619 -0.7395 0.1229
vn -0.4916 0.1524 0.8574
vn 0.5586 -0.5936 -0.5794
vn 0.4857 -0.8739 0.0176
vn 0.7795 0.5097 0.3642
vn 0.6380 -0.0289 0.7695
vn 0.7718 0.5932 -0.2290
vn -0.5866 0.1914 -0.7869
vn 0.5138 -0.1020 -0.8518
vn -0.7954 -0.4150 -0.4418
vn -0.3322 0.9427 -0.0304
vn -0.5848 -0.5188 0.6235
vn -0.6619 -0.0535 -0.7477
vn -0.4915 -0.8679 0.0718
vn 0.5586 0.6321 -0.5370
vn 0.4857 0.0639 -0.8718
vn 0.6380 -0.7634 -0.1005
vn 0.7795 -0.4101 0.4735
vn 0.7718 0.1727 0.6119
vn -0.5866 0.7657 0.2638
vn 0.5138 0.8576 -0.0222
vn -0.7954 0.4785 -0.3720
vn -0.3322 -0.0575 0.9415
vn -0.4916 0.8708 -0.0013
vn -0.7954 -0.5070 0.3320
vn -0.6618 -0.0073 0.7496
vn 0.5586 -0.6736 0.4841
vn 0.4857 -0.1343 0.8637
vn 0.6380 0.7528 0.1620
vn 0.7795 0.4471 -0.4388
vn 0.7718 -0.1226 -0.6239
vn -0.5866 -0.7418 -0.3250
vn 0.5138 -0.8566 -0.0473
vn -0.3322 0.1336 -0.9337
vn -0.5848 0.5677 -0.5795
vn -0.5848 -0.0900 -0.8062
vn -0.6619 0.5762 0.4796
vn -0.4916 0.5496 -0.6755
vn 0.5586 -0.0508 0.8279
vn 0.4857 0.5843 0.6502
vn 0.6380 0.6015 -0.4808
vn 0.7795 -0.0572 -0.6238
vn 0.7718 -0.5609 -0.2995
vn -0.5866 -0.7208 0.3693
vn 0.5138 -0.5782 0.6337
vn -0.7954 -0.0633 0.6028
vn -0.3322 -0.6389 -0.6939
vn -0.5848 -0.6785 -0.4446
vn -0.6619 0.7368 -0.1382
vn -0.4916 -0.1700 -0.8541
vn 0.5586 0.6054 0.5670
vn 0.4857 0.8734 -0.0356
vn 0.7795 -0.5171 -0.3536
vn 0.6380 0.0130 -0.7700
vn 0.7718 -0.5883 0.2411
vn -0.5866 -0.1751 0.7907
vn 0.5138 0.1196 0.8495
vn -0.7954 0.4240 0.4331
vn -0.3322 -0.9419 0.0499
vn 0.5163 -0.1700 0.8394
vn 0.7825 0.4240 -0.4561
vn 0.6656 0.7368 0.1188
vn -0.5748 0.6054 -0.5505
vn -0.4845 0.8734 0.0497
vn -0.7688 -0.5171 0.3762
vn -0.6153 0.0130 0.7882
vn -0.7785 -0.5883 -0.2186
vn 0.5633 -0.1751 -0.8075
vn -0.5384 0.1196 -0.8342
vn 0.3306 -0.9419 -0.0595
vn 0.5975 -0.6785 0.4274
vn 0.6014 0.5677 0.5622
vn 0.6397 -0.0073 -0.7686
vn 0.4914 0.8708 -0.0130
vn -0.5724 -0.6736 -0.4676
vn -0.5107 -0.1343 -0.8492
vn -0.6425 0.7528 -0.1433
vn -0.7663 0.4471 0.4613
vn -0.7533 -0.1226 0.6461
vn 0.5958 -0.7418 0.3078
vn -0.5123 -0.8566 0.0623
vn 0.7854 -0.5070 -0.3550
vn 0.3592 0.1336 0.9236
vn 0.4893 -0.8679 -0.0861
vn 0.8059 0.4785 0.3487
vn 0.6833 -0.0535 0.7282
vn -0.5427 0.6321 0.5531
vn -0.4602 0.0639 0.8855
vn -0.7929 -0.4101 -0.4506
vn -0.6348 -0.7635 0.1190
vn -0.7893 0.1727 -0.5892
vn 0.5787 0.7657 -0.2808
vn -0.5130 0.8576 0.0372
vn 0.3046 -0.0575 -0.9507
vn 0.5664 -0.5189 -0.6403
vn 0.4664 0.1524 -0.8713
vn 0.8079 -0.4150 0.4184
vn 0.6580 -0.7395 -0.1421
vn -0.5415 -0.5936 0.5954
vn -0.4860 -0.8739 -0.0034
vn -0.7897 0.5097 -0.3414
vn -0.6601 -0.0289 -0.7506
vn -0.7649 0.5932 0.2513
vn 0.6093 0.1914 0.7695
vn -0.4888 -0.1020 0.8664
vn 0.3329 0.9427 0.0207
vn 0.5712 0.6692 -0.4754
vn 0.4718 -0.5526 -0.6870
vn 0.8126 0.0660 0.5790
vn 0.6756 -0.5740 0.4627
vn -0.5342 0.0545 0.8436
vn -0.4665 -0.5813 0.6667
vn -0.7973 0.0544 -0.6011
vn -0.6516 -0.6036 -0.4594
vn -0.7803 0.5595 -0.2794
vn 0.5970 0.7225 0.3488
vn -0.4953 0.5811 0.6458
vn 0.3118 0.6358 -0.7061
vn 0.5611 0.0864 -0.8233
vt 0.075432 0.744840
vt 0.075432 0.604337
vt 0.145683 0.674589
vt 0.022187 0.002074
vt 0.016235 0.100693
vt 0.016235 0.001342
vt 0.118220 0.846265
vt 0.118220 0.705763
vt 0.188471 0.776015
vt 0.000387 0.002073
vt 0.006339 0.100693
vt 0.000387 0.101425
vt 0.148968 0.669573
vt 0.694127 0.413596
vt 0.640244 0.625982
vt 0.594778 0.413596
vt 0.006339 0.118677
vt 0.001344 0.134705
vt 0.001344 0.116469
vt 0.220282 0.562592
vt 0.000361 0.562592
vt 0.004218 0.542244
vt 0.322053 0.814372
vt 0.328047 0.598060
vt 0.328047 0.814570
vt 0.795899 0.353177
vt 0.801892 0.136600
vt 0.801892 0.353403
vt 0.999986 0.201265
vt 0.900638 0.101916
vt 0.999987 0.101916
vt 0.229791 0.073390
vt 0.223839 0.172008
vt 0.223839 0.072658
vt 0.896977 0.060763
vt 0.896977 0.201265
vt 0.826727 0.131014
vt 0.207992 0.040110
vt 0.213943 0.138727
vt 0.207992 0.139459
vt 0.526611 0.000492
vt 0.532481 0.098616
vt 0.526611 0.099840
vt 0.000377 0.290384
vt 0.219490 0.290384
vt 0.024808 0.386683
vt 0.040963 0.053259
vt 0.045958 0.037232
vt 0.045958 0.055467
vt 0.554668 0.011455
vt 0.554668 0.231376
vt 0.534320 0.227518
vt 0.294766 0.598231
vt 0.288773 0.814570
vt 0.288773 0.598033
vt 0.797484 0.804835
vt 0.803476 0.588260
vt 0.803476 0.805061
vt 0.979385 0.548329
vt 0.880036 0.448979
vt 0.979385 0.448979
vt 0.380344 0.204927
vt 0.374392 0.303543
vt 0.374392 0.204195
vt 0.814049 0.705221
vt 0.814049 0.564719
vt 0.884299 0.634969
vt 0.000387 0.322201
vt 0.006339 0.420816
vt 0.000387 0.421548
vt 0.460051 0.288916
vt 0.465921 0.387043
vt 0.460051 0.388268
vt 0.362119 0.362119
vt 0.143006 0.362119
vt 0.337687 0.265820
vt 0.207604 0.302582
vt 0.202052 0.318426
vt 0.202689 0.300201
vt 0.457997 0.548329
vt 0.238075 0.548329
vt 0.241932 0.527981
vt 0.331561 0.814372
vt 0.337555 0.598064
vt 0.337555 0.814570
vt 0.811400 0.000544
vt 0.805408 0.217113
vt 0.805408 0.000319
vt 0.034227 0.855774
vt 0.034227 0.715272
vt 0.104479 0.785523
vt 0.038034 0.002075
vt 0.032083 0.100693
vt 0.032083 0.001343
vt 0.655456 0.767027
vt 0.655456 0.626524
vt 0.725707 0.696775
vt 0.366468 0.206512
vt 0.372420 0.305128
vt 0.366468 0.305860
vt 0.107764 0.780507
vt 0.553574 0.700466
vt 0.607459 0.488080
vt 0.652923 0.700466
vt 0.016634 0.439769
vt 0.022187 0.423925
vt 0.021549 0.442150
vt 0.543575 0.320481
vt 0.543575 0.540405
vt 0.523227 0.536548
vt 0.310614 0.598251
vt 0.304621 0.814570
vt 0.304621 0.598054
vt 0.792383 0.168515
vt 0.786391 0.385098
vt 0.786391 0.168289
vt 0.874791 0.701008
vt 0.874791 0.841511
vt 0.804540 0.771259
vt 0.237715 0.089238
vt 0.231763 0.187855
vt 0.231763 0.088507
vt 0.312199 0.856264
vt 0.212849 0.955614
vt 0.212849 0.856264
vt 0.350620 0.209681
vt 0.356572 0.308297
vt 0.350620 0.309029
vt 0.633906 0.099840
vt 0.628036 0.001719
vt 0.633906 0.000495
vt 0.304275 0.000376
vt 0.304275 0.219490
vt 0.207976 0.024809
vt 0.000787 0.281292
vt 0.006339 0.265449
vt 0.005701 0.283673
vt 0.455620 0.524557
vt 0.235695 0.524557
vt 0.239552 0.504210
vt 0.302690 0.598245
vt 0.296697 0.814570
vt 0.296697 0.598048
vt 0.805407 0.264430
vt 0.811400 0.047874
vt 0.811400 0.264656
vt 0.527090 0.824078
vt 0.527090 0.683576
vt 0.597340 0.753827
vt 0.221867 0.055958
vt 0.215915 0.154575
vt 0.215915 0.055226
vt 0.340088 0.817739
vt 0.340088 0.677237
vt 0.410339 0.747487
vt 0.008311 0.003658
vt 0.014263 0.102278
vt 0.008311 0.103010
vt 0.600626 0.748810
vt 0.667676 0.404115
vt 0.721561 0.191730
vt 0.767027 0.404115
vt 0.357359 0.332005
vt 0.362911 0.316162
vt 0.362274 0.334386
vt 0.534320 0.220282
vt 0.534320 0.000360
vt 0.554668 0.004217
vt 0.297853 0.582207
vt 0.514136 0.589533
vt 0.297618 0.588199
vt 0.738848 0.808004
vt 0.744840 0.591430
vt 0.744840 0.808230
vt 0.995233 0.302690
vt 0.895883 0.203341
vt 0.995233 0.203341
vt 0.364496 0.209681
vt 0.358544 0.308298
vt 0.358544 0.208949
vt 0.457997 0.702593
vt 0.457997 0.843095
vt 0.387747 0.772843
vt 0.024159 0.003659
vt 0.030111 0.102278
vt 0.024159 0.103010
vt 0.444203 0.082895
vt 0.450073 0.181024
vt 0.444203 0.182248
vt 0.305439 0.219490
vt 0.305439 0.000378
vt 0.401738 0.195059
vt 0.232961 0.461058
vt 0.227408 0.476902
vt 0.228046 0.458678
vt 0.248380 0.550167
vt 0.468298 0.550167
vt 0.464442 0.570516
vt 0.805407 0.762075
vt 0.811400 0.545740
vt 0.811400 0.762272
vt 0.789560 0.318311
vt 0.795552 0.101732
vt 0.795552 0.318538
vt 0.216019 0.955614
vt 0.315368 0.856264
vt 0.315368 0.955614
vt 0.436198 0.373273
vt 0.442150 0.274656
vt 0.442150 0.374005
vt 0.434716 0.938181
vt 0.534066 0.838831
vt 0.534066 0.938181
vt 0.440565 0.204435
vt 0.434613 0.105815
vt 0.440565 0.105083
vt 0.458466 0.124101
vt 0.464336 0.222228
vt 0.458466 0.223452
vt 0.604286 0.256732
vt 0.658170 0.044346
vt 0.703636 0.256732
vt 0.015049 0.400150
vt 0.020602 0.384306
vt 0.019964 0.402530
vt 0.545413 0.450866
vt 0.545413 0.230947
vt 0.565761 0.234803
vt 0.314129 0.814372
vt 0.320123 0.598058
vt 0.320123 0.814570
vt 0.798722 0.426835
vt 0.792730 0.643415
vt 0.792730 0.426608
vt 0.601574 0.865282
vt 0.601574 0.724781
vt 0.671824 0.795032
vt 0.388268 0.203343
vt 0.382316 0.301958
vt 0.382316 0.202611
vt 0.735331 0.689916
vt 0.735331 0.830417
vt 0.665081 0.760167
vt 0.116075 0.861015
vt 0.122027 0.959637
vt 0.116075 0.960368
vt 0.675110 0.790015
vt 0.107876 0.346585
vt 0.304275 0.443734
vt 0.087079 0.443734
vt 0.000787 0.519007
vt 0.006339 0.503164
vt 0.005701 0.521388
vt 0.297501 0.508964
vt 0.517426 0.508964
vt 0.513569 0.529312
vt 0.811400 0.498385
vt 0.805407 0.714729
vt 0.805407 0.498189
vt 0.759450 0.782648
vt 0.765442 0.566063
vt 0.765442 0.782874
vt 0.676174 0.922334
vt 0.676174 0.781832
vt 0.746425 0.852083
vt 0.452045 0.416061
vt 0.457997 0.317446
vt 0.457997 0.416793
vt 0.810879 0.407285
vt 0.810879 0.266782
vt 0.881130 0.337034
vt 0.524557 0.167985
vt 0.518606 0.069372
vt 0.524557 0.068640
vt 0.540405 0.329631
vt 0.534535 0.231508
vt 0.540405 0.230283
vt 0.642321 0.624398
vt 0.696204 0.412012
vt 0.741670 0.624398
vt 0.600626 0.448380
vt 0.595074 0.464224
vt 0.595711 0.445999
vt 0.440565 0.568931
vt 0.220646 0.568931
vt 0.224503 0.548583
vt 0.318538 0.598254
vt 0.312544 0.814570
vt 0.312544 0.598057
vt 0.784806 0.792156
vt 0.790798 0.575574
vt 0.790798 0.792383
vt 0.114103 0.778662
vt 0.114103 0.919164
vt 0.043852 0.848914
vt 0.457997 0.112157
vt 0.452046 0.210774
vt 0.452046 0.111426
vt 0.938181 0.099840
vt 0.838831 0.000490
vt 0.938181 0.000490
vt 0.453243 0.374005
vt 0.447291 0.275389
vt 0.453243 0.274657
vt 0.420432 0.127269
vt 0.426302 0.225397
vt 0.420432 0.226622
vt 0.337077 0.414220
vt 0.434226 0.217821
vt 0.434226 0.435018
vt 0.475430 0.540297
vt 0.469877 0.556140
vt 0.470515 0.537916
vt 0.236490 0.526396
vt 0.456413 0.526396
vt 0.452554 0.546744
vt 0.335970 0.598261
vt 0.329977 0.814570
vt 0.329977 0.598064
vt 0.808230 0.355526
vt 0.802238 0.572100
vt 0.802238 0.355300
vt 0.824569 0.925503
vt 0.923918 0.826153
vt 0.923918 0.925503
vt 0.473845 0.315009
vt 0.467893 0.413624
vt 0.467893 0.314277
vt 0.326462 0.462752
vt 0.227112 0.363401
vt 0.326462 0.363401
vt 0.426302 0.202850
vt 0.420350 0.104227
vt 0.426302 0.103495
vt 0.444203 0.255635
vt 0.450073 0.353763
vt 0.444203 0.354988
vt 0.288427 0.289220
vt 0.069313 0.289220
vt 0.263996 0.192921
vt 0.044373 0.079058
vt 0.039378 0.095086
vt 0.039378 0.076851
vt 0.563384 0.344256
vt 0.563384 0.564177
vt 0.543036 0.560319
vt 0.465921 0.595074
vt 0.459928 0.811400
vt 0.459928 0.594877
vt 0.792730 0.685978
vt 0.798722 0.469398
vt 0.798722 0.686204
vt 0.877960 0.483354
vt 0.807709 0.413103
vt 0.877960 0.342851
vt 0.022187 0.101425
vt 0.887469 0.632322
vt 0.817218 0.562071
vt 0.887469 0.491820
vt 0.006339 0.001341
vt 0.191757 0.770997
vt 0.595872 0.219490
vt 0.577894 0.003442
vt 0.595872 0.000383
vt 0.000787 0.244054
vt 0.000787 0.223343
vt 0.006339 0.228210
vt 0.096671 0.220282
vt 0.000733 0.194470
vt 0.096671 0.000361
vt 0.591714 0.438188
vt 0.591715 0.220990
vt 0.599041 0.221902
vt 0.773366 0.071414
vt 0.773366 0.288427
vt 0.767921 0.287998
vt 0.671941 0.824568
vt 0.671941 0.923918
vt 0.572591 0.923918
vt 0.229791 0.172739
vt 0.823557 0.133662
vt 0.893808 0.203914
vt 0.823557 0.274164
vt 0.213943 0.039378
vt 0.522973 0.214304
vt 0.517102 0.215528
vt 0.517102 0.116179
vt 0.338724 0.581609
vt 0.554778 0.563632
vt 0.557837 0.581609
vt 0.000787 0.174324
vt 0.000787 0.153614
vt 0.006339 0.158481
vt 0.019958 0.541990
vt 0.000590 0.444546
vt 0.217113 0.444546
vt 0.217905 0.600626
vt 0.000710 0.600626
vt 0.001623 0.593299
vt 0.755243 0.217113
vt 0.755243 0.000091
vt 0.760688 0.000520
vt 0.597457 0.896977
vt 0.527206 0.826727
vt 0.597457 0.756476
vt 0.380344 0.304275
vt 0.818803 0.788171
vt 0.889054 0.858421
vt 0.818803 0.928673
vt 0.006339 0.321469
vt 0.516634 0.488469
vt 0.510763 0.489693
vt 0.510763 0.390344
vt 0.219490 0.563632
vt 0.003432 0.581609
vt 0.000374 0.563632
vt 0.207604 0.323292
vt 0.486965 0.409682
vt 0.506333 0.507125
vt 0.289809 0.507125
vt 0.600626 0.194057
vt 0.600626 0.411247
vt 0.593299 0.410335
vt 0.780599 0.353403
vt 0.780599 0.136395
vt 0.786044 0.136824
vt 0.814048 0.422090
vt 0.884299 0.492341
vt 0.814048 0.562592
vt 0.038034 0.101425
vt 0.881620 0.349139
vt 0.980970 0.349139
vt 0.980970 0.448489
vt 0.372419 0.205780
vt 0.728992 0.691759
vt 0.575270 0.219490
vt 0.557293 0.003431
vt 0.575270 0.000371
vt 0.016634 0.419059
vt 0.206812 0.220282
vt 0.110874 0.194469
vt 0.206812 0.000362
vt 0.000699 0.583791
vt 0.217905 0.583791
vt 0.216992 0.591118
vt 0.782184 0.789213
vt 0.782184 0.572207
vt 0.787629 0.572636
vt 0.463815 0.765984
vt 0.534066 0.836235
vt 0.463815 0.906486
vt 0.237715 0.188587
vt 0.814049 0.000542
vt 0.884299 0.070794
vt 0.814049 0.141044
vt 0.356572 0.208949
vt 0.532481 0.200041
vt 0.526611 0.201265
vt 0.526611 0.101919
vt 0.555709 0.000370
vt 0.573685 0.216432
vt 0.555709 0.219490
vt 0.000787 0.260583
vt 0.648660 0.001574
vt 0.748009 0.001574
vt 0.705799 0.213943
vt 0.512477 0.217905
vt 0.512477 0.000694
vt 0.519803 0.001606
vt 0.777430 0.217113
vt 0.777430 0.000103
vt 0.782874 0.000534
vt 0.893808 0.347064
vt 0.823557 0.276813
vt 0.893808 0.206562
vt 0.221867 0.155307
vt 0.099840 0.925503
vt 0.000491 0.925503
vt 0.000491 0.826153
vt 0.014263 0.002926
vt 0.413624 0.742472
vt 0.579479 0.305451
vt 0.597457 0.521499
vt 0.579479 0.524557
vt 0.357359 0.311295
vt 0.696203 0.405690
vt 0.795552 0.405690
vt 0.753342 0.618059
vt 0.515049 0.582207
vt 0.764752 0.362911
vt 0.764752 0.145896
vt 0.770196 0.146325
vt 0.891129 0.649754
vt 0.891129 0.550404
vt 0.990479 0.550404
vt 0.364496 0.309029
vt 0.814570 0.851510
vt 0.814570 0.950859
vt 0.715220 0.950859
vt 0.030111 0.002927
vt 0.494916 0.370965
vt 0.500786 0.369741
vt 0.500786 0.469091
vt 0.437395 0.569971
vt 0.221343 0.587948
vt 0.218284 0.569971
vt 0.232961 0.481769
vt 0.286843 0.801891
vt 0.187493 0.801891
vt 0.229703 0.589523
vt 0.456413 0.594287
vt 0.239207 0.594287
vt 0.240121 0.586960
vt 0.774261 0.779705
vt 0.774261 0.562693
vt 0.779705 0.563122
vt 0.413624 0.738501
vt 0.343373 0.668250
vt 0.413624 0.597999
vt 0.436198 0.351818
vt 0.436198 0.252469
vt 0.442150 0.253201
vt 0.878451 0.773856
vt 0.977800 0.773856
vt 0.977800 0.873206
vt 0.339682 0.672976
vt 0.508710 0.472621
vt 0.502840 0.473845
vt 0.502840 0.374495
vt 0.000378 0.583194
vt 0.216430 0.565217
vt 0.219490 0.583194
vt 0.015049 0.379440
vt 0.219139 0.444546
vt 0.238507 0.541990
vt 0.021985 0.541990
vt 0.217905 0.592702
vt 0.000699 0.592702
vt 0.001613 0.585376
vt 0.767921 0.768611
vt 0.767921 0.551596
vt 0.773366 0.552026
vt 0.163722 0.903316
vt 0.163722 0.803966
vt 0.263071 0.803966
vt 0.388268 0.302690
vt 0.849925 0.672431
vt 0.949275 0.672431
vt 0.949275 0.771781
vt 0.122027 0.860283
vt 0.661795 0.765183
vt 0.576310 0.000382
vt 0.594287 0.216432
vt 0.576310 0.219490
vt 0.000787 0.498297
vt 0.097403 0.000362
vt 0.193341 0.026175
vt 0.097403 0.220282
vt 0.414221 0.251978
vt 0.414221 0.034763
vt 0.421548 0.035677
vt 0.751179 0.041279
vt 0.751179 0.258317
vt 0.745735 0.257888
vt 0.000542 0.604339
vt 0.070793 0.674589
vt 0.000542 0.744840
vt 0.390240 0.299521
vt 0.390240 0.200168
vt 0.396191 0.200899
vt 0.381929 0.919164
vt 0.311677 0.848913
vt 0.381929 0.778663
vt 0.074484 0.669863
vt 0.014263 0.426662
vt 0.008393 0.427887
vt 0.008393 0.328534
vt 0.591118 0.437395
vt 0.573140 0.221343
vt 0.591118 0.218285
vt 0.600626 0.469091
vt 0.316181 0.019958
vt 0.413624 0.000589
vt 0.413624 0.217113
vt 0.601223 0.312199
vt 0.601223 0.095014
vt 0.608550 0.095927
vt 0.758413 0.353403
vt 0.758413 0.136386
vt 0.763857 0.136816
vt 0.604338 0.269953
vt 0.674588 0.340203
vt 0.604338 0.410454
vt 0.429859 0.166400
vt 0.429859 0.067048
vt 0.435811 0.067781
vt 0.384577 0.775493
vt 0.454828 0.845744
vt 0.384577 0.915995
vt 0.678280 0.335478
vt 0.513933 0.423262
vt 0.519803 0.422039
vt 0.519803 0.521388
vt 0.578439 0.513464
vt 0.560462 0.297406
vt 0.578439 0.294347
vt 0.475430 0.561007
vt 0.414436 0.019958
vt 0.511879 0.000590
vt 0.511879 0.217113
vt 0.596469 0.217905
vt 0.596469 0.000720
vt 0.603796 0.001633
vt 0.744840 0.025430
vt 0.744838 0.242469
vt 0.739395 0.242038
vt 0.468048 0.597999
vt 0.538298 0.668250
vt 0.468048 0.738501
vt 0.328434 0.462752
vt 0.328434 0.363404
vt 0.334386 0.364136
vt 0.747488 0.775493
vt 0.817739 0.845744
vt 0.747488 0.915995
vt 0.541990 0.663524
vt 0.620112 0.001718
vt 0.625982 0.000494
vt 0.625982 0.099840
vt 0.564424 0.364081
vt 0.582401 0.580136
vt 0.564424 0.583194
vt 0.213943 0.142520
vt 0.213943 0.163231
vt 0.208391 0.158364
vt 0.435038 0.233901
vt 0.532481 0.214533
vt 0.532481 0.431056
vt 0.353317 0.590130
vt 0.570516 0.590130
vt 0.569601 0.597457
vt 0.612614 0.217113
vt 0.612614 0.000087
vt 0.618059 0.000518
s 1
usemtl Material.014
f 2/1/1 3/2/2 1/3/3
f 3/4/2 8/5/4 7/6/5
f 8/7/4 5/8/6 7/9/5
f 6/10/7 1/11/3 5/12/6
f 3/2/2 5/13/6 1/3/3
f 8/14/4 11/15/8 6/16/7
f 10/17/9 11/18/8 12/19/10
f 4/20/11 9/21/12 10/22/9
f 6/23/7 9/24/12 2/25/1
f 4/26/11 12/27/10 8/28/4
f 14/29/13 15/30/14 13/31/15
f 15/32/14 20/33/16 19/34/17
f 19/35/17 18/36/18 17/37/19
f 18/38/18 13/39/15 17/40/19
f 15/41/14 17/42/19 13/43/15
f 20/44/16 23/45/20 18/46/18
f 22/47/21 23/48/20 24/49/22
f 16/50/23 21/51/24 22/52/21
f 18/53/18 21/54/24 14/55/13
f 16/56/23 24/57/22 20/58/16
f 26/59/25 27/60/26 25/61/27
f 27/62/26 32/63/28 31/64/29
f 31/65/29 30/66/30 29/67/31
f 30/68/30 25/69/27 29/70/31
f 27/71/26 29/72/31 25/73/27
f 32/74/28 35/75/32 30/76/30
f 34/77/33 35/78/32 36/79/34
f 28/80/35 33/81/36 34/82/33
f 30/83/30 33/84/36 26/85/25
f 28/86/35 36/87/34 32/88/28
f 38/89/37 39/90/38 37/91/39
f 39/92/38 44/93/40 43/94/41
f 44/95/40 41/96/42 43/97/41
f 42/98/43 37/99/39 41/100/42
f 39/90/38 41/101/42 37/91/39
f 44/102/40 47/103/44 42/104/43
f 46/105/45 47/106/44 48/107/46
f 40/108/47 45/109/48 46/110/45
f 42/111/43 45/112/48 38/113/37
f 40/114/47 48/115/46 44/116/40
f 49/117/49 52/118/50 51/119/51
f 51/120/51 56/121/52 55/122/53
f 56/123/52 53/124/54 55/125/53
f 54/126/55 49/127/49 53/128/54
f 51/129/51 53/130/54 49/131/49
f 56/132/52 59/133/56 54/134/55
f 58/135/57 59/136/56 60/137/58
f 52/138/50 57/139/59 58/140/57
f 54/141/55 57/142/59 50/143/60
f 52/144/50 60/145/58 56/146/52
f 62/147/61 63/148/62 61/149/63
f 63/150/62 68/151/64 67/152/65
f 68/153/64 65/154/66 67/155/65
f 66/156/67 61/157/63 65/158/66
f 63/148/62 65/159/66 61/149/63
f 68/160/64 71/161/68 66/162/67
f 70/163/69 71/164/68 72/165/70
f 64/166/71 69/167/72 70/168/69
f 66/169/67 69/170/72 62/171/61
f 64/172/71 72/173/70 68/174/64
f 74/175/73 75/176/74 73/177/75
f 75/178/74 80/179/76 79/180/77
f 79/181/77 78/182/78 77/183/79
f 78/184/78 73/185/75 77/186/79
f 75/187/74 77/188/79 73/189/75
f 80/190/76 83/191/80 78/192/78
f 82/193/81 83/194/80 84/195/82
f 76/196/83 81/197/84 82/198/81
f 78/199/78 81/200/84 74/201/73
f 76/202/83 84/203/82 80/204/76
f 85/205/85 88/206/86 87/207/87
f 87/208/87 92/209/88 91/210/89
f 91/211/89 90/212/90 89/213/91
f 90/214/90 85/215/85 89/216/91
f 87/217/87 89/218/91 85/219/85
f 92/220/88 95/221/92 90/222/90
f 94/223/93 95/224/92 96/225/94
f 88/226/86 93/227/95 94/228/93
f 90/229/90 93/230/95 86/231/96
f 88/232/86 96/233/94 92/234/88
f 98/235/97 99/236/98 97/237/99
f 99/238/98 104/239/100 103/240/101
f 104/241/100 101/242/102 103/243/101
f 102/244/103 97/245/99 101/246/102
f 99/236/98 101/247/102 97/237/99
f 104/248/100 107/249/104 102/250/103
f 106/251/105 107/252/104 108/253/106
f 100/254/107 105/255/108 106/256/105
f 102/257/103 105/258/108 98/259/97
f 100/260/107 108/261/106 104/262/100
f 109/263/109 112/264/110 111/265/111
f 111/266/111 116/267/112 115/268/113
f 115/269/113 114/270/114 113/271/115
f 114/272/114 109/273/109 113/274/115
f 111/275/111 113/276/115 109/277/109
f 116/278/112 119/279/116 114/280/114
f 118/281/117 119/282/116 120/283/118
f 112/284/110 117/285/119 118/286/117
f 114/287/114 117/288/119 110/289/120
f 112/290/110 120/291/118 116/292/112
f 121/293/121 124/294/122 123/295/123
f 123/296/123 128/297/124 127/298/125
f 127/299/125 126/300/126 125/301/127
f 126/302/126 121/303/121 125/304/127
f 123/305/123 125/306/127 121/307/121
f 128/308/124 131/309/128 126/310/126
f 130/311/129 131/312/128 132/313/130
f 124/314/122 129/315/131 130/316/129
f 126/317/126 129/318/131 122/319/132
f 124/320/122 132/321/130 128/322/124
f 133/323/133 136/324/134 135/325/135
f 135/326/135 140/327/136 139/328/137
f 139/329/137 138/330/138 137/331/139
f 138/332/138 133/333/133 137/334/139
f 135/335/135 137/336/139 133/337/133
f 140/338/136 143/339/140 138/340/138
f 142/341/141 143/342/140 144/343/142
f 136/344/134 141/345/143 142/346/141
f 138/347/138 141/348/143 134/349/144
f 136/350/134 144/351/142 140/352/136
f 2/353/1 4/354/11 3/355/2
f 3/4/2 4/356/11 8/5/4
f 8/357/4 6/358/7 5/359/6
f 6/10/7 2/360/1 1/11/3
f 3/361/2 7/9/5 5/8/6
f 8/362/4 12/363/10 11/364/8
f 10/365/9 9/366/12 11/367/8
f 4/368/11 2/369/1 9/370/12
f 6/371/7 11/372/8 9/373/12
f 4/374/11 10/375/9 12/376/10
f 14/377/13 16/378/23 15/379/14
f 15/32/14 16/380/23 20/33/16
f 19/381/17 20/382/16 18/383/18
f 18/38/18 14/384/13 13/39/15
f 15/385/14 19/386/17 17/387/19
f 20/388/16 24/389/22 23/390/20
f 22/391/21 21/392/24 23/393/20
f 16/394/23 14/395/13 21/396/24
f 18/397/18 23/398/20 21/399/24
f 16/400/23 22/401/21 24/402/22
f 26/403/25 28/404/35 27/405/26
f 27/62/26 28/406/35 32/63/28
f 31/407/29 32/408/28 30/409/30
f 30/68/30 26/410/25 25/69/27
f 27/411/26 31/412/29 29/413/31
f 32/414/28 36/415/34 35/416/32
f 34/77/33 33/417/36 35/78/32
f 28/418/35 26/419/25 33/420/36
f 30/421/30 35/422/32 33/423/36
f 28/424/35 34/425/33 36/426/34
f 38/427/37 40/428/47 39/429/38
f 39/92/38 40/430/47 44/93/40
f 44/431/40 42/432/43 41/433/42
f 42/98/43 38/434/37 37/99/39
f 39/435/38 43/97/41 41/96/42
f 44/436/40 48/437/46 47/438/44
f 46/105/45 45/439/48 47/106/44
f 40/440/47 38/441/37 45/442/48
f 42/443/43 47/444/44 45/445/48
f 40/446/47 46/447/45 48/448/46
f 49/449/49 50/450/60 52/451/50
f 51/120/51 52/452/50 56/121/52
f 56/453/52 54/454/55 53/455/54
f 54/126/55 50/456/60 49/127/49
f 51/457/51 55/458/53 53/459/54
f 56/460/52 60/461/58 59/462/56
f 58/135/57 57/463/59 59/136/56
f 52/464/50 50/465/60 57/466/59
f 54/467/55 59/468/56 57/469/59
f 52/470/50 58/471/57 60/472/58
f 62/473/61 64/474/71 63/475/62
f 63/150/62 64/476/71 68/151/64
f 68/477/64 66/478/67 65/479/66
f 66/156/67 62/480/61 61/157/63
f 63/481/62 67/155/65 65/154/66
f 68/482/64 72/483/70 71/484/68
f 70/163/69 69/485/72 71/164/68
f 64/486/71 62/487/61 69/488/72
f 66/169/67 71/489/68 69/170/72
f 64/490/71 70/491/69 72/492/70
f 74/493/73 76/494/83 75/495/74
f 75/178/74 76/496/83 80/179/76
f 79/497/77 80/498/76 78/499/78
f 78/184/78 74/500/73 73/185/75
f 75/501/74 79/502/77 77/503/79
f 80/504/76 84/505/82 83/506/80
f 82/193/81 81/507/84 83/194/80
f 76/508/83 74/509/73 81/510/84
f 78/511/78 83/512/80 81/513/84
f 76/514/83 82/515/81 84/516/82
f 85/517/85 86/518/96 88/519/86
f 87/520/87 88/521/86 92/522/88
f 91/523/89 92/524/88 90/525/90
f 90/526/90 86/518/96 85/517/85
f 87/527/87 91/528/89 89/529/91
f 92/530/88 96/531/94 95/532/92
f 94/223/93 93/533/95 95/224/92
f 88/534/86 86/535/96 93/536/95
f 90/537/90 95/538/92 93/539/95
f 88/540/86 94/541/93 96/542/94
f 98/543/97 100/544/107 99/545/98
f 99/238/98 100/546/107 104/239/100
f 104/547/100 102/548/103 101/549/102
f 102/244/103 98/550/97 97/245/99
f 99/551/98 103/243/101 101/242/102
f 104/552/100 108/553/106 107/554/104
f 106/251/105 105/555/108 107/252/104
f 100/556/107 98/557/97 105/558/108
f 102/559/103 107/560/104 105/561/108
f 100/562/107 106/563/105 108/564/106
f 109/565/109 110/566/120 112/567/110
f 111/568/111 112/569/110 116/570/112
f 115/571/113 116/572/112 114/573/114
f 114/574/114 110/566/120 109/565/109
f 111/575/111 115/576/113 113/577/115
f 116/578/112 120/579/118 119/580/116
f 118/281/117 117/581/119 119/282/116
f 112/582/110 110/583/120 117/584/119
f 114/585/114 119/586/116 117/587/119
f 112/588/110 118/589/117 120/590/118
f 121/591/121 122/592/132 124/593/122
f 123/594/123 124/595/122 128/596/124
f 127/597/125 128/598/124 126/599/126
f 126/600/126 122/592/132 121/591/121
f 123/601/123 127/602/125 125/603/127
f 128/604/124 132/605/130 131/606/128
f 130/311/129 129/607/131 131/312/128
f 124/608/122 122/609/132 129/610/131
f 126/611/126 131/612/128 129/613/131
f 124/614/122 130/615/129 132/616/130
f 133/617/133 134/618/144 136/619/134
f 135/620/135 136/621/134 140/622/136
f 139/623/137 140/624/136 138/625/138
f 138/626/138 134/618/144 133/617/133
f 135/627/135 139/628/137 137/629/139
f 140/630/136 144/631/142 143/632/140
f 142/633/141 141/634/143 143/635/140
f 136/636/134 134/637/144 141/638/143
f 138/639/138 143/640/140 141/641/143
f 136/642/134 142/643/141 144/644/142
